<svg width="100" height="100" viewBox="0 0 100 100" fill="none" xmlns="http://www.w3.org/2000/svg">
<path d="M57.3866 0H8.3626C3.75565 0 0 3.42506 0 7.62646V78H5.00756V22.514H60.6916V77.9543H65.6992V7.62646C65.7492 3.42506 61.9936 0 57.3866 0ZM60.7417 17.9473H5.05762V7.58079C5.05762 5.8911 6.55987 4.52107 8.41266 4.52107H57.4367C59.2895 4.52107 60.7918 5.8911 60.7918 7.58079V17.9473H60.7417Z" fill="#FF782D"/>
<path d="M45.5685 41.0551V36.4427V31.8303H40.5109H15.1726H10.115V36.4427V78.0001H15.1726V36.4427H40.5109V41.0551V78.0001H45.5685V54.8924H50.6262V78.0001H55.6838V54.8924V50.8736V50.28H45.5685V41.0551Z" fill="#8CA4AF"/>
<path d="M25.2883 41.0549H20.2307V45.6673H25.2883V41.0549Z" fill="#67767D"/>
<path d="M35.4529 41.0549H30.3953V45.6673H35.4529V41.0549Z" fill="#67767D"/>
<path d="M25.2883 50.2798H20.2307V54.8922H25.2883V50.2798Z" fill="#67767D"/>
<path d="M35.4529 50.2798H30.3953V54.8922H35.4529V50.2798Z" fill="#67767D"/>
<path d="M25.2883 59.5046H20.2307V64.117H25.2883V59.5046Z" fill="#67767D"/>
<path d="M35.4529 59.5046H30.3953V64.117H35.4529V59.5046Z" fill="#67767D"/>
<path d="M25.2883 68.7295H20.2307V73.3419H25.2883V68.7295Z" fill="#67767D"/>
<path d="M35.4529 68.7295H30.3953V73.3419H35.4529V68.7295Z" fill="#67767D"/>
<rect y="88" width="100" height="4" fill="#E7E8EA"/>
</svg>
