<svg viewBox="0 0 500 300" fill="none" xmlns="http://www.w3.org/2000/svg">
<path d="M148.317 94.8378L107.837 71.4249L69.8528 94.8378V298.283H148.317V94.8378Z" fill="#D1DBE2"/>
<path d="M322.58 157.143L282.1 133.73L244.116 157.143V298.283H322.58V157.143Z" fill="#D1DBE2"/>
<path d="M288.838 183.283H279.649V165.312H288.838V183.283Z" fill="#F5F6F9"/>
<path d="M288.838 215.775H279.649V197.805H288.838V215.775Z" fill="#F5F6F9"/>
<path d="M288.838 248.512H279.649V230.541H288.838V248.512Z" fill="#F5F6F9"/>
<path d="M244.116 298.283H148.289V41.0953H244.116V298.283Z" fill="#D1DBE2"/>
<path d="M317.981 229.92C318.574 226.274 319.509 224.512 322.721 225.429C314.244 211.318 326.105 199.292 328.579 209.708C333.914 184.962 347.257 196.049 342.587 207.578C351.799 206.531 349.76 218.68 340.193 221.576C353.023 222.514 349.459 233.278 339.302 234.317C349.74 241.941 313.545 257.218 317.981 229.92Z" fill="#9EB3C1"/>
<path d="M336.523 209.048C336.523 209.048 336.184 209.751 335.592 210.982C335.32 211.602 334.988 212.354 334.608 213.218C334.263 214.098 333.848 215.081 333.455 216.176C333.065 217.272 332.64 218.459 332.267 219.739C331.849 221.005 331.531 222.375 331.154 223.779C330.857 225.201 330.499 226.66 330.282 228.171C329.999 229.67 329.857 231.213 329.676 232.75C329.611 233.521 329.579 234.295 329.528 235.063L329.461 236.214L329.458 237.36C329.458 238.121 329.458 238.876 329.458 239.622C329.502 240.366 329.544 241.101 329.586 241.824C329.608 242.186 329.628 242.544 329.649 242.899C329.691 243.253 329.733 243.603 329.775 243.949C329.859 244.64 329.942 245.317 330.023 245.975C330.215 247.288 330.491 248.514 330.694 249.652C330.953 250.78 331.251 251.8 331.482 252.711C331.693 253.629 332.013 254.388 332.216 255.031C332.652 256.307 332.901 257.038 332.901 257.038L332.916 257.079C333.025 257.401 332.854 257.749 332.533 257.86C332.212 257.969 331.863 257.798 331.754 257.476L331.751 257.471C331.751 257.471 331.504 256.722 331.069 255.41C330.868 254.75 330.551 253.97 330.343 253.03C330.114 252.097 329.821 251.051 329.568 249.895C329.37 248.729 329.101 247.475 328.918 246.133C328.843 245.46 328.766 244.768 328.686 244.061C328.647 243.708 328.608 243.351 328.568 242.99C328.551 242.628 328.533 242.262 328.515 241.893C328.48 241.156 328.443 240.406 328.407 239.647C328.415 238.887 328.422 238.119 328.43 237.344C328.434 236.956 328.439 236.568 328.444 236.177L328.524 235.007C328.583 234.225 328.624 233.439 328.698 232.656C328.896 231.096 329.055 229.531 329.358 228.012C329.594 226.482 329.971 225.005 330.287 223.566C330.681 222.148 331.018 220.764 331.454 219.487C331.845 218.194 332.287 216.997 332.693 215.893C333.1 214.789 333.53 213.798 333.888 212.912C334.283 212.038 334.627 211.277 334.91 210.65C335.514 209.426 335.859 208.726 335.859 208.726C335.95 208.543 336.17 208.468 336.353 208.558C336.534 208.647 336.609 208.867 336.523 209.048Z" fill="white"/>
<path d="M329.514 233.697C329.306 233.697 329.099 233.684 328.891 233.655C328.689 233.626 328.549 233.441 328.577 233.239C328.605 233.037 328.795 232.895 328.993 232.924C331.276 233.249 333.623 231.439 336.108 229.53C338.425 227.75 340.822 225.909 343.319 225.782C343.547 225.744 343.695 225.929 343.705 226.132C343.715 226.335 343.559 226.508 343.356 226.518C341.089 226.634 338.785 228.403 336.557 230.114C334.261 231.878 331.893 233.697 329.514 233.697Z" fill="white"/>
<path d="M332.925 216.787C332.803 216.787 332.683 216.726 332.613 216.614C330.66 213.495 332.047 205.822 334.507 202.372C334.624 202.206 334.856 202.167 335.021 202.286C335.187 202.404 335.226 202.635 335.108 202.8C332.819 206.009 331.452 213.369 333.238 216.222C333.346 216.395 333.294 216.623 333.121 216.731L332.925 216.787Z" fill="white"/>
<path d="M295.406 170.033C302.021 167.946 307.896 173.622 310.149 182.523C312.255 190.839 309.895 201.62 312.07 203.517C316.121 205.35 324.486 213.537 322.468 226.958C317.591 259.409 271.515 245.901 287.658 219.546C280.488 197.784 289.502 194.714 294.028 198.135C296.086 194.919 287.522 172.519 295.406 170.033Z" fill="#9EB3C1"/>
<path d="M299.973 185.89C299.973 185.89 300.083 186.161 300.286 186.668C300.388 186.921 300.514 187.235 300.662 187.603C300.797 187.98 300.93 188.429 301.091 188.924C301.263 189.419 301.404 189.974 301.548 190.58C301.622 190.883 301.7 191.198 301.78 191.524C301.842 191.854 301.906 192.197 301.971 192.55C302.254 193.962 302.43 195.575 302.57 197.334C302.688 199.094 302.748 201.005 302.713 203.02C302.697 205.038 302.591 207.158 302.464 209.347C302.198 213.725 301.791 218.374 301.561 223.019C301.455 225.342 301.388 227.664 301.403 229.945C301.442 232.225 301.506 234.468 301.732 236.622C301.807 237.703 301.983 238.751 302.101 239.785C302.281 240.808 302.42 241.817 302.635 242.782C302.849 243.746 303.033 244.69 303.297 245.581C303.419 246.028 303.539 246.469 303.656 246.901C303.795 247.327 303.931 247.743 304.065 248.152C304.2 248.56 304.332 248.96 304.462 249.351C304.613 249.732 304.761 250.107 304.904 250.471C305.183 251.203 305.464 251.889 305.773 252.516C306.334 253.794 306.931 254.854 307.409 255.733C307.884 256.613 308.343 257.255 308.614 257.717C309.86 259.843 312.435 263.323 312.435 263.323L311 264.271C311 264.271 308.017 259.899 307.171 258.632C306.893 258.148 306.426 257.473 305.944 256.55C305.457 255.629 304.852 254.519 304.286 253.182C303.975 252.527 303.692 251.811 303.413 251.048C303.268 250.668 303.12 250.279 302.97 249.88C302.84 249.474 302.708 249.058 302.574 248.634C302.441 248.21 302.307 247.776 302.169 247.333C302.053 246.886 301.936 246.429 301.815 245.965C301.556 245.041 301.378 244.067 301.171 243.071C300.963 242.075 300.834 241.039 300.663 239.986C300.556 238.926 300.39 237.848 300.328 236.745C300.126 234.541 300.091 232.26 300.082 229.947C300.099 227.633 300.196 225.29 300.333 222.951C300.628 218.278 301.095 213.631 301.417 209.277C301.573 207.101 301.706 204.997 301.748 203.003C301.809 201.008 301.774 199.125 301.681 197.392C301.566 195.662 301.414 194.076 301.155 192.695C301.096 192.349 301.039 192.014 300.983 191.69C300.909 191.371 300.837 191.063 300.768 190.767C300.636 190.173 300.506 189.631 300.348 189.159C300.199 188.681 300.08 188.253 299.953 187.882C299.811 187.513 299.689 187.198 299.59 186.943C299.393 186.433 299.288 186.161 299.288 186.161C299.214 185.971 299.309 185.757 299.498 185.684C299.687 185.611 299.898 185.704 299.973 185.89Z" fill="white"/>
<path d="M300.855 225.23H300.854C298.965 225.228 297.325 224.356 295.979 222.635C292.337 217.985 291.954 208.58 292.265 207.318C292.312 207.121 292.508 206.995 292.711 207.048C292.908 207.097 293.029 207.297 292.981 207.495C292.694 208.658 293.128 217.798 296.559 222.181C297.76 223.713 299.204 224.492 300.855 224.494C301.058 224.494 301.223 224.659 301.223 224.863C301.223 225.066 301.058 225.23 300.855 225.23Z" fill="white"/>
<path d="M302.244 202.977C302.094 202.977 301.955 202.886 301.899 202.738C301.827 202.547 301.923 202.334 302.114 202.262C305.174 201.107 306.586 194.601 306.595 193.057C306.597 192.854 306.783 192.683 306.966 192.69C307.169 192.692 307.334 192.858 307.333 193.062C307.324 194.424 305.946 201.602 302.374 202.952L302.244 202.977Z" fill="white"/>
<path d="M300.739 230.58C300.562 230.58 300.405 230.451 300.376 230.269C300.343 230.068 300.48 229.879 300.683 229.847C309.217 228.486 313.13 220.517 313.292 220.178C313.381 219.994 313.602 219.917 313.784 220.005C313.968 220.092 314.046 220.313 313.957 220.496C313.788 220.849 309.711 229.154 300.798 230.575L300.739 230.58Z" fill="white"/>
<path d="M173.358 288.017H267.532V297.959H173.358V288.017Z" fill="#7D9AAE"/>
<path d="M223.728 115.469C223.631 115.469 223.533 115.447 223.442 115.399L201.387 104.053L182.183 115.381C181.885 115.559 181.501 115.457 181.326 115.16C181.15 114.862 181.248 114.478 181.547 114.303L201.049 102.798C201.234 102.689 201.463 102.68 201.654 102.781L224.014 114.285C224.323 114.443 224.444 114.821 224.286 115.129C224.175 115.345 223.955 115.469 223.728 115.469Z" fill="#7D9AAE"/>
<path d="M264.063 178.49H251.948V176.592H264.063V178.49Z" fill="#9DB1BF"/>
<path d="M173.358 224.314V230.586H176.813V226.212H218.605V230.586H222.059V226.212H231.887V224.314H173.358Z" fill="white"/>
<path d="M231.886 192.474L251.948 176.591V178.489L231.886 194.371V192.474Z" fill="#9DB1BF"/>
<path d="M231.886 162.607L251.948 178.49V176.592L231.886 160.71V162.607Z" fill="#9DB1BF"/>
<path d="M264.063 146.652H251.948V144.755H264.063V146.652Z" fill="#9DB1BF"/>
<path d="M231.886 160.637L251.948 144.755V146.652L231.886 162.535V160.637Z" fill="white"/>
<path d="M264.063 210.281H251.948V208.383H264.063V210.281Z" fill="white"/>
<path d="M231.886 224.265L251.948 208.382V210.28L231.886 226.162V224.265Z" fill="white"/>
<path d="M231.886 194.398L251.948 210.281V208.383L231.886 192.501V194.398Z" fill="white"/>
<path d="M220.973 226.936H219.72V133.152H220.973V226.936Z" fill="#9DB1BF"/>
<path d="M176.813 247.248H173.358V256.127H176.813V247.248Z" fill="white"/>
<path d="M267.5 128.872H264.046V224.238H267.5V128.872Z" fill="#9DB1BF"/>
<path d="M174.573 247.295H173.347V230.586H174.573V247.295Z" fill="white"/>
<path d="M173.358 192.499V198.77H176.813V194.396H218.605V198.77H222.059V194.396H231.887V192.499H173.358Z" fill="#9DB1BF"/>
<path d="M176.813 215.436H173.358V224.314H176.813V215.436Z" fill="#9DB1BF"/>
<path d="M174.611 215.48H173.358V198.773H174.611V215.48Z" fill="#9DB1BF"/>
<path d="M173.358 160.686V166.957H176.813V162.583H218.605V166.957H222.059V162.583H231.887V160.686H173.358Z" fill="white"/>
<path d="M176.813 183.621H173.358V192.5H176.813V183.621Z" fill="white"/>
<path d="M174.611 183.678H173.358V166.97H174.611V183.678Z" fill="white"/>
<path d="M173.358 128.871V135.143H176.813V130.769H218.605V135.143H222.059V130.769H267.5V128.871H173.358Z" fill="#9DB1BF"/>
<path d="M176.813 151.808H173.358V160.688H176.813V151.808Z" fill="white"/>
<path d="M174.611 151.852H173.358V135.143H174.611V151.852Z" fill="white"/>
<path d="M267.532 224.238H173.358V288.018H267.532V224.238Z" fill="#9DB1BF"/>
<path d="M194.492 281.291H185.302V263.32H194.492V281.291Z" fill="#D1DBE2"/>
<path d="M205.145 281.291H195.955V263.32H205.145V281.291Z" fill="#D1DBE2"/>
<path d="M194.492 248.557H185.302V230.586H194.492V248.557Z" fill="#D1DBE2"/>
<path d="M205.145 248.557H195.955V230.586H205.145V248.557Z" fill="#D1DBE2"/>
<path d="M256.313 248.557H247.123V230.586H256.313V248.557Z" fill="#D1DBE2"/>
<path d="M123.986 248.557H114.796V230.586H123.986V248.557Z" fill="#F5F6F9"/>
<path d="M123.986 217.631H114.796V199.66H123.986V217.631Z" fill="#F5F6F9"/>
<path d="M123.986 187.682H114.796V169.711H123.986V187.682Z" fill="#F5F6F9"/>
<path d="M236.481 281.291H227.291V263.32H236.481V281.291Z" fill="#D1DBE2"/>
<path d="M256.313 281.291H247.123V263.32H256.313V281.291Z" fill="#7D9AAE"/>
<path d="M236.481 248.557H227.291V230.586H236.481V248.557Z" fill="#D1DBE2"/>
<path d="M104.154 248.557H94.964V230.586H104.154V248.557Z" fill="#F5F6F9"/>
<path d="M104.154 217.631H94.964V199.66H104.154V217.631Z" fill="#F5F6F9"/>
<path d="M104.154 187.682H94.964V169.711H104.154V187.682Z" fill="#F5F6F9"/>
<path d="M267.5 192.5H220.346V224.238H267.5V192.5Z" fill="#9DB1BF"/>
<path d="M256.313 215.775H247.123V197.805H256.313V215.775Z" fill="#D1DBE2"/>
<path d="M236.481 215.775H227.291V197.805H236.481V215.775Z" fill="#D1DBE2"/>
<path d="M256.313 281.291H247.123V263.32H256.313V281.291Z" fill="#7D9AAE"/>
<path d="M440.188 274.887C441.048 255.891 420.365 239.81 405.939 246.61L407.476 278.491C407.476 278.491 415.169 302.122 430.356 278.491C430.539 278.207 430.715 277.924 430.882 277.64L428.593 288.994C428.593 288.994 446.728 299.235 450.755 291.01C454.48 283.408 448.666 274.889 440.188 274.887Z" fill="#D1DBE2"/>
<path d="M435.393 287.77C438.81 273.266 426.087 263.933 415.504 267.606C431.066 234.998 385.507 211.075 365.346 245.051C346.83 232.516 321.184 240.515 306.026 270.91C296.44 270.665 286.691 243.464 261.457 244.447C236.223 245.431 231.219 274.685 228.03 277.874C219.473 270.914 195.713 272.194 197.352 298.105H427.441H430.331H454.481C460.094 289.569 451.741 280.018 435.393 287.77Z" fill="#9EB3C1"/>
<path d="M232.6 300C232.43 300 232.26 299.931 232.136 299.795C231.903 299.538 231.923 299.142 232.179 298.91C232.631 298.499 233.429 297.624 234.44 296.515C241.483 288.789 260.19 268.27 278.839 274.291C288.988 277.57 290.946 288.116 291.324 292.122C295.799 287.179 313.991 268.569 332.633 270.411C352.697 272.396 356.257 290.678 356.291 290.863C356.353 291.203 356.128 291.53 355.787 291.591C355.453 291.658 355.122 291.429 355.058 291.088C354.926 290.373 351.617 273.547 332.508 271.658C312.142 269.654 291.472 293.838 291.266 294.082C291.096 294.285 290.818 294.358 290.57 294.266C290.322 294.176 290.159 293.937 290.161 293.674C290.162 293.53 290.128 279.254 278.454 275.484C260.574 269.704 242.26 289.796 235.366 297.359C234.292 298.537 233.516 299.388 233.021 299.838C232.901 299.947 232.75 300 232.6 300Z" fill="white"/>
<path d="M232.946 298.102C242.49 298.102 255.389 286.302 267.438 285.484C277.81 284.781 294.473 292.285 301.847 291.958C309.22 291.629 323.354 272.975 348.301 279.586C361.845 283.176 382.8 293.468 389.658 294.743C400.676 296.791 412.78 287.914 427.44 298.102H232.946Z" fill="url(#paint0_linear)"/>
<path d="M392.456 289.575H401.01V64.2863H392.456V289.575ZM401.637 290.828H391.83C391.487 290.828 391.203 290.547 391.203 290.202V63.6598C391.203 63.314 391.487 63.0333 391.83 63.0333H401.637C401.979 63.0333 402.263 63.314 402.263 63.6598V290.202C402.263 290.547 401.979 290.828 401.637 290.828Z" fill="#7D9AAE"/>
<path d="M138.275 58.9501H389.165V48.7665H150.322L138.275 58.9501ZM389.792 60.2031H136.564C136.3 60.2031 136.066 60.0394 135.975 59.7921C135.884 59.5449 135.958 59.2684 136.159 59.098L149.688 47.6613C149.802 47.5661 149.944 47.5135 150.093 47.5135H389.792C390.134 47.5135 390.418 47.7942 390.418 48.14V59.5766C390.418 59.9225 390.134 60.2031 389.792 60.2031Z" fill="#7D9AAE"/>
<path d="M390.418 63.0321H403.006V44.5452H390.418V63.0321ZM403.633 64.2852H389.791C389.441 64.2852 389.165 64.0053 389.165 63.6587V43.9187C389.165 43.5729 389.441 43.2922 389.791 43.2922H403.633C403.984 43.2922 404.259 43.5729 404.259 43.9187V63.6587C404.259 64.0053 403.984 64.2852 403.633 64.2852Z" fill="#7D9AAE"/>
<path d="M441.391 60.2031H403.633C403.291 60.2031 403.007 59.9225 403.007 59.5766C403.007 59.2308 403.291 58.9501 403.633 58.9501H437.155L403.458 48.7398C403.124 48.6395 402.94 48.2895 403.04 47.9587C403.14 47.6288 403.483 47.4408 403.817 47.5411L441.566 58.9769C441.867 59.0662 442.051 59.3611 442.009 59.6685C441.959 59.9751 441.7 60.2031 441.391 60.2031Z" fill="#7D9AAE"/>
<path d="M389.791 60.2025C389.641 60.2025 389.491 60.1499 389.374 60.0438L376.924 48.9789L364.577 60.0421C364.332 60.2627 363.959 60.2552 363.724 60.0263L352.296 48.9923L339.761 60.0455C339.524 60.256 339.166 60.256 338.928 60.0421L326.583 48.9789L314.134 60.0438C313.897 60.2543 313.538 60.2543 313.302 60.0438L300.868 48.9923L289.34 60.0288C289.104 60.256 288.734 60.2618 288.488 60.0421L276.14 48.9781L263.59 60.0455C263.353 60.256 262.994 60.256 262.757 60.0421L250.412 48.9797L237.998 60.043C237.752 60.2618 237.38 60.2543 237.146 60.0263L225.721 48.9956L213.426 60.0413C213.189 60.2551 212.83 60.256 212.592 60.0438L200.141 48.9764L187.623 60.0446C187.385 60.256 187.029 60.2551 186.79 60.043L174.428 48.9964L163.088 60.0254C162.85 60.2552 162.474 60.2618 162.23 60.0388L149.67 48.603C149.415 48.3699 149.396 47.974 149.63 47.7175C149.864 47.4627 150.259 47.4444 150.514 47.6766L162.637 58.7164L173.974 47.69C174.209 47.4619 174.584 47.4552 174.828 47.6724L187.211 58.7373L199.727 47.6707C199.965 47.4602 200.321 47.4611 200.558 47.6716L213.005 58.7357L225.318 47.6741C225.563 47.4527 225.936 47.4611 226.171 47.6891L237.598 58.7215L249.996 47.6724C250.234 47.4602 250.593 47.4594 250.831 47.6733L263.179 58.7373L275.729 47.6699C275.967 47.4611 276.326 47.4611 276.561 47.6733L288.892 58.7215L300.419 47.6866C300.655 47.4619 301.025 47.4536 301.269 47.6716L313.718 58.7373L326.168 47.6716C326.406 47.4611 326.765 47.4602 327.002 47.6733L339.35 58.7373L351.9 47.6699C352.145 47.4544 352.515 47.4619 352.75 47.6891L364.175 58.7198L376.504 47.6733C376.742 47.4602 377.102 47.4611 377.338 47.6716L390.201 59.1074C390.46 59.3379 390.485 59.7331 390.259 59.992C390.134 60.1315 389.959 60.2025 389.791 60.2025Z" fill="#7D9AAE"/>
<path d="M264.197 48.7653C263.937 48.7653 263.694 48.6033 263.604 48.3435C263.492 48.0169 263.665 47.6602 263.992 47.5466L393.342 2.82998L150.209 48.7553C149.863 48.8171 149.541 48.5949 149.477 48.2558C149.413 47.9158 149.636 47.5875 149.976 47.5232L401.52 0.00989467C401.829 -0.0502494 402.155 0.146048 402.238 0.464314C402.322 0.781741 402.146 1.11087 401.837 1.21779L264.401 48.7311L264.197 48.7653Z" fill="#7D9AAE"/>
<path d="M391.83 290.828C391.729 290.828 391.621 290.802 391.529 290.749C391.22 290.58 391.111 290.198 391.287 289.897L400.935 272.597L391.253 249.19C391.186 249.035 391.186 248.862 391.253 248.709L400.952 225.398L391.253 202.223C391.186 202.066 391.186 201.889 391.253 201.733L400.952 179.241L391.253 155.932C391.186 155.779 391.186 155.607 391.253 155.452L400.952 132.005L391.253 108.692C391.186 108.539 391.186 108.367 391.253 108.213L400.952 84.5074L391.262 63.9271C391.12 63.6139 391.253 63.2405 391.562 63.0934C391.88 62.9439 392.247 63.0818 392.398 63.3933L402.196 84.2234C402.271 84.3821 402.28 84.565 402.213 84.7271L392.506 108.449L402.213 131.763C402.271 131.916 402.271 132.089 402.213 132.244L392.506 155.691L402.213 179.004C402.28 179.161 402.271 179.337 402.205 179.492L392.515 201.984L402.213 225.155C402.271 225.31 402.271 225.484 402.213 225.638L392.506 248.951L402.213 272.399C402.288 272.576 402.271 272.776 402.18 272.944L392.381 290.506C392.264 290.712 392.047 290.828 391.83 290.828Z" fill="#7D9AAE"/>
<path d="M427.532 56.0059C427.298 56.0059 427.073 55.8739 426.964 55.6475L401.069 0.895991C400.918 0.582738 401.052 0.209325 401.361 0.0614698C401.678 -0.0863858 402.054 0.0472527 402.196 0.359671L428.092 55.112C428.242 55.4245 428.109 55.7979 427.799 55.9457C427.708 55.9866 427.624 56.0059 427.532 56.0059Z" fill="#7D9AAE"/>
<path d="M438.567 59.3496C438.358 59.3496 438.158 59.2469 438.041 59.0597L401.102 0.963537C400.918 0.672005 401.002 0.284395 401.294 0.0989497C401.587 -0.0864955 401.979 0.000386024 402.163 0.291918L439.093 58.3873C439.277 58.6797 439.194 59.0664 438.901 59.2519C438.801 59.3179 438.684 59.3496 438.567 59.3496Z" fill="#7D9AAE"/>
<path d="M392.448 44.5469L392.315 44.5327C391.972 44.4608 391.755 44.1284 391.83 43.7901L401.019 0.49606C401.086 0.181973 401.386 -0.0277317 401.696 0.00317648C402.021 0.0365912 402.264 0.305606 402.264 0.626378V43.9204C402.264 44.2662 401.98 44.5469 401.637 44.5469C401.286 44.5469 401.011 44.2662 401.011 43.9204V6.59486L393.058 44.0499C392.991 44.3447 392.732 44.5469 392.448 44.5469Z" fill="#7D9AAE"/>
<path d="M389.792 60.2031C389.708 60.2031 389.616 60.1864 389.541 60.1505C389.224 60.0127 389.074 59.6434 389.216 59.326L400.977 32.3236L397.46 17.5632C397.377 17.2265 397.586 16.8882 397.92 16.8089C398.262 16.7253 398.596 16.9359 398.68 17.2725L402.238 32.2368C402.272 32.3688 402.264 32.5083 402.205 32.6327L390.36 59.8272C390.26 60.0628 390.026 60.2031 389.792 60.2031Z" fill="#7D9AAE"/>
<path d="M403.642 60.2031C403.45 60.2031 403.274 60.1213 403.149 59.9659C402.932 59.6936 402.973 59.3001 403.249 59.0854L413.691 50.8131C413.925 50.6301 414.25 50.6326 414.476 50.8181L424.133 58.6878L427.04 54.9923C427.248 54.7191 427.649 54.6732 427.917 54.8862C428.192 55.0992 428.234 55.4935 428.025 55.765L424.726 59.9634C424.617 60.0954 424.467 60.1806 424.3 60.199C424.124 60.2165 423.966 60.1689 423.84 60.062L414.075 52.107L404.026 60.0678C403.909 60.1589 403.775 60.2031 403.642 60.2031Z" fill="#7D9AAE"/>
<path d="M430.339 277.418C429.997 277.418 429.713 277.137 429.713 276.791V56.2301C429.713 55.8843 429.997 55.6036 430.339 55.6036C430.69 55.6036 430.966 55.8843 430.966 56.2301V276.791C430.966 277.137 430.69 277.418 430.339 277.418Z" fill="#7D9AAE"/>
<path d="M441.391 268.637C441.04 268.637 440.764 268.356 440.764 268.01V59.5761C440.764 59.2303 441.04 58.9496 441.391 58.9496C441.733 58.9496 442.017 59.2303 442.017 59.5761V268.01C442.017 268.356 441.733 268.637 441.391 268.637Z" fill="#7D9AAE"/>
<path d="M402.263 289.575H448.115V277.417H402.263V289.575ZM448.742 290.828H401.637C401.286 290.828 401.01 290.547 401.01 290.202V276.791C401.01 276.445 401.286 276.164 401.637 276.164H448.742C449.084 276.164 449.368 276.445 449.368 276.791V290.202C449.368 290.547 449.084 290.828 448.742 290.828Z" fill="#7D9AAE"/>
<path d="M433.981 289.575H448.115V268.636H433.981V289.575ZM448.742 290.828H433.355C433.004 290.828 432.728 290.547 432.728 290.202V268.01C432.728 267.664 433.004 267.383 433.355 267.383H448.742C449.084 267.383 449.368 267.664 449.368 268.01V290.202C449.368 290.547 449.084 290.828 448.742 290.828Z" fill="#7D9AAE"/>
<path d="M408.286 293.046H426.689V290.828H408.286V293.046ZM427.315 294.299H407.66C407.309 294.299 407.033 294.018 407.033 293.672V290.202C407.033 289.856 407.309 289.575 407.66 289.575H427.315C427.658 289.575 427.942 289.856 427.942 290.202V293.672C427.942 294.018 427.658 294.299 427.315 294.299Z" fill="#7D9AAE"/>
<path d="M440.096 293.672H393.467L391.83 298.166H441.725L440.096 293.672Z" fill="#7D9AAE"/>
<path d="M448.742 271.225H433.355C433.004 271.225 432.728 270.944 432.728 270.598C432.728 270.252 433.004 269.972 433.355 269.972H448.742C449.084 269.972 449.368 270.252 449.368 270.598C449.368 270.944 449.084 271.225 448.742 271.225Z" fill="#7D9AAE"/>
<path d="M448.742 274.543H433.355C433.004 274.543 432.728 274.262 432.728 273.916C432.728 273.571 433.004 273.29 433.355 273.29H448.742C449.084 273.29 449.368 273.571 449.368 273.916C449.368 274.262 449.084 274.543 448.742 274.543Z" fill="#7D9AAE"/>
<path d="M448.742 280.26H433.355C433.004 280.26 432.728 279.979 432.728 279.633C432.728 279.288 433.004 279.007 433.355 279.007H448.742C449.084 279.007 449.368 279.288 449.368 279.633C449.368 279.979 449.084 280.26 448.742 280.26Z" fill="#7D9AAE"/>
<path d="M448.742 283.578H433.355C433.004 283.578 432.728 283.298 432.728 282.952C432.728 282.606 433.004 282.325 433.355 282.325H448.742C449.084 282.325 449.368 282.606 449.368 282.952C449.368 283.298 449.084 283.578 448.742 283.578Z" fill="#7D9AAE"/>
<path d="M448.742 286.896H433.355C433.004 286.896 432.728 286.616 432.728 286.27C432.728 285.924 433.004 285.643 433.355 285.643H448.742C449.084 285.643 449.368 285.924 449.368 286.27C449.368 286.616 449.084 286.896 448.742 286.896Z" fill="#7D9AAE"/>
<path d="M211.305 63.0469H188.842L187.208 59.5752H212.939L211.305 63.0469Z" fill="#7D9AAE"/>
<path d="M201.367 103.965C201.022 103.965 200.741 103.684 200.741 103.338V63.049C200.741 62.7032 201.022 62.4225 201.367 62.4225C201.713 62.4225 201.994 62.7032 201.994 63.049V103.338C201.994 103.684 201.713 103.965 201.367 103.965Z" fill="#7D9AAE"/>
<path d="M186.668 298.166C180.239 286.059 167.501 277.813 152.836 277.813C138.173 277.813 125.435 286.058 119.006 298.165L186.668 298.166Z" fill="url(#paint1_linear)"/>
<path d="M256.879 298.166C248.271 281.954 231.213 270.912 211.578 270.912C191.942 270.912 174.886 281.953 166.276 298.165L256.879 298.166Z" fill="url(#paint2_linear)"/>
<path d="M499.301 299H0.698666C0.313002 299 0 298.776 0 298.5C0 298.224 0.313002 298 0.698666 298H499.301C499.683 298 500 298.224 500 298.5C500 298.776 499.683 299 499.301 299Z" fill="#9DB1BF"/>
<path d="M201.673 279.676C201.673 280.296 201.17 280.799 200.55 280.799C199.93 280.799 199.427 280.296 199.427 279.676C199.427 279.055 199.93 278.553 200.55 278.553C201.17 278.553 201.673 279.055 201.673 279.676Z" fill="#D1DBE2"/>
<path d="M339.619 285.143C339.619 285.763 339.116 286.266 338.496 286.266C337.876 286.266 337.373 285.763 337.373 285.143C337.373 284.522 337.876 284.019 338.496 284.019C339.116 284.019 339.619 284.522 339.619 285.143Z" fill="#D1DBE2"/>
<path d="M317.602 291.937C317.602 292.558 317.099 293.061 316.48 293.061C315.859 293.061 315.356 292.558 315.356 291.937C315.356 291.317 315.859 290.814 316.48 290.814C317.099 290.814 317.602 291.317 317.602 291.937Z" fill="#D1DBE2"/>
<path d="M212.803 278.172C212.803 279.243 211.934 280.111 210.863 280.111C209.792 280.111 208.923 279.243 208.923 278.172C208.923 277.1 209.792 276.231 210.863 276.231C211.934 276.231 212.803 277.1 212.803 278.172Z" fill="#D1DBE2"/>
<path d="M198.61 285.904C198.61 286.243 198.336 286.518 197.998 286.518C197.659 286.518 197.385 286.243 197.385 285.904C197.385 285.566 197.659 285.292 197.998 285.292C198.336 285.292 198.61 285.566 198.61 285.904Z" fill="#D1DBE2"/>
<path d="M354.118 286.27C354.118 286.608 353.844 286.883 353.506 286.883C353.168 286.883 352.894 286.608 352.894 286.27C352.894 285.931 353.168 285.657 353.506 285.657C353.844 285.657 354.118 285.931 354.118 286.27Z" fill="#D1DBE2"/>
<path d="M272.433 292.957C272.433 293.296 272.159 293.57 271.82 293.57C271.482 293.57 271.208 293.296 271.208 292.957C271.208 292.619 271.482 292.345 271.82 292.345C272.159 292.345 272.433 292.619 272.433 292.957Z" fill="#D1DBE2"/>
<path d="M224.306 279.677C224.306 280.015 224.032 280.289 223.694 280.289C223.356 280.289 223.082 280.015 223.082 279.677C223.082 279.338 223.356 279.063 223.694 279.063C224.032 279.063 224.306 279.338 224.306 279.677Z" fill="#D1DBE2"/>
<path d="M208.083 286.517C208.083 286.855 207.809 287.129 207.47 287.129C207.131 287.129 206.857 286.855 206.857 286.517C206.857 286.178 207.131 285.903 207.47 285.903C207.809 285.903 208.083 286.178 208.083 286.517Z" fill="#D1DBE2"/>
<path d="M186.119 281.615C186.119 281.954 185.845 282.229 185.507 282.229C185.168 282.229 184.894 281.954 184.894 281.615C184.894 281.277 185.168 281.003 185.507 281.003C185.845 281.003 186.119 281.277 186.119 281.615Z" fill="#D1DBE2"/>
<path d="M219.859 284.539C219.859 285.648 218.96 286.547 217.852 286.547C216.743 286.547 215.844 285.648 215.844 284.539C215.844 283.431 216.743 282.532 217.852 282.532C218.96 282.532 219.859 283.431 219.859 284.539Z" fill="#D1DBE2"/>
<path d="M330.921 288.138C330.921 289.247 330.022 290.145 328.914 290.145C327.805 290.145 326.907 289.247 326.907 288.138C326.907 287.03 327.805 286.131 328.914 286.131C330.022 286.131 330.921 287.03 330.921 288.138Z" fill="#D1DBE2"/>
<path d="M347.351 291.936C347.351 293.045 346.452 293.943 345.344 293.943C344.235 293.943 343.336 293.045 343.336 291.936C343.336 290.828 344.235 289.93 345.344 289.93C346.452 289.93 347.351 290.828 347.351 291.936Z" fill="#D1DBE2"/>
<path d="M250.533 158.896C250.533 185.544 228.93 207.147 202.281 207.147C175.633 207.147 154.03 185.544 154.03 158.896C154.03 132.247 175.633 110.645 202.281 110.645C228.93 110.645 250.533 132.247 250.533 158.896Z" fill="#FF4529"/>
<path d="M214.878 146.301L191.348 169.831" stroke="white" stroke-width="3" stroke-linecap="round" stroke-linejoin="round"/>
<path d="M214.878 169.831L191.348 146.301" stroke="white" stroke-width="3" stroke-linecap="round" stroke-linejoin="round"/>
<defs>
<linearGradient id="paint0_linear" x1="236.401" y1="280.945" x2="425.43" y2="307.947" gradientUnits="userSpaceOnUse">
<stop stop-color="#B6C7D2"/>
<stop offset="1" stop-color="#F5F6F9"/>
</linearGradient>
<linearGradient id="paint1_linear" x1="121.585" y1="284.852" x2="186.799" y2="297.485" gradientUnits="userSpaceOnUse">
<stop offset="0.00239425" stop-color="#C2CFD9"/>
<stop offset="1" stop-color="#B6C6D2"/>
</linearGradient>
<linearGradient id="paint2_linear" x1="167.186" y1="279.845" x2="256.135" y2="297.076" gradientUnits="userSpaceOnUse">
<stop stop-color="#B2C3CF"/>
<stop offset="1" stop-color="#D3DDE4"/>
</linearGradient>
</defs>
</svg>
