<svg width="28" height="32" viewBox="0 0 28 32" fill="none" xmlns="http://www.w3.org/2000/svg">
<path d="M23.5888 0H3.43745C1.54376 0 0 1.40513 0 3.12875V31.9994H2.05836V9.23635H24.9473V31.9806H27.0057V3.12875C27.0263 1.40513 25.4825 0 23.5888 0ZM24.9679 7.36285H2.07894V3.11001C2.07894 2.41682 2.69644 1.85476 3.45803 1.85476H23.6094C24.371 1.85476 24.9885 2.41682 24.9885 3.11001V7.36285H24.9679Z" fill="#FF8C38"/>
<path d="M18.7261 16.9654V15.0884V13.2114H16.641H6.19473H4.10962V15.0884V32H6.19473V15.0884H16.641V16.9654V32H18.7261V22.5964H20.8112V32H22.8963V22.5964V20.961V20.7194H18.7261V16.9654Z" fill="#A9ADC0"/>
<path d="M10.274 16.7341H8.21918V18.7891H10.274V16.7341Z" fill="white"/>
<path d="M14.3837 16.7341H12.3289V18.7891H14.3837V16.7341Z" fill="white"/>
<path d="M10.274 20.5508H8.21918V22.6058H10.274V20.5508Z" fill="white"/>
<path d="M14.3833 20.5508H12.3286V22.6058H14.3833V20.5508Z" fill="white"/>
<path d="M10.274 24.3677H8.21918V26.4227H10.274V24.3677Z" fill="white"/>
<path d="M14.3833 24.3677H12.3286V26.4227H14.3833V24.3677Z" fill="white"/>
<path d="M10.274 28.1824H8.21918V30.2374H10.274V28.1824Z" fill="white"/>
<path d="M14.3837 28.1824H12.3289V30.2374H14.3837V28.1824Z" fill="white"/>
</svg>
