<?xml version="1.0" encoding="UTF-8" standalone="no"?>
<svg
   xmlns:dc="http://purl.org/dc/elements/1.1/"
   xmlns:cc="http://creativecommons.org/ns#"
   xmlns:rdf="http://www.w3.org/1999/02/22-rdf-syntax-ns#"
   xmlns:svg="http://www.w3.org/2000/svg"
   xmlns="http://www.w3.org/2000/svg"
   xmlns:sodipodi="http://sodipodi.sourceforge.net/DTD/sodipodi-0.dtd"
   xmlns:inkscape="http://www.inkscape.org/namespaces/inkscape"
   width="121"
   height="48"
   viewBox="0 0 121 48"
   fill="none"
   version="1.1"
   id="svg88"
   sodipodi:docname="logo-hor.svg"
   inkscape:version="0.92.4 (unknown)">
  <metadata
     id="metadata94">
    <rdf:RDF>
      <cc:Work
         rdf:about="">
        <dc:format>image/svg+xml</dc:format>
        <dc:type
           rdf:resource="http://purl.org/dc/dcmitype/StillImage" />
      </cc:Work>
    </rdf:RDF>
  </metadata>
  <defs
     id="defs92" />
  <sodipodi:namedview
     pagecolor="#ffffff"
     bordercolor="#666666"
     borderopacity="1"
     objecttolerance="10"
     gridtolerance="10"
     guidetolerance="10"
     inkscape:pageopacity="0"
     inkscape:pageshadow="2"
     inkscape:window-width="2560"
     inkscape:window-height="1376"
     id="namedview90"
     showgrid="false"
     showguides="true"
     inkscape:guide-bbox="true"
     inkscape:zoom="2.0082645"
     inkscape:cx="-56.246908"
     inkscape:cy="26.86053"
     inkscape:window-x="0"
     inkscape:window-y="27"
     inkscape:window-maximized="1"
     inkscape:current-layer="svg88">
    <sodipodi:guide
       position="-15.187243,-0.24897119"
       orientation="0,1"
       id="guide939"
       inkscape:locked="false" />
    <sodipodi:guide
       position="44.814815,9.585391"
       orientation="1,0"
       id="guide941"
       inkscape:locked="false" />
    <sodipodi:guide
       position="104.00772,41.515947"
       orientation="1,0"
       id="guide943"
       inkscape:locked="false" />
    <sodipodi:guide
       position="6.7222222,48.05144"
       orientation="0,1"
       id="guide1138"
       inkscape:locked="false" />
  </sodipodi:namedview>
  <g
     id="g993"
     transform="matrix(0.88121609,0,0,0.88121609,5.319332,-4.4193705)">
    <path
       style="fill:#a9adc0;stroke-width:1.88420367"
       inkscape:connector-curvature="0"
       id="path10"
       d="m 76.226341,36.260184 c 0,-1.500956 -1.112057,-2.66709 -2.828943,-2.818203 V 31.4012 h -0.712606 v 2.040781 c -1.716886,0.151113 -2.828942,1.317247 -2.828942,2.818203 0,1.500958 1.112056,2.66709 2.828942,2.818204 v 2.04078 h 0.712606 v -2.04078 c 1.716886,-0.151114 2.828943,-1.317246 2.828943,-2.818204 z m -5.657886,0 c 0,-1.101316 0.788162,-1.986703 2.116337,-2.116337 v 4.232675 c -1.328175,-0.129633 -2.116337,-1.01502 -2.116337,-2.116338 z m 2.828943,2.116338 v -4.232675 c 1.328175,0.129634 2.116337,1.015021 2.116337,2.116337 0,1.101318 -0.788162,1.986705 -2.116337,2.116338 z" />
    <path
       style="fill:#a9adc0;stroke-width:1.88420367"
       inkscape:connector-curvature="0"
       id="path14"
       d="m 87.287182,33.431241 c -0.961132,0 -1.727628,0.464268 -2.181154,1.187614 v -1.058169 h -0.712606 v 7.558482 h 0.712606 v -3.217842 c 0.453526,0.723535 1.220022,1.187802 2.181154,1.187802 1.522436,0 2.785794,-1.23095 2.785794,-2.828944 0,-1.597993 -1.263358,-2.828943 -2.785794,-2.828943 z m -0.05407,4.966949 c -1.198542,0 -2.127077,-0.939464 -2.127077,-2.138006 0,-1.198541 0.928535,-2.138005 2.127077,-2.138005 1.198542,0 2.127077,0.939464 2.127077,2.138005 0,1.198542 -0.928535,2.138006 -2.127077,2.138006 z" />
    <g
       id="g981">
      <path
         d="m 50.34869,31.4012 h -5.398808 v 7.558295 h 0.755943 v -6.845689 h 3.887111 v 6.845689 h 0.755754 z"
         id="path2"
         inkscape:connector-curvature="0"
         style="fill:#a9adc0;stroke-width:1.88420367" />
      <path
         d="m 56.613102,33.560686 h -3.865633 v 3.09895 c 0,1.371323 -0.442599,1.706147 -1.209282,1.630589 v 0.66927 c 1.079838,0.07574 1.921888,-0.377783 1.921888,-2.299859 v -2.407824 h 2.440421 v 4.707683 h 0.712606 z"
         id="path4"
         inkscape:connector-curvature="0"
         style="fill:#a9adc0;stroke-width:1.88420367" />
      <path
         d="m 62.981521,33.560686 v 1.058169 c -0.453529,-0.723346 -1.220022,-1.187614 -2.181154,-1.187614 -1.522436,0 -2.785796,1.23095 -2.785796,2.828943 0,1.597994 1.26336,2.828944 2.785796,2.828944 0.961132,0 1.727625,-0.464267 2.181154,-1.187802 v 1.058169 h 0.712606 v -5.398809 z m -2.127077,4.837504 c -1.198542,0 -2.127078,-0.939464 -2.127078,-2.138006 0,-1.198541 0.928536,-2.138005 2.127078,-2.138005 1.198542,0 2.127077,0.939464 2.127077,2.138005 0,1.198542 -0.928535,2.138006 -2.127077,2.138006 z"
         id="path6"
         inkscape:connector-curvature="0"
         style="fill:#a9adc0;stroke-width:1.88420367" />
      <path
         d="m 69.306227,33.560686 h -4.53509 v 0.691126 h 1.911149 v 4.707683 h 0.712794 v -4.707683 h 1.911147 z"
         id="path8"
         inkscape:connector-curvature="0"
         style="fill:#a9adc0;stroke-width:1.88420367" />
      <path
         d="m 80.145108,39.089128 c 1.576325,0 2.839683,-1.23095 2.839683,-2.828944 0,-1.597993 -1.263358,-2.828943 -2.839683,-2.828943 -1.576513,0 -2.839872,1.23095 -2.839872,2.828943 0,1.597994 1.263359,2.828944 2.839872,2.828944 z m 0,-0.690938 c -1.198542,0 -2.127267,-0.939464 -2.127267,-2.138006 0,-1.198541 0.928725,-2.138005 2.127267,-2.138005 1.198541,0 2.127077,0.939464 2.127077,2.138005 0,1.198542 -0.928536,2.138006 -2.127077,2.138006 z"
         id="path12"
         inkscape:connector-curvature="0"
         style="fill:#a9adc0;stroke-width:1.88420367" />
      <path
         d="m 96.764726,33.560686 h -0.820759 l -1.824664,2.958577 -1.824851,-2.958577 h -0.82057 v 5.398809 h 0.712605 v -4.308232 l 1.889479,3.066541 h 0.08649 l 1.889478,-3.066541 v 4.308232 h 0.712795 z"
         id="path16"
         inkscape:connector-curvature="0"
         style="fill:#a9adc0;stroke-width:1.88420367" />
      <path
         d="m 103.1339,33.560686 v 1.058169 c -0.45333,-0.723346 -1.22003,-1.187614 -2.18097,-1.187614 -1.52262,0 -2.785792,1.23095 -2.785792,2.828943 0,1.597994 1.263172,2.828944 2.785792,2.828944 0.96094,0 1.72764,-0.464267 2.18097,-1.187802 v 1.058169 h 0.7128 v -5.398809 z m -2.12708,4.837504 c -1.198551,0 -2.127075,-0.939464 -2.127075,-2.138006 0,-1.198541 0.928524,-2.138005 2.127075,-2.138005 1.19854,0 2.12708,0.939464 2.12708,2.138005 0,1.198542 -0.92854,2.138006 -2.12708,2.138006 z"
         id="path18"
         inkscape:connector-curvature="0"
         style="fill:#a9adc0;stroke-width:1.88420367" />
    </g>
  </g>
  <g
     id="g1013"
     transform="matrix(0.88121609,0,0,0.88121609,5.7071755,-4.5336044)">
    <path
       style="fill:#a9adc0;stroke-width:1.88420367"
       inkscape:connector-curvature="0"
       id="path20"
       d="m 47.357893,48.378603 c 1.058169,0 1.975965,-0.550752 2.418564,-1.403731 l -0.593901,-0.345563 c -0.345374,0.626309 -1.004092,1.058169 -1.824663,1.058169 -1.19854,0 -2.127265,-0.939464 -2.127265,-2.137817 0,-1.198542 0.928725,-2.138006 2.127265,-2.138006 0.809831,0 1.490029,0.42112 1.781514,1.058169 L 49.722569,44.135 c -0.388711,-0.852979 -1.295767,-1.414471 -2.364676,-1.414471 -1.630589,0 -2.839871,1.230951 -2.839871,2.829132 0,1.597992 1.209282,2.828942 2.839871,2.828942 z" />
    <path
       style="fill:#a9adc0;stroke-width:1.88420367"
       inkscape:connector-curvature="0"
       id="path22"
       d="m 54.797295,42.850162 h -4.535091 v 0.691125 h 1.911336 v 4.707684 h 0.712606 v -4.707684 h 1.911149 z" />
    <path
       style="fill:#a9adc0;stroke-width:1.88420367"
       inkscape:connector-curvature="0"
       id="path24"
       d="m 58.775414,42.720529 c -0.960944,0 -1.727627,0.464269 -2.181156,1.187801 v -1.058168 h -0.712604 v 7.558294 h 0.712604 v -3.217653 c 0.453529,0.723532 1.220212,1.1878 2.181156,1.1878 1.522436,0 2.785794,-1.23095 2.785794,-2.828942 0,-1.598181 -1.263358,-2.829132 -2.785794,-2.829132 z m -0.05389,4.966949 c -1.198542,0 -2.127267,-0.939464 -2.127267,-2.137817 0,-1.198542 0.928725,-2.138006 2.127267,-2.138006 1.198542,0 2.127076,0.939464 2.127076,2.138006 0,1.198353 -0.928534,2.137817 -2.127076,2.137817 z" />
    <path
       style="fill:#a9adc0;stroke-width:1.88420367"
       inkscape:connector-curvature="0"
       id="path26"
       d="m 65.478091,48.378603 c 1.576324,0 2.839683,-1.23095 2.839683,-2.828942 0,-1.598181 -1.263359,-2.829132 -2.839683,-2.829132 -1.576514,0 -2.839873,1.230951 -2.839873,2.829132 0,1.597992 1.263359,2.828942 2.839873,2.828942 z m 0,-0.691125 c -1.198542,0 -2.127266,-0.939464 -2.127266,-2.137817 0,-1.198542 0.928724,-2.138006 2.127266,-2.138006 1.198542,0 2.127077,0.939464 2.127077,2.138006 0,1.198353 -0.928535,2.137817 -2.127077,2.137817 z" />
    <path
       style="fill:#a9adc0;stroke-width:1.88420367"
       inkscape:connector-curvature="0"
       id="path28"
       d="M 73.656665,42.850162 70.43901,47.00728 v -4.157118 h -0.712794 v 5.398809 h 0.604641 L 73.5487,44.091852 v 4.157119 h 0.712606 v -5.398809 z" />
    <path
       style="fill:#a9adc0;stroke-width:1.88420367"
       inkscape:connector-curvature="0"
       id="path30"
       d="m 79.871333,42.850162 h -4.534902 v 0.691125 h 1.911149 v 4.707684 h 0.712606 v -4.707684 h 1.911147 z" />
    <path
       style="fill:#a9adc0;stroke-width:1.88420367"
       inkscape:connector-curvature="0"
       id="path32"
       d="m 83.239158,42.720529 c -1.673549,0 -2.818203,1.241878 -2.818203,2.829132 0,1.630401 1.166133,2.828942 2.87228,2.828942 1.090577,0 1.921887,-0.507604 2.375415,-1.241878 l -0.626309,-0.367043 c -0.291485,0.518344 -0.885387,0.917796 -1.738366,0.917796 -1.144654,0 -1.997633,-0.680198 -2.148746,-1.781515 h 4.740092 c 0.01099,-0.107962 0.02167,-0.226858 0.02167,-0.334823 0,-1.479288 -1.02576,-2.850611 -2.67783,-2.850611 z m 0,0.691126 c 0.928536,0 1.792444,0.61538 1.943556,1.803183 h -4.027485 c 0.140373,-1.058168 0.950204,-1.803183 2.083929,-1.803183 z" />
    <path
       style="fill:#a9adc0;stroke-width:1.88420367"
       inkscape:connector-curvature="0"
       id="path34"
       d="m 91.482737,42.850162 h -3.865632 v 3.098949 c 0,1.371324 -0.442787,1.705958 -1.209282,1.630402 v 0.669458 c 1.079649,0.07556 1.921888,-0.377972 1.921888,-2.29986 v -2.407824 h 2.440232 v 4.707684 h 0.712794 z" />
    <path
       style="fill:#a9adc0;stroke-width:1.88420367"
       inkscape:connector-curvature="0"
       id="path36"
       d="m 95.400185,44.901684 h -1.479288 v -2.051522 h -0.712794 v 5.398809 h 2.192082 c 0.982423,0 1.803182,-0.680198 1.803182,-1.673551 0,-0.99354 -0.820759,-1.673736 -1.803182,-1.673736 z m 0,2.656161 h -1.479288 v -1.965037 h 1.479288 c 0.582973,0 1.090388,0.367044 1.090388,0.982612 0,0.615383 -0.507415,0.982425 -1.090388,0.982425 z" />
    <path
       style="fill:#a9adc0;stroke-width:1.88420367"
       inkscape:connector-curvature="0"
       id="path38"
       d="m 102.31842,42.850162 v 2.353936 H 99.208726 V 42.850162 H 98.49612 v 5.398809 h 0.712606 v -2.353936 h 3.109694 v 2.353936 h 0.7126 v -5.398809 z" />
    <path
       style="fill:#a9adc0;stroke-width:1.88420367"
       inkscape:connector-curvature="0"
       id="path40"
       d="m 106.94603,44.901684 h -1.4793 v -2.051522 h -0.7126 v 5.398809 h 2.1919 c 0.9826,0 1.80316,-0.680198 1.80316,-1.673551 0,-0.99354 -0.82056,-1.673736 -1.80316,-1.673736 z m 2.55892,-2.051522 v 5.398809 h 0.71261 v -5.398809 z m -2.55892,4.707683 h -1.4793 v -1.965037 h 1.4793 c 0.58296,0 1.09056,0.367044 1.09056,0.982612 0,0.615383 -0.5076,0.982425 -1.09056,0.982425 z" />
    <path
       style="fill:#a9adc0;stroke-width:1.88420367"
       inkscape:connector-curvature="0"
       id="path42"
       d="m 116.48556,48.248971 -2.10561,-2.796536 1.96523,-2.602273 h -0.85297 l -1.54411,2.040782 -1.54411,-2.040782 h -0.85298 l 1.97597,2.602273 -2.11634,2.796536 h 0.85297 l 1.68449,-2.224303 1.68447,2.224303 z" />
  </g>
  <g
     id="g1023"
     transform="matrix(0.88121609,0,0,0.88121609,-61.118262,3.3374998)">
    <path
       style="fill:#a9adc0;stroke-width:1.88420367"
       inkscape:connector-curvature="0"
       id="path44"
       d="m 123.10194,48.378603 c 1.05816,0 1.97595,-0.550752 2.41856,-1.403731 l -0.59371,-0.345563 c -0.34557,0.626309 -1.00428,1.058169 -1.82485,1.058169 -1.19855,0 -2.12708,-0.939464 -2.12708,-2.137817 0,-1.198542 0.92853,-2.138006 2.12708,-2.138006 0.80983,0 1.49001,0.42112 1.78151,1.058169 L 125.46661,44.135 c -0.38872,-0.852979 -1.29576,-1.414471 -2.36467,-1.414471 -1.63042,0 -2.83988,1.230951 -2.83988,2.829132 0,1.597992 1.20946,2.828942 2.83988,2.828942 z" />
    <path
       style="fill:#a9adc0;stroke-width:1.88420367"
       inkscape:connector-curvature="0"
       id="path46"
       d="m 129.20128,42.720529 c -1.67373,0 -2.8182,1.241878 -2.8182,2.829132 0,1.630401 1.16614,2.828942 2.8721,2.828942 1.09076,0 1.92169,-0.507604 2.37579,-1.241878 l -0.62744,-0.367043 c -0.29017,0.518344 -0.88444,0.917796 -1.73743,0.917796 -1.14464,0 -1.99763,-0.680198 -2.14874,-1.781515 h 4.73971 c 0.0119,-0.107962 0.0226,-0.226858 0.0226,-0.334823 0,-1.479288 -1.0269,-2.850611 -2.67839,-2.850611 z m 0,0.691126 c 0.92855,0 1.79283,0.61538 1.94356,1.803183 h -4.02748 c 0.14036,-1.058168 0.95019,-1.803183 2.08392,-1.803183 z" />
    <path
       style="fill:#a9adc0;stroke-width:1.88420367"
       inkscape:connector-curvature="0"
       id="path48"
       d="m 136.12291,42.720529 c -0.96094,0 -1.72782,0.464269 -2.18191,1.187801 v -1.058168 h -0.71223 v 7.558294 h 0.71223 v -3.217653 c 0.45409,0.723532 1.22097,1.1878 2.18191,1.1878 1.52244,0 2.78485,-1.23095 2.78485,-2.828942 0,-1.598181 -1.26241,-2.829132 -2.78485,-2.829132 z m -0.0547,4.966949 c -1.19836,0 -2.12727,-0.939464 -2.12727,-2.137817 0,-1.198542 0.92891,-2.138006 2.12727,-2.138006 1.19835,0 2.12725,0.939464 2.12725,2.138006 0,1.198353 -0.9289,2.137817 -2.12725,2.137817 z" />
    <path
       style="fill:#a9adc0;stroke-width:1.88420367"
       inkscape:connector-curvature="0"
       id="path50"
       d="m 143.74263,45.473916 c 0.42206,-0.248339 0.62555,-0.658529 0.62555,-1.176873 0,-0.820572 -0.57091,-1.446881 -1.65056,-1.446881 h -2.40801 v 5.398809 h 2.6228 c 1.14561,0 1.6958,-0.680198 1.6958,-1.511697 0,-0.582972 -0.30336,-1.047429 -0.88558,-1.263358 z m -1.02501,-1.932629 c 0.61424,0 0.93833,0.302228 0.93833,0.798903 0,0.540012 -0.31277,0.84224 -0.93833,0.84224 h -1.69578 v -1.641143 z m 0.21479,4.016558 h -1.91057 v -1.684289 h 1.91057 c 0.63687,0 0.98357,0.323893 0.98357,0.820569 0,0.539825 -0.33539,0.86372 -0.98357,0.86372 z" />
    <path
       style="fill:#a9adc0;stroke-width:1.88420367"
       inkscape:connector-curvature="0"
       id="path52"
       d="m 149.85498,42.850162 -3.21822,4.157118 v -4.157118 h -0.71222 v 5.398809 h 0.60483 l 3.21634,-4.157119 v 4.157119 h 0.71221 v -5.398809 z" />
    <path
       style="fill:#a9adc0;stroke-width:1.88420367"
       inkscape:connector-curvature="0"
       id="path54"
       d="m 154.69738,48.378603 c 1.05893,0 1.97653,-0.550752 2.41932,-1.403731 l -0.59352,-0.345563 c -0.3467,0.626309 -1.00427,1.058169 -1.8258,1.058169 -1.19834,0 -2.12727,-0.939464 -2.12727,-2.137817 0,-1.198542 0.92893,-2.138006 2.12727,-2.138006 0.81022,0 1.49041,0.42112 1.78246,1.058169 L 157.06206,44.135 c -0.38815,-0.852979 -1.29632,-1.414471 -2.36468,-1.414471 -1.62984,0 -2.83948,1.230951 -2.83948,2.829132 0,1.597992 1.20964,2.828942 2.83948,2.828942 z" />
    <path
       style="fill:#a9adc0;stroke-width:1.88420367"
       inkscape:connector-curvature="0"
       id="path56"
       d="m 160.81916,48.378603 c 1.57519,0 2.8395,-1.23095 2.8395,-2.828942 0,-1.598181 -1.26431,-2.829132 -2.8395,-2.829132 -1.57707,0 -2.83949,1.230951 -2.83949,2.829132 0,1.597992 1.26242,2.828942 2.83949,2.828942 z m 0,-0.691125 c -1.19834,0 -2.12727,-0.939464 -2.12727,-2.137817 0,-1.198542 0.92893,-2.138006 2.12727,-2.138006 1.19836,0 2.12727,0.939464 2.12727,2.138006 0,1.198353 -0.92891,2.137817 -2.12727,2.137817 z" />
    <path
       style="fill:#a9adc0;stroke-width:1.88420367"
       inkscape:connector-curvature="0"
       id="path58"
       d="m 168.50106,45.473916 c 0.42018,-0.248339 0.62556,-0.658529 0.62556,-1.176873 0,-0.820572 -0.5728,-1.446881 -1.65246,-1.446881 h -2.40801 v 5.398809 h 2.62471 c 1.14371,0 1.69578,-0.680198 1.69578,-1.511697 0,-0.582972 -0.30335,-1.047429 -0.88558,-1.263358 z m -1.0269,-1.932629 c 0.61614,0 0.94022,0.302228 0.94022,0.798903 0,0.540012 -0.31277,0.84224 -0.94022,0.84224 h -1.69389 v -1.641143 z m 0.2167,4.016558 h -1.91059 v -1.684289 h 1.91059 c 0.63685,0 0.98166,0.323893 0.98166,0.820569 0,0.539825 -0.3335,0.86372 -0.98166,0.86372 z" />
  </g>
  <g
     id="g999"
     transform="matrix(1.0047977,0,0,1.0047977,-0.21676678,-3.8074268)">
    <path
       style="fill:#ffffff;stroke-width:1.4911443"
       inkscape:connector-curvature="0"
       id="path60"
       d="m 64.669435,21.259256 c -1.571069,-1.556457 -2.356605,-3.524619 -2.356605,-5.904933 0,-2.380313 0.785536,-4.341019 2.356605,-5.8819678 1.586131,-1.5564563 3.519697,-2.3345355 5.80085,-2.3345355 1.767453,0 3.338523,0.4729911 4.713209,1.4189732 1.374685,0.9459813 2.333939,2.2581891 2.877758,3.9366201 h -4.622546 c -0.604362,-1.174872 -1.57107,-1.762382 -2.900425,-1.762382 -1.329355,0 -2.379271,0.419608 -3.149744,1.258823 -0.755265,0.839216 -1.132971,1.960707 -1.132971,3.364469 0,1.403764 0.377706,2.525254 1.132971,3.364321 0.770473,0.839216 1.820389,1.258823 3.149744,1.258823 1.329355,0 2.296063,-0.587361 2.900425,-1.762234 h 4.622546 c -0.543819,1.678283 -1.503073,2.99049 -2.877758,3.936621 -1.374686,0.945983 -2.945756,1.418973 -4.713209,1.418973 -2.281153,0 -4.214719,-0.770624 -5.80085,-2.311571 z" />
    <path
       style="fill:#ffffff;stroke-width:1.4911443"
       inkscape:connector-curvature="0"
       id="path62"
       d="m 83.333492,21.259256 c -1.57107,-1.556457 -2.356605,-3.524619 -2.356605,-5.904933 0,-2.380313 0.785535,-4.341019 2.356605,-5.8819678 1.58613,-1.5564563 3.519846,-2.3345355 5.800849,-2.3345355 1.767454,0 3.338524,0.4729911 4.71321,1.4189732 1.374678,0.9459813 2.333937,2.2581891 2.877758,3.9366201 h -4.622546 c -0.604213,-1.174872 -1.57107,-1.762382 -2.900425,-1.762382 -1.329356,0 -2.37927,0.419608 -3.149744,1.258823 -0.755265,0.839216 -1.132972,1.960707 -1.132972,3.364469 0,1.403764 0.377707,2.525254 1.132972,3.364321 0.770474,0.839216 1.820388,1.258823 3.149744,1.258823 1.329355,0 2.296212,-0.587361 2.900425,-1.762234 h 4.622546 c -0.543821,1.678283 -1.50308,2.99049 -2.877758,3.936621 -1.374686,0.945983 -2.945756,1.418973 -4.71321,1.418973 -2.281003,0 -4.214719,-0.770624 -5.800849,-2.311571 z" />
    <path
       style="fill:#ffffff;stroke-width:1.4911443"
       inkscape:connector-curvature="0"
       id="path64"
       d="M 44.797104,10.342438 V 7.3671577 h 8.242599 V 10.342438 H 48.68914 V 23.433939 H 44.814252 V 10.342438 Z" />
    <path
       style="fill:#ffffff;stroke-width:1.4911443"
       inkscape:connector-curvature="0"
       id="path66"
       d="M 50.048467,10.342438 V 7.3671577 h 8.674732 V 10.342438 23.433939 H 54.848461 V 10.342438 Z" />
  </g>
  <path
     d="M15.4285 41.8284H12.3428V44.9141H15.4285V41.8284Z"
     fill="white"
     id="path68" />
  <path
     d="M21.5999 41.8284H18.5142V44.9141H21.5999V41.8284Z"
     fill="white"
     id="path70" />
  <path
     d="M15.4285 36.3428H12.3428V39.4285H15.4285V36.3428Z"
     fill="white"
     id="path72" />
  <path
     d="M21.5999 36.3428H18.5142V39.4285H21.5999V36.3428Z"
     fill="white"
     id="path74" />
  <path
     d="M15.4285 30.8574H12.3428V33.9431H15.4285V30.8574Z"
     fill="white"
     id="path76" />
  <path
     d="M21.5999 30.8574H18.5142V33.9431H21.5999V30.8574Z"
     fill="white"
     id="path78" />
  <path
     d="M27.7714 29.4857V19.2H6.17139V47.9999H9.2571V22.2857H24.6857V47.9999H27.7714V32.5714H30.8571V47.9999H33.9428V29.4857H27.7714Z"
     fill="#A9ADC0"
     id="path80" />
  <path
     d="M15.4285 25.3713H12.3428V28.457H15.4285V25.3713Z"
     fill="white"
     id="path82" />
  <path
     d="M21.5999 25.3713H18.5142V28.457H21.5999V25.3713Z"
     fill="white"
     id="path84" />
  <path
     d="M34.26 0H5.85428C2.62285 0 0 2.62285 0 5.85428V47.9999H3.08571V13.7143H37.0285V47.9999H40.1142V5.85428C40.1142 2.62285 37.4828 0 34.26 0ZM37.0285 10.6286H3.08571V5.85428C3.08571 4.32857 4.32857 3.08571 5.85428 3.08571H34.2514C35.7771 3.08571 37.02 4.32857 37.02 5.85428V10.6286H37.0285Z"
     fill="#FF8C38"
     id="path86" />
</svg>
