<svg width="73" height="32" viewBox="0 0 73 32" fill="none" xmlns="http://www.w3.org/2000/svg">
<path d="M23.5888 0H3.43745C1.54376 0 0 1.40513 0 3.12875V31.9994H2.05836V9.23635H24.9473V31.9806H27.0057V3.12875C27.0263 1.40513 25.4825 0 23.5888 0ZM24.9679 7.36285H2.07894V3.11001C2.07894 2.41682 2.69644 1.85476 3.45803 1.85476H23.6094C24.371 1.85476 24.9885 2.41682 24.9885 3.11001V7.36285H24.9679Z" fill="#FF8C38"/>
<path d="M18.7261 16.9654V15.0884V13.2114H16.641H6.19473H4.10962V15.0884V32H6.19473V15.0884H16.641V16.9654V32H18.7261V22.5964H20.8112V32H22.8963V22.5964V20.961V20.7194H18.7261V16.9654Z" fill="#A9ADC0"/>
<path d="M10.274 16.7344H8.21924V18.7894H10.274V16.7344Z" fill="white"/>
<path d="M14.3837 16.7344H12.3289V18.7894H14.3837V16.7344Z" fill="white"/>
<path d="M10.274 20.5508H8.21924V22.6058H10.274V20.5508Z" fill="white"/>
<path d="M14.3834 20.5508H12.3286V22.6058H14.3834V20.5508Z" fill="white"/>
<path d="M10.274 24.3677H8.21924V26.4227H10.274V24.3677Z" fill="white"/>
<path d="M14.3834 24.3677H12.3286V26.4227H14.3834V24.3677Z" fill="white"/>
<path d="M10.274 28.1826H8.21924V30.2376H10.274V28.1826Z" fill="white"/>
<path d="M14.3837 28.1826H12.3289V30.2376H14.3837V28.1826Z" fill="white"/>
<path d="M44.5511 13.3184V14.9438H41.7075V23.5643H39.6514V14.9438V13.3184H44.5511Z" fill="white"/>
<path d="M48.3637 13.3184V14.9438V23.5643H46.3075V14.9438H43.4785V13.3184H48.3637Z" fill="white"/>
<path d="M55.5356 13.2168C56.8189 13.2168 57.8834 13.5457 58.7292 14.2037C59.575 14.8616 60.134 15.7565 60.4062 16.8885H58.248C58.0244 16.337 57.6744 15.9016 57.1981 15.5824C56.7314 15.2631 56.1675 15.1034 55.5065 15.1034C54.962 15.1034 54.4711 15.2389 54.0336 15.5098C53.5961 15.7807 53.2559 16.1677 53.0128 16.6708C52.7698 17.1739 52.6483 17.7641 52.6483 18.4413C52.6483 19.1089 52.7698 19.6943 53.0128 20.1974C53.2559 20.7005 53.5961 21.0875 54.0336 21.3584C54.4711 21.6293 54.962 21.7647 55.5065 21.7647C56.1675 21.7647 56.7314 21.6051 57.1981 21.2858C57.6744 20.9665 58.0244 20.5312 58.248 19.9797H60.4062C60.134 21.1117 59.575 22.0066 58.7292 22.6645C57.8834 23.3224 56.8189 23.6514 55.5356 23.6514C54.5537 23.6514 53.6836 23.4337 52.9253 22.9983C52.1768 22.5533 51.5935 21.9341 51.1754 21.1407C50.7671 20.3473 50.5629 19.4476 50.5629 18.4413C50.5629 17.4255 50.7671 16.5208 51.1754 15.7275C51.5935 14.9341 52.1768 14.3198 52.9253 13.8844C53.6739 13.4393 54.544 13.2168 55.5356 13.2168Z" fill="white"/>
<path d="M67.4758 13.2168C68.7591 13.2168 69.8236 13.5457 70.6694 14.2037C71.5152 14.8616 72.0742 15.7565 72.3464 16.8885H70.1882C69.9646 16.337 69.6146 15.9016 69.1382 15.5824C68.6716 15.2631 68.1077 15.1034 67.4466 15.1034C66.9022 15.1034 66.4112 15.2389 65.9738 15.5098C65.5363 15.7807 65.196 16.1677 64.953 16.6708C64.7099 17.1739 64.5884 17.7641 64.5884 18.4413C64.5884 19.1089 64.7099 19.6943 64.953 20.1974C65.196 20.7005 65.5363 21.0875 65.9738 21.3584C66.4112 21.6293 66.9022 21.7647 67.4466 21.7647C68.1077 21.7647 68.6716 21.6051 69.1382 21.2858C69.6146 20.9665 69.9646 20.5312 70.1882 19.9797H72.3464C72.0742 21.1117 71.5152 22.0066 70.6694 22.6645C69.8236 23.3224 68.7591 23.6514 67.4758 23.6514C66.4939 23.6514 65.6238 23.4337 64.8655 22.9983C64.1169 22.5533 63.5336 21.9341 63.1156 21.1407C62.7072 20.3473 62.5031 19.4476 62.5031 18.4413C62.5031 17.4255 62.7072 16.5208 63.1156 15.7275C63.5336 14.9341 64.1169 14.3198 64.8655 13.8844C65.6141 13.4393 66.4842 13.2168 67.4758 13.2168Z" fill="white"/>
</svg>
