<?xml version="1.0" encoding="UTF-8" standalone="no"?>
<svg
   xmlns:dc="http://purl.org/dc/elements/1.1/"
   xmlns:cc="http://creativecommons.org/ns#"
   xmlns:rdf="http://www.w3.org/1999/02/22-rdf-syntax-ns#"
   xmlns:svg="http://www.w3.org/2000/svg"
   xmlns="http://www.w3.org/2000/svg"
   xmlns:sodipodi="http://sodipodi.sourceforge.net/DTD/sodipodi-0.dtd"
   xmlns:inkscape="http://www.inkscape.org/namespaces/inkscape"
   viewBox="0 0 991.35999 811.52002"
   height="811.52002"
   width="991.35999"
   id="svg869"
   version="1.1"
   sodipodi:docname="rtlabs_rgb_v.svg"
   inkscape:version="0.92.4 (unknown)">
  <sodipodi:namedview
     pagecolor="#ffffff"
     bordercolor="#666666"
     borderopacity="1"
     objecttolerance="10"
     gridtolerance="10"
     guidetolerance="10"
     inkscape:pageopacity="0"
     inkscape:pageshadow="2"
     inkscape:window-width="2560"
     inkscape:window-height="1376"
     id="namedview30"
     showgrid="false"
     inkscape:zoom="0.82254139"
     inkscape:cx="382.5785"
     inkscape:cy="363.52746"
     inkscape:window-x="0"
     inkscape:window-y="27"
     inkscape:window-maximized="1"
     inkscape:current-layer="svg869" />
  <metadata
     id="metadata875">
    <rdf:RDF>
      <cc:Work
         rdf:about="">
        <dc:format>image/svg+xml</dc:format>
        <dc:type
           rdf:resource="http://purl.org/dc/dcmitype/StillImage" />
        <dc:title />
      </cc:Work>
    </rdf:RDF>
  </metadata>
  <defs
     id="defs873" />
  <path
     id="path1796"
     d="m 468.20733,385.05232 c -0.47746,-0.0651 -2.3005,-0.26233 -4.05119,-0.43803 -23.72821,-2.3808 -46.78798,-13.30943 -62.70057,-29.71539 -13.36485,-13.7792 -21.05578,-29.83087 -23.8776,-49.83478 -0.79848,-5.66 -0.71004,-19.23375 0.16205,-24.88588 1.62943,-10.56112 4.395,-19.43468 8.79307,-28.21364 12.00029,-23.95374 33.72235,-41.53201 59.36041,-48.0368 21.91278,-5.55953 44.10923,-3.19103 64.12789,6.8429 14.25919,7.14709 26.21318,17.6536 36.22052,31.83466 2.09604,2.97021 3.74644,5.65855 10.02524,16.32991 8.02235,13.6346 16.17763,24.3944 25.64512,33.8353 16.16976,16.12445 33.81423,25.06392 54.29959,27.51046 4.61058,0.55062 14.56791,0.6226 19.21828,0.13899 1.75069,-0.18213 4.91623,-0.6047 7.0346,-0.9391 2.46038,-0.38848 3.95181,-0.50776 4.12923,-0.33034 0.8002,0.80029 -2.79957,9.64754 -5.44894,13.39182 -4.0652,5.74527 -10.27989,10.41436 -17.14503,12.88115 -7.70784,2.76964 -16.7315,2.86875 -24.56658,0.26993 -3.23878,-1.07429 -5.07384,-1.98445 -12.47287,-6.1862 -10.79985,-6.13312 -16.65491,-8.15863 -23.5837,-8.15863 -5.19475,0 -9.4901,1.09997 -14.90259,3.81644 -7.45238,3.74011 -14.38354,9.42986 -19.90907,16.34302 -14.85655,18.58782 -34.52969,29.46417 -59.68405,32.99667 -3.13949,0.44083 -18.48083,0.84713 -20.67381,0.54754 z"
     style="fill:#9f9f9f;stroke-width:0.28937066"
     inkscape:connector-curvature="0" />
  <path
     id="path1794"
     d="m 578.8916,384.47584 c -5.24783,-1.37334 -10.01675,-5.10097 -14.01169,-10.95223 -5.1007,-7.47083 -6.05535,-13.5949 -3.07095,-19.70053 2.33984,-4.78674 7.95254,-9.17061 14.4783,-11.30843 2.21432,-0.72541 2.87807,-0.8077 6.65553,-0.82543 4.67343,-0.0217 5.7564,0.23747 8.64386,2.07 2.07606,1.31754 6.94101,6.06955 8.97022,8.76169 4.09849,5.43782 6.00426,11.13182 5.24078,15.65812 -0.70372,4.17191 -3.23661,7.70802 -8.24164,11.50583 -2.4961,1.89411 -7.17884,4.21197 -9.69392,4.79849 -2.34616,0.547 -6.86595,0.54329 -8.97049,-0.009 z"
     style="fill:#9f9f9f;stroke-width:0.28937066"
     inkscape:connector-curvature="0" />
  <path
     id="path1792"
     d="m 359.40396,318.69392 c -11.20896,-4.36832 -18.59415,-8.32998 -26.28526,-14.10039 -19.01798,-14.26869 -31.92201,-35.156 -36.17848,-58.56103 -1.17701,-6.47168 -1.4728,-9.90407 -1.47126,-17.07287 0,-6.88394 0.29552,-10.57876 1.30135,-16.34944 5.33174,-30.58937 25.51942,-56.72479 53.87892,-69.75289 8.36869,-3.84456 17.54264,-6.48272 27.12977,-7.80188 5.3869,-0.74125 15.09746,-0.87662 21.7028,-0.30267 12.78765,1.11118 24.45272,-1.0817 36.02664,-6.77254 7.57455,-3.72447 12.9658,-7.64598 18.97196,-13.80008 7.29142,-7.47092 12.59477,-16.164701 15.86013,-25.999325 1.64372,-4.950408 2.17688,-7.518844 3.66407,-17.65161 1.21056,-8.247607 1.89438,-11.213837 3.57219,-15.494353 5.81282,-14.830246 18.61612,-26.181354 33.94544,-30.095273 7.3804,-1.884436 18.00202,-1.822492 25.32671,0.14767 9.77828,2.630017 18.6597,8.337583 25.2068,16.198789 5.78018,6.940465 8.20538,12.262353 11.74375,25.770719 2.2655,8.649379 3.77195,12.777433 6.59991,18.085666 9.66562,18.142817 26.77674,30.971347 46.86069,35.132217 3.2178,0.66664 5.76119,0.94335 14.859,1.61641 4.55388,0.33685 7.19611,0.82787 10.99609,2.04323 10.51591,3.36357 18.11605,11.1886 20.70727,21.3201 0.30872,1.20713 0.59393,2.72741 0.63372,3.37859 0.0895,1.46901 0.12814,1.46855 -4.68825,0.0524 -8.06585,-2.3714 -15.49743,-3.41693 -24.32107,-3.42163 -11.06273,-0.009 -19.97109,1.58403 -32.16798,5.74157 -4.12814,1.40715 -5.59932,1.79681 -5.88589,1.55898 -0.21024,-0.17444 -0.85735,-1.11489 -1.43808,-2.0898 -4.28504,-7.1933 -12.30078,-14.98678 -20.55246,-19.98249 -7.73732,-4.68437 -16.19418,-7.83923 -25.51291,-9.51767 -3.25207,-0.5858 -4.63056,-0.66827 -11.09248,-0.66338 -6.42774,0.009 -7.86392,0.092 -11.14077,0.67658 -27.47565,4.90212 -49.12672,25.06357 -55.69661,51.86472 -0.77407,3.15776 -1.43808,7.5249 -1.95334,12.84634 l -0.22417,2.31496 -1.0128,-0.0597 c -5.8291,-0.34227 -15.79204,-0.40141 -19.09847,-0.1134 -14.71097,1.28146 -26.92431,4.74288 -39.91108,11.31132 -42.94035,21.71845 -65.83798,69.79684 -55.74699,117.0527 0.40783,1.90984 0.74214,3.63522 0.74305,3.83416 0,0.62025 -0.87462,0.39978 -5.35191,-1.34512 z"
     style="fill:#9f9f9f;stroke-width:0.28937066"
     inkscape:connector-curvature="0" />
  <path
     id="path1790"
     d="m 639.57245,307.08709 c -17.68769,-1.35715 -34.37525,-9.89919 -49.26029,-25.21522 -7.07991,-7.28481 -11.11744,-12.79805 -21.26667,-29.03916 -7.10938,-11.37642 -11.98157,-18.66992 -15.41866,-23.08102 -11.14638,-14.30503 -25.45069,-25.5347 -41.31769,-32.43664 -4.17481,-1.81607 -11.63632,-4.42448 -15.45412,-5.40255 -1.43238,-0.36696 -2.7671,-0.7917 -2.96604,-0.94389 -0.80626,-0.61681 -0.27183,-8.12951 0.9797,-13.77251 0.97961,-4.41706 2.40114,-8.43099 4.47005,-12.62144 1.9481,-3.94593 5.39043,-9.20796 6.11503,-9.34749 0.2665,-0.0515 1.63115,0.67505 3.03252,1.61424 13.32904,8.93296 29.74214,15.03669 45.80881,17.03561 5.21338,0.64855 16.08042,0.65434 21.26875,0.0109 9.09645,-1.12755 15.78869,-2.70823 31.68609,-7.48421 17.08769,-5.13361 24.21471,-6.7398 33.27762,-7.49994 11.24467,-0.94308 23.91775,1.33743 35.17798,6.33016 18.81235,8.34129 34.26067,25.61347 40.93953,45.77284 2.76268,8.33893 3.82304,15.09312 3.81797,24.31871 -0.009,13.21619 -2.29724,23.77758 -7.43519,34.29042 -10.42449,21.32978 -31.12806,34.51767 -58.32113,37.14977 -4.56039,0.44138 -11.61561,0.59113 -15.13426,0.32111 z"
     style="fill:#9f9f9f;stroke-width:0.28937066"
     inkscape:connector-curvature="0" />
  <path
     id="path1788"
     d="m 561.23999,161.21326 c -9.99061,-0.79758 -20.83487,-3.52553 -30.52507,-7.67872 -6.67596,-2.86134 -15.37336,-7.79031 -15.12703,-8.57279 0.2144,-0.68093 5.03107,-3.74301 8.95973,-5.6959 18.82925,-9.3597 41.01982,-7.21573 58.03427,5.60692 4.44708,3.35145 11.35698,10.74135 11.35698,12.14579 0,1.04951 -11.5439,3.54244 -19.53252,4.21812 -3.97405,0.33603 -8.76946,0.32753 -13.16636,-0.0235 z"
     style="fill:#9f9f9f;stroke-width:0.28937066"
     inkscape:connector-curvature="0" />
  <path
     id="path895-3"
     d="m 356.17341,125.77973 c -0.0841,-0.21856 0.70977,-1.63413 1.76362,-3.14564 20.45588,-29.339834 56.5839,-49.664054 97.50408,-54.852108 3.07899,-0.390379 4.98685,-0.517974 5.15975,-0.345075 0.1729,0.17299 0,1.918799 -0.47376,4.721716 -2.62106,15.581344 -7.05838,24.942485 -15.83318,33.401787 -9.36576,9.02909 -19.29696,13.68416 -32.68324,15.31955 -2.17074,0.26523 -8.40224,0.54682 -15.74602,0.71167 -13.98365,0.3137 -17.03615,0.45703 -22.42623,1.05304 -4.4214,0.48886 -11.12494,1.77764 -14.70536,2.82706 -1.95832,0.57395 -2.43551,0.63137 -2.55966,0.308 z"
     style="fill:#9f9f9f;stroke-width:0.28937066"
     inkscape:connector-curvature="0" />
  <path
     id="path1728"
     d="m 467.62859,384.75309 c -10.39266,-1.03667 -18.51991,-2.74269 -27.05616,-5.67971 -32.27315,-11.10388 -55.0052,-35.77689 -61.45573,-66.70319 -1.4558,-6.97953 -1.77013,-10.35613 -1.77095,-19.02558 0,-8.55841 0.24081,-11.48558 1.47435,-17.85888 4.71104,-24.34005 19.50656,-46.20155 40.3389,-59.60366 20.36292,-13.10008 44.78409,-17.59356 68.69198,-12.63935 14.68973,3.044 29.23368,10.24616 40.83482,20.22131 3.57508,3.07402 9.89176,9.62248 12.97935,13.45574 3.33029,4.13456 8.32782,11.68876 12.05862,18.22791 9.18634,16.10112 17.1982,26.9216 27.75932,37.49023 10.56095,10.56854 20.89202,17.61381 32.8868,22.42694 9.92532,3.98274 18.05555,5.58739 29.55279,5.83299 7.77178,0.16603 11.96349,-0.0877 18.41284,-1.11272 2.0473,-0.32545 3.82611,-0.48289 3.95298,-0.34978 0.39644,0.41606 -1.11534,5.01841 -2.75318,8.38163 -4.72949,9.71182 -13.46396,16.35017 -24.74399,18.80575 -3.46865,0.75517 -11.57872,0.75517 -15.04728,0 -5.08126,-1.10612 -7.66136,-2.23747 -16.20475,-7.1055 -8.22808,-4.68834 -13.19485,-6.84741 -18.08567,-7.86193 -3.48927,-0.72369 -8.66765,-0.72216 -12.18495,0 -9.60412,1.9821 -21.19133,9.9501 -29.28594,20.13848 -3.42587,4.31199 -9.65711,10.5935 -13.59183,13.70152 -12.79044,10.10302 -27.7595,16.26499 -45.49358,18.72735 -3.17367,0.44066 -18.36093,0.81675 -21.26874,0.52665 z"
     style="fill:#f8b201;stroke-width:0.28937066"
     inkscape:connector-curvature="0" />
  <path
     id="path1726"
     d="m 578.95797,384.05797 c -6.49537,-1.70186 -12.40857,-7.20804 -16.31924,-15.19612 -3.179,-6.49339 -2.89542,-11.72539 0.93087,-17.17388 5.17874,-7.37416 17.29343,-11.76952 24.95786,-9.05495 5.53602,1.96067 13.33863,10.59395 15.99759,17.7009 0.71872,1.92097 0.81385,2.56925 0.82796,5.64272 0.0163,3.44008 0.009,3.49406 -1.08722,5.78326 -0.88656,1.85685 -1.57734,2.77325 -3.51676,4.6652 -6.83032,6.66339 -14.81587,9.46052 -21.79106,7.63287 z"
     style="fill:#f8b201;stroke-width:0.28937066"
     inkscape:connector-curvature="0" />
  <path
     id="path1724"
     d="m 358.10179,317.82382 c -6.93341,-2.79369 -10.23649,-4.33667 -14.66386,-6.85012 -8.76612,-4.97654 -15.70794,-10.50153 -22.87719,-18.20783 -26.53059,-28.51785 -32.47318,-71.46516 -14.72327,-106.40531 7.93183,-15.61362 20.29619,-29.01664 35.04676,-37.99102 17.51272,-10.65481 37.50235,-15.1878 58.61077,-13.29079 22.86028,2.05435 44.97191,-7.47002 59.762,-25.74178 5.17332,-6.39112 10.0314,-15.806515 12.27077,-23.78148 1.05267,-3.748888 1.18235,-4.442382 2.75643,-14.736925 1.67383,-10.946621 2.62586,-14.355769 5.65657,-20.254771 4.94371,-9.622298 12.87229,-17.338548 22.55698,-21.953015 4.10337,-1.955061 7.69075,-3.134156 12.58763,-4.137006 3.23172,-0.661845 4.47529,-0.770269 8.8258,-0.769816 4.38731,5.42e-4 5.58603,0.107157 8.97049,0.797939 5.27513,1.07664 9.2698,2.450608 13.6232,4.685635 7.10731,3.648874 13.74773,9.504018 18.17067,16.02173 4.20619,6.19841 5.62048,9.803336 9.27406,23.639323 1.73026,6.552347 3.41901,11.071503 5.95236,15.928318 6.69233,12.830514 17.01481,23.110678 29.73428,29.612118 8.98604,4.59312 17.79394,6.90899 28.57635,7.51351 6.18331,0.34661 8.83828,0.68987 12.30512,1.59063 11.26638,2.92726 19.13979,9.89774 22.38328,19.81646 0.82362,2.51852 1.51051,5.87215 1.25487,6.12661 -0.11331,0.11277 -1.18262,-0.11584 -2.37628,-0.50811 -3.42425,-1.12529 -8.83566,-2.38713 -12.90204,-3.00855 -15.06491,-2.30204 -28.87015,-0.8834 -45.33489,4.65841 -2.90401,0.97744 -5.43013,1.79202 -5.6137,1.8102 -0.18348,0.0181 -1.3718,-1.52969 -2.64051,-3.43954 -7.76698,-11.69193 -20.10032,-20.78603 -34.73063,-25.60894 -8.25646,-2.72171 -14.52288,-3.6221 -23.62521,-3.3945 -6.76504,0.1692 -10.24436,0.66827 -16.36589,2.34761 -26.90786,7.38149 -47.52009,31.44094 -50.35475,58.77598 -0.18158,1.75069 -0.41769,3.96438 -0.52466,4.9193 l -0.19452,1.73622 -2.17028,-0.14468 c -5.3151,-0.3543 -18.37368,-0.12434 -22.28154,0.39237 -34.51586,4.56391 -63.56243,24.19518 -80.45996,54.37916 -9.50456,16.97783 -14.2733,37.88649 -13.06581,57.28708 0.38432,6.17463 1.163,12.02932 2.24163,16.85411 0.3911,1.74961 0.71112,3.27966 0.71112,3.40011 0,0.43342 -0.80824,0.17082 -6.36615,-2.06864 z"
     style="fill:#f8b201;stroke-width:0.28937066"
     inkscape:connector-curvature="0" />
  <path
     id="path1722"
     d="m 636.2153,306.62844 c -15.80272,-1.91229 -31.53291,-10.3431 -45.28633,-24.27187 -7.25064,-7.34296 -11.75343,-13.50574 -22.73405,-31.1154 -11.42725,-18.32593 -16.06314,-24.49658 -24.78667,-32.99286 -12.85791,-12.52306 -27.97753,-21.25853 -45.11605,-26.06633 -2.38197,-0.66818 -4.43171,-1.35851 -4.55487,-1.53412 -0.12317,-0.17552 -0.14505,-1.7516 -0.0488,-3.50229 0.60189,-10.91542 3.63693,-20.21878 9.39496,-28.79853 2.38613,-3.55546 2.17878,-3.47588 4.67722,-1.79572 13.46234,9.05287 28.80341,14.89689 45.52125,17.3408 4.90104,0.71647 18.43147,0.7067 23.58371,-0.0172 8.95349,-1.25767 15.61725,-2.87788 31.601,-7.68324 19.37336,-5.82449 26.77257,-7.25986 37.42313,-7.25986 19.68408,0 38.54291,8.03465 52.3826,22.31735 9.97859,10.29798 16.60427,22.13044 19.91621,35.56727 1.46593,5.94766 1.92775,9.44823 2.1172,16.04959 0.68427,23.83157 -7.55574,44.02566 -23.342,57.20523 -9.80903,8.18928 -23.22543,13.92958 -37.33813,15.97534 -7.5721,1.09762 -17.17505,1.33626 -23.41072,0.58164 z"
     style="fill:#f8b201;stroke-width:0.28937066"
     inkscape:connector-curvature="0" />
  <path
     id="path1720"
     d="m 565.14649,161.05329 c -15.43503,-0.54827 -31.91432,-5.45048 -45.47115,-13.52672 -1.25126,-0.7454 -2.60054,-1.61162 -2.99842,-1.92486 l -0.72343,-0.56952 0.86811,-0.72994 c 1.19212,-1.00239 5.01027,-3.2924 7.88309,-4.72795 12.74505,-6.36887 27.76393,-7.43438 41.43878,-2.93973 9.19981,3.02383 17.97832,8.76042 24.00004,15.68361 2.92761,3.36584 3.71497,4.56944 3.19863,4.88919 -0.68717,0.42565 -8.5585,2.25149 -12.3385,2.86206 -4.44681,0.71827 -11.32244,1.14491 -15.85715,0.98386 z"
     style="fill:#f8b201;stroke-width:0.28937066"
     inkscape:connector-curvature="0" />
  <path
     id="path893-6"
     d="m 356.65494,125.42001 c 0,-0.1503 0.98078,-1.67419 2.17941,-3.38645 7.65214,-10.93026 19.18781,-21.99317 31.38758,-30.100974 13.08245,-8.694413 28.89936,-15.706859 44.70777,-19.821348 7.37516,-1.919522 17.33113,-3.742557 23.07731,-4.225716 l 2.24263,-0.188543 v 0.890448 c 0,1.441247 -1.38546,8.579569 -2.46951,12.723719 -2.50279,9.56786 -6.05734,16.037103 -12.41545,22.596144 -7.74166,7.98636 -15.88184,12.75419 -25.9268,15.18581 -6.39853,1.54894 -10.36951,1.88724 -26.03287,2.21757 -13.49073,0.28449 -19.89993,0.72072 -25.75399,1.75268 -2.75092,0.48497 -8.38216,1.81174 -10.48969,2.4715 -0.27851,0.0868 -0.50639,0.0353 -0.50639,-0.11484 z"
     style="fill:#f8b201;stroke-width:0.28937066"
     inkscape:connector-curvature="0" />
  <path
     id="path1660"
     d="m 467.62859,384.75309 c -10.39266,-1.03667 -18.51991,-2.74269 -27.05616,-5.67971 -32.27315,-11.10388 -55.0052,-35.77689 -61.45573,-66.70319 -1.4558,-6.97953 -1.77013,-10.35613 -1.77095,-19.02558 0,-8.55841 0.24081,-11.48558 1.47435,-17.85888 4.71104,-24.34005 19.50656,-46.20155 40.3389,-59.60366 20.36292,-13.10008 44.78409,-17.59356 68.69198,-12.63935 14.68973,3.044 29.23368,10.24616 40.83482,20.22131 3.57508,3.07402 9.89176,9.62248 12.97935,13.45574 3.33029,4.13456 8.32782,11.68876 12.05862,18.22791 9.18634,16.10112 17.1982,26.9216 27.75932,37.49023 10.56095,10.56854 20.89202,17.61381 32.8868,22.42694 9.92532,3.98274 18.05555,5.58739 29.55279,5.83299 7.77178,0.16603 11.96349,-0.0877 18.41284,-1.11272 2.0473,-0.32545 3.82611,-0.48289 3.95298,-0.34978 0.39644,0.41606 -1.11534,5.01841 -2.75318,8.38163 -4.72949,9.71182 -13.46396,16.35017 -24.74399,18.80575 -3.46865,0.75517 -11.57872,0.75517 -15.04728,0 -5.08126,-1.10612 -7.66136,-2.23747 -16.20475,-7.1055 -8.22808,-4.68834 -13.19485,-6.84741 -18.08567,-7.86193 -3.48927,-0.72369 -8.66765,-0.72216 -12.18495,0 -9.60412,1.9821 -21.19133,9.9501 -29.28594,20.13848 -3.42587,4.31199 -9.65711,10.5935 -13.59183,13.70152 -12.79044,10.10302 -27.7595,16.26499 -45.49358,18.72735 -3.17367,0.44066 -18.36093,0.81675 -21.26874,0.52665 z"
     style="fill:#008bdb;stroke-width:0.28937066"
     inkscape:connector-curvature="0" />
  <path
     id="path1658"
     d="m 578.95797,384.05797 c -6.49537,-1.70186 -12.40857,-7.20804 -16.31924,-15.19612 -3.179,-6.49339 -2.89542,-11.72539 0.93087,-17.17388 5.17874,-7.37416 17.29343,-11.76952 24.95786,-9.05495 5.53602,1.96067 13.33863,10.59395 15.99759,17.7009 0.71872,1.92097 0.81385,2.56925 0.82796,5.64272 0.0163,3.44008 0.009,3.49406 -1.08722,5.78326 -0.88656,1.85685 -1.57734,2.77325 -3.51676,4.6652 -6.83032,6.66339 -14.81587,9.46052 -21.79106,7.63287 z"
     style="fill:#008bdb;stroke-width:0.28937066"
     inkscape:connector-curvature="0" />
  <path
     id="path1656"
     d="m 358.10179,317.82382 c -6.93341,-2.79369 -10.23649,-4.33667 -14.66386,-6.85012 -8.76612,-4.97654 -15.70794,-10.50153 -22.87719,-18.20783 -26.53059,-28.51785 -32.47318,-71.46516 -14.72327,-106.40531 7.93183,-15.61362 20.29619,-29.01664 35.04676,-37.99102 17.51272,-10.65481 37.50235,-15.1878 58.61077,-13.29079 22.86028,2.05435 44.97191,-7.47002 59.762,-25.74178 5.17332,-6.39112 10.0314,-15.806515 12.27077,-23.78148 1.05267,-3.748888 1.18235,-4.442382 2.75643,-14.736925 1.67383,-10.946621 2.62586,-14.355769 5.65657,-20.254771 4.94371,-9.622298 12.87229,-17.338548 22.55698,-21.953015 4.10337,-1.955061 7.69075,-3.134156 12.58763,-4.137006 3.23172,-0.661845 4.47529,-0.770269 8.8258,-0.769816 4.38731,5.42e-4 5.58603,0.107157 8.97049,0.797939 5.27513,1.07664 9.2698,2.450608 13.6232,4.685635 7.10731,3.648874 13.74773,9.504018 18.17067,16.02173 4.20619,6.19841 5.62048,9.803336 9.27406,23.639323 1.73026,6.552347 3.41901,11.071503 5.95236,15.928318 6.69233,12.830514 17.01481,23.110678 29.73428,29.612118 8.98604,4.59312 17.79394,6.90899 28.57635,7.51351 6.18331,0.34661 8.83828,0.68987 12.30512,1.59063 11.26638,2.92726 19.13979,9.89774 22.38328,19.81646 0.82362,2.51852 1.51051,5.87215 1.25487,6.12661 -0.11331,0.11277 -1.18262,-0.11584 -2.37628,-0.50811 -3.42425,-1.12529 -8.83566,-2.38713 -12.90204,-3.00855 -15.06491,-2.30204 -28.87015,-0.8834 -45.33489,4.65841 -2.90401,0.97744 -5.43013,1.79202 -5.6137,1.8102 -0.18348,0.0181 -1.3718,-1.52969 -2.64051,-3.43954 -7.76698,-11.69193 -20.10032,-20.78603 -34.73063,-25.60894 -8.25646,-2.72171 -14.52288,-3.6221 -23.62521,-3.3945 -6.76504,0.1692 -10.24436,0.66827 -16.36589,2.34761 -26.90786,7.38149 -47.52009,31.44094 -50.35475,58.77598 -0.18158,1.75069 -0.41769,3.96438 -0.52466,4.9193 l -0.19452,1.73622 -2.17028,-0.14468 c -5.3151,-0.3543 -18.37368,-0.12434 -22.28154,0.39237 -34.51586,4.56391 -63.56243,24.19518 -80.45996,54.37916 -9.50456,16.97783 -14.2733,37.88649 -13.06581,57.28708 0.38432,6.17463 1.163,12.02932 2.24163,16.85411 0.3911,1.74961 0.71112,3.27966 0.71112,3.40011 0,0.43342 -0.80824,0.17082 -6.36615,-2.06864 z"
     style="fill:#008bdb;stroke-width:0.28937066"
     inkscape:connector-curvature="0" />
  <path
     id="path1654"
     d="m 565.14649,161.05329 c -15.43503,-0.54827 -31.91432,-5.45048 -45.47115,-13.52672 -1.25126,-0.7454 -2.60054,-1.61162 -2.99842,-1.92486 l -0.72343,-0.56952 0.86811,-0.72994 c 1.19212,-1.00239 5.01027,-3.2924 7.88309,-4.72795 12.74505,-6.36887 27.76393,-7.43438 41.43878,-2.93973 9.19981,3.02383 17.97832,8.76042 24.00004,15.68361 2.92761,3.36584 3.71497,4.56944 3.19863,4.88919 -0.68717,0.42565 -8.5585,2.25149 -12.3385,2.86206 -4.44681,0.71827 -11.32244,1.14491 -15.85715,0.98386 z"
     style="fill:#008bdb;stroke-width:0.28937066"
     inkscape:connector-curvature="0" />
  <path
     id="path891-7"
     d="m 356.65494,125.42001 c 0,-0.1503 0.98078,-1.67419 2.17941,-3.38645 7.65214,-10.93026 19.18781,-21.99317 31.38758,-30.100974 13.08245,-8.694413 28.89936,-15.706859 44.70777,-19.821348 7.37516,-1.919522 17.33113,-3.742557 23.07731,-4.225716 l 2.24263,-0.188543 v 0.890448 c 0,1.441247 -1.38546,8.579569 -2.46951,12.723719 -2.50279,9.56786 -6.05734,16.037103 -12.41545,22.596144 -7.74166,7.98636 -15.88184,12.75419 -25.9268,15.18581 -6.39853,1.54894 -10.36951,1.88724 -26.03287,2.21757 -13.49073,0.28449 -19.89993,0.72072 -25.75399,1.75268 -2.75092,0.48497 -8.38216,1.81174 -10.48969,2.4715 -0.27851,0.0868 -0.50639,0.0353 -0.50639,-0.11484 z"
     style="fill:#008bdb;stroke-width:0.28937066"
     inkscape:connector-curvature="0" />
  <path
     id="path1594"
     d="m 578.95797,384.05797 c -6.49546,-1.70186 -12.40857,-7.20804 -16.31924,-15.19612 -3.179,-6.49339 -2.89542,-11.72539 0.93087,-17.17388 5.17874,-7.37416 17.29343,-11.76952 24.95786,-9.05495 5.53602,1.96067 13.33863,10.59395 15.99759,17.7009 0.71872,1.92097 0.81385,2.56925 0.82796,5.64272 0.0163,3.44008 0.009,3.49406 -1.08731,5.78326 -0.88647,1.85685 -1.57725,2.77325 -3.51667,4.6652 -6.83032,6.66339 -14.81587,9.46052 -21.79106,7.63287 z"
     style="fill:#e54f1d;stroke-width:0.28937066"
     inkscape:connector-curvature="0" />
  <path
     id="path1592"
     d="m 358.10179,317.82382 c -6.93341,-2.79369 -10.23649,-4.33667 -14.66386,-6.85012 -8.76612,-4.97654 -15.70794,-10.50153 -22.87719,-18.20783 -26.53059,-28.51785 -32.47318,-71.46516 -14.72327,-106.40531 7.93183,-15.61362 20.29619,-29.01664 35.04676,-37.99102 17.51272,-10.65481 37.50235,-15.1878 58.61077,-13.29079 22.86028,2.05435 44.97191,-7.47002 59.762,-25.74178 5.17332,-6.39112 10.0314,-15.806515 12.27077,-23.78148 1.05267,-3.748888 1.18235,-4.442382 2.75643,-14.736925 1.67383,-10.946621 2.62586,-14.355769 5.65657,-20.254771 4.94371,-9.622298 12.87229,-17.338548 22.55698,-21.953015 4.10337,-1.955061 7.69075,-3.134156 12.58763,-4.137006 3.23172,-0.661845 4.47529,-0.770269 8.8258,-0.769816 4.38731,5.42e-4 5.58603,0.107157 8.97049,0.797939 5.27513,1.07664 9.2698,2.450608 13.6232,4.685635 7.10731,3.648874 13.74773,9.504018 18.17067,16.02173 4.20619,6.19841 5.62048,9.803336 9.27406,23.639323 1.73026,6.552347 3.41901,11.071503 5.95236,15.928318 6.69233,12.830514 17.01481,23.110678 29.73428,29.612118 8.98604,4.59312 17.79394,6.90899 28.57635,7.51351 6.18331,0.34661 8.83828,0.68987 12.30512,1.59063 11.26638,2.92726 19.13979,9.89774 22.38328,19.81646 0.82362,2.51852 1.51051,5.87215 1.25487,6.12661 -0.11331,0.11277 -1.18262,-0.11584 -2.37628,-0.50811 -3.42425,-1.12529 -8.83566,-2.38713 -12.90204,-3.00855 -15.06491,-2.30204 -28.87015,-0.8834 -45.33489,4.65841 -2.90401,0.97744 -5.43013,1.79202 -5.6137,1.8102 -0.18348,0.0181 -1.3718,-1.52969 -2.64051,-3.43954 -7.76698,-11.69193 -20.10032,-20.78603 -34.73063,-25.60894 -8.25646,-2.72171 -14.52288,-3.6221 -23.62521,-3.3945 -6.76504,0.1692 -10.24436,0.66827 -16.36589,2.34761 -26.90786,7.38149 -47.52009,31.44094 -50.35475,58.77598 -0.18158,1.75069 -0.41769,3.96438 -0.52466,4.9193 l -0.19452,1.73622 -2.17028,-0.14468 c -5.3151,-0.3543 -18.37368,-0.12434 -22.28154,0.39237 -34.51586,4.56391 -63.56243,24.19518 -80.45996,54.37916 -9.50456,16.97783 -14.2733,37.88649 -13.06581,57.28708 0.38432,6.17463 1.163,12.02932 2.24163,16.85411 0.3911,1.74961 0.71112,3.27966 0.71112,3.40011 0,0.43342 -0.80824,0.17082 -6.36615,-2.06864 z"
     style="fill:#e54f1d;stroke-width:0.28937066"
     inkscape:connector-curvature="0" />
  <path
     id="path1590"
     d="m 565.14649,161.05329 c -15.43503,-0.54827 -31.91432,-5.45048 -45.47115,-13.52672 -1.25126,-0.7454 -2.60054,-1.61162 -2.99842,-1.92486 l -0.72343,-0.56952 0.86811,-0.72994 c 1.19212,-1.00239 5.01027,-3.2924 7.88309,-4.72795 12.74505,-6.36887 27.76393,-7.43438 41.43878,-2.93973 9.19981,3.02383 17.97832,8.76042 24.00004,15.68361 2.92761,3.36584 3.71497,4.56944 3.19863,4.88919 -0.68717,0.42565 -8.5585,2.25149 -12.3385,2.86206 -4.44681,0.71827 -11.32244,1.14491 -15.85715,0.98386 z"
     style="fill:#e54f1d;stroke-width:0.28937066"
     inkscape:connector-curvature="0" />
  <path
     id="path889-5"
     d="m 356.65494,125.42001 c 0,-0.1503 0.98078,-1.67419 2.17941,-3.38645 7.65214,-10.93026 19.18781,-21.99317 31.38758,-30.100974 13.08245,-8.694413 28.89936,-15.706859 44.70777,-19.821348 7.37516,-1.919522 17.33113,-3.742557 23.07731,-4.225716 l 2.24263,-0.188543 v 0.890448 c 0,1.441247 -1.38546,8.579569 -2.46951,12.723719 -2.50279,9.56786 -6.05734,16.037103 -12.41545,22.596144 -7.74166,7.98636 -15.88184,12.75419 -25.9268,15.18581 -6.39853,1.54894 -10.36951,1.88724 -26.03287,2.21757 -13.49073,0.28449 -19.89993,0.72072 -25.75399,1.75268 -2.75092,0.48497 -8.38216,1.81174 -10.48969,2.4715 -0.27851,0.0868 -0.50639,0.0353 -0.50639,-0.11484 z"
     style="fill:#e54f1d;stroke-width:0.28937066"
     inkscape:connector-curvature="0" />
  <path
     id="path1530"
     d="m 578.95797,384.05797 c -6.49546,-1.70186 -12.40857,-7.20804 -16.31924,-15.19612 -3.179,-6.49339 -2.89542,-11.72539 0.93087,-17.17388 5.17874,-7.37416 17.29343,-11.76952 24.95786,-9.05495 5.53602,1.96067 13.33863,10.59395 15.99759,17.7009 0.71872,1.92097 0.81385,2.56925 0.82796,5.64272 0.0163,3.44008 0.009,3.49406 -1.08731,5.78326 -0.88647,1.85685 -1.57725,2.77325 -3.51667,4.6652 -6.83032,6.66339 -14.81587,9.46052 -21.79106,7.63287 z"
     style="fill:#7700b3;stroke-width:0.28937066"
     inkscape:connector-curvature="0" />
  <path
     id="path1528"
     d="m 565.14649,161.05329 c -15.43503,-0.54827 -31.91432,-5.45048 -45.47115,-13.52672 -1.25126,-0.7454 -2.60054,-1.61162 -2.99842,-1.92486 l -0.72343,-0.56952 0.86811,-0.72994 c 1.19212,-1.00239 5.01027,-3.2924 7.88309,-4.72795 12.74505,-6.36887 27.76393,-7.43438 41.43878,-2.93973 9.19981,3.02383 17.97832,8.76042 24.00004,15.68361 2.92761,3.36584 3.71497,4.56944 3.19863,4.88919 -0.68717,0.42565 -8.5585,2.25149 -12.3385,2.86206 -4.44681,0.71827 -11.32244,1.14491 -15.85715,0.98386 z"
     style="fill:#7700b3;stroke-width:0.28937066"
     inkscape:connector-curvature="0" />
  <path
     id="path887-3"
     d="m 356.65494,125.42001 c 0,-0.1503 0.98078,-1.67419 2.17941,-3.38645 7.65214,-10.93026 19.18781,-21.99317 31.38758,-30.100974 13.08245,-8.694413 28.89936,-15.706859 44.70777,-19.821348 7.37516,-1.919522 17.33113,-3.742557 23.07731,-4.225716 l 2.24263,-0.188543 v 0.890448 c 0,1.441247 -1.38546,8.579569 -2.46951,12.723719 -2.50279,9.56786 -6.05734,16.037103 -12.41545,22.596144 -7.74166,7.98636 -15.88184,12.75419 -25.9268,15.18581 -6.39853,1.54894 -10.36951,1.88724 -26.03287,2.21757 -13.49073,0.28449 -19.89993,0.72072 -25.75399,1.75268 -2.75092,0.48497 -8.38216,1.81174 -10.48969,2.4715 -0.27851,0.0868 -0.50639,0.0353 -0.50639,-0.11484 z"
     style="fill:#7700b3;stroke-width:0.28937066"
     inkscape:connector-curvature="0" />
  <path
     style="fill:#000000;stroke-width:0.28937066"
     d="m 184.28198,759.39659 c -0.75598,-0.066 -1.37451,-0.24307 -1.37451,-0.39354 0,-0.15047 -0.32961,-0.27355 -0.73256,-0.27355 -0.99218,0 -1.13976,-0.56626 -0.65985,-2.53235 l 0.40611,-1.66352 1.91491,0.0975 c 1.63603,0.0832 2.00326,0.009 2.52151,-0.5092 0.7359,-0.73591 1.18235,0.39083 -4.57559,-11.54924 -2.40494,-4.98703 -4.37257,-9.12141 -4.37257,-9.18752 0,-0.066 1.4247,-0.12027 3.16599,-0.12027 2.21504,0 3.23634,0.1087 3.4001,0.36172 0.12877,0.19894 1.41132,3.09554 2.85003,6.43678 1.68676,3.91708 2.78113,6.10689 3.0809,6.16459 0.31921,0.0615 0.60858,-0.30086 0.92309,-1.15568 2.75779,-7.49632 4.01059,-10.81586 4.2523,-11.26755 0.25374,-0.47402 0.65778,-0.53986 3.31709,-0.53986 2.29751,0 3.02827,0.0912 3.02827,0.37763 0,0.54845 -8.86162,21.80408 -9.56425,22.94104 -0.32608,0.52765 -1.07465,1.25198 -1.66352,1.60971 -0.58878,0.35774 -1.1356,0.7417 -1.21517,0.85338 -0.20148,0.28249 -3.04852,0.49446 -4.70228,0.34995 z m 351.94707,-0.33449 c -0.23873,-0.14007 -1.12773,-0.33233 -1.97559,-0.42727 -3.25904,-0.36506 -6.49999,-2.59349 -7.95543,-5.47001 -2.09821,-4.14705 -2.12263,-10.31625 -0.057,-14.39276 2.25438,-4.4488 7.27116,-6.67216 13.24603,-5.87052 3.04988,0.4091 4.772,1.15939 6.61194,2.88051 2.62423,2.45468 3.7214,5.43302 3.72691,10.11703 0.009,7.12449 -3.4303,11.67855 -9.69048,12.83395 -2.98477,0.55098 -3.46006,0.59104 -3.9065,0.32907 z m 2.98884,-5.06779 c 1.33137,-0.55631 2.42583,-1.97848 2.97418,-3.8649 0.70996,-2.4422 0.45513,-8.11441 -0.44915,-9.9964 -0.85401,-1.77755 -2.01764,-2.59864 -3.90434,-2.75508 -3.93263,-0.32609 -5.95009,2.59638 -5.95009,8.61926 0,3.21753 0.5253,5.33564 1.65665,6.68022 1.36438,1.62147 3.66533,2.15563 5.67275,1.3169 z m -482.476753,-8.1418 4.52e-4,-12.73231 9.549323,0.0796 9.549413,0.0796 v 2.16269 2.16259 h -5.777286 c -5.415572,0 -5.795913,0.0353 -6.076784,0.55975 -0.189628,0.35439 -0.299498,4.17038 -0.299498,10.40035 v 9.84059 l -3.472991,0.0895 -3.472991,0.0895 z m 892.347513,12.66096 -3.40011,-0.0917 v -7.20796 c 0,-4.36172 -0.11122,-7.27676 -0.28168,-7.38211 -0.41724,-0.25781 -0.76584,0.2437 -5.32659,7.66353 l -4.17996,6.80021 -3.49768,0.0814 -3.49759,0.0814 v -12.60598 -12.60598 l 3.25542,0.0823 3.25542,0.0823 0.14469,7.52363 c 0.1153,5.99721 0.22282,7.52364 0.52973,7.52364 0.21187,0 2.42556,-3.38564 4.9193,-7.52364 l 4.53426,-7.52363 h 3.32776 c 1.8838,0 3.42,-0.12561 3.54036,-0.28937 0.11692,-0.15916 0.21455,5.53783 0.21699,12.65996 0,7.12214 -0.028,12.92131 -0.0678,12.88712 -0.0398,-0.0344 -1.60239,-0.10354 -3.47245,-0.1539 z M 118.37781,745.85251 v -12.58763 h 6.1607 c 6.6927,0 8.64387,0.2891 10.50986,1.55709 2.16747,1.47281 3.21228,4.00616 2.93114,7.10694 -0.2778,3.06372 -2.23656,5.6619 -4.94724,6.56239 -0.82471,0.274 -2.907,0.56997 -4.67117,0.66401 l -3.18308,0.16965 -0.0796,4.55758 -0.0796,4.55759 h -3.32044 -3.32044 z m 11.74845,-1.99666 c 0.87499,-0.87489 0.98386,-1.15603 0.98386,-2.53995 0,-1.7468 -0.462,-2.61745 -1.73939,-3.27803 -1.00239,-0.51833 -3.50364,-0.57168 -3.99015,-0.085 -0.36388,0.36388 -0.50269,5.56641 -0.17163,6.42927 0.13519,0.3524 0.60822,0.45775 2.05453,0.45775 1.75097,0 1.94593,-0.0669 2.86278,-0.98386 z m 113.1027,14.22248 c -0.076,-0.19894 -0.1049,-5.83082 -0.0633,-12.51528 l 0.076,-12.15348 11.3578,-0.076 11.3578,-0.076 v 12.60019 12.6002 l -3.40011,-0.0814 -3.4001,-0.0814 -0.076,-10.16758 -0.076,-10.16749 -0.64747,-0.17354 c -1.09156,-0.29253 -7.16138,-0.20011 -7.75604,0.1181 -0.53696,0.28738 -0.55966,0.71041 -0.55966,10.41735 v 10.11784 h -3.3369 c -2.40295,0 -3.37569,-0.10128 -3.4757,-0.3618 z m 66.55525,0 c -0.076,-0.19894 -0.10489,-5.83082 -0.0633,-12.51528 l 0.076,-12.15348 11.3578,-0.076 11.3578,-0.076 v 12.60019 12.6002 l -3.40011,-0.0814 -3.4001,-0.0814 -0.076,-10.16758 -0.076,-10.16749 -0.64747,-0.17354 c -1.09156,-0.29253 -7.16129,-0.20011 -7.75604,0.1181 -0.53696,0.28738 -0.55966,0.71041 -0.55966,10.41735 v 10.11784 h -3.33689 c -2.40295,0 -3.37569,-0.10128 -3.47561,-0.3618 z m 64.11134,0.15427 c 0,-0.12461 1.9396,-5.76074 4.30611,-12.52478 l 4.30267,-12.29825 h 4.44735 4.44736 l 4.10165,12.15357 c 2.25591,6.68446 4.1115,12.3205 4.12353,12.5245 0.0172,0.28612 -0.75291,0.35222 -3.36629,0.28937 l -3.38807,-0.0814 -0.67406,-2.15391 c -0.37075,-1.18462 -0.8153,-2.32401 -0.98793,-2.532 -0.23231,-0.27996 -1.42198,-0.37808 -4.58345,-0.37808 -3.16146,0 -4.35114,0.0981 -4.58354,0.37808 -0.17253,0.20799 -0.61708,1.34738 -0.98784,2.532 l -0.67396,2.15391 -3.24348,0.0823 c -1.78397,0.0452 -3.24195,-0.0199 -3.24005,-0.14469 z m 15.60404,-9.32407 c 0.46119,-0.29181 0.54646,0.17697 -1.23245,-6.77452 -0.56409,-2.20429 -1.10241,-4.08465 -1.19636,-4.17861 -0.42764,-0.42763 -1.01325,0.97663 -2.02614,4.85872 -1.40634,5.38989 -1.41014,5.40861 -1.21111,5.9273 0.13302,0.34671 0.70236,0.43795 2.70942,0.43442 1.39766,0 2.72813,-0.12271 2.95664,-0.26731 z m 70.98361,-2.97409 0.0751,-12.52487 h 3.18308 3.18307 l 0.14469,4.77462 0.14468,4.77461 1.30217,0.0945 c 1.77809,0.12886 3.29186,-0.3751 4.13457,-1.37659 0.44517,-0.52901 1.05204,-2.09957 1.64733,-4.26297 0.51833,-1.88399 1.07311,-3.5882 1.23281,-3.78714 0.33413,-0.41606 5.87386,-0.52177 6.12417,-0.11674 0.18537,0.29986 -1.76227,7.7138 -2.29146,8.72307 -0.20943,0.39925 -0.84758,1.17467 -1.41818,1.72312 -0.57061,0.54844 -1.03749,1.14518 -1.03749,1.32604 0,0.18085 0.4781,0.64358 1.06244,1.02835 0.58435,0.38477 1.2981,1.02509 1.58603,1.42298 0.48731,0.67342 3.13894,9.36629 3.13894,10.29065 0,0.33766 -0.62504,0.41606 -3.31664,0.41606 h -3.31655 l -0.32373,-1.22982 c -1.66677,-6.33216 -2.11069,-7.48638 -3.31103,-8.60878 -0.68608,-0.6415 -1.02492,-0.72343 -2.99354,-0.72343 h -2.21984 l -0.14468,5.20868 -0.14469,5.20867 -3.25849,0.0823 -3.2585,0.0823 z m 131.59439,-0.0895 v -12.59522 l 4.4129,0.0796 4.4129,0.0796 2.2136,5.9321 c 1.21744,3.26265 2.45874,6.58218 2.75833,7.37678 0.63255,1.67744 1.31447,1.98987 1.77122,0.81132 0.17245,-0.445 1.50392,-3.84013 2.95882,-7.54462 l 2.6453,-6.73546 4.24371,0.0796 4.24371,0.0796 0.0751,12.51528 0.0751,12.51529 h -3.33083 -3.33084 v -7.21718 c 0,-3.96944 -0.11548,-7.28852 -0.25655,-7.37579 -0.43107,-0.2664 -0.7784,0.393 -2.58028,4.89905 -0.95465,2.38731 -2.00443,4.95909 -2.33287,5.71507 l -0.59719,1.37451 h -2.61925 -2.61935 l -0.44455,-0.94045 c -0.24452,-0.51725 -1.32197,-3.21925 -2.39427,-6.00445 -1.29213,-3.35597 -2.09215,-5.06398 -2.37211,-5.06398 -0.35711,0 -0.43433,1.12963 -0.49971,7.30661 l -0.0769,7.30661 h -3.1781 -3.1781 z m 74.21119,12.23333 c -0.076,-0.19903 -0.10472,-5.83091 -0.0633,-12.51528 l 0.076,-12.15348 h 11.28545 11.28546 l 0.0751,12.51528 0.0751,12.51528 h -3.47552 -3.47553 v -10.11775 c 0,-9.70703 -0.0226,-10.12997 -0.55975,-10.41735 -0.59574,-0.31885 -6.6652,-0.41054 -7.75965,-0.11719 l -0.65109,0.17453 v 10.23883 10.23893 h -3.33689 c -2.40296,0 -3.37569,-0.10128 -3.47571,-0.3618 z m 64.2099,-0.27952 c 0.0933,-0.36352 2.03943,-5.99973 4.32483,-12.52504 l 4.15518,-11.8642 h 4.46245 4.46255 l 4.0983,12.29825 c 2.2542,6.76404 4.1097,12.40008 4.12354,12.52442 0.0136,0.12443 -1.50482,0.18954 -3.37488,0.14468 l -3.4001,-0.0814 -0.72343,-2.17996 c -0.39789,-1.19899 -0.82878,-2.33838 -0.95755,-2.53199 -0.3646,-0.54827 -8.69486,-0.49094 -9.15469,0.0633 -0.18945,0.22824 -0.63381,1.36764 -0.98766,2.53199 l -0.64321,2.11702 -3.2774,0.0823 -3.27748,0.0823 z m 15.49137,-8.88159 c 0.45512,-0.2882 0.48008,-0.13728 -0.91206,-5.52436 -0.55523,-2.14858 -1.09319,-4.2646 -1.19537,-4.70228 -0.28133,-1.2045 -0.97401,-0.97897 -1.33346,0.43406 -0.17209,0.6764 -0.81756,3.05241 -1.43437,5.27993 -0.79912,2.88611 -1.03487,4.15428 -0.82028,4.4129 0.35086,0.42276 5.0554,0.50523 5.69554,0.0998 z m 51.03124,-2.99237 0.0751,-12.51528 3.25542,-0.0823 3.25542,-0.0823 v 4.58146 c 0,3.17765 0.10644,4.68799 0.34725,4.92889 0.23746,0.23737 1.6457,0.34724 4.45432,0.34724 3.47814,0 4.13393,-0.0705 4.28268,-0.45775 0.0966,-0.25175 0.17562,-2.46543 0.17562,-4.9193 v -4.46164 h 3.32776 3.32776 v 12.58771 12.58754 h -3.32125 -3.32125 l -0.0787,-5.28102 -0.0787,-5.28101 -4.31849,-0.0805 c -3.26085,-0.0606 -4.37601,0.01 -4.55316,0.28937 -0.12904,0.20337 -0.23665,2.616 -0.23909,5.3614 v 4.99165 h -3.33084 -3.33084 z m 65.61787,-0.0823 v -12.59712 l 3.25542,0.0823 3.25542,0.0823 0.0769,7.59598 c 0.0452,4.44944 0.1889,7.59598 0.34697,7.59598 0.43975,0 1.45861,-1.53882 5.36457,-8.10238 2.03627,-3.4218 3.90207,-6.45341 4.14614,-6.73682 0.38459,-0.44662 0.87091,-0.5045 3.64625,-0.43405 l 3.20243,0.0814 v 12.44294 12.44294 l -3.25542,0.0823 -3.25542,0.0823 v -7.22667 c 0,-3.97469 -0.1039,-7.29088 -0.23086,-7.36937 -0.48081,-0.29715 -1.03025,0.45947 -4.92292,6.77996 -2.20003,3.57219 -4.18548,6.78791 -4.41209,7.14601 -0.38911,0.615 -0.6009,0.65108 -3.81481,0.65108 h -3.40282 z m 75.23638,-15.8463 c -1.00638,-0.31324 -4.91931,-3.89294 -4.91931,-4.50016 0,-0.16757 0.45368,-0.65064 1.00828,-1.07366 l 1.00828,-0.769 1.43609,1.29113 c 2.64548,2.37854 4.92681,2.43542 8.11043,0.20229 l 1.77601,-1.24583 0.73898,0.73898 c 0.92074,0.92083 0.74413,1.32306 -1.46973,3.34639 -2.36968,2.16585 -4.98912,2.85048 -7.68903,2.00986 z m -604.78505,-57.8454 c -2.91026,-8.14786 -5.30525,-15.00359 -5.32216,-15.23509 -0.0199,-0.27165 1.0468,-0.872 3.00755,-1.69273 20.62508,-8.63364 30.15668,-17.94857 35.74515,-34.93264 4.25935,-12.94473 6.41851,-30.04952 8.38605,-66.43598 0.89334,-16.52017 3.92956,-67.59319 4.0728,-68.50842 l 0.14713,-0.94045 h 60.8994 60.89942 v 96.94107 96.94125 l -20.32829,-0.0741 -20.32829,-0.0742 -0.20383,-82.15522 c -0.11213,-45.18523 -0.27074,-82.32958 -0.35258,-82.5429 -0.12262,-0.31948 -3.97514,-0.38784 -21.84368,-0.38784 -14.55273,0 -21.75534,0.0979 -21.87878,0.2976 -0.1011,0.16367 -0.3694,4.10273 -0.59619,8.75346 -1.18479,24.29827 -2.20057,43.21054 -2.59113,48.24424 -3.57815,46.11402 -13.0847,78.53881 -27.26694,93.00147 -5.22622,5.32957 -14.1127,11.66155 -21.76737,15.51027 -3.23444,1.62626 -8.68012,3.83561 -12.48933,5.06706 -3.77538,1.22042 -11.03026,3.03767 -12.1277,3.03767 -0.75454,0 -0.87471,-0.29362 -6.06123,-14.81424 z m 223.97325,8.43724 c -16.56304,-2.26713 -27.74568,-10.95738 -32.5618,-25.30429 -2.43198,-7.24485 -2.96777,-16.20883 -1.42262,-23.80318 2.48344,-12.20638 9.89205,-21.7292 21.51806,-27.65877 5.4077,-2.75806 9.4976,-4.17734 15.98492,-5.54706 5.41585,-1.14355 9.55041,-1.51729 30.48249,-2.75598 10.82246,-0.64041 19.83998,-1.22268 20.03892,-1.29403 0.26441,-0.0948 0.35927,-1.12475 0.35276,-3.82819 -0.0217,-8.96452 -1.64561,-14.23695 -5.60484,-18.19608 -4.32835,-4.32835 -10.05047,-5.90316 -21.44933,-5.90316 -13.24413,0 -27.86621,2.18538 -39.7588,5.94222 -1.30443,0.41209 -2.57197,0.7086 -2.81685,0.65895 -0.48089,-0.0976 -8.57504,-22.29393 -8.42186,-23.09521 0.10408,-0.5442 6.00019,-2.97283 12.35025,-5.08687 10.92266,-3.63657 23.47511,-6.06005 36.62863,-7.07185 5.29955,-0.40774 18.49169,-0.41227 22.7156,-0.009 14.85285,1.4219 24.8469,5.39876 32.30154,12.8534 7.2255,7.2254 10.77689,16.23007 11.69184,29.64457 0.20573,3.01651 0.28033,20.20495 0.22255,51.27106 l -0.0868,46.73345 -11.71952,-0.0118 c -12.23242,-0.0127 -14.44312,-0.1805 -17.54879,-1.33454 -3.74645,-1.39215 -5.33518,-3.72249 -5.88815,-8.63681 -0.54691,-4.85962 -0.59231,-4.89001 -3.63992,-2.4384 -2.97057,2.38948 -7.96629,5.65267 -11.40944,7.45247 -6.24371,3.26374 -14.32647,5.8395 -21.99217,7.00828 -3.78949,0.57775 -16.79019,0.8446 -19.96657,0.40982 z m 25.62513,-25.72415 c 7.02763,-1.16598 13.83806,-3.26808 19.69393,-6.07859 3.35697,-1.61116 7.0488,-3.89131 8.43154,-5.2075 l 0.65108,-0.61979 v -13.30888 c 0,-11.41893 -0.0606,-13.33194 -0.42374,-13.47147 -0.45793,-0.17571 -32.81057,1.73233 -37.7164,2.22444 -3.53131,0.35421 -7.32623,1.39676 -9.7413,2.67605 -2.27834,1.20694 -5.28228,4.21531 -6.46535,6.47494 -1.52444,2.91152 -2.11467,5.72728 -2.11178,10.07408 0,4.19117 0.56609,7.03749 1.92269,9.71462 0.92734,1.83009 3.17693,4.27446 5.01534,5.44957 1.62807,1.04074 5.0412,2.21432 7.57319,2.60398 2.64928,0.40783 9.07204,0.14866 13.1708,-0.53145 z m 147.1741,25.00741 c -4.6482,-0.52719 -7.7271,-1.10232 -12.3432,-2.30556 -20.88017,-5.44243 -34.89955,-19.58261 -40.8151,-41.16686 -2.82407,-10.30431 -3.78822,-20.41565 -3.46982,-36.3899 0.51291,-25.72957 1.95777,-40.69221 4.97383,-51.50789 6.62451,-23.75616 22.94248,-42.5071 47.84581,-54.97952 5.5787,-2.79397 8.35033,-3.95886 19.96829,-8.39229 16.98669,-6.48218 20.99782,-8.45659 35.68547,-17.56625 3.31374,-2.05516 6.2126,-3.80875 6.44202,-3.89683 0.54103,-0.20753 1.6826,2.30493 3.26464,7.18517 1.6666,5.14112 2.15464,8.24878 1.99205,12.68601 -0.22797,6.22255 -1.91166,10.04631 -6.43823,14.62144 -4.73971,4.79054 -9.37045,7.39632 -25.35131,14.26562 -10.83793,4.65868 -15.05415,6.71249 -22.53953,10.97962 -10.01349,5.70829 -14.89129,9.16944 -19.10688,13.55747 -4.96695,5.17024 -8.33134,11.3332 -11.39134,20.86634 -1.20831,3.76462 -1.25732,4.28332 -0.44564,4.71765 0.5376,0.28774 0.96153,-0.0597 4.2288,-3.4682 1.99729,-2.08347 4.88783,-4.73456 6.42357,-5.89141 10.11387,-7.61859 22.15865,-11.06363 36.78562,-10.52134 11.0025,0.40793 19.00704,2.25981 27.05615,6.25954 11.91158,5.91899 20.00257,15.75208 24.74888,30.07801 3.1422,9.48421 4.42891,18.58103 4.42448,31.27952 0,14.15357 -2.29073,24.81172 -7.62356,35.54747 -6.20004,12.48173 -14.31237,21.06528 -25.16693,26.62924 -4.91017,2.51689 -8.5217,3.86898 -14.03448,5.25434 -7.7044,1.93598 -11.72204,2.38306 -22.28154,2.47936 -6.55018,0.0597 -10.30521,-0.0344 -12.83205,-0.32075 z m 18.3584,-27.20988 c 12.7985,-2.23186 19.94587,-11.67104 22.44919,-29.64747 0.51418,-3.69246 0.52286,-20.28353 0.0127,-23.87308 -2.01329,-14.15927 -6.23584,-22.31283 -13.98194,-26.99792 -3.12719,-1.89158 -7.81047,-2.97989 -12.8486,-2.98595 -5.76851,-0.009 -10.16848,1.24629 -14.46491,4.11992 -7.85235,5.25198 -13.7839,17.03254 -15.61625,31.01511 -0.52177,3.98237 -0.59276,12.91389 -0.14161,17.85381 1.67943,18.39384 9.27026,28.35398 23.27788,30.54352 3.26283,0.5102 8.30005,0.49763 11.31376,-0.028 z m 138.43556,27.31333 c -30.97388,-2.88502 -48.80571,-18.79046 -54.09649,-48.25264 -1.99286,-11.09791 -2.23223,-25.61907 -0.60497,-36.70631 2.24154,-15.27244 8.66059,-30.4899 16.70013,-39.59043 7.87929,-8.91913 21.01464,-15.2369 36.40979,-17.51208 10.08095,-1.48981 26.07844,-1.10458 38.19693,0.91975 10.79407,1.80305 22.05149,5.34286 24.52326,7.711 0.66935,0.64123 0.79667,1.00366 0.79667,2.26821 0,3.46187 -3.13804,11.14186 -6.78963,16.61693 -1.92404,2.88503 -4.13872,5.34577 -5.07981,5.64445 -0.30619,0.0972 -1.8952,-0.15083 -3.53114,-0.55098 -7.88137,-1.9282 -14.56538,-2.76575 -23.66446,-2.96533 -5.96212,-0.13075 -7.91546,-0.0732 -10.1731,0.29806 -15.67701,2.57983 -25.1577,13.55936 -27.60306,31.96686 -0.58924,4.43533 -0.58309,14.5379 0.0118,19.57457 1.65186,13.98366 6.75889,22.81308 15.83527,27.37718 7.74943,3.89683 17.97778,4.44908 34.00196,1.83579 8.39455,-1.36909 11.96204,-0.85645 16.77002,2.40964 2.02994,1.37903 5.32207,4.79108 6.84868,7.09826 2.18475,3.3019 4.24145,8.51446 4.24145,10.74976 0,0.68907 -0.27409,0.89976 -2.53199,1.94656 -10.7503,4.98414 -23.46498,8.10338 -37.51546,9.20335 -4.43497,0.34715 -18.85078,0.3202 -22.74598,-0.0425 z M 57.320602,581.34519 v -96.93908 h 39.571439 c 39.420419,0 42.958799,0.0769 49.410039,1.03378 15.78427,2.34083 29.08302,8.88775 37.40324,18.41338 8.191,9.3776 12.57334,21.52013 13.24784,36.70621 0.71294,16.05257 -4.09748,30.6515 -14.24879,43.24238 -8.89209,11.02909 -20.47948,16.93325 -37.56185,19.1388 -3.09174,0.39924 -7.56415,0.51589 -25.17317,0.6566 l -21.413428,0.17118 -0.07325,37.25647 -0.07325,37.25656 H 77.865196 l -20.544232,9e-5 z m 77.034088,-6.4583 c 12.36165,-3.01081 19.73626,-10.38225 22.25812,-22.24889 0.76855,-3.61605 0.9183,-11.46984 0.28585,-14.98769 -1.94204,-10.8013 -8.17563,-18.50181 -17.9493,-22.17284 -1.37533,-0.51662 -3.86464,-1.23679 -5.53169,-1.60031 -2.94814,-0.64286 -3.46575,-0.66121 -18.94636,-0.66981 l -15.915388,-0.009 -0.07415,30.81798 c -0.04069,16.94979 -0.0099,30.98825 0.06963,31.1966 0.117285,0.30782 3.297738,0.35692 17.002698,0.26269 14.34166,-0.0986 17.14837,-0.18646 18.80086,-0.58896 z m 120.79896,103.20468 c -0.10607,-0.10607 -0.19288,-36.93147 -0.19288,-81.83411 0,-63.11274 -0.0787,-81.71981 -0.34725,-81.9883 -0.26486,-0.26477 -6.41118,-0.34724 -25.89867,-0.34724 h -25.55143 v -14.7579 -14.75791 h 71.47456 c 67.87704,0 71.47473,0.0253 71.47717,0.5064 0.009,1.07827 -1.46448,26.05394 -1.61803,27.49021 l -0.1625,1.5192 H 320.3731 c -18.82401,0 -24.02265,0.0778 -24.24691,0.36171 -0.1852,0.23466 -0.35213,29.02343 -0.47511,81.92852 -0.10436,44.86177 -0.25989,81.68075 -0.3458,81.81965 -0.1804,0.29199 -39.86036,0.35104 -40.15163,0.0597 z"
     id="path883-6"
     inkscape:connector-curvature="0" />
</svg>
