<?xml version="1.0" encoding="UTF-8" standalone="no"?>
<svg
   xmlns:dc="http://purl.org/dc/elements/1.1/"
   xmlns:cc="http://creativecommons.org/ns#"
   xmlns:rdf="http://www.w3.org/1999/02/22-rdf-syntax-ns#"
   xmlns:svg="http://www.w3.org/2000/svg"
   xmlns="http://www.w3.org/2000/svg"
   viewBox="0 0 292.79999 71.68"
   height="71.68"
   width="292.79999"
   id="svg1125"
   version="1.1">
  <metadata
     id="metadata1131">
    <rdf:RDF>
      <cc:Work
         rdf:about="">
        <dc:format>image/svg+xml</dc:format>
        <dc:type
           rdf:resource="http://purl.org/dc/dcmitype/StillImage" />
        <dc:title></dc:title>
      </cc:Work>
    </rdf:RDF>
  </metadata>
  <defs
     id="defs1129" />
  <path
     id="path1790"
     d=""
     style="fill:#000000;stroke-width:0.31999999" />
  <path
     id="path1788"
     d=""
     style="fill:#000000;stroke-width:0.31999999" />
  <path
     id="path1776"
     d=""
     style="fill:#000000;stroke-width:0.31999999" />
  <path
     id="path1764"
     d=""
     style="fill:#000000;stroke-width:0.31999999" />
  <path
     id="path1762"
     d=""
     style="fill:#000000;stroke-width:0.31999999" />
  <g
     style="fill:#ffffff"
     transform="matrix(0.94842299,0,0,0.94842299,4.2341977,-13.834526)"
     id="g1926">
    <path
       id="path1796"
       d="m 32.012406,87.050017 c -0.09654,-0.01315 -0.465143,-0.05304 -0.819124,-0.08857 -4.797692,-0.481385 -9.460228,-2.691083 -12.677653,-6.008261 -2.702291,-2.786067 -4.257337,-6.031614 -4.827888,-10.076277 -0.161453,-1.144415 -0.143581,-3.888939 0.03274,-5.031764 0.329455,-2.13539 0.888637,-3.929567 1.77791,-5.704617 2.426376,-4.84329 6.818436,-8.397505 12.00229,-9.712731 4.430624,-1.124103 8.918603,-0.645208 12.966245,1.38359 2.883121,1.445095 5.300139,3.569442 7.323558,6.43676 0.423805,0.600561 0.757509,1.144125 2.027038,3.301807 1.622071,2.756827 3.271017,4.93239 5.185278,6.841278 3.269422,3.260263 6.837024,5.067768 10.979031,5.56244 0.93223,0.111332 2.94554,0.125884 3.885814,0.0281 0.353975,-0.03684 0.994029,-0.122265 1.422348,-0.189879 0.497472,-0.07855 0.799032,-0.102663 0.834906,-0.06679 0.161793,0.161813 -0.566056,1.950673 -1.101742,2.707742 -0.821958,1.161657 -2.078528,2.10572 -3.466613,2.604487 -1.558476,0.560002 -3.383003,0.580044 -4.967204,0.05458 -0.654861,-0.217219 -1.0259,-0.401243 -2.521936,-1.250812 -2.183662,-1.240079 -3.367516,-1.649621 -4.768473,-1.649621 -1.050345,0 -1.918836,0.222403 -3.013209,0.771657 -1.506825,0.756229 -2.908257,1.906658 -4.025486,3.304456 -3.003896,3.758335 -6.98168,5.957465 -12.06773,6.671716 -0.634784,0.08913 -3.736709,0.171281 -4.180115,0.110706 z"
       style="fill:#ffffff;stroke-width:0.05850889" />
    <path
       id="path1794"
       d="m 54.392057,86.933457 c -1.061079,-0.277679 -2.025323,-1.031384 -2.833074,-2.214472 -1.031329,-1.510554 -1.224352,-2.748798 -0.620927,-3.983318 0.473101,-0.967849 1.607953,-1.854242 2.927418,-2.286495 0.447726,-0.146671 0.581929,-0.163308 1.345707,-0.166897 0.944938,-0.0045 1.163906,0.04799 1.747734,0.418545 0.419766,0.266396 1.403427,1.227221 1.813719,1.771556 0.828692,1.099492 1.214023,2.250781 1.059654,3.165968 -0.142286,0.843535 -0.654421,1.558516 -1.666408,2.326409 -0.504696,0.382976 -1.451514,0.851633 -1.960049,0.970224 -0.474377,0.110596 -1.38825,0.109846 -1.813774,-0.002 z"
       style="fill:#ffffff;stroke-width:0.05850889" />
    <path
       id="path1792"
       d="M 10.013072,73.632776 C 7.7466837,72.749527 6.2534469,71.948506 4.6983553,70.781764 0.85303937,67.896729 -1.756067,63.673446 -2.616704,58.941102 -2.8546895,57.63257 -2.9144945,56.93856 -2.9141746,55.489076 c 0,-1.391889 0.05975,-2.13896 0.2631163,-3.305751 1.0780358,-6.184977 5.1598575,-11.469389 10.8939696,-14.103586 1.6920938,-0.777346 3.5470207,-1.310767 5.4854687,-1.577493 1.089199,-0.149875 3.052612,-0.177245 4.388165,-0.06119 2.585581,0.224673 4.944184,-0.218713 7.28436,-1.369367 1.531525,-0.753065 2.621599,-1.545968 3.836007,-2.790286 1.474275,-1.510574 2.546582,-3.268397 3.206817,-5.256897 0.33235,-1.000938 0.440152,-1.520262 0.740852,-3.569042 0.244765,-1.667613 0.383032,-2.267368 0.72227,-3.132859 1.175315,-2.998582 3.76406,-5.2937 6.863555,-6.085069 1.492267,-0.381021 3.63989,-0.368498 5.120894,0.02984 1.977106,0.531772 3.772873,1.685805 5.096653,3.275291 1.168715,1.403317 1.659079,2.479368 2.37451,5.210674 0.458074,1.748849 0.762668,2.583516 1.334463,3.656807 1.954326,3.668361 5.414086,6.262205 9.474931,7.10351 0.650617,0.134787 1.164876,0.190738 3.004395,0.326826 0.920762,0.06811 1.455004,0.167392 2.223336,0.413126 2.126251,0.680092 3.66295,2.262264 4.186878,4.310789 0.06242,0.244074 0.12009,0.551463 0.128134,0.683131 0.0181,0.297021 0.0259,0.296931 -0.947933,0.0106 -1.630864,-0.47948 -3.133483,-0.69088 -4.917566,-0.69183 -2.236814,-0.002 -4.038024,0.320282 -6.504159,1.160907 -0.834682,0.284518 -1.132147,0.363305 -1.190088,0.315218 -0.04249,-0.03529 -0.173351,-0.225428 -0.290771,-0.422545 -0.866406,-1.454438 -2.487137,-3.030231 -4.155575,-4.040333 -1.564435,-0.947148 -3.274361,-1.585042 -5.158548,-1.924411 -0.657545,-0.118445 -0.936269,-0.135122 -2.242827,-0.134132 -1.299649,0.002 -1.590036,0.0186 -2.25259,0.136802 -5.555402,0.991175 -9.93311,5.067693 -11.261499,10.486712 -0.156514,0.638479 -0.290772,1.521487 -0.394954,2.597449 l -0.04534,0.468067 -0.204786,-0.01205 c -1.178604,-0.0692 -3.193049,-0.08116 -3.861588,-0.02295 -2.974461,0.259107 -5.44392,0.95898 -8.069764,2.287079 -8.682252,4.391331 -13.3120227,14.11247 -11.271687,23.667302 0.08246,0.386161 0.15007,0.735018 0.15025,0.775247 0,0.125409 -0.176855,0.08083 -1.08212,-0.271975 z"
       style="fill:#ffffff;stroke-width:0.05850889" />
    <path
       id="path1790-3"
       d="m 66.661338,71.285946 c -3.576341,-0.274405 -6.950455,-2.001553 -9.960115,-5.098353 -1.431512,-1.472945 -2.247876,-2.587685 -4.299985,-5.871534 -1.437471,-2.300238 -2.422598,-3.774938 -3.117557,-4.666835 -2.253726,-2.892384 -5.145965,-5.162952 -8.354172,-6.55848 -0.844119,-0.367199 -2.352789,-0.894601 -3.12472,-1.092358 -0.289617,-0.0742 -0.559492,-0.160079 -0.599716,-0.190849 -0.163023,-0.124719 -0.05496,-1.643736 0.198087,-2.784717 0.198072,-0.893101 0.4855,-1.704691 0.90382,-2.551971 0.39389,-0.797842 1.089909,-1.86179 1.23642,-1.890006 0.05388,-0.0104 0.329805,0.136493 0.613153,0.326391 2.695047,1.80619 6.01367,3.040325 9.26225,3.444493 1.05411,0.131133 3.251355,0.132303 4.300401,0.002 1.839244,-0.227987 3.192374,-0.547589 6.406725,-1.513263 3.455021,-1.037983 4.896061,-1.362744 6.728522,-1.516438 2.273602,-0.190683 4.836015,0.27042 7.112762,1.279917 3.803738,1.686555 6.927289,5.17888 8.277709,9.254977 0.558597,1.686075 0.772992,3.051733 0.771967,4.917088 -0.002,2.672226 -0.464483,4.807671 -1.503345,6.933303 -2.107765,4.312743 -6.293894,6.97925 -11.79216,7.511442 -0.922081,0.08924 -2.348599,0.119525 -3.060046,0.06493 z"
       style="fill:#ffffff;stroke-width:0.05850889" />
    <path
       id="path1788-6"
       d="m 50.823015,41.791192 c -2.020039,-0.161263 -4.212675,-0.712836 -6.171974,-1.552587 -1.349836,-0.578544 -3.108394,-1.575148 -3.058587,-1.733362 0.04334,-0.137677 1.017251,-0.756814 1.811599,-1.151673 3.807152,-1.892471 8.293947,-1.458973 11.73416,1.133681 0.899171,0.677643 2.296308,2.171834 2.296308,2.455802 0,0.212205 -2.334107,0.716261 -3.949353,0.852879 -0.803527,0.06794 -1.773126,0.06622 -2.662153,-0.005 z"
       style="fill:#ffffff;stroke-width:0.05850889" />
    <path
       id="path895-3"
       d="M 9.3598657,34.626763 C 9.3428685,34.58257 9.5033818,34.296353 9.7164564,33.990734 13.852509,28.058409 21.157365,23.948982 29.43116,22.899992 c 0.622552,-0.07894 1.008308,-0.104733 1.043267,-0.06977 0.03494,0.03499 0,0.387971 -0.09579,0.954702 -0.529962,3.150446 -1.427158,5.043211 -3.201368,6.753627 -1.893696,1.825622 -3.901722,2.766846 -6.608342,3.097516 -0.438907,0.05363 -1.698878,0.110561 -3.183741,0.143891 -2.82741,0.06343 -3.444603,0.09241 -4.534446,0.212919 -0.893982,0.09884 -2.249387,0.359426 -2.9733213,0.571615 -0.3959742,0.116046 -0.4924382,0.127659 -0.517554,0.06227 z"
       style="fill:#ffffff;stroke-width:0.05850889" />
    <path
       id="path1728"
       d="M 31.895391,86.989517 C 29.79406,86.779907 28.150783,86.43496 26.42481,85.841113 19.899384,83.595981 15.303103,78.607256 13.998855,72.354158 c -0.294351,-1.41122 -0.357901,-2.093947 -0.358086,-3.846851 0,-1.730457 0.04869,-2.322314 0.298116,-3.610954 0.952531,-4.921403 3.944099,-9.341653 8.156264,-12.051478 4.117256,-2.648749 9.055055,-3.557303 13.889077,-2.555595 2.970171,0.615478 5.910863,2.071711 8.256543,4.088621 0.722855,0.621546 2.000048,1.945601 2.624339,2.720662 0.673363,0.835982 1.68383,2.363393 2.438175,3.685568 1.857421,3.255544 3.477367,5.443375 5.612757,7.580285 2.135355,2.13689 4.224233,3.561398 6.6495,4.534582 2.006836,0.805286 3.650718,1.129737 5.975387,1.179394 1.571404,0.03354 2.418938,-0.01775 3.722955,-0.224983 0.413951,-0.0658 0.773617,-0.09764 0.799267,-0.07072 0.08016,0.08412 -0.225517,1.014686 -0.556677,1.69471 -0.956271,1.963668 -2.722322,3.3059 -5.003073,3.802403 -0.701338,0.152689 -2.341146,0.152689 -3.042464,0 -1.027399,-0.223648 -1.549078,-0.4524 -3.276496,-1.436687 -1.663663,-0.947952 -2.667916,-1.384499 -3.656807,-1.58963 -0.705508,-0.146326 -1.752544,-0.146016 -2.46372,0 -1.941888,0.400768 -4.284748,2.011845 -5.921426,4.071868 -0.69269,0.87186 -1.952606,2.141939 -2.748184,2.77036 -2.586145,2.042765 -5.612792,3.288678 -9.198506,3.78655 -0.641698,0.0891 -3.712463,0.165143 -4.300405,0.106488 z"
       style="fill:#ffffff;stroke-width:0.05850889" />
    <path
       id="path1726"
       d="m 54.405475,86.848966 c -1.313322,-0.344103 -2.508933,-1.457418 -3.299642,-3.07256 -0.642773,-1.312921 -0.585438,-2.370796 0.188214,-3.472447 1.047111,-1.491008 3.496619,-2.37972 5.046321,-1.830851 1.119344,0.396434 2.696982,2.142029 3.234608,3.57901 0.145321,0.388405 0.164557,0.519484 0.167407,1.14092 0.0035,0.69556 0.002,0.706478 -0.219829,1.169336 -0.179255,0.375443 -0.318927,0.560737 -0.711066,0.943273 -1.381046,1.347296 -2.995673,1.912857 -4.406013,1.543319 z"
       style="fill:#ffffff;stroke-width:0.05850889" />
    <path
       id="path1724"
       d="M 9.7497759,73.456845 C 8.3478888,72.891979 7.6800198,72.579996 6.7848286,72.071795 5.0123831,71.065572 3.6087914,69.948453 2.1592073,68.390287 -3.2051112,62.62416 -4.4066465,53.940493 -0.81772797,46.875817 0.7860305,43.718842 3.28603,41.008837 6.2684894,39.194279 c 3.5409565,-2.154337 7.5827446,-3.07088 11.8507256,-2.687314 4.622202,0.415376 9.093034,-1.510389 12.083492,-5.204825 1.046016,-1.29224 2.028288,-3.195974 2.481073,-4.808461 0.212844,-0.758004 0.239065,-0.89822 0.557332,-2.979709 0.338439,-2.213338 0.530932,-2.902648 1.143725,-4.09539 0.999584,-1.945561 2.602692,-3.505742 4.560872,-4.438757 0.829677,-0.395299 1.555022,-0.633705 2.545142,-0.836476 0.653431,-0.133818 0.904875,-0.155744 1.784518,-0.155649 0.887088,1.1e-4 1.129458,0.02165 1.813774,0.161338 1.066598,0.217689 1.874299,0.495493 2.754527,0.947403 1.437051,0.737777 2.779703,1.92165 3.67399,3.239491 0.850468,1.253277 1.136426,1.982171 1.875158,4.779721 0.349847,1.32484 0.6913,2.238588 1.20353,3.2206 1.353145,2.594248 3.440283,4.672833 6.012081,5.987385 1.816918,0.928695 3.597817,1.396953 5.77795,1.519182 1.250227,0.07008 1.787048,0.139487 2.488016,0.321617 2.277991,0.591871 3.869946,2.001257 4.525757,4.006759 0.166532,0.50923 0.305414,1.187313 0.253728,1.238759 -0.0229,0.0228 -0.23912,-0.02345 -0.48047,-0.102733 -0.69236,-0.227527 -1.786513,-0.482665 -2.608712,-0.608314 -3.046022,-0.465457 -5.837354,-0.178615 -9.16642,0.941904 -0.587173,0.197632 -1.097938,0.362334 -1.135057,0.366009 -0.03709,0.0035 -0.277369,-0.309294 -0.533891,-0.69545 -1.570434,-2.364037 -4.064155,-4.202806 -7.022313,-5.177964 -1.669403,-0.550314 -2.936432,-0.732368 -4.776866,-0.686346 -1.367848,0.03419 -2.071341,0.135118 -3.309075,0.474671 -5.440596,1.492487 -9.608258,6.357154 -10.181408,11.884125 -0.03669,0.353976 -0.08446,0.801572 -0.106083,0.99465 l -0.03934,0.351051 -0.438817,-0.02924 c -1.074677,-0.07164 -3.715038,-0.02515 -4.505181,0.07933 -6.978886,0.922797 -12.851915,4.892112 -16.268487,10.995118 -1.92177,3.432809 -2.88597,7.660407 -2.641821,11.58308 0.0777,1.248473 0.235151,2.432251 0.453235,3.407794 0.07908,0.353761 0.143781,0.663124 0.143781,0.68748 0,0.08764 -0.163413,0.03455 -1.2871861,-0.418265 z"
       style="fill:#ffffff;stroke-width:0.05850889" />
    <path
       id="path1722"
       d="M 65.982541,71.193211 C 62.787332,70.80656 59.60679,69.101904 56.825938,66.285597 55.359901,64.800893 54.449467,63.55482 52.229256,59.994262 49.91874,56.288873 48.981396,55.04121 47.217554,53.323316 c -2.599788,-2.532084 -5.65688,-4.298341 -9.122179,-5.270444 -0.48162,-0.135103 -0.896061,-0.274685 -0.920967,-0.310189 -0.0249,-0.03549 -0.02934,-0.354166 -0.0098,-0.708142 0.121695,-2.207028 0.735363,-4.088106 1.899599,-5.822877 0.48246,-0.718891 0.440537,-0.702804 0.945703,-0.363085 2.721998,1.830436 5.823867,3.012054 9.204106,3.506197 0.99096,0.144866 3.726725,0.142892 4.768472,-0.0035 1.810339,-0.254293 3.15771,-0.581888 6.389523,-1.553502 3.917169,-1.177674 5.413241,-1.467896 7.566718,-1.467896 3.979992,0 7.793124,1.624555 10.591424,4.512425 2.017604,2.082184 3.357277,4.474631 4.02693,7.19147 0.296401,1.20258 0.389776,1.910372 0.428084,3.245126 0.138352,4.818589 -1.527726,8.901705 -4.719605,11.566532 -1.983321,1.65582 -4.69603,2.816472 -7.549531,3.230109 -1.531029,0.221933 -3.472682,0.270185 -4.733497,0.117605 z"
       style="fill:#ffffff;stroke-width:0.05850889" />
    <path
       id="path1720"
       d="m 51.612884,41.758848 c -3.120862,-0.110857 -6.452868,-1.102052 -9.193972,-2.735016 -0.252998,-0.150715 -0.525813,-0.325856 -0.606265,-0.389195 l -0.14627,-0.115151 0.175526,-0.14759 c 0.24104,-0.202677 1.013041,-0.6657 1.59391,-0.955962 2.576966,-1.287741 5.613687,-1.50318 8.378652,-0.594391 1.860146,0.611399 3.635101,1.771301 4.852659,3.171123 0.591942,0.680552 0.75114,0.923912 0.646742,0.988561 -0.138941,0.08607 -1.730477,0.455239 -2.49477,0.578694 -0.899116,0.145226 -2.289325,0.231491 -3.206212,0.198927 z"
       style="fill:#ffffff;stroke-width:0.05850889" />
    <path
       id="path893-6"
       d="m 9.4572245,34.55403 c 0,-0.03039 0.198312,-0.338514 0.4406568,-0.684721 1.5472277,-2.210028 3.8796707,-4.446876 6.3463757,-6.086224 2.64519,-1.757953 5.843269,-3.175822 9.039627,-4.007749 1.491213,-0.38811 3.504243,-0.756719 4.666085,-0.854413 l 0.453445,-0.03814 v 0.180041 c 0,0.291411 -0.280129,1.734736 -0.499317,2.572657 -0.506051,1.934559 -1.224757,3.242596 -2.510323,4.568791 -1.565315,1.614792 -3.211207,2.578816 -5.242234,3.070475 -1.293745,0.313188 -2.096652,0.381586 -5.26368,0.44838 -2.727737,0.05752 -4.023637,0.145726 -5.207295,0.354381 -0.556218,0.09806 -1.6948084,0.366319 -2.1209525,0.499722 -0.056311,0.01755 -0.102388,0.0071 -0.102388,-0.0232 z"
       style="fill:#ffffff;stroke-width:0.05850889" />
    <path
       id="path1660"
       d="M 31.895391,86.989517 C 29.79406,86.779907 28.150783,86.43496 26.42481,85.841113 19.899384,83.595981 15.303103,78.607256 13.998855,72.354158 c -0.294351,-1.41122 -0.357901,-2.093947 -0.358086,-3.846851 0,-1.730457 0.04869,-2.322314 0.298116,-3.610954 0.952531,-4.921403 3.944099,-9.341653 8.156264,-12.051478 4.117256,-2.648749 9.055055,-3.557303 13.889077,-2.555595 2.970171,0.615478 5.910863,2.071711 8.256543,4.088621 0.722855,0.621546 2.000048,1.945601 2.624339,2.720662 0.673363,0.835982 1.68383,2.363393 2.438175,3.685568 1.857421,3.255544 3.477367,5.443375 5.612757,7.580285 2.135355,2.13689 4.224233,3.561398 6.6495,4.534582 2.006836,0.805286 3.650718,1.129737 5.975387,1.179394 1.571404,0.03354 2.418938,-0.01775 3.722955,-0.224983 0.413951,-0.0658 0.773617,-0.09764 0.799267,-0.07072 0.08016,0.08412 -0.225517,1.014686 -0.556677,1.69471 -0.956271,1.963668 -2.722322,3.3059 -5.003073,3.802403 -0.701338,0.152689 -2.341146,0.152689 -3.042464,0 -1.027399,-0.223648 -1.549078,-0.4524 -3.276496,-1.436687 -1.663663,-0.947952 -2.667916,-1.384499 -3.656807,-1.58963 -0.705508,-0.146326 -1.752544,-0.146016 -2.46372,0 -1.941888,0.400768 -4.284748,2.011845 -5.921426,4.071868 -0.69269,0.87186 -1.952606,2.141939 -2.748184,2.77036 -2.586145,2.042765 -5.612792,3.288678 -9.198506,3.78655 -0.641698,0.0891 -3.712463,0.165143 -4.300405,0.106488 z"
       style="fill:#ffffff;stroke-width:0.05850889" />
    <path
       id="path1658"
       d="m 54.405475,86.848966 c -1.313322,-0.344103 -2.508933,-1.457418 -3.299642,-3.07256 -0.642773,-1.312921 -0.585438,-2.370796 0.188214,-3.472447 1.047111,-1.491008 3.496619,-2.37972 5.046321,-1.830851 1.119344,0.396434 2.696982,2.142029 3.234608,3.57901 0.145321,0.388405 0.164557,0.519484 0.167407,1.14092 0.0035,0.69556 0.002,0.706478 -0.219829,1.169336 -0.179255,0.375443 -0.318927,0.560737 -0.711066,0.943273 -1.381046,1.347296 -2.995673,1.912857 -4.406013,1.543319 z"
       style="fill:#ffffff;stroke-width:0.05850889" />
    <path
       id="path1656"
       d="M 9.7497759,73.456845 C 8.3478888,72.891979 7.6800198,72.579996 6.7848286,72.071795 5.0123831,71.065572 3.6087914,69.948453 2.1592073,68.390287 -3.2051112,62.62416 -4.4066465,53.940493 -0.81772797,46.875817 0.7860305,43.718842 3.28603,41.008837 6.2684894,39.194279 c 3.5409565,-2.154337 7.5827446,-3.07088 11.8507256,-2.687314 4.622202,0.415376 9.093034,-1.510389 12.083492,-5.204825 1.046016,-1.29224 2.028288,-3.195974 2.481073,-4.808461 0.212844,-0.758004 0.239065,-0.89822 0.557332,-2.979709 0.338439,-2.213338 0.530932,-2.902648 1.143725,-4.09539 0.999584,-1.945561 2.602692,-3.505742 4.560872,-4.438757 0.829677,-0.395299 1.555022,-0.633705 2.545142,-0.836476 0.653431,-0.133818 0.904875,-0.155744 1.784518,-0.155649 0.887088,1.1e-4 1.129458,0.02165 1.813774,0.161338 1.066598,0.217689 1.874299,0.495493 2.754527,0.947403 1.437051,0.737777 2.779703,1.92165 3.67399,3.239491 0.850468,1.253277 1.136426,1.982171 1.875158,4.779721 0.349847,1.32484 0.6913,2.238588 1.20353,3.2206 1.353145,2.594248 3.440283,4.672833 6.012081,5.987385 1.816918,0.928695 3.597817,1.396953 5.77795,1.519182 1.250227,0.07008 1.787048,0.139487 2.488016,0.321617 2.277991,0.591871 3.869946,2.001257 4.525757,4.006759 0.166532,0.50923 0.305414,1.187313 0.253728,1.238759 -0.0229,0.0228 -0.23912,-0.02345 -0.48047,-0.102733 -0.69236,-0.227527 -1.786513,-0.482665 -2.608712,-0.608314 -3.046022,-0.465457 -5.837354,-0.178615 -9.16642,0.941904 -0.587173,0.197632 -1.097938,0.362334 -1.135057,0.366009 -0.03709,0.0035 -0.277369,-0.309294 -0.533891,-0.69545 -1.570434,-2.364037 -4.064155,-4.202806 -7.022313,-5.177964 -1.669403,-0.550314 -2.936432,-0.732368 -4.776866,-0.686346 -1.367848,0.03419 -2.071341,0.135118 -3.309075,0.474671 -5.440596,1.492487 -9.608258,6.357154 -10.181408,11.884125 -0.03669,0.353976 -0.08446,0.801572 -0.106083,0.99465 l -0.03934,0.351051 -0.438817,-0.02924 c -1.074677,-0.07164 -3.715038,-0.02515 -4.505181,0.07933 -6.978886,0.922797 -12.851915,4.892112 -16.268487,10.995118 -1.92177,3.432809 -2.88597,7.660407 -2.641821,11.58308 0.0777,1.248473 0.235151,2.432251 0.453235,3.407794 0.07908,0.353761 0.143781,0.663124 0.143781,0.68748 0,0.08764 -0.163413,0.03455 -1.2871861,-0.418265 z"
       style="fill:#ffffff;stroke-width:0.05850889" />
    <path
       id="path1654"
       d="m 51.612884,41.758848 c -3.120862,-0.110857 -6.452868,-1.102052 -9.193972,-2.735016 -0.252998,-0.150715 -0.525813,-0.325856 -0.606265,-0.389195 l -0.14627,-0.115151 0.175526,-0.14759 c 0.24104,-0.202677 1.013041,-0.6657 1.59391,-0.955962 2.576966,-1.287741 5.613687,-1.50318 8.378652,-0.594391 1.860146,0.611399 3.635101,1.771301 4.852659,3.171123 0.591942,0.680552 0.75114,0.923912 0.646742,0.988561 -0.138941,0.08607 -1.730477,0.455239 -2.49477,0.578694 -0.899116,0.145226 -2.289325,0.231491 -3.206212,0.198927 z"
       style="fill:#ffffff;stroke-width:0.05850889" />
    <path
       id="path891-7"
       d="m 9.4572245,34.55403 c 0,-0.03039 0.198312,-0.338514 0.4406568,-0.684721 1.5472277,-2.210028 3.8796707,-4.446876 6.3463757,-6.086224 2.64519,-1.757953 5.843269,-3.175822 9.039627,-4.007749 1.491213,-0.38811 3.504243,-0.756719 4.666085,-0.854413 l 0.453445,-0.03814 v 0.180041 c 0,0.291411 -0.280129,1.734736 -0.499317,2.572657 -0.506051,1.934559 -1.224757,3.242596 -2.510323,4.568791 -1.565315,1.614792 -3.211207,2.578816 -5.242234,3.070475 -1.293745,0.313188 -2.096652,0.381586 -5.26368,0.44838 -2.727737,0.05752 -4.023637,0.145726 -5.207295,0.354381 -0.556218,0.09806 -1.6948084,0.366319 -2.1209525,0.499722 -0.056311,0.01755 -0.102388,0.0071 -0.102388,-0.0232 z"
       style="fill:#ffffff;stroke-width:0.05850889" />
    <path
       id="path1594"
       d="m 54.405475,86.848966 c -1.313337,-0.344103 -2.508933,-1.457418 -3.299642,-3.07256 -0.642773,-1.312921 -0.585438,-2.370796 0.188214,-3.472447 1.047111,-1.491008 3.496619,-2.37972 5.046321,-1.830851 1.119344,0.396434 2.696982,2.142029 3.234608,3.57901 0.145321,0.388405 0.164557,0.519484 0.167407,1.14092 0.0035,0.69556 0.002,0.706478 -0.219844,1.169336 -0.17924,0.375443 -0.318912,0.560737 -0.711051,0.943273 -1.381046,1.347296 -2.995673,1.912857 -4.406013,1.543319 z"
       style="fill:#ffffff;stroke-width:0.05850889" />
    <path
       id="path1592"
       d="M 9.7497759,73.456845 C 8.3478888,72.891979 7.6800198,72.579996 6.7848286,72.071795 5.0123831,71.065572 3.6087914,69.948453 2.1592073,68.390287 -3.2051112,62.62416 -4.4066465,53.940493 -0.81772797,46.875817 0.7860305,43.718842 3.28603,41.008837 6.2684894,39.194279 c 3.5409565,-2.154337 7.5827446,-3.07088 11.8507256,-2.687314 4.622202,0.415376 9.093034,-1.510389 12.083492,-5.204825 1.046016,-1.29224 2.028288,-3.195974 2.481073,-4.808461 0.212844,-0.758004 0.239065,-0.89822 0.557332,-2.979709 0.338439,-2.213338 0.530932,-2.902648 1.143725,-4.09539 0.999584,-1.945561 2.602692,-3.505742 4.560872,-4.438757 0.829677,-0.395299 1.555022,-0.633705 2.545142,-0.836476 0.653431,-0.133818 0.904875,-0.155744 1.784518,-0.155649 0.887088,1.1e-4 1.129458,0.02165 1.813774,0.161338 1.066598,0.217689 1.874299,0.495493 2.754527,0.947403 1.437051,0.737777 2.779703,1.92165 3.67399,3.239491 0.850468,1.253277 1.136426,1.982171 1.875158,4.779721 0.349847,1.32484 0.6913,2.238588 1.20353,3.2206 1.353145,2.594248 3.440283,4.672833 6.012081,5.987385 1.816918,0.928695 3.597817,1.396953 5.77795,1.519182 1.250227,0.07008 1.787048,0.139487 2.488016,0.321617 2.277991,0.591871 3.869946,2.001257 4.525757,4.006759 0.166532,0.50923 0.305414,1.187313 0.253728,1.238759 -0.0229,0.0228 -0.23912,-0.02345 -0.48047,-0.102733 -0.69236,-0.227527 -1.786513,-0.482665 -2.608712,-0.608314 -3.046022,-0.465457 -5.837354,-0.178615 -9.16642,0.941904 -0.587173,0.197632 -1.097938,0.362334 -1.135057,0.366009 -0.03709,0.0035 -0.277369,-0.309294 -0.533891,-0.69545 -1.570434,-2.364037 -4.064155,-4.202806 -7.022313,-5.177964 -1.669403,-0.550314 -2.936432,-0.732368 -4.776866,-0.686346 -1.367848,0.03419 -2.071341,0.135118 -3.309075,0.474671 -5.440596,1.492487 -9.608258,6.357154 -10.181408,11.884125 -0.03669,0.353976 -0.08446,0.801572 -0.106083,0.99465 l -0.03934,0.351051 -0.438817,-0.02924 c -1.074677,-0.07164 -3.715038,-0.02515 -4.505181,0.07933 -6.978886,0.922797 -12.851915,4.892112 -16.268487,10.995118 -1.92177,3.432809 -2.88597,7.660407 -2.641821,11.58308 0.0777,1.248473 0.235151,2.432251 0.453235,3.407794 0.07908,0.353761 0.143781,0.663124 0.143781,0.68748 0,0.08764 -0.163413,0.03455 -1.2871861,-0.418265 z"
       style="fill:#ffffff;stroke-width:0.05850889" />
    <path
       id="path1590"
       d="m 51.612884,41.758848 c -3.120862,-0.110857 -6.452868,-1.102052 -9.193972,-2.735016 -0.252998,-0.150715 -0.525813,-0.325856 -0.606265,-0.389195 l -0.14627,-0.115151 0.175526,-0.14759 c 0.24104,-0.202677 1.013041,-0.6657 1.59391,-0.955962 2.576966,-1.287741 5.613687,-1.50318 8.378652,-0.594391 1.860146,0.611399 3.635101,1.771301 4.852659,3.171123 0.591942,0.680552 0.75114,0.923912 0.646742,0.988561 -0.138941,0.08607 -1.730477,0.455239 -2.49477,0.578694 -0.899116,0.145226 -2.289325,0.231491 -3.206212,0.198927 z"
       style="fill:#ffffff;stroke-width:0.05850889" />
    <path
       id="path889-5"
       d="m 9.4572245,34.55403 c 0,-0.03039 0.198312,-0.338514 0.4406568,-0.684721 1.5472277,-2.210028 3.8796707,-4.446876 6.3463757,-6.086224 2.64519,-1.757953 5.843269,-3.175822 9.039627,-4.007749 1.491213,-0.38811 3.504243,-0.756719 4.666085,-0.854413 l 0.453445,-0.03814 v 0.180041 c 0,0.291411 -0.280129,1.734736 -0.499317,2.572657 -0.506051,1.934559 -1.224757,3.242596 -2.510323,4.568791 -1.565315,1.614792 -3.211207,2.578816 -5.242234,3.070475 -1.293745,0.313188 -2.096652,0.381586 -5.26368,0.44838 -2.727737,0.05752 -4.023637,0.145726 -5.207295,0.354381 -0.556218,0.09806 -1.6948084,0.366319 -2.1209525,0.499722 -0.056311,0.01755 -0.102388,0.0071 -0.102388,-0.0232 z"
       style="fill:#ffffff;stroke-width:0.05850889" />
    <path
       id="path1530"
       d="m 54.405475,86.848966 c -1.313337,-0.344103 -2.508933,-1.457418 -3.299642,-3.07256 -0.642773,-1.312921 -0.585438,-2.370796 0.188214,-3.472447 1.047111,-1.491008 3.496619,-2.37972 5.046321,-1.830851 1.119344,0.396434 2.696982,2.142029 3.234608,3.57901 0.145321,0.388405 0.164557,0.519484 0.167407,1.14092 0.0035,0.69556 0.002,0.706478 -0.219844,1.169336 -0.17924,0.375443 -0.318912,0.560737 -0.711051,0.943273 -1.381046,1.347296 -2.995673,1.912857 -4.406013,1.543319 z"
       style="fill:#ffffff;stroke-width:0.05850889" />
    <path
       id="path1528"
       d="m 51.612884,41.758848 c -3.120862,-0.110857 -6.452868,-1.102052 -9.193972,-2.735016 -0.252998,-0.150715 -0.525813,-0.325856 -0.606265,-0.389195 l -0.14627,-0.115151 0.175526,-0.14759 c 0.24104,-0.202677 1.013041,-0.6657 1.59391,-0.955962 2.576966,-1.287741 5.613687,-1.50318 8.378652,-0.594391 1.860146,0.611399 3.635101,1.771301 4.852659,3.171123 0.591942,0.680552 0.75114,0.923912 0.646742,0.988561 -0.138941,0.08607 -1.730477,0.455239 -2.49477,0.578694 -0.899116,0.145226 -2.289325,0.231491 -3.206212,0.198927 z"
       style="fill:#ffffff;stroke-width:0.05850889" />
    <path
       id="path887-3"
       d="m 9.4572245,34.55403 c 0,-0.03039 0.198312,-0.338514 0.4406568,-0.684721 1.5472277,-2.210028 3.8796707,-4.446876 6.3463757,-6.086224 2.64519,-1.757953 5.843269,-3.175822 9.039627,-4.007749 1.491213,-0.38811 3.504243,-0.756719 4.666085,-0.854413 l 0.453445,-0.03814 v 0.180041 c 0,0.291411 -0.280129,1.734736 -0.499317,2.572657 -0.506051,1.934559 -1.224757,3.242596 -2.510323,4.568791 -1.565315,1.614792 -3.211207,2.578816 -5.242234,3.070475 -1.293745,0.313188 -2.096652,0.381586 -5.26368,0.44838 -2.727737,0.05752 -4.023637,0.145726 -5.207295,0.354381 -0.556218,0.09806 -1.6948084,0.366319 -2.1209525,0.499722 -0.056311,0.01755 -0.102388,0.0071 -0.102388,-0.0232 z"
       style="fill:#ffffff;stroke-width:0.05850889" />
  </g>
  <path
     id="path883-6"
     d="m 133.82935,64.278778 c -0.15644,-0.01381 -0.28442,-0.05091 -0.28442,-0.08243 0,-0.03152 -0.0682,-0.05735 -0.15161,-0.05735 -0.20532,0 -0.23587,-0.118614 -0.13654,-0.530463 l 0.0841,-0.348476 0.39628,0.02042 c 0.33855,0.01745 0.41454,0.0017 0.52178,-0.106671 0.15229,-0.154152 0.24467,0.08192 -0.94686,-2.419309 -0.49767,-1.044681 -0.90486,-1.910736 -0.90486,-1.924587 0,-0.01389 0.29483,-0.02515 0.65518,-0.02515 0.45838,0 0.66972,0.02279 0.7036,0.07573 0.0267,0.04167 0.29206,0.648452 0.58978,1.348367 0.34907,0.820539 0.57554,1.27926 0.63756,1.291349 0.0662,0.01288 0.12593,-0.06303 0.19102,-0.242093 0.57069,-1.570317 0.82994,-2.265683 0.87997,-2.360299 0.0525,-0.0993 0.13611,-0.113091 0.68642,-0.113091 0.47545,0 0.62669,0.01915 0.62669,0.07912 0,0.114888 -1.83381,4.567488 -1.97924,4.80565 -0.0675,0.110534 -0.22236,0.262263 -0.34423,0.3372 -0.12185,0.07497 -0.235,0.155372 -0.25146,0.178769 -0.0417,0.05913 -0.63087,0.10358 -0.97309,0.07327 z m 72.83135,-0.07006 c -0.0494,-0.02932 -0.23336,-0.06963 -0.40883,-0.0895 -0.67441,-0.0765 -1.34509,-0.543281 -1.64628,-1.145854 -0.4342,-0.868715 -0.43924,-2.161028 -0.0119,-3.014969 0.4665,-0.931918 1.50467,-1.397671 2.74111,-1.229744 0.63114,0.08571 0.98751,0.242873 1.36826,0.603402 0.54305,0.514208 0.7701,1.138102 0.77123,2.119299 0.002,1.492422 -0.70984,2.446402 -2.00531,2.688435 -0.61768,0.115413 -0.71603,0.123808 -0.80841,0.06896 z m 0.61851,-1.06159 c 0.2755,-0.116541 0.502,-0.41445 0.61547,-0.80962 0.14691,-0.511581 0.0941,-1.699782 -0.093,-2.094019 -0.17672,-0.372356 -0.41752,-0.544357 -0.80796,-0.577133 -0.81381,-0.06828 -1.23129,0.543891 -1.23129,1.805547 0,0.674002 0.10869,1.117704 0.34282,1.399356 0.28234,0.339676 0.7585,0.451564 1.17391,0.275869 z m -99.84295,-1.705527 10e-5,-2.667145 1.9761,0.01669 1.97615,0.01669 v 0.453037 0.453019 h -1.19555 c -1.12067,0 -1.1994,0.0076 -1.25748,0.117252 -0.0392,0.07421 -0.062,0.873602 -0.062,2.178648 v 2.061388 l -0.71869,0.01872 -0.7187,0.01872 z m 184.66094,2.652196 -0.70362,-0.01923 v -1.509909 c 0,-0.91368 -0.023,-1.524317 -0.0583,-1.546384 -0.0863,-0.05404 -0.15849,0.05108 -1.10228,1.605337 l -0.86499,1.4245 -0.72382,0.01703 -0.72377,0.01703 v -2.640674 -2.640673 l 0.67367,0.01728 0.67367,0.01728 0.0299,1.576034 c 0.0238,1.256294 0.0461,1.576043 0.10964,1.576043 0.0439,0 0.50192,-0.709217 1.01797,-1.576043 l 0.93832,-1.576034 h 0.68864 c 0.38983,0 0.70773,-0.02626 0.73263,-0.06065 0.0242,-0.03329 0.0444,1.16005 0.0448,2.651981 0,1.491941 -0.006,2.706734 -0.014,2.699575 -0.008,-0.0076 -0.3316,-0.02168 -0.71858,-0.03228 z M 120.19126,61.4416 v -2.636836 h 1.27488 c 1.38497,0 1.78875,0.06057 2.1749,0.326171 0.44852,0.308525 0.66473,0.839209 0.60656,1.488754 -0.0575,0.641785 -0.46285,1.186042 -1.02377,1.37468 -0.17067,0.05743 -0.60157,0.119394 -0.96665,0.13909 l -0.6587,0.03549 -0.0166,0.954707 -0.0166,0.954716 h -0.68712 -0.68714 z m 2.43121,-0.418262 c 0.18106,-0.183268 0.20358,-0.24216 0.20358,-0.532065 0,-0.365909 -0.0956,-0.548297 -0.35994,-0.686675 -0.20744,-0.108576 -0.72504,-0.11975 -0.82571,-0.01788 -0.0753,0.07625 -0.10403,1.166049 -0.0356,1.346793 0.028,0.07387 0.12587,0.09588 0.42517,0.09588 0.36234,0 0.40269,-0.01397 0.59243,-0.20609 z m 23.40528,2.979306 c -0.0157,-0.04167 -0.0217,-1.221435 -0.013,-2.621681 l 0.0158,-2.545888 2.35037,-0.01593 2.35036,-0.01592 v 2.639461 2.639472 l -0.70364,-0.01703 -0.7036,-0.01703 -0.0158,-2.129888 -0.0158,-2.129863 -0.13397,-0.03634 c -0.2259,-0.06133 -1.48197,-0.04194 -1.60504,0.02474 -0.11111,0.06023 -0.1158,0.148816 -0.1158,2.182207 v 2.119468 h -0.69053 c -0.49727,0 -0.69856,-0.02118 -0.71926,-0.07582 z m 13.77283,0 c -0.0158,-0.04167 -0.0217,-1.221435 -0.013,-2.621681 l 0.0157,-2.545888 2.35037,-0.01593 2.35035,-0.01592 v 2.639461 2.639472 l -0.7036,-0.01703 -0.70362,-0.01703 -0.0158,-2.129888 -0.0157,-2.129863 -0.134,-0.03634 c -0.22587,-0.06133 -1.48195,-0.04194 -1.60502,0.02474 -0.11112,0.06023 -0.11581,0.148816 -0.11581,2.182207 v 2.119468 h -0.69054 c -0.49725,0 -0.69857,-0.02118 -0.71924,-0.07582 z m 13.26709,0.03236 c 0,-0.02609 0.40137,-1.206755 0.89111,-2.623673 l 0.89037,-2.576214 h 0.92034 0.92034 l 0.84877,2.545904 c 0.46684,1.400246 0.85083,2.580875 0.85333,2.623613 0.004,0.05989 -0.15582,0.07379 -0.69661,0.06065 l -0.70113,-0.01703 -0.13949,-0.451198 c -0.0768,-0.24815 -0.16872,-0.486822 -0.20444,-0.530398 -0.0481,-0.05862 -0.29426,-0.07921 -0.9485,-0.07921 -0.65422,0 -0.90042,0.02059 -0.9485,0.07921 -0.0358,0.04362 -0.12771,0.282248 -0.20444,0.530398 l -0.13946,0.451198 -0.6712,0.01728 c -0.36917,0.0094 -0.67088,-0.0043 -0.67049,-0.03033 z m 3.22908,-1.953195 c 0.0954,-0.06108 0.11308,0.03711 -0.25505,-1.419112 -0.11674,-0.461753 -0.22812,-0.855652 -0.24755,-0.87533 -0.0885,-0.08957 -0.2097,0.204582 -0.41931,1.017792 -0.29102,1.129063 -0.2918,1.132986 -0.25062,1.241647 0.0275,0.07259 0.14536,0.09173 0.56068,0.091 0.28923,0 0.56456,-0.02567 0.61185,-0.05599 z m 14.68923,-0.623013 0.0156,-2.623679 h 0.65869 0.65871 l 0.0299,1.00018 0.0299,1.000172 0.26949,0.01983 c 0.36795,0.02702 0.6812,-0.07861 0.8556,-0.288371 0.0921,-0.110813 0.2177,-0.439814 0.34089,-0.893002 0.10727,-0.394652 0.22207,-0.751642 0.25512,-0.79332 0.0691,-0.08715 1.21552,-0.109305 1.26732,-0.02449 0.0384,0.06277 -0.36468,1.615866 -0.47419,1.827294 -0.0434,0.08361 -0.17539,0.246065 -0.29347,0.360953 -0.11809,0.114887 -0.21471,0.23989 -0.21471,0.277773 0,0.03787 0.0989,0.134821 0.21986,0.215417 0.12093,0.08065 0.26864,0.21473 0.32822,0.298089 0.10086,0.141063 0.64956,1.96203 0.64956,2.155666 0,0.07074 -0.12934,0.08715 -0.68633,0.08715 h -0.68633 l -0.067,-0.25762 c -0.34491,-1.326445 -0.43678,-1.568232 -0.68519,-1.803353 -0.14196,-0.134373 -0.21208,-0.151544 -0.61946,-0.151544 h -0.45939 l -0.0299,1.091104 -0.0299,1.091112 -0.67431,0.01728 -0.67431,0.01728 z m 27.23193,-0.01872 v -2.63842 l 0.91319,0.01669 0.9132,0.01669 0.45808,1.242654 c 0.25194,0.683447 0.50881,1.378823 0.5708,1.545266 0.13091,0.35139 0.27203,0.416839 0.36654,0.169952 0.0357,-0.09322 0.31123,-0.804418 0.61229,-1.580422 l 0.54741,-1.410937 0.87821,0.01669 0.87818,0.01669 0.0156,2.62168 0.0155,2.621682 h -0.68927 -0.68928 v -1.51184 c 0,-0.831508 -0.0239,-1.526791 -0.053,-1.545072 -0.0892,-0.05583 -0.16109,0.08235 -0.53396,1.026248 -0.19755,0.500095 -0.4148,1.038818 -0.48275,1.197181 l -0.12359,0.287931 h -0.54203 -0.54204 l -0.092,-0.197 c -0.0506,-0.108356 -0.27358,-0.674367 -0.49546,-1.257802 -0.2674,-0.703008 -0.43295,-1.060793 -0.49089,-1.060793 -0.0739,0 -0.0898,0.236629 -0.10341,1.530578 l -0.0159,1.530569 h -0.65767 -0.65768 z m 15.35713,2.56262 c -0.0158,-0.04168 -0.0216,-1.221453 -0.013,-2.621682 l 0.0158,-2.545887 h 2.33539 2.3354 l 0.0155,2.62168 0.0155,2.621673 h -0.71921 -0.71922 v -2.119443 c 0,-2.033408 -0.004,-2.12201 -0.11584,-2.182207 -0.12328,-0.06676 -1.37929,-0.086 -1.60578,-0.02457 l -0.13472,0.0366 v 2.144806 2.144832 h -0.69054 c -0.49726,0 -0.69855,-0.02118 -0.71924,-0.07582 z m 13.2875,-0.05854 c 0.0193,-0.07615 0.42203,-1.25682 0.89498,-2.623731 l 0.85987,-2.485293 h 0.92344 0.92347 l 0.8481,2.576216 c 0.46647,1.416926 0.85045,2.597554 0.85333,2.623595 0.002,0.02609 -0.31142,0.03973 -0.6984,0.03033 l -0.70362,-0.01703 -0.1497,-0.456654 c -0.0823,-0.251165 -0.1715,-0.489837 -0.19816,-0.530397 -0.0754,-0.114846 -1.79928,-0.102829 -1.89445,0.0133 -0.0392,0.04787 -0.13117,0.286492 -0.20438,0.530397 l -0.13311,0.443472 -0.67822,0.01728 -0.67824,0.01728 z m 3.20576,-1.86051 c 0.0941,-0.06041 0.0993,-0.02881 -0.18875,-1.15723 -0.11489,-0.450079 -0.22621,-0.893341 -0.24736,-0.985017 -0.0582,-0.252318 -0.20156,-0.205082 -0.27594,0.09092 -0.0357,0.141691 -0.16919,0.639414 -0.29683,1.10603 -0.16537,0.60458 -0.21415,0.870231 -0.16975,0.924404 0.0726,0.08856 1.04615,0.105833 1.17863,0.02092 z m 10.56032,-0.626834 0.0155,-2.62168 0.67367,-0.0172 0.67366,-0.01728 v 0.959713 c 0,0.66565 0.022,0.982035 0.0719,1.03249 0.0491,0.04973 0.34056,0.07277 0.92177,0.07277 0.71977,0 0.85547,-0.01474 0.88625,-0.09588 0.02,-0.05269 0.0364,-0.516453 0.0364,-1.030491 v -0.934613 h 0.68863 0.68864 v 2.636852 2.63682 h -0.68728 -0.68731 l -0.0163,-1.106268 -0.0163,-1.10625 -0.89366,-0.01685 c -0.67479,-0.01271 -0.90556,0.0017 -0.94221,0.06057 -0.0267,0.04261 -0.0489,0.548 -0.0495,1.1231 v 1.045638 h -0.68928 -0.68927 z m 13.57885,-0.01728 v -2.638826 l 0.67368,0.01728 0.67367,0.01728 0.0159,1.591189 c 0.009,0.932055 0.039,1.591198 0.0718,1.591198 0.091,0 0.30185,-0.322358 1.11014,-1.697276 0.42138,-0.716798 0.80748,-1.351849 0.858,-1.411216 0.0795,-0.09356 0.18022,-0.105688 0.75455,-0.09093 l 0.66269,0.01703 v 2.606516 2.606526 l -0.67367,0.01728 -0.67366,0.01728 v -1.51383 c 0,-0.832611 -0.0215,-1.527274 -0.0478,-1.543716 -0.0995,-0.06218 -0.21321,0.09625 -1.01875,1.420255 -0.45526,0.748287 -0.86613,1.421917 -0.91302,1.496931 -0.0805,0.128831 -0.12435,0.136387 -0.78943,0.136387 h -0.70417 z m 15.5693,-3.319461 c -0.20826,-0.06557 -1.018,-0.815481 -1.018,-0.942677 0,-0.03507 0.0939,-0.136304 0.20866,-0.224913 l 0.20866,-0.161091 0.29717,0.270463 c 0.54745,0.498257 1.01955,0.510175 1.67835,0.04235 l 0.36754,-0.260976 0.15291,0.154805 c 0.19055,0.192891 0.15399,0.277147 -0.30413,0.700992 -0.4904,0.453696 -1.03244,0.597107 -1.59116,0.421022 z M 164.62355,46.002698 c -0.60226,-1.706798 -1.09788,-3.142928 -1.10138,-3.191418 -0.004,-0.05684 0.21663,-0.182675 0.62238,-0.354592 4.26814,-1.808562 6.2406,-3.759833 7.39705,-7.317623 0.88143,-2.71164 1.32824,-6.29472 1.7354,-13.916886 0.18486,-3.460615 0.81317,-14.1592959 0.84282,-14.3510179 l 0.0304,-0.197003 h 12.60243 12.60243 V 26.981193 47.28826 l -4.20671,-0.01559 -4.20669,-0.01559 -0.0422,-17.209723 c -0.0232,-9.465317 -0.056,-17.246245 -0.0729,-17.290932 -0.0254,-0.06692 -0.82261,-0.08125 -4.5203,-0.08125 -3.01152,0 -4.50201,0.02051 -4.52756,0.06234 -0.0209,0.03429 -0.0765,0.859433 -0.12338,1.833659 -0.24517,5.089957 -0.45537,9.051664 -0.5362,10.106114 -0.74046,9.659879 -2.70771,16.452163 -5.64257,19.481769 -1.08151,1.116433 -2.92046,2.442843 -4.50452,3.249065 -0.66932,0.340665 -1.79624,0.803478 -2.58451,1.061437 -0.78128,0.255655 -2.28258,0.636321 -2.50969,0.636321 -0.15614,0 -0.18101,-0.0615 -1.25428,-3.103256 z m 46.34865,1.767409 c -3.42754,-0.474909 -5.74165,-2.295324 -6.73828,-5.300686 -0.50328,-1.517642 -0.61416,-3.395398 -0.29441,-4.986248 0.51393,-2.556973 2.04706,-4.551795 4.45292,-5.793909 1.11906,-0.577754 1.96543,-0.875062 3.3079,-1.161988 1.12075,-0.23955 1.97634,-0.317839 6.30798,-0.577317 2.2396,-0.134153 4.10566,-0.256125 4.14683,-0.271071 0.0547,-0.01987 0.0743,-0.235611 0.0729,-0.801923 -0.004,-1.87787 -0.34055,-2.982329 -1.15985,-3.811681 -0.89571,-0.906694 -2.07984,-1.236582 -4.43871,-1.236582 -2.74071,0 -5.76658,0.457789 -8.22762,1.244765 -0.26992,0.08632 -0.53223,0.148436 -0.5829,0.138035 -0.0995,-0.02045 -1.77451,-4.670091 -1.74281,-4.837941 0.0215,-0.113998 1.24167,-0.622742 2.55574,-1.065588 2.26032,-0.761782 4.8579,-1.269448 7.57986,-1.481398 1.09669,-0.08541 3.82664,-0.08636 4.70074,-0.0019 3.07363,0.297858 5.14177,1.130923 6.68444,2.692506 1.49523,1.513563 2.23013,3.399844 2.41948,6.20989 0.0426,0.631891 0.058,4.232494 0.046,10.740173 l -0.0179,9.789635 -2.42522,-0.0025 c -2.53136,-0.0025 -2.98884,-0.03778 -3.63151,-0.279561 -0.7753,-0.291625 -1.10406,-0.779783 -1.2185,-1.809223 -0.11317,-1.01798 -0.12257,-1.02435 -0.75324,-0.510794 -0.61472,0.500543 -1.64852,1.184118 -2.36105,1.561133 -1.29206,0.683676 -2.9647,1.223246 -4.55102,1.468084 -0.78419,0.121021 -3.47453,0.176924 -4.13185,0.08584 z m 5.30282,-5.388644 c 1.4543,-0.244244 2.86363,-0.68459 4.07543,-1.273329 0.69469,-0.337505 1.45867,-0.81515 1.74482,-1.090858 l 0.13472,-0.12983 v -2.787922 c 0,-2.392015 -0.0126,-2.79275 -0.0877,-2.821977 -0.0947,-0.0368 -6.78975,0.362885 -7.80496,0.465971 -0.73076,0.0742 -1.51609,0.292592 -2.01585,0.560574 -0.47147,0.252826 -1.09311,0.883014 -1.33792,1.356357 -0.31547,0.609907 -0.43762,1.199739 -0.43702,2.110301 0,0.877958 0.11714,1.474201 0.39788,2.035002 0.19191,0.383359 0.65744,0.895399 1.03787,1.141566 0.33691,0.218009 1.04322,0.463854 1.56718,0.545475 0.54825,0.08543 1.87735,0.03109 2.72555,-0.11133 z M 246.731,47.61997 c -0.9619,-0.11044 -1.59905,-0.230911 -2.55429,-0.482965 -4.32091,-1.140068 -7.22206,-4.102125 -8.4462,-8.623553 -0.58442,-2.15853 -0.78394,-4.276635 -0.71805,-7.62289 0.10614,-5.389784 0.40514,-8.524129 1.02927,-10.789778 1.37087,-4.976395 4.74768,-8.904309 9.90113,-11.5170069 1.15445,-0.585275 1.72801,-0.829294 4.13221,-1.758001 3.5152,-1.357876 4.34525,-1.77147 7.38469,-3.679744 0.68575,-0.430512 1.28563,-0.79785 1.3331,-0.816302 0.11196,-0.04348 0.3482,0.482833 0.67559,1.505136 0.34488,1.076953 0.44587,1.727939 0.41222,2.657442 -0.0472,1.303489 -0.39558,2.104483 -1.33232,3.062871 -0.98082,1.0035139 -1.9391,1.5493679 -5.24615,2.9883349 -2.24278,0.975893 -3.11528,1.40612 -4.66429,2.299992 -2.07217,1.195762 -3.08159,1.920797 -3.95395,2.839993 -1.02785,1.083053 -1.72408,2.374058 -2.35731,4.371042 -0.25004,0.788606 -0.26019,0.897262 -0.0922,0.988244 0.11125,0.06028 0.19899,-0.0125 0.87511,-0.726512 0.41331,-0.436441 1.01149,-0.991786 1.32928,-1.23412 2.09295,-1.595929 4.58547,-2.31759 7.61236,-2.203991 2.27684,0.08545 3.93328,0.47338 5.59896,1.311236 2.46495,1.2399 4.13928,3.299716 5.12148,6.300685 0.65025,1.986736 0.91652,3.89232 0.91559,6.552376 0,2.964861 -0.47404,5.197514 -1.5776,7.446415 -1.28303,2.614649 -2.96178,4.412716 -5.208,5.578248 -1.01611,0.527229 -1.76347,0.810465 -2.90428,1.100667 -1.59433,0.405547 -2.42574,0.499197 -4.61089,0.519367 -1.35549,0.01254 -2.13255,-0.0076 -2.65544,-0.06718 z m 3.79904,-5.699879 c 2.64851,-0.467522 4.12756,-2.444824 4.64561,-6.210486 0.1064,-0.773494 0.10819,-4.248962 0.002,-5.000893 -0.41663,-2.966059 -1.29044,-4.674051 -2.8934,-5.655475 -0.64715,-0.396245 -1.6163,-0.624222 -2.65888,-0.62549 -1.19372,-0.0019 -2.10424,0.26107 -2.99334,0.863032 -1.62495,1.100174 -2.85242,3.567945 -3.2316,6.496988 -0.10798,0.834219 -0.12266,2.705178 -0.0292,3.739985 0.34754,3.853102 1.91838,5.939539 4.81708,6.398201 0.67522,0.106865 1.71762,0.104237 2.34126,-0.0059 z m 28.64764,5.721548 c -6.40969,-0.60435 -10.09978,-3.936188 -11.19465,-10.107875 -0.41239,-2.324765 -0.46193,-5.366631 -0.12519,-7.689166 0.46386,-3.199241 1.79221,-6.386966 3.45589,-8.293328 1.63054,-1.868362 4.34874,-3.191798 7.5346,-3.668397 2.08613,-0.312083 5.39663,-0.231387 7.9044,0.192667 2.2337,0.377699 4.5633,1.119213 5.07479,1.615285 0.13852,0.134325 0.16487,0.210245 0.16487,0.475141 0,0.725185 -0.64938,2.333975 -1.40503,3.480883 -0.39815,0.604351 -0.85645,1.119822 -1.0512,1.182389 -0.0633,0.02037 -0.39219,-0.0316 -0.73073,-0.115419 -1.63096,-0.403915 -3.01414,-0.579364 -4.89708,-0.621171 -1.2338,-0.02739 -1.63803,-0.01533 -2.10521,0.06244 -3.24417,0.540418 -5.2061,2.840389 -5.71214,6.696358 -0.12193,0.929104 -0.12065,3.045372 0.002,4.10044 0.34182,2.929266 1.39866,4.778839 3.27691,5.734917 1.60366,0.816303 3.7203,0.931987 7.03631,0.384564 1.73716,-0.286797 2.47541,-0.179414 3.47035,0.504762 0.42008,0.28888 1.10135,1.003629 1.41727,1.486933 0.45211,0.691673 0.87771,1.783589 0.87771,2.25184 0,0.144343 -0.0568,0.188478 -0.52396,0.407758 -2.22464,1.04407 -4.8558,1.697487 -7.76339,1.927898 -0.91776,0.07276 -3.90095,0.06709 -4.70702,-0.0089 z M 107.55618,26.980907 V 6.6742911 h 8.18883 c 8.15761,0 8.88983,0.0161 10.22485,0.216554 3.26636,0.490351 6.01839,1.861788 7.74016,3.8571989 1.69503,1.964403 2.60192,4.507998 2.7415,7.68915 0.14752,3.362662 -0.84793,6.420818 -2.94863,9.058332 -1.84011,2.310353 -4.238,3.547145 -7.77299,4.00916 -0.6398,0.08363 -1.56531,0.108067 -5.20931,0.137543 l -4.43124,0.03586 -0.015,7.804413 -0.0151,7.804437 h -4.25138 l -4.25138,2.5e-5 z m 15.94131,-1.352872 c 2.55809,-0.630699 4.08417,-2.174854 4.60605,-4.660656 0.15906,-0.757484 0.19003,-2.402681 0.0592,-3.139593 -0.40189,-2.262636 -1.69186,-3.875725 -3.71439,-4.644727 -0.28462,-0.10822 -0.79976,-0.25908 -1.14473,-0.335229 -0.61008,-0.134664 -0.71721,-0.138509 -3.92072,-0.14031 l -3.29351,-0.0019 -0.0153,6.455695 c -0.008,3.550611 -0.002,6.49136 0.0144,6.535004 0.0243,0.06448 0.68241,0.07476 3.51851,0.05503 2.96784,-0.02065 3.54866,-0.03907 3.89063,-0.123374 z m 24.99792,21.619122 c -0.0219,-0.02219 -0.0399,-7.736337 -0.0399,-17.142455 0,-13.220739 -0.0163,-17.118513 -0.0719,-17.174757 -0.0547,-0.05546 -1.32672,-0.07274 -5.35943,-0.07274 h -5.28756 V 9.7657511 6.6742931 h 14.79084 c 14.04636,0 14.79086,0.0052 14.79137,0.106078 0.002,0.225874 -0.30305,5.4577309 -0.33483,5.7585979 l -0.0336,0.318239 h -4.95855 c -3.89542,0 -4.97122,0.01629 -5.01762,0.07577 -0.0383,0.04916 -0.0728,6.079775 -0.0983,17.162235 -0.0216,9.397559 -0.0537,17.110329 -0.0716,17.139436 -0.0373,0.06117 -8.24864,0.07353 -8.30892,0.01245 z"
     style="fill:#ffffff;stroke-width:0.06024823" />
</svg>
