<svg version="1.1" viewBox="0 0 24 24" xmlns="http://www.w3.org/2000/svg" xmlns:xlink="http://www.w3.org/1999/xlink"><title>account tags bookmarks label tag double</title><g class="nc-icon-wrapper"><defs><path d="M24 0H0v24h24V0z" id="a"/></defs><g fill="none"><use xlink:href="#a"/><use xlink:href="#a"/><path stroke="currentColor" stroke-linecap="round" stroke-linejoin="round" stroke-width="1.5" d="M9.165 10.146a.367.367 0 1 1-.52.519.367.367 0 0 1 .52-.52"/><path stroke="currentColor" stroke-linecap="round" stroke-linejoin="round" stroke-width="1.5" d="M11.71 6.29l7.21 7.21a1.977 1.977 0 0 1 0 2.796l-4.124 4.124a1.977 1.977 0 0 1-2.796 0l-7.21-7.21a.99.99 0 0 1-.29-.699V6.989A.99.99 0 0 1 5.489 6h5.523c.262 0 .513.104.698.29z"/><path stroke="currentColor" stroke-linecap="round" stroke-linejoin="round" stroke-width="1.5" d="M19.5 10l-6.506-6.423A2 2 0 0 0 11.589 3H7.5"/></g></g></svg>