<svg version="1.1" viewBox="0 0 24 24" xmlns="http://www.w3.org/2000/svg"><title>account share a</title><g class="nc-icon-wrapper"><g stroke-linecap="round" stroke-width="1.5" stroke="currentColor" fill="none" stroke-linejoin="round"><path d="M13.53 7.52l-4.06 3.04"/><path d="M16.405 4.642a2.032 2.032 0 1 1-2.874 2.874 2.032 2.032 0 0 1 2.874-2.874"/><path d="M13.53 16.48l-4.06-3.04"/><path d="M16.405 16.484a2.032 2.032 0 1 1-2.874 2.874 2.032 2.032 0 0 1 2.874-2.874"/><path d="M9.465 10.565a2.03 2.03 0 1 1-2.87 2.87 2.03 2.03 0 0 1 2.87-2.87"/></g><path fill="none" d="M0 0h24v24H0z"/></g></svg>