<svg version="1.1" viewBox="0 0 24 24" xmlns="http://www.w3.org/2000/svg"><title>account calendar schedule edit</title><g class="nc-icon-wrapper"><g fill="none"><path d="M0 0h24v24H0z"/><path stroke="currentColor" stroke-linecap="round" stroke-linejoin="round" stroke-width="1.5" d="M15 3v2"/><path stroke="currentColor" stroke-linecap="round" stroke-linejoin="round" stroke-width="1.5" d="M7 3v2"/><path stroke="currentColor" stroke-linecap="round" stroke-linejoin="round" stroke-width="1.5" d="M3 8h16"/><path stroke="currentColor" stroke-linecap="round" stroke-linejoin="round" stroke-width="1.5" d="M19 10V6a2 2 0 0 0-2-2H5a2 2 0 0 0-2 2v11a2 2 0 0 0 2 2h6"/><path stroke="currentColor" stroke-linecap="round" stroke-linejoin="round" stroke-width="1.5" d="M6.999 10.75a.25.25 0 1 0 .251.25.25.25 0 0 0-.251-.25"/><path stroke="currentColor" stroke-linecap="round" stroke-linejoin="round" stroke-width="1.5" d="M6.999 14.75a.25.25 0 1 0 .251.25.25.25 0 0 0-.251-.25"/><path stroke="currentColor" stroke-linecap="round" stroke-linejoin="round" stroke-width="1.5" d="M10.75 11.001a.25.25 0 1 0 .25-.251.25.25 0 0 0-.25.251"/><path stroke="currentColor" stroke-linecap="round" stroke-linejoin="round" stroke-width="1.5" d="M17.293 20.707l4.414-4.414a.999.999 0 0 0 0-1.414l-1.586-1.586a.999.999 0 0 0-1.414 0l-4.414 4.414a1 1 0 0 0-.293.707V21h2.586a1 1 0 0 0 .707-.293z"/></g></g></svg>