<svg version="1.1" viewBox="0 0 24 24" xmlns="http://www.w3.org/2000/svg"><title>account calendar schedule add</title><g class="nc-icon-wrapper"><g fill="none"><path d="M0 0h24v24H0z"/><path stroke="currentColor" stroke-linecap="round" stroke-linejoin="round" stroke-width="1.5" d="M15 3v2"/><path stroke="currentColor" stroke-linecap="round" stroke-linejoin="round" stroke-width="1.5" d="M7 3v2"/><path stroke="currentColor" stroke-linecap="round" stroke-linejoin="round" stroke-width="1.5" d="M3 8h16"/><path stroke="currentColor" stroke-linecap="round" stroke-linejoin="round" stroke-width="1.5" d="M19 12.417V6a2 2 0 0 0-2-2H5a2 2 0 0 0-2 2v11a2 2 0 0 0 2 2h7.417"/><path stroke="currentColor" stroke-linecap="round" stroke-linejoin="round" stroke-width="1.5" d="M6.999 10.75a.25.25 0 1 0 .251.25.25.25 0 0 0-.251-.25"/><path stroke="currentColor" stroke-linecap="round" stroke-linejoin="round" stroke-width="1.5" d="M6.999 14.75a.25.25 0 1 0 .251.25.25.25 0 0 0-.251-.25"/><path stroke="currentColor" stroke-linecap="round" stroke-linejoin="round" stroke-width="1.5" d="M10.75 11.001a.25.25 0 1 0 .25-.251.25.25 0 0 0-.25.251"/><path stroke="currentColor" stroke-width="1.5" d="M17 22a5 5 0 0 1-5-5c0-2.704 2.3-5.003 5.004-5A5 5 0 0 1 17 22"/><path stroke="currentColor" stroke-linecap="round" stroke-linejoin="round" stroke-width="1.5" d="M17 15v4"/><path stroke="currentColor" stroke-linecap="round" stroke-linejoin="round" stroke-width="1.5" d="M19 17h-4"/></g></g></svg>