<svg version="1.1" viewBox="0 0 24 24" xmlns="http://www.w3.org/2000/svg"><title>account battery charge full</title><g class="nc-icon-wrapper"><g fill="none"><path d="M0 0h24v24H0z"/><path stroke="currentColor" stroke-linecap="round" stroke-linejoin="round" stroke-width="1.5" d="M7 10v4"/><path stroke="currentColor" stroke-linecap="round" stroke-linejoin="round" stroke-width="1.5" d="M11 10v4"/><path stroke="currentColor" stroke-linecap="round" stroke-linejoin="round" stroke-width="1.5" d="M15 10v4"/><path fill-rule="evenodd" stroke="currentColor" stroke-linecap="round" stroke-linejoin="round" stroke-width="1.5" d="M17 18H5a2 2 0 0 1-2-2V8a2 2 0 0 1 2-2h12a2 2 0 0 1 2 2v8a2 2 0 0 1-2 2z"/><path stroke="currentColor" stroke-linecap="round" stroke-linejoin="round" stroke-width="1.5" d="M19 9h1.014c.155 0 .308.036.447.106l.486.243a1 1 0 0 1 .553.894v3.514a.998.998 0 0 1-.553.894l-.486.243a.993.993 0 0 1-.447.106H19"/></g></g></svg>