<svg version="1.1" viewBox="0 0 24 24" xmlns="http://www.w3.org/2000/svg"><title>account calendar schedule refresh</title><g class="nc-icon-wrapper"><g stroke-linecap="round" stroke-width="1.5" stroke="currentColor" fill="none" stroke-linejoin="round"><path d="M14.292 16.663l-.729-.781-.729.781"/><path d="M18.834 19.405a3.39 3.39 0 0 1-1.917.595 3.422 3.422 0 0 1-3.355-4.092"/><path d="M19.542 16.564l.729.78.729-.78"/><path d="M14.999 13.822a3.389 3.389 0 0 1 1.917-.594 3.422 3.422 0 0 1 3.354 4.092"/><path d="M15 3v2"/><path d="M7 3v2"/><path d="M3 8h16"/><path d="M19 10V6a2 2 0 0 0-2-2H5a2 2 0 0 0-2 2v11a2 2 0 0 0 2 2h5"/><path d="M6.999 10.75a.25.25 0 1 0 .251.25.25.25 0 0 0-.251-.25"/><path d="M6.999 14.75a.25.25 0 1 0 .251.25.25.25 0 0 0-.251-.25"/><path d="M10.75 11.001a.25.25 0 1 0 .25-.251.25.25 0 0 0-.25.251"/></g><path fill="none" d="M0 0h24v24H0z"/></g></svg>