<svg version="1.1" viewBox="0 0 24 24" xmlns="http://www.w3.org/2000/svg"><title>account calendar schedule procent</title><g class="nc-icon-wrapper"><g stroke-linecap="round" stroke-width="1.5" stroke="currentColor" fill="none" stroke-linejoin="round"><path d="M16 2v4"/><path d="M8 2v4"/><path d="M3 9h18"/><path d="M19 4H5a2 2 0 0 0-2 2v13a2 2 0 0 0 2 2h14a2 2 0 0 0 2-2V6a2 2 0 0 0-2-2z"/><path d="M10 17l4-4"/><path d="M14.249 17a.25.25 0 1 0 .251.25.25.25 0 0 0-.251-.25"/><path d="M9.749 12.5a.25.25 0 1 0 .251.25.25.25 0 0 0-.251-.25"/></g><path fill="none" d="M0 0h24v24H0z"/></g></svg>