<svg version="1.1" viewBox="0 0 24 24" xmlns="http://www.w3.org/2000/svg"><title>account user sngle select</title><g class="nc-icon-wrapper"><g fill="none"><path d="M0 0h24v24H0z"/><path stroke="currentColor" stroke-linecap="round" stroke-linejoin="round" stroke-width="1.5" d="M16.674 17l-.284-.713a2.612 2.612 0 0 0-2.428-1.646h-3.924a2.618 2.618 0 0 0-2.428 1.646L7.326 17"/><path stroke="currentColor" stroke-linecap="round" stroke-linejoin="round" stroke-width="1.5" d="M13.944 7.805a2.75 2.75 0 1 1-3.889 3.89 2.75 2.75 0 0 1 3.89-3.89"/><path stroke="currentColor" stroke-linecap="round" stroke-linejoin="round" stroke-width="1.5" d="M7.588 3H5a2 2 0 0 0-2 2v2.588"/><path stroke="currentColor" stroke-linecap="round" stroke-linejoin="round" stroke-width="1.5" d="M16.412 21H19a2 2 0 0 0 2-2v-2.588"/><path stroke="currentColor" stroke-linecap="round" stroke-linejoin="round" stroke-width="1.5" d="M3 16.412V19a2 2 0 0 0 2 2h2.588"/><path stroke="currentColor" stroke-linecap="round" stroke-linejoin="round" stroke-width="1.5" d="M21 7.588V5a2 2 0 0 0-2-2h-2.588"/></g></g></svg>