<svg version="1.1" viewBox="0 0 24 24" xmlns="http://www.w3.org/2000/svg"><title>account user profile</title><g class="nc-icon-wrapper"><g stroke-linecap="round" stroke-width="1.5" stroke="currentColor" fill="none" stroke-linejoin="round"><path d="M17.229 18.332l-.318-.798a2.915 2.915 0 0 0-.73-1.064l-.058-.054a2.721 2.721 0 0 0-1.849-.726h-4.55c-.686 0-1.347.26-1.85.725l-.058.054a2.94 2.94 0 0 0-.73 1.064l-.316.799"/><path d="M14.246 7.93a3.177 3.177 0 1 1-4.494 4.492 3.177 3.177 0 0 1 4.494-4.492"/><path d="M19 21H5a2 2 0 0 1-2-2V5a2 2 0 0 1 2-2h14a2 2 0 0 1 2 2v14a2 2 0 0 1-2 2z"/></g><path fill="none" d="M0 0h24v24H0V0z"/></g></svg>