<svg version="1.1" viewBox="0 0 24 24" xmlns="http://www.w3.org/2000/svg" xmlns:xlink="http://www.w3.org/1999/xlink"><title>account bell notifications shake</title><g class="nc-icon-wrapper"><defs><path d="M0 0h24v24H0z" id="a"/></defs><g fill="none"><use xlink:href="#a"/><use xlink:href="#a"/><path stroke="currentColor" stroke-linecap="round" stroke-linejoin="round" stroke-width="1.5" d="M13.6 20h-3.2"/><path stroke="currentColor" stroke-linecap="round" stroke-linejoin="round" stroke-width="1.5" d="M17 10.032V10a5 5 0 0 0-10 0v2.504a.855.855 0 0 1-.472.764l-.503.251a1.854 1.854 0 0 0 .829 3.513h10.292a1.854 1.854 0 1 0 .829-3.512l-.503-.251a.857.857 0 0 1-.472-.765v-2.472z"/><path stroke="currentColor" stroke-linecap="round" stroke-linejoin="round" stroke-width="1.5" d="M18.951 6.049a8.029 8.029 0 0 0-3-3"/><path stroke="currentColor" stroke-linecap="round" stroke-linejoin="round" stroke-width="1.5" d="M5.049 6.049a8.029 8.029 0 0 1 3-3"/></g></g></svg>