<svg version="1.1" viewBox="0 0 24 24" xmlns="http://www.w3.org/2000/svg"><title>account tag</title><g class="nc-icon-wrapper"><g fill="none"><path d="M0 0h24v24H0z"/><path stroke="currentColor" stroke-linecap="round" stroke-linejoin="round" stroke-width="1.5" d="M6.49 6.538l-3.071 4.3a2 2 0 0 0 0 2.325l3.071 4.3a2 2 0 0 0 1.627.837H19a2 2 0 0 0 2-2V7.7a2 2 0 0 0-2-2H8.117c-.646 0-1.252.312-1.627.838z"/><path fill-rule="evenodd" stroke="currentColor" stroke-linecap="round" stroke-linejoin="round" stroke-width="1.5" d="M10.573 10.727a1.8 1.8 0 1 1-2.546 2.546 1.8 1.8 0 0 1 2.546-2.546"/></g></g></svg>