<svg version="1.1" viewBox="0 0 24 24" xmlns="http://www.w3.org/2000/svg"><title>arrows downnloading</title><g class="nc-icon-wrapper"><g stroke-linecap="round" stroke-width="1.5" stroke="currentColor" fill="none" stroke-linejoin="round"><path d="M5.16 6.16a8.955 8.955 0 0 1 1.562-1.438"/><path d="M17 19.482a8.992 8.992 0 0 1-7.62 1.128"/><path d="M12 16V8"/><path d="M15 13l-3 3-3-3"/><path d="M6.349 19a9.011 9.011 0 0 1-2.826-4"/><path d="M3.523 9A8.956 8.956 0 0 0 3 12"/><path d="M19.463 17A8.913 8.913 0 0 0 21 12a9 9 0 0 0-9-9"/></g><path fill="none" d="M0 0h24v24H0V0z"/><path d="M0 24V0h24v24H0z" fill="none"/></g></svg>