<svg version="1.1" viewBox="0 0 24 24" xmlns="http://www.w3.org/2000/svg"><title>arrows rotate done b</title><g class="nc-icon-wrapper"><g stroke-linecap="round" stroke-width="1.5" stroke="currentColor" fill="none" stroke-linejoin="round"><path d="M15.222 9.861l-3.889 3.889L9 11.417"/><path d="M13.09 5.5l1.5-1.5-1.5-1.5"/><path d="M10.91 18.5L9.41 20l1.5 1.5"/><path d="M17.674 6.371A7.964 7.964 0 0 1 20 12a8 8 0 0 1-8 8 8 8 0 0 1-2.261-.329"/><path d="M6.254 17.562A7.971 7.971 0 0 1 4 12a8 8 0 0 1 8-8 8 8 0 0 1 2.261.329"/></g><path fill="none" d="M0 0h24v24H0z"/></g></svg>