<svg version="1.1" viewBox="0 0 24 24" xmlns="http://www.w3.org/2000/svg"><title>arrows shuffle</title><g class="nc-icon-wrapper"><g stroke-linecap="round" stroke-width="1.5" stroke="currentColor" fill="none" stroke-linejoin="round"><path d="M19 18.979l2-2-2-2"/><path d="M10.182 9l-1.58-2.172a2.002 2.002 0 0 0-1.626-.824L3 6.021"/><path d="M19 8l2-2-2-2"/><path d="M13.818 14l1.58 2.172c.378.52.983.826 1.626.824L21 16.979"/><path d="M21 6.021l-3.976-.017a2 2 0 0 0-1.626.824l-6.796 9.344c-.378.52-.983.826-1.626.824L3 16.979"/></g><path fill="none" d="M0 0h24v24H0z"/></g></svg>