<svg version="1.1" viewBox="0 0 24 24" xmlns="http://www.w3.org/2000/svg"><title>arrows rotate arrow dots</title><g class="nc-icon-wrapper"><g fill="none"><path d="M0 0h24v24H0z"/><path stroke="currentColor" stroke-linecap="round" stroke-linejoin="round" stroke-width="1.5" d="M3.125 4A.124.124 0 0 0 3 3.875.124.124 0 0 0 2.875 4c0 .07.055.125.125.125s.125-.055.125-.125"/><path stroke="currentColor" stroke-linecap="round" stroke-linejoin="round" stroke-width="1.5" d="M7.125 4A.124.124 0 0 0 7 3.875.124.124 0 0 0 6.875 4c0 .07.055.125.125.125s.125-.055.125-.125"/><path stroke="currentColor" stroke-linecap="round" stroke-linejoin="round" stroke-width="1.5" d="M5 9v3a8 8 0 1 0 8-8h-2"/><path stroke="currentColor" stroke-linecap="round" stroke-linejoin="round" stroke-width="1.5" d="M3 11l2-2 2 2"/></g></g></svg>