<svg version="1.1" viewBox="0 0 24 24" xmlns="http://www.w3.org/2000/svg" xmlns:xlink="http://www.w3.org/1999/xlink"><title>business chart allh</title><g class="nc-icon-wrapper"><defs><path d="M0 0h24v24H0V0z" id="a"/></defs><g fill="none"><use xlink:href="#a"/><use xlink:href="#a"/><path stroke="currentColor" stroke-linecap="round" stroke-linejoin="round" stroke-width="1.5" d="M20.736 5.537v2h-2 2"/><path stroke="currentColor" stroke-linecap="round" stroke-linejoin="round" stroke-width="1.5" d="M7.587 10.729a1.47 1.47 0 0 1 2.938 0c0 1.836-2.937 1.836-2.937 4.01h2.937"/><path stroke="currentColor" stroke-linecap="round" stroke-linejoin="round" stroke-width="1.5" d="M15.894 12.03l-2.512-.027a.26.26 0 0 1-.257-.26V9.261"/><path stroke="currentColor" stroke-linecap="round" stroke-linejoin="round" stroke-width="1.5" d="M15.89 9.32v5.42"/><path stroke="currentColor" stroke-linecap="round" stroke-linejoin="round" stroke-width="1.5" d="M20.3 7.538A9.464 9.464 0 0 0 12 2.667a9.333 9.333 0 1 0 0 18.666A9.333 9.333 0 0 0 21.333 12"/></g></g></svg>