<svg version="1.1" viewBox="0 0 24 24" xmlns="http://www.w3.org/2000/svg"><title>business research v</title><g class="nc-icon-wrapper"><g stroke-linecap="round" stroke-width="1.5" stroke="currentColor" fill="none" stroke-linejoin="round"><path d="M19.121 14.879a3.003 3.003 0 0 1-.418 4.593 3.014 3.014 0 0 1-3.406 0 3.002 3.002 0 0 1-.418-4.593 2.998 2.998 0 0 1 4.242 0"/><path d="M19.121 19.121L21 21"/><path d="M8 10H5a2 2 0 0 1-2-2V5a2 2 0 0 1 2-2h3a2 2 0 0 1 2 2v3a2 2 0 0 1-2 2z"/><path d="M19 10h-3a2 2 0 0 1-2-2V5a2 2 0 0 1 2-2h3a2 2 0 0 1 2 2v3a2 2 0 0 1-2 2z"/><path d="M8 21H5a2 2 0 0 1-2-2v-3a2 2 0 0 1 2-2h3a2 2 0 0 1 2 2v3a2 2 0 0 1-2 2z"/></g><path fill="none" d="M24 24H0V0h24z"/></g></svg>