<svg version="1.1" viewBox="0 0 24 24" xmlns="http://www.w3.org/2000/svg"><title>business delivery shipment boxsync</title><g class="nc-icon-wrapper"><path d="M7.959 9.667L12 12l4.041-2.333" stroke-linecap="round" stroke-width="1.5" fill-rule="evenodd" stroke="currentColor" fill="none" stroke-linejoin="round"/><path fill="none" stroke="currentColor" stroke-linecap="round" stroke-linejoin="round" stroke-width="1.5" d="M12 12v4.67"/><path d="M16.165 13.871V10.13a.926.926 0 0 0-.463-.802l-3.24-1.871a.928.928 0 0 0-.926 0l-3.24 1.871a.926.926 0 0 0-.463.802v3.741c0 .331.176.636.463.802l3.24 1.871a.928.928 0 0 0 .926 0l3.24-1.871a.927.927 0 0 0 .463-.802z" stroke-linecap="round" stroke-width="1.5" fill-rule="evenodd" stroke="currentColor" fill="none" stroke-linejoin="round"/><path fill="none" stroke="currentColor" stroke-linecap="round" stroke-linejoin="round" stroke-width="1.5" d="M20.736 4.537v3h-3 3"/><path d="M20.198 7.537A9.333 9.333 0 1 0 12 21.333 9.333 9.333 0 0 0 21.333 12" stroke-linecap="round" stroke-width="1.5" stroke="currentColor" fill="none" stroke-linejoin="round"/><path fill="none" d="M0 0h24v24H0V0z"/></g></svg>