<svg version="1.1" viewBox="0 0 24 24" xmlns="http://www.w3.org/2000/svg"><title>business chart research d</title><g class="nc-icon-wrapper"><g stroke-linecap="round" stroke-width="1.5" stroke="currentColor" fill="none" stroke-linejoin="round"><path d="M20 12v8"/><path d="M14.7 14.67V20"/><path d="M4 17v3"/><path d="M9.3 13.6V20"/><path d="M15.94 8.509a1.75 1.75 0 1 1-2.475 2.474 1.75 1.75 0 0 1 2.474-2.474"/><path d="M21.342 4.006a1.75 1.75 0 1 1-2.474 2.474 1.75 1.75 0 0 1 2.474-2.474"/><path d="M5.132 9.403a1.75 1.75 0 1 1-2.474 2.474 1.75 1.75 0 0 1 2.474-2.474"/><path d="M10.536 4.9a1.75 1.75 0 1 1-2.474 2.475 1.75 1.75 0 0 1 2.474-2.474"/><path d="M18.77 6.36l-2.73 2.27"/><path d="M13.24 8.78l-2.49-1.67"/><path d="M5.24 9.53l2.72-2.27"/></g><path fill="none" d="M0 0h24v24H0z"/></g></svg>