<svg version="1.1" viewBox="0 0 24 24" xmlns="http://www.w3.org/2000/svg"><title>business delivery shipment boxship</title><g class="nc-icon-wrapper"><g stroke-linecap="round" stroke-width="1.5" fill-rule="evenodd" stroke="currentColor" fill="none" stroke-linejoin="round"><path d="M20.926 15.999V8.001c0-.715-.381-1.375-1-1.732L13 2.27a2.001 2.001 0 0 0-2 0L4.074 6.269a2 2 0 0 0-1 1.732v7.997c0 .715.381 1.375 1 1.732l6.926 4a2.001 2.001 0 0 0 2 0l6.926-3.999a2 2 0 0 0 1-1.732z"/><path d="M6.17 12.63l3 1.74"/></g><path fill="none" stroke="currentColor" stroke-linecap="round" stroke-linejoin="round" stroke-width="1.5" d="M3.342 7.001L12 12l8.658-4.999"/><g stroke-linecap="round" stroke-width="1.5" stroke="currentColor" fill="none" stroke-linejoin="round"><path d="M12 22V12"/><path d="M7.67 9.5l8.93-5.15"/></g><path fill="none" d="M0 0h24v24H0V0z"/></g></svg>