<svg version="1.1" viewBox="0 0 24 24" xmlns="http://www.w3.org/2000/svg"><title>business chart display men</title><g class="nc-icon-wrapper"><g stroke-linecap="round" stroke-width="1.5" stroke="currentColor" fill="none" stroke-linejoin="round"><path d="M3 9V6a2 2 0 0 1 2-2h14a2 2 0 0 1 2 2v12a2 2 0 0 1-2 2h-6"/><path d="M9 20l-.251-.63a2.308 2.308 0 0 0-2.145-1.454H4.396a2.304 2.304 0 0 0-2.145 1.454L2 20"/><path d="M6.737 12.513a1.75 1.75 0 1 1-2.477 2.475 1.75 1.75 0 0 1 2.477-2.475"/><path d="M11 15V9"/><path d="M14 15v-3.32"/><path d="M17 15V9.55"/></g><path fill="none" d="M0 0h24v24H0V0z"/></g></svg>