<svg version="1.1" viewBox="0 0 24 24" xmlns="http://www.w3.org/2000/svg"><title>business delivery shipment box b</title><g class="nc-icon-wrapper"><g stroke-linecap="round" stroke-width="1.5" stroke="currentColor" fill="none" stroke-linejoin="round"><path d="M5 16h2"/><path d="M13 19H4a2 2 0 0 1-2-2V7.569c0-.27.055-.538.161-.786l1.098-2.569A2 2 0 0 1 5.098 3h9.804a2 2 0 0 1 1.839 1.214l1.098 2.569c.106.249.161.516.161.786V11.1"/><path d="M10 3v4.44"/><path d="M17.99 7.44H2"/><path d="M20.535 12.464a5 5 0 1 1-7.07 7.072 5 5 0 0 1 7.07-7.072"/><path d="M18.512 15.961h-2.024v-2.023"/></g><path fill="none" d="M0 0h24v24H0V0z"/></g></svg>