<svg version="1.1" viewBox="0 0 24 24" xmlns="http://www.w3.org/2000/svg"><title>business delivery shipment box c</title><g class="nc-icon-wrapper"><path d="M3 16.041V7.959c0-.715.381-1.375 1-1.732l7-4.041a2.001 2.001 0 0 1 2 0l7 4.041a2 2 0 0 1 1 1.732v8.083c0 .715-.381 1.375-1 1.732l-7 4.041a2.001 2.001 0 0 1-2 0l-7-4.041a2.001 2.001 0 0 1-1-1.733z" stroke-linecap="round" fill-rule="evenodd" stroke="currentColor" fill="none" stroke-linejoin="round"/><path fill="none" stroke="currentColor" stroke-linecap="round" stroke-linejoin="round" d="M16.49 12.86V9.396L7.5 4.206"/><path d="M9.04 17L6 15.24" stroke-linecap="round" fill-rule="evenodd" stroke="currentColor" fill="none" stroke-linejoin="round"/><path fill="none" stroke="currentColor" stroke-linecap="round" stroke-linejoin="round" d="M12 12v10.08"/><path d="M3.268 6.959L12 12l8.732-5.041" stroke-linecap="round" fill-rule="evenodd" stroke="currentColor" fill="none" stroke-linejoin="round"/><path fill="none" d="M0 0h24v24H0V0z"/></g></svg>