<svg version="1.1" viewBox="0 0 24 24" xmlns="http://www.w3.org/2000/svg"><title>business delivery shipment box</title><g class="nc-icon-wrapper"><g stroke-linecap="round" stroke-width="1.5" stroke="currentColor" fill="none" stroke-linejoin="round"><path d="M21 8.089V19a2 2 0 0 1-2 2H5a2 2 0 0 1-2-2V8.089c0-.27.055-.538.161-.786l1.32-3.089A2 2 0 0 1 6.32 3h11.36a2 2 0 0 1 1.839 1.214l1.32 3.089c.106.249.161.516.161.786z"/><path d="M3 8h17.99"/><path d="M14 3l1 5v3.225c0 .428-.385.775-.86.775H9.86c-.475 0-.86-.347-.86-.775V8l1-5"/><path d="M6 18h2"/></g><path fill="none" d="M0 0h24v24H0V0z"/></g></svg>