<svg version="1.1" viewBox="0 0 24 24" xmlns="http://www.w3.org/2000/svg"><title>business delivery truck clock</title><g class="nc-icon-wrapper"><g stroke-linecap="round" stroke-width="1.5" fill-rule="evenodd" stroke="currentColor" fill="none" stroke-linejoin="round"><path d="M15 8h4.323c.409 0 .777.249.928.629l1.606 4.014c.094.236.143.488.143.742v5.948a1 1 0 0 1-1 1h-1.831"/><path d="M16 20.42H8.17"/></g><path fill="none" stroke="currentColor" stroke-linecap="round" stroke-linejoin="round" stroke-width="1.5" d="M22 15h-4v-4h3.2"/><g stroke-linecap="round" stroke-width="1.5" stroke="currentColor" fill="none" stroke-linejoin="round"><path d="M12.556 6H14a1 1 0 0 1 1 1v9H2"/><path d="M7.739 2.05c-1.751.268-3.183 1.7-3.451 3.451a4.164 4.164 0 0 0 4.766 4.766c1.751-.268 3.183-1.7 3.451-3.451A4.164 4.164 0 0 0 7.739 2.05z"/><path d="M18.704 19.296a1.584 1.584 0 1 1-2.24 2.24 1.584 1.584 0 0 1 2.24-2.24"/><path d="M7.704 19.296a1.584 1.584 0 1 1-2.24 2.24 1.584 1.584 0 0 1 2.24-2.24"/><path d="M5 20.416H3a1 1 0 0 1-1-1V7a1 1 0 0 1 1-1h1.238"/><path d="M10 6H8V4.159"/></g><path fill="none" d="M0 0h24v24H0V0z"/></g></svg>