<svg version="1.1" viewBox="0 0 24 24" xmlns="http://www.w3.org/2000/svg"><title>business city</title><g class="nc-icon-wrapper"><g stroke-linecap="round" stroke-width="1.5" stroke="currentColor" fill="none" stroke-linejoin="round"><path d="M17 21V4a1 1 0 0 0-1-1H8a1 1 0 0 0-1 1v17"/><path d="M7 9H3a1 1 0 0 0-1 1v11"/><path d="M22 21V10a1 1 0 0 0-1-1h-4"/><path d="M9.5 17h5"/><path d="M13.5 17v4"/><path d="M10.5 21v-4"/><path d="M10 10.5h4"/><path d="M10 13.5h4"/><path d="M10 7.5h4"/><path d="M5 13.5h2"/><path d="M5 17h2"/><path d="M17 13.5h2"/><path d="M17 17h2"/><path d="M23 21H1"/></g><path fill="none" d="M0 0h24v24H0V0z"/></g></svg>