<svg version="1.1" viewBox="0 0 24 24" xmlns="http://www.w3.org/2000/svg"><title>business contract document seal</title><g class="nc-icon-wrapper"><g stroke-linecap="round" stroke-width="1.5" stroke="currentColor" fill="none" stroke-linejoin="round"><path d="M18 8V5a2 2 0 0 0-2-2H5a2 2 0 0 0-2 2v14a2 2 0 0 0 2 2h3"/><path d="M7.5 17a1.5 1.5 0 0 1 0-3 1.5 1.5 0 0 1 0 3z"/><path d="M21 19.586v-.865a1 1 0 0 0-.684-.949L18 17v-2l.697-.446A1.386 1.386 0 0 0 17.949 12h-2.898a1.387 1.387 0 1 0-.748 2.554L15 15v2l-2.316.772a1 1 0 0 0-.684.949v.865c0 .265.105.52.293.707l.414.414a1 1 0 0 0 .707.293h6.172c.265 0 .52-.105.707-.293l.414-.414a1 1 0 0 0 .293-.707z"/><path d="M6 7h8"/><path d="M6 10.5h4"/></g><path fill="none" d="M0 0h24v24H0V0z"/></g></svg>