<svg version="1.1" viewBox="0 0 24 24" xmlns="http://www.w3.org/2000/svg"><title>business chart i</title><g class="nc-icon-wrapper"><g stroke-linecap="round" stroke-width="1.5" stroke="currentColor" fill="none" stroke-linejoin="round"><path d="M4 16.947V19a2 2 0 0 0 2 2h12a2 2 0 0 0 2-2v-8.256"/><path d="M4 13.447V5a2 2 0 0 1 2-2h12a2 2 0 0 1 2 2v2.244"/><path d="M5.231 13.96a1.75 1.75 0 1 1-2.474 2.474A1.75 1.75 0 0 1 5.23 13.96"/><path d="M12.949 14.997a1.75 1.75 0 1 1 1.75 1.75 1.743 1.743 0 0 1-1.75-1.736v-.014z"/><path d="M10.625 7.757a1.75 1.75 0 1 1-2.474 2.474 1.75 1.75 0 0 1 2.474-2.474"/><path d="M21.243 7.757a1.75 1.75 0 1 1-2.474 2.474 1.75 1.75 0 0 1 2.474-2.474"/><path d="M18.79 10.25l-2.9 3.47"/><path d="M5.18 13.91l3.02-3.64"/><path d="M13.51 13.72l-2.93-3.45"/></g><path fill="none" d="M0 0h24v24H0z"/></g></svg>