<svg version="1.1" viewBox="0 0 24 24" xmlns="http://www.w3.org/2000/svg"><title>business delivery shipment upload</title><g class="nc-icon-wrapper"><g stroke-linecap="round" stroke-width="1.5" stroke="currentColor" fill="none" stroke-linejoin="round"><path d="M19 21H5a2 2 0 0 1-2-2V5a2 2 0 0 1 2-2h14a2 2 0 0 1 2 2v14a2 2 0 0 1-2 2z"/><path d="M11 10L9 8l-2 2"/><path d="M9 8v6"/><path d="M17 10l-2-2-2 2"/><path d="M15 8v6"/><path d="M7 17h10"/></g><path fill="none" d="M0 0h24v24H0V0z"/></g></svg>