<svg version="1.1" viewBox="0 0 24 24" xmlns="http://www.w3.org/2000/svg"><title>business chart research f</title><g class="nc-icon-wrapper"><g stroke-linecap="round" stroke-width="1.5" stroke="currentColor" fill="none" stroke-linejoin="round"><path d="M5 3h14a2 2 0 0 1 2 2v14a2 2 0 0 1-2 2H5a2 2 0 0 1-2-2V5a2 2 0 0 1 2-2z"/><path d="M17 12a5 5 0 0 0-5-5v5h5z"/><path d="M9 9.314c-1.194.726-2 2.018-2 3.519A4.167 4.167 0 0 0 11.167 17c1.501 0 2.793-.806 3.519-2"/></g><path fill="none" d="M0 0h24v24H0V0z"/></g></svg>