<svg version="1.1" viewBox="0 0 24 24" xmlns="http://www.w3.org/2000/svg"><title>business delivery check list</title><g class="nc-icon-wrapper"><g stroke-linecap="round" stroke-width="1.5" stroke="currentColor" fill="none" stroke-linejoin="round"><path d="M8 4l1.3-1.625A1 1 0 0 1 10.081 2h3.839a1 1 0 0 1 .781.375L16 4v1a1 1 0 0 1-1 1H9a1 1 0 0 1-1-1V4z"/><path d="M9.667 9.333L8 11l-1-1"/><path d="M13 18h3"/><path d="M13 10h3"/><path d="M9.667 13.333L8 15l-1-1"/><path d="M13 14h3"/><path d="M16 4h2a2 2 0 0 1 2 2v14a2 2 0 0 1-2 2H6a2 2 0 0 1-2-2V6a2 2 0 0 1 2-2h2"/></g><path fill="none" d="M0 0h24v24H0V0z"/></g></svg>