<svg version="1.1" viewBox="0 0 24 24" xmlns="http://www.w3.org/2000/svg"><title>ecommerce tea bag</title><g class="nc-icon-wrapper"><g stroke-linecap="round" stroke-width="1.5" stroke="currentColor" fill="none" stroke-linejoin="round"><path d="M15 16H7a3 3 0 0 1-3-3V7a2 2 0 0 1 2-2h10a2 2 0 0 1 2 2v6a3 3 0 0 1-3 3z"/><path d="M18 13h2a2 2 0 0 0 2-2V9a1 1 0 0 0-1-1h-3"/><path d="M5 20h12"/><path d="M11 12H8V9a1 1 0 0 1 1-1h1a1 1 0 0 1 1 1v3z"/><path d="M9.5 8V5"/></g><path fill="none" d="M0 0h24v24H0z"/></g></svg>