<svg version="1.1" viewBox="0 0 24 24" xmlns="http://www.w3.org/2000/svg"><title>ecommerce coffee</title><g class="nc-icon-wrapper"><g stroke-linecap="round" stroke-width="1.5" fill-rule="evenodd" stroke="currentColor" fill="none" stroke-linejoin="round"><path d="M18 6l-.443-1.549A2 2 0 0 0 15.634 3H8.366a2 2 0 0 0-1.923 1.451L6 6"/><path d="M18.417 9l-1.208 10.234A2.001 2.001 0 0 1 15.222 21H8.778a2 2 0 0 1-1.986-1.766L5.583 9"/><path d="M13.414 13.586a2 2 0 1 1-2.828 2.828 2 2 0 0 1 2.828-2.828"/></g><path fill="none" stroke="currentColor" stroke-linecap="round" stroke-linejoin="round" stroke-width="1.5" d="M5.334 6h13.332a1 1 0 0 1 .949.684l.333 1A1 1 0 0 1 18.999 9H5.001a1 1 0 0 1-.949-1.316l.333-1c.137-.409.519-.684.949-.684z"/><path d="M0 0h24v24H0z" fill="none"/></g></svg>