<svg version="1.1" viewBox="0 0 24 24" xmlns="http://www.w3.org/2000/svg"><title>ecommerce sale discount b</title><g class="nc-icon-wrapper"><g fill="none"><path d="M0 0h24v24H0V0z"/><path stroke="currentColor" stroke-linecap="round" stroke-linejoin="round" stroke-width="1.5" d="M3.495 13.464l1.195 1.564.258 1.947a2.411 2.411 0 0 0 2.072 2.074l1.952.261 1.563 1.194a2.411 2.411 0 0 0 2.929 0l1.564-1.195h-.002l1.948-.258a2.411 2.411 0 0 0 2.074-2.072l.26-1.952 1.195-1.563a2.412 2.412 0 0 0 0-2.929L19.31 8.971l-.258-1.947A2.411 2.411 0 0 0 16.98 4.95l-1.953-.26-1.563-1.194a2.411 2.411 0 0 0-2.929 0L8.971 4.69h.002l-1.948.259a2.411 2.411 0 0 0-2.074 2.072L4.69 8.973l-1.195 1.563a2.412 2.412 0 0 0 0 2.928z"/><path stroke="currentColor" stroke-linecap="round" stroke-linejoin="round" stroke-width="1.5" d="M9.899 14.1l4.2-4.2"/><path stroke="currentColor" stroke-linecap="round" stroke-linejoin="round" stroke-width="1.5" d="M14.289 13.953a.239.239 0 0 1 0 .339.239.239 0 0 1-.339 0 .239.239 0 0 1 0-.339.239.239 0 0 1 .339 0"/><path stroke="currentColor" stroke-linecap="round" stroke-linejoin="round" stroke-width="1.5" d="M10.049 9.708a.239.239 0 0 1 0 .339.24.24 0 1 1 0-.339"/></g></g></svg>