<svg version="1.1" viewBox="0 0 24 24" xmlns="http://www.w3.org/2000/svg"><title>ecommerce bag gift</title><g class="nc-icon-wrapper"><g stroke-linecap="round" stroke-width="1.5" stroke="currentColor" fill="none" stroke-linejoin="round"><path d="M18.062 9l-.138-2.067A.999.999 0 0 0 16.927 6H4.798a1 1 0 0 0-.998.933l-.795 11.934A2 2 0 0 0 5 21h4"/><path fill-rule="evenodd" d="M20 21h-6.75a1 1 0 0 1-1-1v-3.625a1 1 0 0 1 1-1H20a1 1 0 0 1 1 1V20a1 1 0 0 1-1 1z"/><path d="M16.692 15.38c.554 0 1.697-.18 2.424-.939a1.476 1.476 0 0 0 0-2.023 1.33 1.33 0 0 0-1.938 0c-.819.856-.486 2.962-.486 2.962z"/><path d="M16.558 15.38c-.554 0-1.697-.18-2.424-.939a1.476 1.476 0 0 1 0-2.023 1.33 1.33 0 0 1 1.938 0c.819.856.486 2.962.486 2.962z"/><path d="M7.862 8V5a3 3 0 1 1 6 0v3"/></g><path fill="none" d="M0 0h24v24H0z"/></g></svg>