<svg version="1.1" viewBox="0 0 24 24" xmlns="http://www.w3.org/2000/svg"><title>ecommerce burger drink</title><g class="nc-icon-wrapper"><g stroke-linecap="round" stroke-width="1.5" stroke="currentColor" fill="none" stroke-linejoin="round"><path d="M14 15v-1a3 3 0 0 0-3-3H6a3 3 0 0 0-3 3v1"/><path d="M12 21H5a2 2 0 0 1-2-2v-1h11v1a2 2 0 0 1-2 2z"/><path d="M2 15h13"/><path d="M10.684 11l-.381-2.868A1 1 0 0 1 11.295 7H20a1 1 0 0 1 .99 1.141l-1.714 12a1.001 1.001 0 0 1-.99.859h-2.133"/><path d="M19.153 3h-2.137a1 1 0 0 0-.989.853L15.559 7"/></g><path fill="none" d="M0 0h24v24H0z"/></g></svg>