<svg version="1.1" viewBox="0 0 24 24" xmlns="http://www.w3.org/2000/svg"><title>ecommerce qr code</title><g class="nc-icon-wrapper"><g stroke-linecap="round" stroke-width="1.502" stroke="currentColor" fill="none" stroke-linejoin="round"><path d="M14 15.98v1.01"/><path d="M10 15.98v1.01"/><path stroke-width="1.5" d="M20 12H4a1 1 0 0 1-1-1V9a1 1 0 0 1 1-1h16a1 1 0 0 1 1 1v2a1 1 0 0 1-1 1z"/><path stroke-width="1.5" d="M14.04 3.03L17 7.97"/><path stroke-width="1.5" d="M9.96 3.03L7 7.97"/><path stroke-width="1.5" d="M19.758 12l-1.687 7.789a1.5 1.5 0 0 1-1.466 1.182h-9.21a1.5 1.5 0 0 1-1.466-1.182L4.242 12"/></g><path fill="none" d="M0 0h24v24H0z"/></g></svg>