<svg version="1.1" viewBox="0 0 24 24" xmlns="http://www.w3.org/2000/svg"><title>ecommerce pizza</title><g class="nc-icon-wrapper"><g fill="none"><path d="M0 0h24v24H0z"/><path stroke="currentColor" stroke-linecap="round" stroke-linejoin="round" stroke-width="1.5" d="M14.917 11.979c.047.081.086.167.14.243.412.578.601 1.284.533 1.991a2.92 2.92 0 0 0 0 .561 2.954 2.954 0 0 1-.533 1.991 2.937 2.937 0 0 0-.281.486 2.948 2.948 0 0 1-1.457 1.457 2.937 2.937 0 0 0-.486.281 2.942 2.942 0 0 1-1.991.533 2.92 2.92 0 0 0-.561 0 2.954 2.954 0 0 1-1.991-.533 2.937 2.937 0 0 0-.486-.281 2.948 2.948 0 0 1-1.457-1.457 2.937 2.937 0 0 0-.281-.486 2.942 2.942 0 0 1-.533-1.991 2.92 2.92 0 0 0 0-.561 2.954 2.954 0 0 1 .533-1.991c.109-.153.203-.315.281-.486a2.948 2.948 0 0 1 1.457-1.457c.171-.078.333-.172.486-.281a2.942 2.942 0 0 1 1.991-.533c.093.009.187 0 .281 0"/><path stroke="currentColor" stroke-linecap="round" stroke-linejoin="round" stroke-width="1.5" d="M17.106 10.715a7.515 7.515 0 0 1 1.018 3.778 7.562 7.562 0 1 1-7.562-7.562v7.562l6.544-3.778z"/><path stroke="currentColor" stroke-linecap="round" stroke-linejoin="round" stroke-width="1.5" d="M13.409 4.534c.094 0 .187.009.281 0a2.949 2.949 0 0 1 1.991.533c.153.109.315.203.486.281a2.948 2.948 0 0 1 1.457 1.457c.039.085.093.162.14.243"/><path stroke="currentColor" stroke-linecap="round" stroke-linejoin="round" stroke-width="1.5" d="M17.764 7.048L13.41 9.562l6.544-3.778A7.555 7.555 0 0 0 13.409 2v7.562"/><path stroke="currentColor" stroke-linecap="round" stroke-linejoin="round" stroke-width="1.5" d="M10.035 17.015a.05.05 0 1 1-.07.07.05.05 0 0 1 .07-.07"/><path stroke="currentColor" stroke-linecap="round" stroke-linejoin="round" stroke-width="1.5" d="M13.035 15.965a.05.05 0 1 1-.07.07.05.05 0 0 1 .07-.07"/><path stroke="currentColor" stroke-linecap="round" stroke-linejoin="round" stroke-width="1.5" d="M8.035 13.965a.05.05 0 1 1-.07.07.05.05 0 0 1 .07-.07"/></g></g></svg>