<svg version="1.1" viewBox="0 0 24 24" xmlns="http://www.w3.org/2000/svg"><title>ecommerce barcode</title><g class="nc-icon-wrapper"><g fill="none"><path d="M0 0h24v24H0V0z"/><path d="M0 0h24v24H0z"/><path stroke="currentColor" stroke-linecap="round" stroke-linejoin="round" stroke-width="1.5" d="M20.5 9.478V6a2 2 0 0 0-2-2h-3.478"/><path stroke="currentColor" stroke-linecap="round" stroke-linejoin="round" stroke-width="1.5" d="M8.978 4H5.5a2 2 0 0 0-2 2v3.478"/><path stroke="currentColor" stroke-linecap="round" stroke-linejoin="round" stroke-width="1.5" d="M3.5 14.522V18a2 2 0 0 0 2 2h3.478"/><path stroke="currentColor" stroke-linecap="round" stroke-linejoin="round" stroke-width="1.5" d="M15.022 20H18.5a2 2 0 0 0 2-2v-3.478"/><path stroke="currentColor" stroke-linecap="round" stroke-linejoin="round" stroke-width="1.5" d="M10.535 15.965a.05.05 0 1 1-.07.07.05.05 0 0 1 .07-.07"/><path stroke="currentColor" stroke-linecap="round" stroke-linejoin="round" stroke-width="1.5" d="M13.535 15.965a.05.05 0 1 1-.07.07.05.05 0 0 1 .07-.07"/><path stroke="currentColor" stroke-linecap="round" stroke-linejoin="round" stroke-width="1.5" d="M16.5 8v8"/><path stroke="currentColor" stroke-linecap="round" stroke-linejoin="round" stroke-width="1.5" d="M7.5 8v8"/><path stroke="currentColor" stroke-linecap="round" stroke-linejoin="round" stroke-width="1.5" d="M13.5 8v5"/><path stroke="currentColor" stroke-linecap="round" stroke-linejoin="round" stroke-width="1.5" d="M10.5 8v5"/></g></g></svg>