<svg version="1.1" viewBox="0 0 24 24" xmlns="http://www.w3.org/2000/svg"><title>ecommerce qr code b</title><g class="nc-icon-wrapper"><g fill="none"><path d="M0 0h24v24H0z"/><path stroke="currentColor" stroke-linecap="round" stroke-linejoin="round" stroke-width="1.5" d="M6 6h4v4H6z"/><path stroke="currentColor" stroke-linecap="round" stroke-linejoin="round" stroke-width="1.5" d="M6 14h4v4H6z"/><path stroke="currentColor" stroke-linecap="round" stroke-linejoin="round" stroke-width="1.5" d="M18 10h-4V6h4z"/><path stroke="currentColor" stroke-linecap="round" stroke-linejoin="round" stroke-width="1.5" d="M16.035 15.965a.05.05 0 1 1-.07.07.05.05 0 0 1 .07-.07"/><path stroke="currentColor" stroke-linecap="round" stroke-linejoin="round" stroke-width="1.5" d="M14.035 13.965a.05.05 0 1 1-.07.07.05.05 0 0 1 .07-.07"/><path stroke="currentColor" stroke-linecap="round" stroke-linejoin="round" stroke-width="1.5" d="M14.035 17.965a.05.05 0 1 1-.07.07.05.05 0 0 1 .07-.07"/><path stroke="currentColor" stroke-linecap="round" stroke-linejoin="round" stroke-width="1.5" d="M18.035 17.965a.05.05 0 1 1-.07.07.05.05 0 0 1 .07-.07"/><path stroke="currentColor" stroke-linecap="round" stroke-linejoin="round" stroke-width="1.5" d="M21.5 7.978V4.5a2 2 0 0 0-2-2h-3.478"/><path stroke="currentColor" stroke-linecap="round" stroke-linejoin="round" stroke-width="1.5" d="M7.978 2.5H4.5a2 2 0 0 0-2 2v3.478"/><path stroke="currentColor" stroke-linecap="round" stroke-linejoin="round" stroke-width="1.5" d="M2.5 16.022V19.5a2 2 0 0 0 2 2h3.478"/><path stroke="currentColor" stroke-linecap="round" stroke-linejoin="round" stroke-width="1.5" d="M16.022 21.5H19.5a2 2 0 0 0 2-2v-3.478"/><path stroke="currentColor" stroke-linecap="round" stroke-linejoin="round" stroke-width="1.5" d="M18.035 13.965a.05.05 0 1 1-.07.07.05.05 0 0 1 .07-.07"/></g></g></svg>