<svg version="1.1" viewBox="0 0 24 24" xmlns="http://www.w3.org/2000/svg"><title>ecommerce service support</title><g class="nc-icon-wrapper"><g fill="none"><path d="M0 0h24v24H0z"/><path stroke="currentColor" stroke-linecap="round" stroke-linejoin="round" stroke-width="1.5" d="M20 21H4a2 2 0 0 1-2-2v-1.366a2 2 0 0 1 2-2h16a2 2 0 0 1 2 2V19a2 2 0 0 1-2 2z"/><path stroke="currentColor" stroke-linecap="round" stroke-linejoin="round" stroke-width="1.5" d="M9.466 3.607A2.073 2.073 0 1 1 6.534 6.54a2.073 2.073 0 0 1 2.932-2.932"/><path stroke="currentColor" stroke-linecap="round" stroke-linejoin="round" stroke-width="1.5" d="M4.063 15.634l.659-3.962A2 2 0 0 1 6.695 10h2.629a2 2 0 0 1 1.969 1.651L12 15.634"/><path stroke="currentColor" stroke-linecap="round" stroke-linejoin="round" stroke-width="1.5" d="M14.683 15.634V11a1 1 0 0 1 1-1H19a1 1 0 0 1 1 1v4.634"/></g></g></svg>