<svg version="1.1" viewBox="0 0 24 24" xmlns="http://www.w3.org/2000/svg"><title>ecommerce new</title><g class="nc-icon-wrapper"><g fill="none"><path d="M0 0h24v24H0z"/><path stroke="currentColor" stroke-linecap="round" stroke-linejoin="round" stroke-width="1.5" d="M7 9.5v5l-4-5v5"/><path stroke="currentColor" stroke-linecap="round" stroke-linejoin="round" stroke-width="1.5" d="M10 12h3"/><path stroke="currentColor" stroke-linecap="round" stroke-linejoin="round" stroke-width="1.5" d="M13.5 9.504H10V14.5h3.5"/><path stroke="currentColor" stroke-linecap="round" stroke-linejoin="round" stroke-width="1.5" d="M16 9.5l.5 5h.214l1.786-3 1.786 3h.214l.5-5"/><path stroke="currentColor" stroke-linecap="round" stroke-linejoin="round" stroke-width="1.5" d="M19.112 6.5a8.78 8.78 0 0 0-.748-.864 9 9 0 0 0-12.728 0 8.916 8.916 0 0 0-.748.864"/><path stroke="currentColor" stroke-linecap="round" stroke-linejoin="round" stroke-width="1.5" d="M4.888 17.5c.23.299.474.59.748.864a9 9 0 0 0 12.728 0c.274-.274.517-.565.748-.864"/></g></g></svg>