<svg version="1.1" viewBox="0 0 24 24" xmlns="http://www.w3.org/2000/svg"><title>edit move copy</title><g class="nc-icon-wrapper"><g stroke-linecap="round" stroke-width="1.5" stroke="currentColor" fill="none" stroke-linejoin="round"><path d="M6.5 10a3.5 3.5 0 1 1 0-7 3.5 3.5 0 1 1 0 7z"/><path d="M20 21h-4a1 1 0 0 1-1-1v-4a1 1 0 0 1 1-1h4a1 1 0 0 1 1 1v4a1 1 0 0 1-1 1z"/><path d="M21 6.5H10"/><path d="M18 3.5l3 3-3 3"/><path d="M3 18h12"/><path d="M6 21l-3-3 3-3"/></g><path fill="none" d="M0 0h24v24H0z"/></g></svg>