<svg version="1.1" viewBox="0 0 24 24" xmlns="http://www.w3.org/2000/svg"><title>edit pencil create</title><g class="nc-icon-wrapper"><g stroke-linecap="round" stroke-width="1.5" stroke="currentColor" fill="none" stroke-linejoin="round"><path d="M11.378 15.62l5.003 5.003a1.058 1.058 0 0 0 1.496 0l2.747-2.747a1.058 1.058 0 0 0 0-1.496l-5.003-5.003"/><path d="M18.67 8.32l-3-3"/><path d="M12.62 8.378L7.619 3.377a1.058 1.058 0 0 0-1.496 0L3.377 6.123a1.058 1.058 0 0 0 0 1.496l5.001 5.001"/><path d="M3.308 19.43l.717-2.157c.098-.295.264-.564.484-.784L17.792 3.206a.999.999 0 0 1 1.414 0l1.586 1.586a.999.999 0 0 1 0 1.414L7.507 19.491a2.01 2.01 0 0 1-.78.483l-2.153.72a1 1 0 0 1-1.266-1.264z"/></g><path fill="none" d="M0 0h24v24H0z"/></g></svg>