<svg version="1.1" viewBox="0 0 24 24" xmlns="http://www.w3.org/2000/svg"><title>edit select</title><g class="nc-icon-wrapper"><g stroke-linecap="round" stroke-width="1.5" stroke="currentColor" fill="none" stroke-linejoin="round"><path d="M7.268 3.732a2.5 2.5 0 1 1-3.536 3.536 2.5 2.5 0 0 1 3.536-3.536"/><path d="M20.268 16.732a2.5 2.5 0 1 1-3.536 3.536 2.5 2.5 0 0 1 3.536-3.536"/><path d="M5 11v2"/><path d="M19 11v2"/><path d="M7.268 16.732a2.5 2.5 0 1 1-3.536 3.536 2.5 2.5 0 0 1 3.536-3.536"/><path d="M20.268 3.732a2.5 2.5 0 1 1-3.536 3.536 2.5 2.5 0 0 1 3.536-3.536"/><path d="M11 19h2"/><path d="M11 5h2"/></g><path fill="none" d="M0 0h24v24H0z"/></g></svg>