<svg version="1.1" viewBox="0 0 24 24" xmlns="http://www.w3.org/2000/svg"><title>edit pen editdot</title><g class="nc-icon-wrapper"><g fill="none"><path d="M0 0h24v24H0z"/><path stroke="currentColor" stroke-linecap="round" stroke-linejoin="round" stroke-width="1.5" d="M7.088 4.89a.125.125 0 1 1-.176.177.125.125 0 0 1 .176-.176"/><path stroke="currentColor" stroke-linecap="round" stroke-linejoin="round" stroke-width="1.5" d="M3.088 4.89a.125.125 0 1 1-.176.177.125.125 0 0 1 .176-.176"/><path stroke="currentColor" stroke-linecap="round" stroke-linejoin="round" stroke-width="1.5" d="M11.088 4.89a.125.125 0 1 1-.176.177.125.125 0 0 1 .176-.176"/><path stroke="currentColor" stroke-linecap="round" stroke-linejoin="round" stroke-width="1.5" d="M3.088 8.942a.125.125 0 1 1-.176.176.125.125 0 0 1 .176-.176"/><path stroke="currentColor" stroke-linecap="round" stroke-linejoin="round" stroke-width="1.5" d="M3.088 12.942a.125.125 0 1 1-.176.176.125.125 0 0 1 .176-.176"/><path stroke="currentColor" stroke-linecap="round" stroke-linejoin="round" stroke-width="1.5" d="M3.088 16.942a.125.125 0 1 1-.176.176.125.125 0 0 1 .176-.176"/><path stroke="currentColor" stroke-linecap="round" stroke-linejoin="round" stroke-width="1.5" d="M3.088 20.942a.125.125 0 1 1-.176.176.125.125 0 0 1 .176-.176"/><path stroke="currentColor" stroke-linecap="round" stroke-linejoin="round" stroke-width="1.5" d="M7.088 20.942a.125.125 0 1 1-.176.176.125.125 0 0 1 .176-.176"/><path stroke="currentColor" stroke-linecap="round" stroke-linejoin="round" stroke-width="1.5" d="M11.088 20.942a.125.125 0 1 1-.176.176.125.125 0 0 1 .176-.176"/><path stroke="currentColor" stroke-linecap="round" stroke-linejoin="round" stroke-width="1.5" d="M15.088 20.912a.125.125 0 1 1-.176.176.125.125 0 0 1 .176-.176"/><path stroke="currentColor" stroke-linecap="round" stroke-linejoin="round" stroke-width="1.5" d="M19.088 20.912a.125.125 0 1 1-.176.176.125.125 0 0 1 .176-.176"/><path stroke="currentColor" stroke-linecap="round" stroke-linejoin="round" stroke-width="1.5" d="M19.088 12.912a.125.125 0 1 1-.176.176.125.125 0 0 1 .176-.176"/><path stroke="currentColor" stroke-linecap="round" stroke-linejoin="round" stroke-width="1.5" d="M19.088 16.912a.125.125 0 1 1-.176.176.125.125 0 0 1 .176-.176"/><path stroke="currentColor" stroke-linecap="round" stroke-linejoin="round" stroke-width="1.5" d="M21.293 5.707l-10 10a1 1 0 0 1-.707.293H8v-2.586c0-.265.105-.52.293-.707l10-10a.999.999 0 0 1 1.414 0l1.586 1.586a1 1 0 0 1 0 1.414z"/><path stroke="currentColor" stroke-linecap="round" stroke-linejoin="round" stroke-width="1.5" d="M16.5 4.5l3 3"/></g></g></svg>