<svg version="1.1" viewBox="0 0 24 24" xmlns="http://www.w3.org/2000/svg"><title>edit resize expand</title><g class="nc-icon-wrapper"><g stroke-linecap="round" stroke-width="1.5" stroke="currentColor" fill="none" stroke-linejoin="round"><path d="M3 13a1 1 0 0 1 1-1"/><path d="M3 16v1"/><path d="M4 21a1 1 0 0 1-1-1"/><path d="M7 21h1"/><path d="M7 12h1"/><path d="M12 20a1 1 0 0 1-1 1"/><path d="M12 17v-1"/><path d="M11 12a1 1 0 0 1 1 1"/><path d="M7 12V5a2 2 0 0 1 2-2h10a2 2 0 0 1 2 2v10a2 2 0 0 1-2 2h-7"/><path d="M14 10l4-4"/><path d="M15 6h3v3"/></g><path fill="none" d="M0 0h24v24H0z"/></g></svg>