<svg version="1.1" viewBox="0 0 24 24" xmlns="http://www.w3.org/2000/svg"><title>edit layersgrid plus</title><g class="nc-icon-wrapper"><g stroke-linecap="round" stroke-width="1.5" stroke="currentColor" fill="none" stroke-linejoin="round"><path d="M21 14.672V5a2 2 0 0 0-2-2H5a2 2 0 0 0-2 2v14a2 2 0 0 0 2 2h9.605"/><path d="M15 3v10.79"/><path d="M9 3v18"/><path d="M3 14.94h10.83"/><path d="M3 8.94h18"/></g><path fill="none" stroke="currentColor" stroke-width="1.5" d="M17.5 22a4.5 4.5 0 0 1-4.5-4.5c0-2.434 2.07-4.502 4.504-4.5a4.5 4.5 0 0 1-.004 9"/><g stroke-linecap="round" stroke-width="1.5" stroke="currentColor" fill="none" stroke-linejoin="round"><path d="M17.5 15.7v3.6"/><path d="M19.3 17.5h-3.6"/></g><path fill="none" d="M0 0h24v24H0z"/></g></svg>