<svg version="1.1" viewBox="0 0 24 24" xmlns="http://www.w3.org/2000/svg"><title>edit copy</title><g class="nc-icon-wrapper"><g fill="none"><path d="M0 0h24v24H0z"/><path stroke="currentColor" stroke-linecap="round" stroke-linejoin="round" stroke-width="1.5" d="M11.5 15.64h-6"/><path stroke="currentColor" stroke-linecap="round" stroke-linejoin="round" stroke-width="1.5" d="M8.5 18.64v-6"/><path stroke="currentColor" stroke-linecap="round" stroke-linejoin="round" stroke-width="1.5" d="M2.5 20.357v-9.715a1 1 0 0 1 1-1h10a1 1 0 0 1 1 1v9.715a1 1 0 0 1-1 1h-10a1 1 0 0 1-1-1z"/><path stroke="currentColor" stroke-linecap="round" stroke-linejoin="round" stroke-width="1.5" d="M8.5 9.643v-6a1 1 0 0 1 1-1h11a1 1 0 0 1 1 1v11a1 1 0 0 1-1 1h-6"/></g></g></svg>