<svg version="1.1" viewBox="0 0 24 24" xmlns="http://www.w3.org/2000/svg"><title>emails letter lock</title><g class="nc-icon-wrapper"><g fill="none"><path d="M0 .028h24v24H0v-24z"/><path stroke="currentColor" stroke-linecap="round" stroke-linejoin="round" stroke-width="1.5" d="M19.994 11.002V6.013"/><path stroke="currentColor" stroke-linecap="round" stroke-linejoin="round" stroke-width="1.5" d="M10.999 17.002H5.003a2 2 0 0 1-1.999-2V5.985"/><path stroke="currentColor" stroke-linecap="round" stroke-linejoin="round" stroke-width="1.5" d="M17.985 3.974H5.013c-1.11 0-2.01.9-2.01 2.011 0 .667.33 1.29.882 1.664L9.24 11.28a4.028 4.028 0 0 0 4.52 0l5.353-3.63a2.01 2.01 0 0 0 .882-1.664v-.001a2.011 2.011 0 0 0-2.01-2.011z"/><path stroke="currentColor" stroke-linecap="round" stroke-linejoin="round" stroke-width="1.5" d="M19.71 17v-1.29c0-.897-.765-1.71-1.71-1.71a1.71 1.71 0 0 0-1.71 1.71V17"/><path stroke="currentColor" stroke-linecap="round" stroke-linejoin="round" stroke-width="1.5" d="M20.018 21h-4.036a.982.982 0 0 1-.982-.982v-2.036c0-.542.44-.982.982-.982h4.036c.542 0 .982.44.982.982v2.036c0 .542-.44.982-.982.982z"/></g></g></svg>