<svg version="1.1" viewBox="0 0 24 24" xmlns="http://www.w3.org/2000/svg"><title>emails letters</title><g class="nc-icon-wrapper"><g fill="none"><path d="M0 .028h24v24H0v-24z"/><path stroke="currentColor" stroke-linecap="round" stroke-linejoin="round" stroke-width="1.5" d="M6 6.028h12"/><path stroke="currentColor" stroke-linecap="round" stroke-linejoin="round" stroke-width="1.5" d="M19.211 9.028H4.789a1.79 1.79 0 1 0-1.004 3.27l5.957 4.037a4.027 4.027 0 0 0 4.517 0l5.955-4.036c.492-.333.786-.888.786-1.481v-.001c0-.988-.801-1.789-1.789-1.789z"/><path stroke="currentColor" stroke-linecap="round" stroke-linejoin="round" stroke-width="1.5" d="M8.47 15.56l-4.88 4.88"/><path stroke="currentColor" stroke-linecap="round" stroke-linejoin="round" stroke-width="1.5" d="M15.53 15.56l4.88 4.88"/><path stroke="currentColor" stroke-linecap="round" stroke-linejoin="round" stroke-width="1.5" d="M3 10.833v8.195a2 2 0 0 0 2 2h14a2 2 0 0 0 2-2v-8.195"/><path stroke="currentColor" stroke-linecap="round" stroke-linejoin="round" stroke-width="1.5" d="M8 3.028h8"/></g></g></svg>