<svg version="1.1" viewBox="0 0 24 24" xmlns="http://www.w3.org/2000/svg"><title>emails letter send</title><g class="nc-icon-wrapper"><g stroke-linecap="round" stroke-width="1.5" stroke="currentColor" fill="none" stroke-linejoin="round"><path d="M20 6.039v6.989"/><path d="M21 19.028h-6"/><path d="M19 17.028l2 2-2 2"/><path d="M11 17.028H5a2 2 0 0 1-2-2V6.039"/><path d="M5.011 4.028H17.99a2.01 2.01 0 1 1 1.128 3.675l-5.357 3.631a4.031 4.031 0 0 1-4.522 0l-5.356-3.63A2.011 2.011 0 0 1 3 6.04v-.001c0-1.111.9-2.011 2.011-2.011z"/></g><path fill="none" d="M24 .028H0v24h24v-24z"/></g></svg>