<svg version="1.1" viewBox="0 0 24 24" xmlns="http://www.w3.org/2000/svg"><title>emails letter open</title><g class="nc-icon-wrapper"><g stroke-linecap="round" stroke-width="1.5" stroke="currentColor" fill="none" stroke-linejoin="round"><path d="M19.509 10H7.491a1.491 1.491 0 1 0-.837 2.725l4.964 3.364c1.137.77 2.628.77 3.764 0l4.963-3.364c.41-.277.655-.739.655-1.234v-.001A1.49 1.49 0 0 0 19.509 10z"/><path d="M6 11.504V19a2 2 0 0 0 2 2h11a2 2 0 0 0 2-2v-7.496"/><path d="M18.554 7.028l-5.437-3.685a1.994 1.994 0 0 0-2.24.003l-6.994 4.74a1.998 1.998 0 0 0-.877 1.654L3 18"/></g><path fill="none" d="M0 .028h24v24H0v-24z"/></g></svg>