<svg version="1.1" viewBox="0 0 24 24" xmlns="http://www.w3.org/2000/svg"><title>emails letter search</title><g class="nc-icon-wrapper"><g stroke-linecap="round" stroke-width="1.5" stroke="currentColor" fill="none" stroke-linejoin="round"><path d="M20.121 14.907a3 3 0 1 1-4.241 4.243 3 3 0 0 1 4.241-4.243"/><path d="M20 11.028V6.039"/><path d="M11 17.028H5a2 2 0 0 1-2-2V6"/><path d="M17.989 4.028H5.011a2.01 2.01 0 1 0-1.128 3.675l5.357 3.631a4.031 4.031 0 0 0 4.522 0l5.356-3.63c.551-.374.882-.998.882-1.664v-.001a2.01 2.01 0 0 0-2.011-2.011z"/><path d="M22 21.03l-1.88-1.88"/></g><path fill="none" d="M0 .028h24v24H0v-24z"/></g></svg>