<svg version="1.1" viewBox="0 0 24 24" xmlns="http://www.w3.org/2000/svg"><title>emails letter checkmark</title><g class="nc-icon-wrapper"><g stroke-linecap="round" stroke-width="1.5" stroke="currentColor" fill="none" stroke-linejoin="round"><path d="M19 13.028V6.039"/><path d="M14 17.028H4a2 2 0 0 1-2-2v-9"/><path d="M16.989 4.028H4.011a2.01 2.01 0 1 0-1.128 3.675l5.357 3.631a4.031 4.031 0 0 0 4.522 0l5.356-3.63c.551-.374.882-.998.882-1.664v-.001a2.01 2.01 0 0 0-2.011-2.011z"/><path d="M20.828 14.2a4 4 0 1 1-5.658 5.657 4 4 0 0 1 5.658-5.657"/><path d="M19.555 16.25l-1.945 1.945-1.166-1.167"/></g><path fill="none" d="M0 .028h24v24H0v-24z"/></g></svg>