<svg version="1.1" viewBox="0 0 24 24" xmlns="http://www.w3.org/2000/svg"><title>emails letter write</title><g class="nc-icon-wrapper"><g stroke-linecap="round" stroke-width="1.5" stroke="currentColor" fill="none" stroke-linejoin="round"><path d="M20.707 4.707l-1.414-1.414a.999.999 0 0 0-1.414 0L7.293 13.879a.997.997 0 0 0-.293.707V17h2.414c.265 0 .52-.105.707-.293L20.707 6.121a.999.999 0 0 0 0-1.414z"/><path d="M18.91 7.91l-2.82-2.82"/><path d="M21 11v8a2 2 0 0 1-2 2H5a2 2 0 0 1-2-2V5a2 2 0 0 1 2-2h8"/></g><path fill="none" d="M0 0h24v24H0z"/></g></svg>