<svg version="1.1" viewBox="0 0 24 24" xmlns="http://www.w3.org/2000/svg"><title>emails letter replyall</title><g class="nc-icon-wrapper"><g stroke-linecap="round" stroke-width="1.5" stroke="currentColor" fill="none" stroke-linejoin="round"><path d="M14 13.572c3.45 0 6.522 1.194 8 4.456v-1c0-4.968-3.63-7.955-8-7.955V6.915a.887.887 0 0 0-1.462-.675l-5.351 4.533a.883.883 0 0 0-.022 1.331l5.351 4.841c.571.515 1.484.112 1.484-.656v-2.717z"/><path d="M7.362 16.624l-5.085-4.601a.84.84 0 0 1 .021-1.265L7.383 6.45"/></g><path fill="none" d="M0 .028h24v24H0v-24z"/></g></svg>