<svg version="1.1" viewBox="0 0 24 24" xmlns="http://www.w3.org/2000/svg"><title>emails letter incoming</title><g class="nc-icon-wrapper"><g fill="none"><path d="M0 0h24v24H0z"/><path stroke="currentColor" stroke-linecap="round" stroke-linejoin="round" stroke-width="1.5" d="M12 3v9"/><path stroke="currentColor" stroke-linecap="round" stroke-linejoin="round" stroke-width="1.5" d="M9 9l3 3 3-3"/><path stroke="currentColor" stroke-linecap="round" stroke-linejoin="round" stroke-width="1.5" d="M9 6H7.386a2 2 0 0 0-1.873 1.298L3.127 13.66a2.01 2.01 0 0 0-.127.703V18a2 2 0 0 0 2 2h14a2 2 0 0 0 2-2v-3.637a2 2 0 0 0-.127-.702l-2.386-6.363A2 2 0 0 0 16.614 6H15"/><path stroke="currentColor" stroke-linecap="round" stroke-linejoin="round" stroke-width="1.5" d="M3.034 14h4.348c.379 0 .725.214.894.553l.447.894c.17.339.516.553.895.553h4.764a.998.998 0 0 0 .894-.553l.447-.894c.17-.339.516-.553.895-.553h4.348"/></g></g></svg>