<svg version="1.1" viewBox="0 0 24 24" xmlns="http://www.w3.org/2000/svg"><title>emails letter replyback</title><g class="nc-icon-wrapper"><g fill="none"><path d="M-.01 0h24v24h-24V0z"/><path stroke="currentColor" stroke-linecap="round" stroke-linejoin="round" stroke-width="1.5" d="M19.99 11.028V6.039"/><path stroke="currentColor" stroke-linecap="round" stroke-linejoin="round" stroke-width="1.5" d="M15.99 17l-2 2 2 2"/><path stroke="currentColor" stroke-linecap="round" stroke-linejoin="round" stroke-width="1.5" d="M17.989 4.028H5.011a2.01 2.01 0 1 0-1.128 3.675l5.357 3.631a4.031 4.031 0 0 0 4.522 0l5.356-3.63c.551-.374.882-.998.882-1.664v-.001a2.01 2.01 0 0 0-2.011-2.011z"/><path stroke="currentColor" stroke-linecap="round" stroke-linejoin="round" stroke-width="1.5" d="M11 17.028H5a2 2 0 0 1-2-2V6.039"/><path stroke="currentColor" stroke-linecap="round" stroke-linejoin="round" stroke-width="1.5" d="M18 15.028h1a2 2 0 1 1 0 4h-.49.49-5.01"/></g></g></svg>