<svg version="1.1" viewBox="0 0 24 24" xmlns="http://www.w3.org/2000/svg"><title>emails letters d</title><g class="nc-icon-wrapper"><g fill="none"><path d="M0 0h24v24H0z"/><path stroke="currentColor" stroke-linecap="round" stroke-linejoin="round" stroke-width="1.5" d="M7.432 5h12.211C20.392 5 21 5.608 21 6.357v8.013c0 .75-.608 1.357-1.357 1.357H7.432a1.356 1.356 0 0 1-1.357-1.357V6.357C6.075 5.608 6.683 5 7.432 5z"/><path stroke="currentColor" stroke-linecap="round" stroke-linejoin="round" stroke-width="1.5" d="M6.175 5.93l6.185 4.424a2 2 0 0 0 2.325.002l6.214-4.432"/><path stroke="currentColor" stroke-linecap="round" stroke-linejoin="round" stroke-width="1.5" d="M16.568 19H5a2 2 0 0 1-2-2V9.631"/></g></g></svg>