<svg version="1.1" viewBox="0 0 24 24" xmlns="http://www.w3.org/2000/svg"><title>emails letter schedule</title><g fill="none" class="nc-icon-wrapper"><path d="M0 0h24v24H0z"/><path stroke="currentColor" stroke-linecap="round" stroke-linejoin="round" d="M16 2v4"/><path stroke="currentColor" stroke-linecap="round" stroke-linejoin="round" d="M8 2v4"/><path stroke="currentColor" stroke-linecap="round" stroke-linejoin="round" d="M3 9h18"/><path stroke="currentColor" stroke-linecap="round" stroke-linejoin="round" d="M19 4H5a2 2 0 0 0-2 2v13a2 2 0 0 0 2 2h14a2 2 0 0 0 2-2V6a2 2 0 0 0-2-2z"/><path stroke="currentColor" stroke-linecap="round" stroke-linejoin="round" d="M7.013 12.729a.25.25 0 1 0 .251.25.25.25 0 0 0-.251-.25"/><path stroke="currentColor" stroke-linecap="round" stroke-linejoin="round" d="M12.013 12.729a.25.25 0 1 0 .251.25.25.25 0 0 0-.251-.25"/><path stroke="currentColor" stroke-linecap="round" stroke-linejoin="round" d="M17.013 12.729a.25.25 0 1 0 .251.25.25.25 0 0 0-.251-.25"/><path stroke="currentColor" stroke-linecap="round" stroke-linejoin="round" d="M7.013 16.729a.25.25 0 1 0 .251.25.25.25 0 0 0-.251-.25"/><path stroke="currentColor" stroke-linecap="round" stroke-linejoin="round" d="M12.013 16.729a.25.25 0 1 0 .251.25.25.25 0 0 0-.251-.25"/></g></svg>