<svg version="1.1" viewBox="0 0 24 24" xmlns="http://www.w3.org/2000/svg"><title>files doc text</title><g class="nc-icon-wrapper"><g stroke-linecap="round" stroke-width="1.5" stroke="currentColor" fill="none" stroke-linejoin="round"><path d="M18.414 6.414l-2.828-2.828A2 2 0 0 0 14.172 3H7a2 2 0 0 0-2 2v14a2 2 0 0 0 2 2h10a2 2 0 0 0 2-2V7.828a2 2 0 0 0-.586-1.414z"/><path d="M19 8h-4a1 1 0 0 1-1-1V3"/><path d="M10.5 18h3"/><path d="M12 12v6"/><path d="M9 13.5v-1a.5.5 0 0 1 .5-.5h5a.5.5 0 0 1 .5.5v1"/></g><path fill="none" d="M0 0h24v24H0z"/></g></svg>