<svg version="1.1" viewBox="0 0 24 24" xmlns="http://www.w3.org/2000/svg"><title>files doc favorite</title><g class="nc-icon-wrapper"><g stroke-linecap="round" stroke-width="1.5" stroke="currentColor" fill="none" stroke-linejoin="round"><path d="M18.414 6.414l-2.828-2.828A2 2 0 0 0 14.172 3H7a2 2 0 0 0-2 2v14a2 2 0 0 0 2 2h10a2 2 0 0 0 2-2V7.828a2 2 0 0 0-.586-1.414z"/><path d="M19 8h-4a1 1 0 0 1-1-1V3"/><path d="M11.999 17.023l1.755.922a.466.466 0 0 0 .676-.491l-.335-1.954 1.42-1.383a.465.465 0 0 0-.258-.794l-1.962-.285-.877-1.779a.466.466 0 0 0-.835 0l-.877 1.779-1.962.285a.465.465 0 0 0-.258.794l1.42 1.383-.336 1.955c-.065.38.334.67.676.491l1.755-.922"/></g><path fill="none" d="M0 0h24v24H0z"/></g></svg>