<svg version="1.1" viewBox="0 0 24 24" xmlns="http://www.w3.org/2000/svg"><title>files folder delete</title><g class="nc-icon-wrapper"><g stroke-linecap="round" stroke-width="1.5" stroke="currentColor" fill="none" stroke-linejoin="round"><path d="M19 9h-6.465a1 1 0 0 1-.832-.445l-1.406-2.109A1 1 0 0 0 9.465 6H5a2 2 0 0 0-2 2v11a2 2 0 0 0 2 2h14a2 2 0 0 0 2-2v-8a2 2 0 0 0-2-2z"/><path d="M5 6V5a2 2 0 0 1 2-2h10a2 2 0 0 1 2 2v4"/><path d="M13.25 14.125l-2.5 2.5"/><path d="M13.25 16.625l-2.5-2.5"/></g><path fill="none" d="M0 0h24v24H0V0z"/></g></svg>