<svg version="1.1" viewBox="0 0 24 24" xmlns="http://www.w3.org/2000/svg"><title>files doc lock</title><g class="nc-icon-wrapper"><g stroke-linecap="round" stroke-width="1.5" stroke="currentColor" fill="none" stroke-linejoin="round"><path d="M18.414 6.414l-2.828-2.828A2 2 0 0 0 14.172 3H7a2 2 0 0 0-2 2v14a2 2 0 0 0 2 2h10a2 2 0 0 0 2-2V7.828a2 2 0 0 0-.586-1.414z"/><path d="M19 8h-4a1 1 0 0 1-1-1V3"/><path d="M13.71 14v-1.29c0-.897-.765-1.71-1.71-1.71a1.71 1.71 0 0 0-1.71 1.71V14"/><path d="M14.018 18H9.982A.982.982 0 0 1 9 17.018v-2.036c0-.542.44-.982.982-.982h4.036c.542 0 .982.44.982.982v2.036c0 .542-.44.982-.982.982z"/></g><path fill="none" d="M0 0h24v24H0z"/></g></svg>