<svg version="1.1" viewBox="0 0 24 24" xmlns="http://www.w3.org/2000/svg"><title>files folder group</title><g class="nc-icon-wrapper"><g stroke-linecap="round" stroke-width="1.5" stroke="currentColor" fill="none" stroke-linejoin="round"><path d="M19 6.94h-6.471a1 1 0 0 1-.827-.438l-1.405-2.065A1 1 0 0 0 9.471 4H5a2 2 0 0 0-2 2v12a2 2 0 0 0 2 2h14a2 2 0 0 0 2-2V8.94a2 2 0 0 0-2-2z"/><path d="M10.833 10.583v1.168c0 .322.261.583.583.583h1.168a.583.583 0 0 0 .583-.583v-1.168a.583.583 0 0 0-.583-.583h-1.168a.583.583 0 0 0-.583.583z"/><path d="M8.005 15.249v1.168c0 .322.261.583.583.583h1.168a.583.583 0 0 0 .583-.583v-1.168a.583.583 0 0 0-.583-.583H8.588a.584.584 0 0 0-.583.583z"/><path d="M13.661 15.249v1.168c0 .322.261.583.583.583h1.168a.583.583 0 0 0 .583-.583v-1.168a.583.583 0 0 0-.583-.583h-1.168a.584.584 0 0 0-.583.583z"/><path d="M13.66 15.55h-3.32"/><path d="M9.79 14.67l1.57-2.35"/><path d="M12.73 12.3l1.5 2.37"/></g><path fill="none" d="M0 0h24v24H0V0z"/></g></svg>