<svg version="1.1" viewBox="0 0 24 24" xmlns="http://www.w3.org/2000/svg"><title>files fileup mail</title><g class="nc-icon-wrapper"><g stroke-linecap="round" stroke-width="1.5" stroke="currentColor" fill="none" stroke-linejoin="round"><path d="M3 15h4.382c.379 0 .725.214.894.553l.447.894c.17.339.516.553.895.553h4.764a.998.998 0 0 0 .894-.553l.447-.894c.17-.339.516-.553.895-.553H21"/><path d="M17 3h2a2 2 0 0 1 2 2v14a2 2 0 0 1-2 2H5a2 2 0 0 1-2-2V5a2 2 0 0 1 2-2h2"/><path d="M11.99 12V3"/><path d="M15.591 6.591L12 3 8.409 6.591"/></g><path fill="none" d="M0 0h24v24H0z"/></g></svg>