<svg version="1.1" viewBox="0 0 24 24" xmlns="http://www.w3.org/2000/svg"><title>files folder process</title><g class="nc-icon-wrapper"><g stroke-linecap="round" stroke-width="1.5" stroke="currentColor" fill="none" stroke-linejoin="round"><path d="M19 6.94h-6.471a1 1 0 0 1-.827-.438l-1.405-2.065A1 1 0 0 0 9.471 4H5a2 2 0 0 0-2 2v12a2 2 0 0 0 2 2h14a2 2 0 0 0 2-2V8.94a2 2 0 0 0-2-2z"/><path d="M15.025 13a3.051 3.051 0 0 1-.848 2.677 3.08 3.08 0 0 1-3.378.657"/><path d="M13.201 10.666a3.078 3.078 0 0 0-3.378.657A3.051 3.051 0 0 0 8.975 14"/><path d="M12.673 9.819l.688.688-.688.687"/><path d="M11.327 15.806l-.688.687.688.688"/></g><path fill="none" d="M0 0h24v24H0V0z"/></g></svg>