<svg version="1.1" viewBox="0 0 24 24" xmlns="http://www.w3.org/2000/svg"><title>files doc search</title><g class="nc-icon-wrapper"><g stroke-linecap="round" stroke-width="1.5" stroke="currentColor" fill="none" stroke-linejoin="round"><path d="M18.414 6.414l-2.828-2.828A2 2 0 0 0 14.172 3H7a2 2 0 0 0-2 2v14a2 2 0 0 0 2 2h10a2 2 0 0 0 2-2V7.828a2 2 0 0 0-.586-1.414z"/><path d="M19 8h-4a1 1 0 0 1-1-1V3"/><path d="M13.496 11.716a2.673 2.673 0 1 1-3.78 3.78 2.673 2.673 0 0 1 3.78-3.78"/><path d="M15 17l-1.5-1.5"/></g><path fill="none" d="M0 0h24v24H0z"/></g></svg>