<svg version="1.1" viewBox="0 0 24 24" xmlns="http://www.w3.org/2000/svg"><title>files folder no</title><g class="nc-icon-wrapper"><g stroke-linecap="round" stroke-width="1.5" stroke="currentColor" fill="none" stroke-linejoin="round"><path d="M19 6.94h-6.471a1 1 0 0 1-.827-.438l-1.405-2.065A1 1 0 0 0 9.471 4H5a2 2 0 0 0-2 2v12a2 2 0 0 0 2 2h14a2 2 0 0 0 2-2V8.94a2 2 0 0 0-2-2z"/><path d="M12 10a3.5 3.5 0 1 0 0 7 3.5 3.5 0 1 0 0-7z"/><path d="M14.48 11.02l-4.96 4.96"/></g><path fill="none" d="M0 0h24v24H0V0z"/></g></svg>