<svg version="1.1" viewBox="0 0 24 24" xmlns="http://www.w3.org/2000/svg"><title>files doc contacts</title><g class="nc-icon-wrapper"><g stroke-linecap="round" stroke-width="1.5" stroke="currentColor" fill="none" stroke-linejoin="round"><path d="M18.414 6.414l-2.828-2.828A2 2 0 0 0 14.172 3H7a2 2 0 0 0-2 2v14a2 2 0 0 0 2 2h10a2 2 0 0 0 2-2V7.828a2 2 0 0 0-.586-1.414z"/><path d="M19 8h-4a1 1 0 0 1-1-1V3"/><path d="M15.195 18a2.822 2.822 0 0 0-2.621-1.778h-1.148a2.82 2.82 0 0 0-1.917.752A2.804 2.804 0 0 0 8.805 18"/><path d="M13.149 11.069a1.625 1.625 0 1 1-2.298 2.298 1.625 1.625 0 0 1 2.298-2.298"/></g><path fill="none" d="M0 0h24v24H0z"/></g></svg>