<svg version="1.1" viewBox="0 0 24 24" xmlns="http://www.w3.org/2000/svg"><title>files folder open</title><g class="nc-icon-wrapper"><g fill="none"><path d="M0 0h24v24H0V0z"/><path stroke="currentColor" stroke-linecap="round" stroke-linejoin="round" stroke-width="1.5" d="M19 10V9a2 2 0 0 0-2-2h-4.465a1 1 0 0 1-.832-.445l-1.406-2.109A1 1 0 0 0 9.465 4H5a2 2 0 0 0-2 2v12.853a1.146 1.146 0 1 0 2.245.33l2.327-7.757A2 2 0 0 1 9.488 10h9.841a2 2 0 0 1 1.919 2.563l-1.761 6A2 2 0 0 1 17.568 20H4.147"/></g></g></svg>