<svg version="1.1" viewBox="0 0 24 24" xmlns="http://www.w3.org/2000/svg"><title>files folder lock</title><g class="nc-icon-wrapper"><g stroke-linecap="round" stroke-width="1.5" stroke="currentColor" fill="none" stroke-linejoin="round"><path d="M19 6.94h-6.471a1 1 0 0 1-.827-.438l-1.405-2.065A1 1 0 0 0 9.471 4H5a2 2 0 0 0-2 2v12a2 2 0 0 0 2 2h14a2 2 0 0 0 2-2V8.94a2 2 0 0 0-2-2z"/><path d="M13.71 13.25v-1.29c0-1.081-1.111-2.039-2.307-1.601-.688.252-1.112.952-1.112 1.684v1.208"/><path d="M14 16.75h-4a1 1 0 0 1-1-1v-1.5a1 1 0 0 1 1-1h4a1 1 0 0 1 1 1v1.5a1 1 0 0 1-1 1z"/></g><path fill="none" d="M0 0h24v24H0V0z"/></g></svg>