<svg version="1.1" viewBox="0 0 24 24" xmlns="http://www.w3.org/2000/svg"><title>files folder c</title><g class="nc-icon-wrapper"><g stroke-linecap="round" stroke-width="1.5" stroke="currentColor" fill="none" stroke-linejoin="round"><path d="M19 9h-6.471a1 1 0 0 1-.827-.438l-1.405-2.065a1 1 0 0 0-.826-.437H5a2 2 0 0 0-2 2V19a2 2 0 0 0 2 2h14a2 2 0 0 0 2-2v-8a2 2 0 0 0-2-2z"/><path d="M21 19v-8a2 2 0 0 0-2-2h-6.471a1 1 0 0 1-.827-.438l-1.405-2.065a1 1 0 0 0-.826-.437H5a2 2 0 0 0-2 2V19"/><path d="M19 5.94h-4.471a1 1 0 0 1-.827-.438l-1.405-2.065A1 1 0 0 0 11.471 3H5"/></g><path fill="none" d="M0 0h24v24H0V0z"/></g></svg>