<svg version="1.1" viewBox="0 0 24 24" xmlns="http://www.w3.org/2000/svg"><title>grid layout b</title><g class="nc-icon-wrapper"><g fill="none"><path d="M0 0h24v24H0z"/><path stroke="currentColor" stroke-linecap="round" stroke-linejoin="round" stroke-width="1.5" d="M5 14a2 2 0 1 1 0-4 2 2 0 1 1 0 4z"/><path stroke="currentColor" stroke-linecap="round" stroke-linejoin="round" stroke-width="1.5" d="M12 14a2 2 0 1 1 0-4 2 2 0 1 1 0 4z"/><path stroke="currentColor" stroke-linecap="round" stroke-linejoin="round" stroke-width="1.5" d="M19 14a2 2 0 1 1 0-4 2 2 0 1 1 0 4z"/><path stroke="currentColor" stroke-linecap="round" stroke-linejoin="round" stroke-width="1.5" d="M5 21a2 2 0 1 1 0-4 2 2 0 1 1 0 4z"/><path stroke="currentColor" stroke-linecap="round" stroke-linejoin="round" stroke-width="1.5" d="M12 21a2 2 0 1 1 0-4 2 2 0 1 1 0 4z"/><path stroke="currentColor" stroke-linecap="round" stroke-linejoin="round" stroke-width="1.5" d="M19 21a2 2 0 1 1 0-4 2 2 0 1 1 0 4z"/><path stroke="currentColor" stroke-linecap="round" stroke-linejoin="round" stroke-width="1.5" d="M5 7a2 2 0 1 1 0-4 2 2 0 1 1 0 4z"/><path stroke="currentColor" stroke-linecap="round" stroke-linejoin="round" stroke-width="1.5" d="M12 7a2 2 0 1 1 0-4 2 2 0 1 1 0 4z"/><path stroke="currentColor" stroke-linecap="round" stroke-linejoin="round" stroke-width="1.5" d="M19 7a2 2 0 1 1 0-4 2 2 0 1 1 0 4z"/></g></g></svg>