<svg version="1.1" viewBox="0 0 24 24" xmlns="http://www.w3.org/2000/svg"><title>grid window</title><g class="nc-icon-wrapper"><g fill="none"><path d="M0 0h24v24H0z"/><path stroke="currentColor" stroke-linecap="round" stroke-linejoin="round" stroke-width="1.5" d="M19.5 21h-15a2 2 0 0 1-2-2V5a2 2 0 0 1 2-2h15a2 2 0 0 1 2 2v14a2 2 0 0 1-2 2z"/><path stroke="currentColor" stroke-linecap="square" stroke-width="1.5" d="M8 8v13"/><path stroke="currentColor" stroke-linecap="round" stroke-linejoin="round" stroke-width="1.5" d="M2.5 8h19"/><path stroke="currentColor" stroke-linecap="round" stroke-linejoin="round" stroke-width="1.5" d="M5.505 5.49c-.003 0-.005.002-.005.005s.002.005.005.005.005-.002.005-.005-.002-.005-.005-.005"/><path stroke="currentColor" stroke-linecap="round" stroke-linejoin="round" stroke-width="1.5" d="M8.048 5.49c-.003 0-.005.002-.005.005s.002.005.005.005.005-.002.005-.005-.002-.005-.005-.005"/><path stroke="currentColor" stroke-linecap="round" stroke-linejoin="round" stroke-width="1.5" d="M10.588 5.49c-.003 0-.005.002-.005.005s.002.005.005.005.005-.002.005-.005-.003-.005-.005-.005"/></g></g></svg>