<svg version="1.1" viewBox="0 0 24 24" xmlns="http://www.w3.org/2000/svg"><title>grid layout p</title><g class="nc-icon-wrapper"><g fill="none"><path d="M0 0h24v24H0z"/><path stroke="currentColor" stroke-linecap="round" stroke-linejoin="round" stroke-width="1.5" d="M6.5 10a3.5 3.5 0 1 1 0-7 3.5 3.5 0 1 1 0 7z"/><path stroke="currentColor" stroke-linecap="round" stroke-linejoin="round" stroke-width="1.5" d="M17.5 10a3.5 3.5 0 1 1 0-7 3.5 3.5 0 1 1 0 7z"/><path stroke="currentColor" stroke-linecap="round" stroke-linejoin="round" stroke-width="1.5" d="M6.5 21a3.5 3.5 0 1 1 0-7 3.5 3.5 0 1 1 0 7z"/><path stroke="currentColor" stroke-linecap="round" stroke-linejoin="round" stroke-width="1.5" d="M21 17.5a3.5 3.5 0 1 0-7 0 3.5 3.5 0 1 0 7 0z"/></g></g></svg>