<svg version="1.1" viewBox="0 0 24 24" xmlns="http://www.w3.org/2000/svg"><title>grid layout n</title><g class="nc-icon-wrapper"><g fill="none"><path d="M0 0h24v24H0z"/><path fill-rule="evenodd" stroke="currentColor" stroke-linecap="round" stroke-linejoin="round" stroke-width="1.5" d="M19 21h-2.75a2 2 0 0 1-2-2V5a2 2 0 0 1 2-2H19a2 2 0 0 1 2 2v14a2 2 0 0 1-2 2z"/><path fill-rule="evenodd" stroke="currentColor" stroke-linecap="round" stroke-linejoin="round" stroke-width="1.5" d="M7.75 21H5a2 2 0 0 1-2-2V5a2 2 0 0 1 2-2h2.75a2 2 0 0 1 2 2v14a2 2 0 0 1-2 2z"/></g></g></svg>