<svg version="1.1" viewBox="0 0 24 24" xmlns="http://www.w3.org/2000/svg"><title>internet setting filter b</title><g class="nc-icon-wrapper"><g fill="none"><path d="M0 0h24v24H0z"/><path stroke="currentColor" stroke-linecap="round" stroke-linejoin="round" stroke-width="1.5" d="M14.601 7.505l2.558-2.558a.07.07 0 0 0-.021-.113c-1.452-.621-3.236-.361-4.433.836-1.162 1.162-1.468 2.814-.917 4.22l-3.833 3.833a1.623 1.623 0 0 0 2.294 2.294l3.864-3.864c1.407.55 3.058.245 4.22-.917 1.199-1.199 1.517-2.986.838-4.438a.07.07 0 0 0-.112-.02L16.436 9.34l-.917-.917-.918-.918z"/><path stroke="currentColor" stroke-linecap="round" stroke-linejoin="round" stroke-width="1.5" d="M11 2.553c-4.776.5-8.5 4.538-8.5 9.447a9.5 9.5 0 0 0 9.5 9.5c4.909 0 8.947-3.724 9.447-8.5"/></g></g></svg>