<svg version="1.1" viewBox="0 0 24 24" xmlns="http://www.w3.org/2000/svg"><title>internet settings filter d</title><g class="nc-icon-wrapper"><g stroke-linecap="round" stroke-width="1.5" stroke="currentColor" fill="none" stroke-linejoin="round"><path d="M18 5h3"/><path d="M3 5h11"/><path d="M10 12h11"/><path d="M3 12h3"/><path d="M18 19h3"/><path d="M3 19h11"/><path d="M17.414 3.586a2 2 0 1 1-2.828 2.828 2 2 0 0 1 2.828-2.828"/><path d="M9.414 10.586a2 2 0 1 1-2.828 2.828 2 2 0 0 1 2.828-2.828"/><path d="M17.414 17.586a2 2 0 1 1-2.828 2.828 2 2 0 0 1 2.828-2.828"/></g><path fill="none" d="M0 0h24v24H0z"/></g></svg>