<svg version="1.1" viewBox="0 0 24 24" xmlns="http://www.w3.org/2000/svg"><title>internet light bulb</title><g class="nc-icon-wrapper"><g stroke-linecap="round" stroke-width="1.5" stroke="currentColor" fill="none" stroke-linejoin="round"><path d="M15 15.19H9"/><path d="M8.541 14.896a5.99 5.99 0 0 1-2.466-5.858c.406-2.607 2.579-4.688 5.2-4.995A6.001 6.001 0 0 1 18 10a5.986 5.986 0 0 1-2.543 4.898 1.03 1.03 0 0 0-.457.835V18.5a2.5 2.5 0 0 1-2.5 2.5h-1A2.5 2.5 0 0 1 9 18.5v-2.763c0-.341-.182-.645-.459-.841z"/><path d="M20 5l1.19-1.19"/><path d="M4 15l-1.19 1.19"/><path d="M5 4L3.81 2.81"/><path d="M20 15l1.19 1.19"/><path d="M21 10h1.69"/><path d="M1.31 10H3"/><path d="M9 18h5.87"/></g><path fill="none" d="M0 0h24v24H0V0z"/></g></svg>