<svg version="1.1" viewBox="0 0 24 24" xmlns="http://www.w3.org/2000/svg"><title>internet keyboard hide</title><g class="nc-icon-wrapper"><g stroke-linecap="round" stroke-width="1.5" stroke="currentColor" fill="none" stroke-linejoin="round"><path d="M16 19l-3.99 2H12l-4-2"/><path d="M8.999 7.833A.167.167 0 1 0 9.167 8a.168.168 0 0 0-.168-.167"/><path d="M6.017 7.772a.167.167 0 1 0 .168.167.168.168 0 0 0-.168-.167"/><path d="M15 11l-6 .05"/><path d="M18.667 15H5.328a2.33 2.33 0 0 1-2.331-2.331V6.33A2.33 2.33 0 0 1 5.328 4h13.339a2.33 2.33 0 0 1 2.331 2.331v6.339A2.331 2.331 0 0 1 18.667 15z"/><path d="M6.017 10.833a.167.167 0 0 0 .001.334.167.167 0 0 0-.001-.334"/><path d="M11.982 7.894a.167.167 0 1 0 .168.167.168.168 0 0 0-.168-.167"/><path d="M14.965 7.955a.167.167 0 1 0 .168.167.169.169 0 0 0-.168-.167"/><path d="M17.983 11.26a.167.167 0 1 0-.168-.167c0 .092.076.167.168.167"/><path d="M17.947 8.016a.167.167 0 1 0 .168.167.168.168 0 0 0-.168-.167"/></g><path fill="none" d="M0 0h24v24H0V0z"/></g></svg>