<svg version="1.1" viewBox="0 0 24 24" xmlns="http://www.w3.org/2000/svg"><title>internet browser web</title><g class="nc-icon-wrapper"><g stroke-linecap="round" stroke-width="1.5" stroke="currentColor" fill="none" stroke-linejoin="round"><path d="M19.5 21h-15a2 2 0 0 1-2-2V5a2 2 0 0 1 2-2h15a2 2 0 0 1 2 2v14a2 2 0 0 1-2 2z"/><path d="M2.5 8h19"/><path d="M10 14h4"/><path d="M12 16v-4"/><path d="M5.505 5.49c-.003 0-.005.002-.005.005s.002.005.005.005.005-.002.005-.005-.002-.005-.005-.005"/><path d="M8.048 5.49c-.003 0-.005.002-.005.005s.002.005.005.005.005-.002.005-.005-.002-.005-.005-.005"/><path d="M10.588 5.49c-.003 0-.005.002-.005.005s.002.005.005.005.005-.002.005-.005-.003-.005-.005-.005"/></g><path fill="none" d="M0 0h24v24H0z"/></g></svg>