<svg version="1.1" viewBox="0 0 24 24" xmlns="http://www.w3.org/2000/svg"><title>internet servers databases folder</title><g class="nc-icon-wrapper"><g stroke-linecap="round" stroke-width="1.5" stroke="currentColor" fill="none" stroke-linejoin="round"><path d="M16.75 5.205h-4.221a1 1 0 0 1-.827-.438l-.905-1.33A1 1 0 0 0 9.971 3H7.25a2 2 0 0 0-2 2v8a2 2 0 0 0 2 2h9.5a2 2 0 0 0 2-2V7.205a2 2 0 0 0-2-2z"/><path d="M12 15.02v3.48"/><path d="M13.5 20H20"/><path d="M4 20h6.5"/><path d="M13.06 18.94a1.5 1.5 0 1 1-2.12 2.12 1.5 1.5 0 0 1 2.12-2.12"/></g><path fill="none" d="M0 0h24v24H0V0z"/></g></svg>