<svg version="1.1" viewBox="0 0 24 24" xmlns="http://www.w3.org/2000/svg"><title>internet keyboard</title><g class="nc-icon-wrapper"><g fill="none"><path d="M0 0h24v24H0z"/><path stroke="currentColor" stroke-linecap="round" stroke-linejoin="round" stroke-width="1.5" d="M17.919 18H6.081a2.33 2.33 0 0 1-2.331-2.331V8.331A2.33 2.33 0 0 1 6.081 6H17.92a2.33 2.33 0 0 1 2.331 2.331v7.339A2.331 2.331 0 0 1 17.919 18z"/><path stroke="currentColor" stroke-linecap="round" stroke-linejoin="round" stroke-width="1.5" d="M16.91 10.545a.182.182 0 1 0-.183-.182c0 .101.082.182.183.182"/><path stroke="currentColor" stroke-linecap="round" stroke-linejoin="round" stroke-width="1.5" d="M16.91 13.818a.182.182 0 1 0-.183-.182c0 .101.082.182.183.182"/><path stroke="currentColor" stroke-linecap="round" stroke-linejoin="round" stroke-width="1.5" d="M10.23 13.64h3.54"/><path stroke="currentColor" stroke-linecap="round" stroke-linejoin="round" stroke-width="1.5" d="M13.637 10.545a.182.182 0 1 0-.183-.182.183.183 0 0 0 .183.182"/><path stroke="currentColor" stroke-linecap="round" stroke-linejoin="round" stroke-width="1.5" d="M10.364 10.545a.182.182 0 1 0-.183-.182.183.183 0 0 0 .183.182"/><path stroke="currentColor" stroke-linecap="round" stroke-linejoin="round" stroke-width="1.5" d="M7.092 10.545a.182.182 0 1 0-.183-.182c0 .101.082.182.183.182"/><path stroke="currentColor" stroke-linecap="round" stroke-linejoin="round" stroke-width="1.5" d="M7.092 13.818a.182.182 0 1 0-.183-.182c0 .101.082.182.183.182"/></g></g></svg>