<svg version="1.1" viewBox="0 0 24 24" xmlns="http://www.w3.org/2000/svg"><title>internet search loupe dots</title><g class="nc-icon-wrapper"><g stroke-linecap="round" stroke-width="1.5" stroke="currentColor" fill="none" stroke-linejoin="round"><path d="M16.747 6.187a7.467 7.467 0 1 1-10.56 10.56 7.467 7.467 0 0 1 10.56-10.56"/><path d="M20 20l-3.25-3.25"/><path d="M11.467 11.217a.25.25 0 1 0 .251.25.252.252 0 0 0-.251-.25"/><path d="M14.785 11.217a.25.25 0 1 0 .251.25.25.25 0 0 0-.251-.25"/><path d="M8.148 11.217a.25.25 0 1 0 .251.25.25.25 0 0 0-.251-.25"/></g><path fill="none" d="M0 0h24v24H0V0z"/></g></svg>