<svg version="1.1" viewBox="0 0 24 24" xmlns="http://www.w3.org/2000/svg"><title>internet keyboard show</title><g class="nc-icon-wrapper"><g stroke-linecap="round" stroke-width="1.5" stroke="currentColor" fill="none" stroke-linejoin="round"><path d="M8 5l3.99-2H12l4 2"/><path d="M9.005 12.833a.167.167 0 0 0 .001.334.167.167 0 1 0-.001-.334"/><path d="M6.022 12.772a.167.167 0 1 0 .168.167.168.168 0 0 0-.168-.167"/><path d="M15.01 16l-6 .05"/><path d="M18.672 20H5.333a2.33 2.33 0 0 1-2.331-2.331V11.33A2.331 2.331 0 0 1 5.333 9h13.339a2.33 2.33 0 0 1 2.331 2.331v6.339A2.33 2.33 0 0 1 18.672 20z"/><path d="M6.022 15.833A.167.167 0 1 0 6.19 16a.168.168 0 0 0-.168-.167"/><path d="M11.988 12.894a.167.167 0 1 0 .168.167.168.168 0 0 0-.168-.167"/><path d="M14.97 12.955a.167.167 0 1 0 .168.167.168.168 0 0 0-.168-.167"/><path d="M17.989 16.26a.167.167 0 1 0-.168-.167.168.168 0 0 0 .168.167"/><path d="M17.953 13.016a.167.167 0 1 0 .168.167.168.168 0 0 0-.168-.167"/></g><path fill="none" d="M24 24H0V0h24v24z"/></g></svg>