<svg version="1.1" viewBox="0 0 24 24" xmlns="http://www.w3.org/2000/svg"><title>internet search question</title><g class="nc-icon-wrapper"><g fill="none"><path d="M0 0h24v24H0V0z"/><path stroke="currentColor" stroke-linecap="round" stroke-linejoin="round" stroke-width="1.5" d="M11.467 18.934a7.467 7.467 0 1 1 0-14.934 7.467 7.467 0 1 1 0 14.934z"/><path stroke="currentColor" stroke-linecap="round" stroke-linejoin="round" stroke-width="1.5" d="M11.467 12.504v-.207c0-.678.419-1.045.839-1.327.41-.276.821-.636.821-1.3a1.659 1.659 0 0 0-3.319-.001"/><path stroke="currentColor" stroke-linecap="round" stroke-linejoin="round" stroke-width="1.5" d="M11.466 14.843a.148.148 0 0 0-.149.15.15.15 0 1 0 .149-.15"/><path stroke="currentColor" stroke-linecap="round" stroke-linejoin="round" stroke-width="1.5" d="M20 20l-3.25-3.25"/></g></g></svg>