<svg version="1.1" viewBox="0 0 24 24" xmlns="http://www.w3.org/2000/svg"><title>internet cloud storage refresh</title><g class="nc-icon-wrapper"><g stroke-linecap="round" stroke-width="1.5" stroke="currentColor" fill="none" stroke-linejoin="round"><path d="M6.324 9.068C3.885 9.401 2 11.47 2 14a5 5 0 0 0 5 5h11a4 4 0 0 0 0-8A5.997 5.997 0 1 0 6.324 9.068z"/><path d="M11.795 15.083l-.694.695.694.694"/><path d="M9.315 13.685A2.709 2.709 0 0 1 9.222 13a2.778 2.778 0 0 1 3.563-2.664"/><path d="M14.684 12.316c.057.219.093.447.093.684a2.778 2.778 0 0 1-3.563 2.664"/><path d="M12.205 10.917l.694-.695-.694-.694"/></g><path fill="none" d="M0 0h24v24H0z"/></g></svg>