<svg version="1.1" viewBox="0 0 24 24" xmlns="http://www.w3.org/2000/svg"><title>internet servers database</title><g class="nc-icon-wrapper"><g stroke-linecap="round" stroke-width="1.5" stroke="currentColor" fill="none" stroke-linejoin="round"><path d="M19 5.5C19 6.881 15.866 8 12 8S5 6.881 5 5.5"/><path d="M19 9.5c0 1.381-3.134 2.5-7 2.5s-7-1.119-7-2.5"/><path d="M19 13.5c0 1.381-3.134 2.5-7 2.5s-7-1.119-7-2.5v-8C5 4.119 8.134 3 12 3s7 1.119 7 2.5v8z"/><path d="M12 16v2.5"/><path d="M13.5 20H20"/><path d="M4 20h6.5"/><path d="M13.06 18.94a1.5 1.5 0 1 1-2.12 2.12 1.5 1.5 0 0 1 2.12-2.12"/></g><path fill="none" d="M0 0h24v24H0V0z"/></g></svg>