<svg version="1.1" viewBox="0 0 24 24" xmlns="http://www.w3.org/2000/svg"><title>internet servers databases</title><g class="nc-icon-wrapper"><g stroke-linecap="round" stroke-width="1.5" stroke="currentColor" fill="none" stroke-linejoin="round"><path d="M19 21a2 2 0 1 1 0-4 2 2 0 1 1 0 4z"/><path d="M12 11v6"/><path d="M12 21a2 2 0 1 1 0-4 2 2 0 1 1 0 4z"/><path d="M5 21a2 2 0 1 1 0-4 2 2 0 1 1 0 4z"/><path d="M5 17v-2a1 1 0 0 1 1-1h12a1 1 0 0 1 1 1v2"/><path d="M17 3H7a4 4 0 0 0 0 8h10a4 4 0 0 0 0-8z"/><path d="M11 7h6"/><path d="M7.035 6.965a.05.05 0 0 1 0 .071.05.05 0 0 1-.071 0 .05.05 0 0 1 0-.071.05.05 0 0 1 .071 0"/></g><path fill="none" d="M0 0h24v24H0V0z"/></g></svg>