<svg version="1.1" viewBox="0 0 24 24" xmlns="http://www.w3.org/2000/svg"><title>internet video movies</title><g class="nc-icon-wrapper"><g fill="none"><path d="M0 0h24v24H0V0z"/><path stroke="currentColor" stroke-linecap="round" stroke-linejoin="round" stroke-width="1.5" d="M15.493 18.25A1.74 1.74 0 0 0 13.75 20a1.75 1.75 0 1 0 1.743-1.75"/><path stroke="currentColor" stroke-linecap="round" stroke-linejoin="round" stroke-width="1.5" d="M19 15H5a2 2 0 0 1-2-2V5a2 2 0 0 1 2-2h14a2 2 0 0 1 2 2v8a2 2 0 0 1-2 2z"/><path stroke="currentColor" stroke-linecap="round" stroke-linejoin="round" stroke-width="1.5" d="M3 20h10.75"/><path stroke="currentColor" stroke-linecap="round" stroke-linejoin="round" stroke-width="1.5" d="M17.25 20H21"/></g></g></svg>