<svg version="1.1" viewBox="0 0 24 24" xmlns="http://www.w3.org/2000/svg"><title>internet servers databases lock</title><g class="nc-icon-wrapper"><g stroke-linecap="round" stroke-width="1.5" stroke="currentColor" fill="none" stroke-linejoin="round"><path d="M20.535 12.464a5 5 0 1 1-7.07 7.072 5 5 0 0 1 7.07-7.072"/><path d="M17 11V5.5C17 4.119 13.866 3 10 3S3 4.119 3 5.5v12c0 1.381 3.134 2.5 7 2.5 1.316 0 2.542-.132 3.594-.358"/><path d="M18.55 18.062h-3.1a.5.5 0 0 1-.5-.5v-1.25a.5.5 0 0 1 .5-.5h3.1a.5.5 0 0 1 .5.5v1.25a.5.5 0 0 1-.5.5z"/><path d="M15.75 15.812v-1.125a1.25 1.25 0 0 1 2.5 0v1.125"/><path d="M17 5.5C17 6.881 13.866 8 10 8S3 6.881 3 5.5"/><path d="M17 9.5c0 1.381-3.134 2.5-7 2.5s-7-1.119-7-2.5"/></g><path fill="none" stroke="currentColor" stroke-linejoin="round" stroke-width="1.5" d="M12.011 15.894c-.638.068-1.312.106-2.011.106-3.866 0-7-1.119-7-2.5"/><path d="M0 0h24v24H0z" fill="none"/></g></svg>