<svg version="1.1" viewBox="0 0 24 24" xmlns="http://www.w3.org/2000/svg"><title>internet favorite b</title><g class="nc-icon-wrapper"><g stroke-linecap="round" stroke-width="1.5" stroke="currentColor" fill="none" stroke-linejoin="round"><path d="M4 15.667V5a2 2 0 0 1 2-2h12a2 2 0 0 1 2 2v10.667a2 2 0 0 1-1.029 1.748l-6 3.333a1.999 1.999 0 0 1-1.943 0l-6-3.333A2.001 2.001 0 0 1 4 15.667z"/><path d="M10.802 13.909l.83-.436a.796.796 0 0 1 .738 0l.83.436a.79.79 0 0 0 .835-.061l.31-.225a.795.795 0 0 0 .316-.775l-.159-.924a.793.793 0 0 1 .228-.702l.671-.654a.794.794 0 0 0 .201-.813l-.118-.364a.793.793 0 0 0-.64-.54l-.928-.135a.793.793 0 0 1-.597-.434l-.415-.841A.797.797 0 0 0 12.191 7h-.383a.791.791 0 0 0-.711.442l-.415.841a.793.793 0 0 1-.597.434l-.927.134a.793.793 0 0 0-.64.54l-.118.364a.792.792 0 0 0 .201.813l.671.654a.793.793 0 0 1 .228.702l-.159.924a.792.792 0 0 0 .316.775l.31.225a.795.795 0 0 0 .835.061z"/></g><path fill="none" d="M0 0h24v24H0z"/></g></svg>