<svg version="1.1" viewBox="0 0 24 24" xmlns="http://www.w3.org/2000/svg"><title>internet servers databases a</title><g class="nc-icon-wrapper"><g stroke-linecap="round" stroke-width="1.5" stroke="currentColor" fill="none" stroke-linejoin="round"><path d="M5 18c0 1.381 3.134 2.5 7 2.5s7-1.119 7-2.5V6c0-1.381-3.134-2.5-7-2.5S5 4.619 5 6v12z"/><path d="M19 6c0 1.381-3.134 2.5-7 2.5S5 7.381 5 6"/><path d="M19 14c0 1.381-3.134 2.5-7 2.5S5 15.381 5 14"/><path d="M19 10c0 1.381-3.134 2.5-7 2.5S5 11.381 5 10"/></g><path fill="none" d="M0 0h24v24H0V0z"/></g></svg>