<svg version="1.1" viewBox="0 0 24 24" xmlns="http://www.w3.org/2000/svg"><title>internet pin</title><g class="nc-icon-wrapper"><g stroke-linecap="round" stroke-width="1.5" stroke="currentColor" fill="none" stroke-linejoin="round"><path d="M3.5 20l4.37-4.37"/><path d="M4.956 11.294a.999.999 0 0 0 0 1.414l2.918 2.918 2.918 2.918a.999.999 0 0 0 1.414 0l1.175-1.175a1 1 0 0 0 .293-.707v-3.936l2.9-2.9 2.309.123c.283.015.56-.091.76-.291l.574-.574a.999.999 0 0 0 0-1.414l-4.386-4.386a.999.999 0 0 0-1.414 0l-.574.574a.995.995 0 0 0-.291.76l.123 2.309-2.9 2.9H6.838a.997.997 0 0 0-.707.293l-1.175 1.174z"/><path d="M16.57 9.83l-2.9-2.9"/></g><path fill="none" d="M0 0h24v24H0z"/></g></svg>