<svg version="1.1" viewBox="0 0 24 24" xmlns="http://www.w3.org/2000/svg"><title>internet server upload</title><g class="nc-icon-wrapper"><g stroke-linecap="round" stroke-width="1.5" stroke="currentColor" fill="none" stroke-linejoin="round"><path d="M18 14H6a3 3 0 1 0 0 6h12a3 3 0 1 0 0-6z"/><path d="M8 4H5.851a2 2 0 0 0-1.994 1.845L3.01 16.757"/><path d="M12 4v6"/><path d="M14 8l-2 2-2-2"/><path d="M18 17h-7"/><path d="M6.035 16.965a.05.05 0 1 1-.07.07.05.05 0 0 1 .07-.07"/><path d="M16 4h2.149a2 2 0 0 1 1.994 1.845l.847 10.912"/></g><path fill="none" d="M0 0h24v24H0V0z"/></g></svg>