<svg version="1.1" viewBox="0 0 24 24" xmlns="http://www.w3.org/2000/svg"><title>internet cloud storage alert</title><g class="nc-icon-wrapper"><g stroke-linecap="round" stroke-width="1.5" stroke="currentColor" fill="none" stroke-linejoin="round"><path d="M6.324 9.068C3.885 9.401 2 11.47 2 14a5 5 0 0 0 5 5h11a4 4 0 0 0 0-8A5.997 5.997 0 1 0 6.324 9.068z"/><path d="M12 13.33V10"/><path d="M11.999 15.667a.166.166 0 0 0-.166.167.167.167 0 0 0 .334-.001.167.167 0 0 0-.168-.166"/></g><path fill="none" d="M0 0h24v24H0z"/></g></svg>