<svg version="1.1" viewBox="0 0 24 24" xmlns="http://www.w3.org/2000/svg"><title>internet checkbox a</title><g class="nc-icon-wrapper"><g stroke-linecap="round" stroke-width="1.5" stroke="currentColor" fill="none" stroke-linejoin="round"><path d="M8.278 17.111l-2.222 2.222L4.722 18"/><path d="M8.5 22h-4a2 2 0 0 1-2-2v-4a2 2 0 0 1 2-2h4a2 2 0 0 1 2 2v4a2 2 0 0 1-2 2z"/></g><path fill="none" stroke="currentColor" stroke-width="1.5" d="M17.5 22a4 4 0 0 1-4-4c0-2.164 1.84-4.002 4.003-4a4 4 0 0 1-.003 8"/><g stroke-linecap="round" stroke-width="1.5" stroke="currentColor" fill="none" stroke-linejoin="round"><path d="M17.673 18.172a.244.244 0 1 0-.346.001c.095.095.25.095.346-.001"/><path d="M9 5H7a1.5 1.5 0 0 0 0 3h2a1.5 1.5 0 0 0 0-3z"/><path d="M7 2h10a4.5 4.5 0 0 1 0 9H7a4.5 4.5 0 0 1 0-9z"/></g><path fill="none" d="M0 0h24v24H0z"/></g></svg>