<svg version="1.1" viewBox="0 0 24 24" xmlns="http://www.w3.org/2000/svg"><title>internet browser clock</title><g class="nc-icon-wrapper"><g stroke-linecap="round" stroke-width="1.5" stroke="currentColor" fill="none" stroke-linejoin="round"><path d="M20.535 12.464a5 5 0 1 1-7.07 7.072 5 5 0 0 1 7.07-7.072"/><path d="M9.866 5.495c-.003 0-.005.002-.005.005s.002.005.005.005.005-.002.005-.005-.002-.005-.005-.005"/><path d="M7.327 5.495c-.003 0-.005.002-.005.005s.002.005.005.005.005-.002.005-.005-.002-.005-.005-.005"/><path d="M4.779 5.49c-.003 0-.005.002-.005.005s.002.005.005.005.005-.002.005-.005-.002-.005-.005-.005"/><path d="M2 8h17"/><path d="M19 11.417V5a2 2 0 0 0-2-2H4a2 2 0 0 0-2 2v11a2 2 0 0 0 2 2h8.418"/><path d="M18.512 15.961h-2.024v-2.023"/></g><path fill="none" d="M0 0h24v24H0z"/></g></svg>