<svg version="1.1" viewBox="0 0 24 24" xmlns="http://www.w3.org/2000/svg"><title>internet browser mail</title><g class="nc-icon-wrapper"><g stroke-linecap="round" stroke-width="1.5" stroke="currentColor" fill="none" stroke-linejoin="round"><path d="M20 21H4a2 2 0 0 1-2-2V5a2 2 0 0 1 2-2h16a2 2 0 0 1 2 2v14a2 2 0 0 1-2 2z"/><path d="M2 8h20"/><path d="M4.779 5.49c-.003 0-.005.002-.005.005s.002.005.005.005.005-.002.005-.005-.002-.005-.005-.005"/><path d="M7.322 5.49c-.003 0-.005.002-.005.005s.003.005.005.005c.003 0 .005-.002.005-.005s-.002-.005-.005-.005"/><path d="M9.861 5.49c-.003 0-.005.002-.005.005s.002.005.005.005.005-.002.005-.005-.002-.005-.005-.005"/><path d="M8.5 11h7c.552 0 1 .451 1 1.007v4.987c0 .556-.448 1.007-1 1.007h-7c-.552 0-1-.451-1-1.007v-4.987c0-.556.448-1.007 1-1.007z"/><path d="M7.5 12.245l3.329 2.381a2 2 0 0 0 2.325.002l3.346-2.387"/></g><path fill="none" d="M0 0h24v24H0V0z"/></g></svg>