<svg version="1.1" viewBox="0 0 24 24" xmlns="http://www.w3.org/2000/svg"><title>internet filter sort b</title><g class="nc-icon-wrapper"><g stroke-linecap="round" stroke-width="1.5" stroke="currentColor" fill="none" stroke-linejoin="round"><path d="M14.5 13.5l5.207-5.207A1 1 0 0 0 20 7.586V5a1 1 0 0 0-1-1H5a1 1 0 0 0-1 1v2.586c0 .265.105.52.293.707L9.5 13.5"/><path d="M9.5 13.5v6.249c0 .813.764 1.41 1.553 1.213l2.5-.625a1.25 1.25 0 0 0 .947-1.213V13.5"/></g><path fill="none" d="M0 0h24v24H0z"/></g></svg>