<svg version="1.1" viewBox="0 0 24 24" xmlns="http://www.w3.org/2000/svg"><title>internet browser window ads</title><g class="nc-icon-wrapper"><g stroke-linecap="round" stroke="currentColor" fill="none" stroke-linejoin="round"><path d="M19 20.927H5a2 2 0 0 1-2-2V5.073a2 2 0 0 1 2-2h14a2 2 0 0 1 2 2v13.855a2 2 0 0 1-2 1.999z"/><path d="M8.129 6.871a1.247 1.247 0 1 1-1.764 1.764A1.247 1.247 0 0 1 8.13 6.87"/><path d="M12 6h6"/><path d="M12 9h6"/><path d="M3 12h18"/></g><path fill="none" d="M0 0h24v24H0z"/></g></svg>