<svg version="1.1" viewBox="0 0 24 24" xmlns="http://www.w3.org/2000/svg"><title>internet dropdown menu</title><g class="nc-icon-wrapper"><g stroke-linecap="round" stroke-width="1.5" stroke="currentColor" fill="none" stroke-linejoin="round"><path d="M6 13h6"/><path d="M6 17h6"/><path d="M18.999 5.775a.225.225 0 1 0 .226.225.226.226 0 0 0-.226-.225"/><path d="M2 19a2 2 0 0 0 2 2h10a2 2 0 0 0 2-2V3H4a2 2 0 0 0-2 2v14z"/><path d="M16 3h4a2 2 0 0 1 2 2v2a2 2 0 0 1-2 2H2"/></g><path fill="none" d="M0 0h24v24H0z"/></g></svg>