<svg version="1.1" viewBox="0 0 24 24" xmlns="http://www.w3.org/2000/svg"><title>internet servers databases check</title><g class="nc-icon-wrapper"><g fill="none"><path d="M0 0h24v24H0z"/><path stroke="currentColor" stroke-linecap="round" stroke-linejoin="round" stroke-width="1.5" d="M17 9.5v-4C17 4.119 13.866 3 10 3S3 4.119 3 5.5v8c0 1.381 3.134 2.5 7 2.5.699 0 1.373-.038 2.011-.106"/><path stroke="currentColor" stroke-linecap="round" stroke-linejoin="round" stroke-width="1.5" d="M20.535 12.464a5 5 0 1 1-7.07 7.072 5 5 0 0 1 7.07-7.072"/><path stroke="currentColor" stroke-linecap="round" stroke-linejoin="round" stroke-width="1.5" d="M19.222 14.889l-2.778 2.778L14.778 16"/><path stroke="currentColor" stroke-linecap="round" stroke-linejoin="round" stroke-width="1.5" d="M17 5.5C17 6.881 13.866 8 10 8S3 6.881 3 5.5"/><path stroke="currentColor" stroke-linecap="round" stroke-linejoin="round" stroke-width="1.5" d="M17 9.5c0 1.381-3.134 2.5-7 2.5s-7-1.119-7-2.5"/></g></g></svg>