<svg version="1.1" viewBox="0 0 24 24" xmlns="http://www.w3.org/2000/svg"><title>internet browser site</title><g class="nc-icon-wrapper"><g stroke-linecap="round" stroke-width="1.5" stroke="currentColor" fill="none" stroke-linejoin="round"><path d="M20 21H4a2 2 0 0 1-2-2V5a2 2 0 0 1 2-2h16a2 2 0 0 1 2 2v14a2 2 0 0 1-2 2z"/><path d="M2 8h20"/><path d="M4.779 5.49c-.003 0-.005.002-.005.005s.002.005.005.005.005-.002.005-.005-.002-.005-.005-.005"/><path d="M7.322 5.49c-.003 0-.005.002-.005.005s.003.005.005.005c.003 0 .005-.002.005-.005s-.002-.005-.005-.005"/><path d="M9.861 5.49c-.003 0-.005.002-.005.005s.002.005.005.005.005-.002.005-.005-.002-.005-.005-.005"/><path d="M10 14H7a1 1 0 0 1-1-1v-1a1 1 0 0 1 1-1h3a1 1 0 0 1 1 1v1a1 1 0 0 1-1 1z"/><path d="M14 11h4"/><path d="M14 14h3"/><path d="M18 21v-3a1 1 0 0 0-1-1H7a1 1 0 0 0-1 1v3"/></g><path fill="none" d="M0 0h24v24H0V0z"/></g></svg>