<svg version="1.1" viewBox="0 0 24 24" xmlns="http://www.w3.org/2000/svg"><title>internet browser code</title><g class="nc-icon-wrapper"><g stroke-linecap="round" stroke-width="1.5" stroke="currentColor" fill="none" stroke-linejoin="round"><path d="M20 21H4a2 2 0 0 1-2-2V5a2 2 0 0 1 2-2h16a2 2 0 0 1 2 2v14a2 2 0 0 1-2 2z"/><path d="M2 8h20"/><path d="M4.779 5.49c-.003 0-.005.002-.005.005s.002.005.005.005.005-.002.005-.005-.002-.005-.005-.005"/><path d="M7.322 5.49c-.003 0-.005.002-.005.005s.003.005.005.005c.003 0 .005-.002.005-.005s-.002-.005-.005-.005"/><path d="M9.861 5.49c-.003 0-.005.002-.005.005s.002.005.005.005.005-.002.005-.005-.002-.005-.005-.005"/><path d="M12.78 11l-1.56 7"/><path d="M15.25 12.75L17 14.5l-1.75 1.75"/><path d="M8.75 16.25L7 14.5l1.75-1.75"/></g><path fill="none" d="M0 0h24v24H0V0z"/></g></svg>