<svg version="1.1" viewBox="0 0 24 24" xmlns="http://www.w3.org/2000/svg"><title>internet server</title><g class="nc-icon-wrapper"><g fill="none"><path d="M0 0h24v24H0z"/><path stroke="currentColor" stroke-linecap="round" stroke-linejoin="round" stroke-width="1.5" d="M18 14H6a3 3 0 1 0 0 6h12a3 3 0 1 0 0-6z"/><path stroke="currentColor" stroke-linecap="round" stroke-linejoin="round" stroke-width="1.5" d="M18 17h-7"/><path stroke="currentColor" stroke-linecap="round" stroke-linejoin="round" stroke-width="1.5" d="M6.035 16.965a.05.05 0 1 1-.07.07.05.05 0 0 1 .07-.07"/><path stroke="currentColor" stroke-linecap="round" stroke-linejoin="round" stroke-width="1.5" d="M20.99 16.757l-.847-10.912A2 2 0 0 0 18.149 4H5.851a2 2 0 0 0-1.994 1.845L3.01 16.757"/></g></g></svg>