<svg version="1.1" viewBox="0 0 24 24" xmlns="http://www.w3.org/2000/svg"><title>internet text edit</title><g class="nc-icon-wrapper"><g stroke-linecap="round" stroke-width="1.5" stroke="currentColor" fill="none" stroke-linejoin="round"><path d="M9 9.46h6"/><path d="M12 15V9.46"/><path d="M5 7v10"/><path d="M19 17V7"/><path d="M5.5 7h-1A1.5 1.5 0 0 1 3 5.5v-1A1.5 1.5 0 0 1 4.5 3h1A1.5 1.5 0 0 1 7 4.5v1A1.5 1.5 0 0 1 5.5 7z"/><path d="M7 19h10"/><path d="M17 5H7"/><path d="M19.5 7h-1A1.5 1.5 0 0 1 17 5.5v-1A1.5 1.5 0 0 1 18.5 3h1A1.5 1.5 0 0 1 21 4.5v1A1.5 1.5 0 0 1 19.5 7z"/><path d="M5.5 21h-1A1.5 1.5 0 0 1 3 19.5v-1A1.5 1.5 0 0 1 4.5 17h1A1.5 1.5 0 0 1 7 18.5v1A1.5 1.5 0 0 1 5.5 21z"/><path d="M19.5 21h-1a1.5 1.5 0 0 1-1.5-1.5v-1a1.5 1.5 0 0 1 1.5-1.5h1a1.5 1.5 0 0 1 1.5 1.5v1a1.5 1.5 0 0 1-1.5 1.5z"/></g><path fill="none" d="M0 0h24v24H0z"/></g></svg>