<svg version="1.1" viewBox="0 0 24 24" xmlns="http://www.w3.org/2000/svg"><title>lists tasklist text</title><g class="nc-icon-wrapper"><g stroke-linecap="round" stroke-width="1.5" stroke="currentColor" fill="none" stroke-linejoin="round"><path d="M20.625 5.149c0-.98-.794-1.774-1.774-1.774H5.149c-.98 0-1.774.794-1.774 1.774v13.702c0 .98.794 1.774 1.774 1.774h13.702c.98 0 1.774-.794 1.774-1.774V5.149z"/><path d="M16.89 12h-5.26"/><path d="M7.677 11.823a.25.25 0 1 1-.354.354.25.25 0 0 1 .354-.354"/><path d="M16.89 7.5h-5.26"/><path d="M7.677 7.326a.25.25 0 1 1-.354.354.25.25 0 0 1 .354-.354"/><path d="M16.98 16.5h-5.26"/><path d="M7.765 16.327a.25.25 0 1 1-.354.354.25.25 0 0 1 .354-.354"/></g><path fill="none" d="M0 0h24v24H0V0z"/></g></svg>