<svg version="1.1" viewBox="0 0 24 24" xmlns="http://www.w3.org/2000/svg"><title>map paper</title><g class="nc-icon-wrapper"><g stroke-linecap="round" stroke-width="1.5" stroke="currentColor" fill="none" stroke-linejoin="round"><path d="M8.368 4.211l-4 1.333A2 2 0 0 0 3 7.442v10.94a1 1 0 0 0 1.447.894l3.658-1.829a1.997 1.997 0 0 1 1.789 0l4.211 2.106a1.997 1.997 0 0 0 1.789 0l4-2A2 2 0 0 0 21 15.764V5.387a1 1 0 0 0-1.316-.949l-4.051 1.35a1.998 1.998 0 0 1-1.265 0L9.632 4.211a1.995 1.995 0 0 0-1.264 0z"/><path d="M15 9.53v5.94"/><path d="M9 7.53v5.94"/></g><path fill="none" d="M24 24H0V0h24z"/></g></svg>