<svg version="1.1" viewBox="0 0 24 24" xmlns="http://www.w3.org/2000/svg"><title>map direction</title><g class="nc-icon-wrapper"><g fill="none"><path d="M0 0h24v24H0z"/><path stroke="currentColor" stroke-linecap="round" stroke-linejoin="round" stroke-width="1.5" d="M12 13v-3"/><path stroke="currentColor" stroke-linecap="round" stroke-linejoin="round" stroke-width="1.5" d="M12 5V3"/><path stroke="currentColor" stroke-linecap="round" stroke-linejoin="round" stroke-width="1.5" d="M6.5 5h10.685a1 1 0 0 1 .753.342l1.317 1.509a.986.986 0 0 1 0 1.298l-1.317 1.509a1 1 0 0 1-.753.342H6.5a1 1 0 0 1-1-1V6a1 1 0 0 1 1-1z"/><path stroke="currentColor" stroke-linecap="round" stroke-linejoin="round" stroke-width="1.5" d="M17.499 18H6.814a1 1 0 0 1-.753-.342l-1.317-1.509a.986.986 0 0 1 0-1.298l1.317-1.509A.999.999 0 0 1 6.814 13h10.685a1 1 0 0 1 1 1v3a1 1 0 0 1-1 1z"/><path stroke="currentColor" stroke-linecap="round" stroke-linejoin="round" stroke-width="1.5" d="M12 21v-3"/></g></g></svg>