<svg version="1.1" viewBox="0 0 24 24" xmlns="http://www.w3.org/2000/svg"><title>map directions b</title><g class="nc-icon-wrapper"><g fill="none"><path d="M0 0h24v24H0z"/><path stroke="currentColor" stroke-linecap="round" stroke-linejoin="round" stroke-width="1.5" d="M7 9.75l-2 2-2-2"/><path stroke="currentColor" stroke-width="1.5" d="M18.5 3a2.5 2.5 0 1 1 0 5 2.5 2.5 0 0 1 0-5z"/><path stroke="currentColor" stroke-linecap="round" stroke-linejoin="round" stroke-width="1.5" d="M16 5.5H7a2 2 0 0 0-2 2v4.25"/><path stroke="currentColor" stroke-linecap="round" stroke-linejoin="round" stroke-width="1.5" d="M17 14.25l2-2 2 2"/><path stroke="currentColor" stroke-width="1.5" d="M5.5 21a2.5 2.5 0 1 1 0-5 2.5 2.5 0 0 1 0 5z"/><path stroke="currentColor" stroke-linecap="round" stroke-linejoin="round" stroke-width="1.5" d="M8 18.5h9a2 2 0 0 0 2-2v-4.25"/></g></g></svg>