<svg version="1.1" viewBox="0 0 24 24" xmlns="http://www.w3.org/2000/svg"><title>media photo image</title><g class="nc-icon-wrapper"><g fill="none"><path d="M0 0h24v24H0V0z"/><path stroke="currentColor" stroke-linecap="round" stroke-linejoin="round" stroke-width="1.5" d="M18 21H6a3 3 0 0 1-3-3V6a3 3 0 0 1 3-3h12a3 3 0 0 1 3 3v12a3 3 0 0 1-3 3z"/><path stroke="currentColor" stroke-linecap="round" stroke-linejoin="round" stroke-width="1.5" d="M3 17.486l4.612-4.612a.999.999 0 0 1 1.414 0l1.406 1.406 4.577-4.576a.999.999 0 0 1 1.414 0L21 14.281"/><path stroke="currentColor" stroke-linecap="round" stroke-linejoin="round" stroke-width="1.5" d="M8.515 7.407a.375.375 0 1 1-.53.53.375.375 0 0 1 .53-.53"/></g></g></svg>