<svg version="1.1" viewBox="0 0 24 24" xmlns="http://www.w3.org/2000/svg"><title>media video movies camera</title><g class="nc-icon-wrapper"><g stroke-linecap="round" stroke-width="1.5" stroke="currentColor" fill="none" stroke-linejoin="round"><path d="M13.125 17.75H5.25A2.25 2.25 0 0 1 3 15.5v-7a2.25 2.25 0 0 1 2.25-2.25h7.875a2.25 2.25 0 0 1 2.25 2.25v7a2.25 2.25 0 0 1-2.25 2.25z"/><path d="M15.375 13.097l3.795 3.054c.736.593 1.83.069 1.83-.876v-6.55c0-.945-1.094-1.469-1.83-.876l-3.795 3.054"/><path d="M11.19 14v-4"/><path d="M7.19 14v-4"/></g><path fill="none" d="M0 0h24v24H0z"/></g></svg>