<svg version="1.1" viewBox="0 0 24 24" xmlns="http://www.w3.org/2000/svg"><title>media screenshots camera photo</title><g class="nc-icon-wrapper"><g stroke-linecap="round" stroke-width="1.5" stroke="currentColor" fill="none" stroke-linejoin="round"><path d="M7.5 3H5a2 2 0 0 0-2 2v2.5"/><path d="M3 16.5V19a2 2 0 0 0 2 2h2.5"/><path d="M16.5 21H19a2 2 0 0 0 2-2v-2.5"/><path d="M21 7.5V5a2 2 0 0 0-2-2h-2.5"/><path d="M13.337 11.318a1.837 1.837 0 1 1-2.598 2.598 1.837 1.837 0 0 1 2.598-2.598"/><path d="M17.625 10.125v5.625c0 .69-.56 1.25-1.25 1.25h-8.75c-.69 0-1.25-.56-1.25-1.25v-5.625c0-.69.56-1.25 1.25-1.25h1.25l.914-1.565a.624.624 0 0 1 .54-.31h3.315c.219 0 .422.115.536.303l.946 1.572h1.25c.689 0 1.249.56 1.249 1.25z"/></g><path fill="none" d="M0 0h24v24H0z"/></g></svg>