<svg version="1.1" viewBox="0 0 24 24" xmlns="http://www.w3.org/2000/svg"><title>media volume full</title><g class="nc-icon-wrapper"><g fill="none"><path d="M0 0h24v24H0z"/><path stroke="currentColor" stroke-linecap="round" stroke-linejoin="round" stroke-width="1.5" d="M5.875 8.625H3.5a1 1 0 0 0-1 1v4.75a1 1 0 0 0 1 1h2.375l3.979 3.371a1 1 0 0 0 1.646-.763V6.017c0-.852-.997-1.314-1.646-.763L5.875 8.625z"/><path stroke="currentColor" stroke-linecap="round" stroke-linejoin="round" stroke-width="1.5" d="M15.537 15.978c1.162-.722 1.963-2.224 1.963-3.973 0-1.749-.801-3.252-1.963-3.983"/><path stroke="currentColor" stroke-linecap="round" stroke-linejoin="round" stroke-width="1.5" d="M18.505 19.065c1.808-1.555 2.995-4.135 2.995-7.062 0-2.931-1.189-5.513-3-7.067"/></g></g></svg>