<svg version="1.1" viewBox="0 0 24 24" xmlns="http://www.w3.org/2000/svg" xmlns:xlink="http://www.w3.org/1999/xlink"><title>media video movies focus</title><g class="nc-icon-wrapper"><defs><path d="M0 0h24v24H0z" id="a"/></defs><g fill="none"><use xlink:href="#a"/><path stroke="currentColor" stroke-linecap="round" stroke-linejoin="round" stroke-width="1.5" d="M7.5 3H5.25A2.25 2.25 0 0 0 3 5.25V7.5"/><path stroke="currentColor" stroke-linecap="round" stroke-linejoin="round" stroke-width="1.5" d="M3 16.5v2.25A2.25 2.25 0 0 0 5.25 21H7.5"/><path stroke="currentColor" stroke-linecap="round" stroke-linejoin="round" stroke-width="1.5" d="M16.5 21h2.25A2.25 2.25 0 0 0 21 18.75V16.5"/><path stroke="currentColor" stroke-linecap="round" stroke-linejoin="round" stroke-width="1.5" d="M21 7.5V5.25A2.25 2.25 0 0 0 18.75 3H16.5"/><path stroke="currentColor" stroke-linecap="round" stroke-linejoin="round" stroke-width="1.5" d="M12.625 15.125H8.25c-.69 0-1.25-.56-1.25-1.25v-3.75c0-.69.56-1.25 1.25-1.25h4.375c.69 0 1.25.56 1.25 1.25v3.75c0 .69-.56 1.25-1.25 1.25z"/><path stroke="currentColor" stroke-linecap="round" stroke-linejoin="round" stroke-width="1.5" d="M13.875 12.61l2.108 1.697A.625.625 0 0 0 17 13.82v-3.64a.625.625 0 0 0-1.017-.487l-2.108 1.697"/><use xlink:href="#a"/></g></g></svg>