<svg version="1.1" viewBox="0 0 24 24" xmlns="http://www.w3.org/2000/svg"><title>media photo add</title><g class="nc-icon-wrapper"><g stroke-linecap="round" stroke-width="1.5" stroke="currentColor" fill="none" stroke-linejoin="round"><path d="M20 3v4"/><path d="M18 5h4"/><path d="M14 5H5a2 2 0 0 0-2 2v12a2 2 0 0 0 2 2h13a2 2 0 0 0 2-2v-8"/><path d="M6.967 14.467l1.504-2.386a1 1 0 0 1 1.574-.152l1.075 1.142 1.127-2.395a1 1 0 0 1 1.78-.058l2.154 3.898A1 1 0 0 1 15.305 16H7.813a1 1 0 0 1-.846-1.533z"/></g><path fill="none" d="M0 0h24v24H0z"/></g></svg>