<svg version="1.1" viewBox="0 0 24 24" xmlns="http://www.w3.org/2000/svg"><title>media mobile messages</title><g class="nc-icon-wrapper"><g stroke-linecap="round" stroke-width="1.5" stroke="currentColor" fill="none" stroke-linejoin="round"><path d="M8.75 18.5h2.5"/><path d="M15 12.977V19a2 2 0 0 1-2 2H7a2 2 0 0 1-2-2V7a2 2 0 0 1 2-2h3.6"/><path d="M13.019 7.5a.125.125 0 1 0 .126.125.127.127 0 0 0-.126-.125"/><path d="M15.519 7.5a.125.125 0 1 0 .126.125.127.127 0 0 0-.126-.125"/><path d="M18.019 7.5a.125.125 0 1 0 0 .25.125.125 0 0 0 0-.25"/><path d="M10.633 10.059A5.5 5.5 0 1 1 21 7.5a5.5 5.5 0 0 1-8.04 4.876L10.019 13l.614-2.941z"/></g><path fill="none" d="M0 24V0h24v24z"/></g></svg>