<svg version="1.1" viewBox="0 0 24 24" xmlns="http://www.w3.org/2000/svg"><title>media mobile tablet</title><g class="nc-icon-wrapper"><g stroke-linecap="round" stroke-width="1.5" stroke="currentColor" fill="none" stroke-linejoin="round"><path d="M12.875 19H5a2 2 0 0 1-2-2V5a2 2 0 0 1 2-2h9a2 2 0 0 1 2 2"/><path d="M16 5v3"/><path d="M9.499 15.833a.167.167 0 1 0 .168.167.168.168 0 0 0-.168-.167"/><path d="M14.875 8H19a2 2 0 0 1 2 2v9a2 2 0 0 1-2 2h-4.125a2 2 0 0 1-2-2v-9a2 2 0 0 1 2-2z"/><path d="M16.06 18.75h1.75"/></g><path fill="none" d="M0 0h24v24H0z"/></g></svg>