<svg version="1.1" viewBox="0 0 24 24" xmlns="http://www.w3.org/2000/svg"><title>media medal prize reward</title><g class="nc-icon-wrapper"><g stroke-linecap="round" stroke-width="1.5" stroke="currentColor" fill="none" stroke-linejoin="round"><path d="M16 3v7.74"/><path d="M8 10.74V3"/><path d="M11.999 19.326l3.008 1.581a.798.798 0 0 0 1.158-.842l-.575-3.349 2.434-2.371a.798.798 0 0 0-.442-1.362l-3.363-.489-1.504-3.049a.798.798 0 0 0-1.432 0L9.78 12.494l-3.363.489a.798.798 0 0 0-.442 1.362l2.434 2.371-.575 3.349a.798.798 0 0 0 1.158.842L12 19.326"/><path d="M10.062 11.922L6.005 9.596A2 2 0 0 1 5 7.861V5a2 2 0 0 1 2-2h10a2 2 0 0 1 2 2v2.861c0 .717-.383 1.379-1.005 1.735l-4.057 2.326"/></g><path fill="none" d="M0 0h24v24H0z"/></g></svg>