<svg version="1.1" viewBox="0 0 24 24" xmlns="http://www.w3.org/2000/svg"><title>media video movies film</title><g class="nc-icon-wrapper"><g stroke-linecap="round" stroke-width="1.5" stroke="currentColor" fill="none" stroke-linejoin="round"><path d="M7 3v18"/><path d="M17 21V3"/><path d="M19 21H5a2 2 0 0 1-2-2V5a2 2 0 0 1 2-2h14a2 2 0 0 1 2 2v14a2 2 0 0 1-2 2z"/><path d="M7 7H3"/><path d="M7 17H3"/><path d="M17 17h4"/><path d="M17 7h4"/><path d="M21 12H3"/></g><path fill="none" d="M0 0h24v24H0z"/></g></svg>