<svg version="1.1" viewBox="0 0 24 24" xmlns="http://www.w3.org/2000/svg"><title>media video movies play again</title><g class="nc-icon-wrapper"><g stroke-linecap="round" stroke-width="1.5" stroke="currentColor" fill="none" stroke-linejoin="round"><path d="M10.294 12l4.329-2.5L10.294 7z"/><path d="M19.889 3.389H4.111A1.11 1.11 0 0 0 3 4.5v10a1.11 1.11 0 0 0 1.111 1.111h15.778A1.11 1.11 0 0 0 21 14.5v-10a1.11 1.11 0 0 0-1.111-1.111z"/><path d="M8.56 18.94a1.5 1.5 0 1 1-2.12 2.12 1.5 1.5 0 0 1 2.12-2.12"/><path d="M21 20H9"/><path d="M3 20h3"/></g><path fill="none" d="M0 0h24v24H0z"/></g></svg>