<svg version="1.1" viewBox="0 0 24 24" xmlns="http://www.w3.org/2000/svg"><title>media image photo portrait</title><g class="nc-icon-wrapper"><g stroke-linecap="round" stroke-width="1.5" stroke="currentColor" fill="none" stroke-linejoin="round"><path d="M19 21H5a2 2 0 0 1-2-2V5a2 2 0 0 1 2-2h14a2 2 0 0 1 2 2v14a2 2 0 0 1-2 2z"/><path d="M14.121 7.879A3 3 0 1 1 9.88 12.12 3 3 0 0 1 14.12 7.88"/><path d="M6 21l.357-1.784A4 4 0 0 1 10.279 16h3.442a4 4 0 0 1 3.922 3.216L18 21"/></g><path fill="none" d="M0 0h24v24H0z"/></g></svg>