<svg version="1.1" viewBox="0 0 24 24" xmlns="http://www.w3.org/2000/svg"><title>media messages chat circle dots</title><g class="nc-icon-wrapper"><g fill="none"><path d="M24 24H0V0h24v24z"/><path stroke="currentColor" stroke-linecap="round" stroke-linejoin="round" stroke-width="1.588" d="M19.849 16.396A8.95 8.95 0 0 0 21 12a9 9 0 0 0-9-9 9 9 0 0 0-9 9 9 9 0 0 0 9 9 8.95 8.95 0 0 0 4.396-1.151L21 21l-1.151-4.604z"/><path stroke="currentColor" stroke-linecap="round" stroke-linejoin="round" stroke-width="1.5" d="M11.823 12.323a.25.25 0 1 1 .354.354.25.25 0 1 1-.354-.354"/><path stroke="currentColor" stroke-linecap="round" stroke-linejoin="round" stroke-width="1.5" d="M7.823 12.323a.25.25 0 1 1 .354.354.25.25 0 1 1-.354-.354"/><path stroke="currentColor" stroke-linecap="round" stroke-linejoin="round" stroke-width="1.5" d="M15.823 12.323a.25.25 0 1 1 .354.354.25.25 0 1 1-.354-.354"/></g></g></svg>