<svg version="1.1" viewBox="0 0 24 24" xmlns="http://www.w3.org/2000/svg" xmlns:xlink="http://www.w3.org/1999/xlink"><title>media mobile laptop</title><g class="nc-icon-wrapper"><defs><path d="M0 0h24v24H0z" id="a"/></defs><g fill="none"><use xlink:href="#a"/><use xlink:href="#a"/><path stroke="currentColor" stroke-linecap="round" stroke-linejoin="round" stroke-width="1.5" d="M13.875 19H3a1 1 0 0 1-1-1v-1a1 1 0 0 1 1-1h10.875"/><path stroke="currentColor" stroke-linecap="round" stroke-linejoin="round" stroke-width="1.5" d="M20 5a2 2 0 0 0-2-2H5a2 2 0 0 0-2 2v11"/><path stroke="currentColor" stroke-linecap="round" stroke-linejoin="round" stroke-width="1.5" d="M15.875 8H20a2 2 0 0 1 2 2v9a2 2 0 0 1-2 2h-4.125a2 2 0 0 1-2-2v-9a2 2 0 0 1 2-2z"/><path stroke="currentColor" stroke-linecap="round" stroke-linejoin="round" stroke-width="1.5" d="M20 8V5"/><path stroke="currentColor" stroke-linecap="round" stroke-linejoin="round" stroke-width="1.5" d="M17.06 18.75h1.75"/></g></g></svg>