<svg version="1.1" viewBox="0 0 24 24" xmlns="http://www.w3.org/2000/svg"><title>media devices printer</title><g class="nc-icon-wrapper"><g stroke-linecap="round" stroke-width="1.5" stroke="currentColor" fill="none" stroke-linejoin="round"><path d="M16.814 8V4a1 1 0 0 0-1-1H8.186a1 1 0 0 0-1 1v4"/><path d="M17 11h1"/><path d="M7 17H4a1 1 0 0 1-1-1V9a1 1 0 0 1 1-1h16a1 1 0 0 1 1 1v7a1 1 0 0 1-1 1h-3"/><path d="M16 21H8a1 1 0 0 1-1-1v-6h10v6a1 1 0 0 1-1 1z"/></g><path fill="none" d="M0 0h24v24H0z"/></g></svg>