<svg version="1.1" viewBox="0 0 24 24" xmlns="http://www.w3.org/2000/svg"><title>media images photo edit</title><g class="nc-icon-wrapper"><g stroke-linecap="round" stroke-width="1.5" stroke="currentColor" fill="none" stroke-linejoin="round"><path d="M20 18H7a2 2 0 0 1-2-2V5a2 2 0 0 1 2-2h13a2 2 0 0 1 2 2v11a2 2 0 0 1-2 2z"/><path d="M15.996 21H4a2 2 0 0 1-2-2V8.399"/><path d="M11.346 6.821A1.667 1.667 0 1 1 8.988 9.18a1.667 1.667 0 0 1 2.358-2.358"/><path d="M22 13.833l-3.386-2.709a1 1 0 0 0-1.406.156l-2.572 3.215a1 1 0 0 1-1.406.156l-1.299-1.039a1 1 0 0 0-1.393.141L7 18"/></g><path fill="none" d="M0 0h24v24H0z"/></g></svg>