<svg version="1.1" viewBox="0 0 24 24" xmlns="http://www.w3.org/2000/svg"><title>media mobile devices question</title><g class="nc-icon-wrapper"><g stroke-linecap="round" stroke-width="1.5" stroke="currentColor" fill="none" stroke-linejoin="round"><path d="M8.75 18.5h2.5"/><path d="M15 12.977V19a2 2 0 0 1-2 2H7a2 2 0 0 1-2-2V7a2 2 0 0 1 2-2h3.6"/><path d="M19.39 3.61a5.5 5.5 0 1 1-7.78 7.78 5.5 5.5 0 0 1 7.78-7.78"/><path d="M15.5 10.415a.055.055 0 0 0-.055.055c0 .03.025.055.055.055s.055-.025.055-.055a.055.055 0 0 0-.055-.055"/><path d="M15.5 8.188a1.72 1.72 0 0 0 0-3.438c-.926 0-1.675.733-1.712 1.65"/></g><path fill="none" d="M0 24V0h24v24H0z"/></g></svg>