<svg version="1.1" viewBox="0 0 24 24" xmlns="http://www.w3.org/2000/svg"><title>media devices watch</title><g class="nc-icon-wrapper"><g fill="none"><path d="M0 0h24v24H0z"/><path stroke="currentColor" stroke-linecap="round" stroke-linejoin="round" stroke-width="1.5" d="M16 6.857V4a1 1 0 0 0-1-1H9a1 1 0 0 0-1 1v2.857"/><path stroke="currentColor" stroke-linecap="round" stroke-linejoin="round" stroke-width="1.5" d="M8 17.143V20a1 1 0 0 0 1 1h6a1 1 0 0 0 1-1v-2.857"/><path stroke="currentColor" stroke-linecap="round" stroke-linejoin="round" stroke-width="1.5" d="M8 17.143h8a2 2 0 0 0 2-2V9a2 2 0 0 0-2-2H8a2 2 0 0 0-2 2v6.143a2 2 0 0 0 2 2z"/><path stroke="currentColor" stroke-linecap="round" stroke-linejoin="round" stroke-width="1.5" d="M11 13v-3"/><path stroke="currentColor" stroke-linecap="round" stroke-linejoin="round" stroke-width="1.5" d="M14 13h-3"/></g></g></svg>