<svg version="1.1" viewBox="0 0 24 24" xmlns="http://www.w3.org/2000/svg"><title>media thumbsup like</title><g class="nc-icon-wrapper"><g fill="none"><path d="M0 0h24v24H0z"/><path stroke="currentColor" stroke-linecap="round" stroke-linejoin="round" stroke-width="1.5" d="M6.944 19H5.056A1.056 1.056 0 0 1 4 17.944v-7.388C4 9.973 4.473 9.5 5.056 9.5h1.888C7.527 9.5 8 9.973 8 10.556v7.388C8 18.527 7.527 19 6.944 19z"/><path stroke="currentColor" stroke-linecap="round" stroke-linejoin="round" stroke-width="1.5" d="M8 10.572l3.649-4.751a1.734 1.734 0 0 1 2.714-.046c.265.321.409.725.409 1.141v3.271h3.096a1.8 1.8 0 0 1 1.496.799l.329.491a1.8 1.8 0 0 1 .234 1.499l-1.359 4.722A1.8 1.8 0 0 1 16.839 19H10.55a1.8 1.8 0 0 1-1.318-.574L8 17.1"/></g></g></svg>