<svg version="1.1" viewBox="0 0 24 24" xmlns="http://www.w3.org/2000/svg"><title>shapes d shape object a</title><g class="nc-icon-wrapper"><g fill="none"><path d="M0 0h24v24H0z"/><path stroke="currentColor" stroke-linecap="round" stroke-linejoin="round" stroke-width="1.5" d="M20.792 5.996l-3.775 2.643A2.005 2.005 0 0 1 15.87 9H8.13c-.41 0-.81-.126-1.146-.362L3.21 5.997"/><path stroke="currentColor" stroke-linecap="round" stroke-linejoin="round" stroke-width="1.5" d="M20.792 18.004l-3.775-2.643A2.005 2.005 0 0 0 15.87 15H8.13c-.41 0-.811.126-1.147.362l-3.775 2.642"/><path stroke="currentColor" stroke-linecap="round" stroke-linejoin="round" stroke-width="1.5" d="M7.5 8.9v12.37"/><path stroke="currentColor" stroke-linecap="round" stroke-linejoin="round" stroke-width="1.5" d="M16.5 8.9v12.37"/><path stroke="currentColor" stroke-linecap="round" stroke-linejoin="round" stroke-width="1.5" d="M3.853 18.755l3.367 2.357c.336.235.737.362 1.147.362h7.265c.41 0 .811-.126 1.147-.362l3.367-2.357c.536-.374.854-.986.854-1.638V6.883c0-.653-.318-1.264-.853-1.638L16.78 2.888a2.003 2.003 0 0 0-1.147-.362H8.367c-.41 0-.811.126-1.147.362L3.853 5.245A1.999 1.999 0 0 0 3 6.883v10.233a2 2 0 0 0 .853 1.639z"/></g></g></svg>