<svg version="1.1" viewBox="0 0 24 24" xmlns="http://www.w3.org/2000/svg"><title>shapes shape object cube g</title><g fill="none" class="nc-icon-wrapper"><path d="M0 0h24v24H0z"/><path fill-rule="evenodd" stroke="currentColor" stroke-linecap="round" stroke-linejoin="round" d="M21 16.041V7.959c0-.715-.381-1.375-1-1.732l-7-4.041a2.001 2.001 0 0 0-2 0l-7 4.04c-.619.358-1 1.018-1 1.733v8.083c0 .715.381 1.375 1 1.732l7 4.041a2.001 2.001 0 0 0 2 0l7-4.041c.619-.358 1-1.018 1-1.733z"/><path stroke="currentColor" stroke-linecap="round" stroke-linejoin="round" d="M12 22.08V12"/><path stroke="currentColor" stroke-linecap="round" stroke-linejoin="round" d="M12 12l8.73-5.04"/><path stroke="currentColor" stroke-linecap="round" stroke-linejoin="round" d="M3.27 6.96L12 12"/></g></svg>