<svg version="1.1" viewBox="0 0 24 24" xmlns="http://www.w3.org/2000/svg"><title>shapes shape object cool</title><g class="nc-icon-wrapper"><g fill="none"><path d="M0 0h24v24H0z"/><path stroke="currentColor" stroke-linecap="round" stroke-linejoin="round" stroke-width="1.5" d="M18.515 5.669l2.583 10.238a2 2 0 0 1-1.083 2.297l-7.159 3.391a1.997 1.997 0 0 1-1.712 0l-7.159-3.391a2 2 0 0 1-1.083-2.297L5.485 5.669a2 2 0 0 1 1.13-1.339l4.575-2.026a2.002 2.002 0 0 1 1.619 0l4.575 2.026c.563.248.98.742 1.131 1.339z"/><path stroke="currentColor" stroke-linecap="round" stroke-linejoin="round" stroke-width="1.5" d="M3.033 17.248l8.111-3.842a1.997 1.997 0 0 1 1.712 0l8.112 3.842"/><path stroke="currentColor" stroke-linecap="round" stroke-linejoin="round" stroke-width="1.5" d="M18.06 4.82l-5.25 2.324a2.002 2.002 0 0 1-1.619 0L5.939 4.819"/><path stroke="currentColor" stroke-linecap="round" stroke-linejoin="round" stroke-width="1.5" d="M12 7.32v14.47"/></g></g></svg>