<svg version="1.1" viewBox="0 0 24 24" xmlns="http://www.w3.org/2000/svg"><title>shapes shape object t</title><g class="nc-icon-wrapper"><g fill="none"><path d="M0 0h24v24H0z"/><path stroke="currentColor" stroke-linecap="round" stroke-linejoin="round" stroke-width="1.5" d="M8.989 3.045c-.395 1.487-.67 3.247-.828 5.116a46.644 46.644 0 0 0 0 7.678c.158 1.869.433 3.629.828 5.116"/><path stroke="currentColor" stroke-linecap="round" stroke-linejoin="round" stroke-width="1.5" d="M15.011 20.955c.395-1.487.67-3.247.828-5.116a46.644 46.644 0 0 0 0-7.678c-.158-1.869-.433-3.629-.828-5.116"/><path stroke="currentColor" stroke-linecap="round" stroke-linejoin="round" stroke-width="1.5" d="M3.045 15.011c1.487.395 3.247.67 5.116.828 2.496.211 5.182.211 7.678 0 1.869-.158 3.629-.433 5.116-.828"/><path stroke="currentColor" stroke-linecap="round" stroke-linejoin="round" stroke-width="1.5" d="M3.045 8.989c1.487-.395 3.247-.67 5.116-.828a46.644 46.644 0 0 1 7.678 0c1.869.158 3.629.433 5.116.828"/><path stroke="currentColor" stroke-linecap="round" stroke-linejoin="round" stroke-width="1.5" d="M19.106 4.952l-.057-.057C17.778 3.637 16.018 3 14.231 3H9.769c-1.787 0-3.547.637-4.817 1.894l-.058.058C3.637 6.222 3 7.982 3 9.769v4.462c0 1.787.637 3.547 1.894 4.818l.057.057C6.222 20.363 7.982 21 9.769 21h4.462c1.787 0 3.547-.637 4.818-1.894l.057-.057c1.258-1.27 1.894-3.03 1.894-4.818V9.769c0-1.787-.637-3.547-1.894-4.817z"/></g></g></svg>