<svg version="1.1" viewBox="0 0 24 24" xmlns="http://www.w3.org/2000/svg"><title>shapes shape object o</title><g class="nc-icon-wrapper"><g fill="none"><path d="M0 0h24v24H0z"/><path stroke="currentColor" stroke-linecap="round" stroke-linejoin="round" stroke-width="1.5" d="M21 15.999V8.001a1.99 1.99 0 0 0-1.002-1.728L12.99 2.26a1.991 1.991 0 0 0-1.979 0L4.002 6.273A1.99 1.99 0 0 0 3 8.001v7.997a1.99 1.99 0 0 0 1.002 1.728l7.008 4.013a1.991 1.991 0 0 0 1.979 0l7.008-4.013A1.987 1.987 0 0 0 21 15.999z"/><path stroke="currentColor" stroke-linecap="round" stroke-linejoin="round" stroke-width="1.5" d="M12 12l-8.71 5.03"/><path stroke="currentColor" stroke-linecap="round" stroke-linejoin="round" stroke-width="1.5" d="M12 12l8.71-5.03"/><path stroke="currentColor" stroke-linecap="round" stroke-linejoin="round" stroke-width="1.5" d="M12 12V2"/><path stroke="currentColor" stroke-linecap="round" stroke-linejoin="round" stroke-width="1.5" d="M12 12v10"/><path stroke="currentColor" stroke-linecap="round" stroke-linejoin="round" stroke-width="1.5" d="M12 12L3.29 6.97"/><path stroke="currentColor" stroke-linecap="round" stroke-linejoin="round" stroke-width="1.5" d="M12 12l8.71 5.03"/></g></g></svg>