<svg version="1.1" viewBox="0 0 24 24" xmlns="http://www.w3.org/2000/svg"><title>shapes shape object w</title><g class="nc-icon-wrapper"><g fill="none"><path d="M0 0h24v24H0z"/><path stroke="currentColor" stroke-linecap="round" stroke-linejoin="round" stroke-width="1.5" d="M18.364 3.872c3.515 1.393 3.515 3.651 0 5.044-3.515 1.393-9.213 1.393-12.728 0-3.515-1.393-3.515-3.651 0-5.044 3.515-1.393 9.213-1.393 12.728 0"/><path stroke="currentColor" stroke-linecap="round" stroke-linejoin="round" stroke-width="1.5" d="M18.364 15.084c3.515 1.393 3.515 3.651 0 5.044-3.515 1.393-9.213 1.393-12.728 0-3.515-1.393-3.515-3.651 0-5.044 3.515-1.393 9.213-1.393 12.728 0"/><path stroke="currentColor" stroke-linecap="round" stroke-linejoin="round" stroke-width="1.5" d="M21 6.39v11.22"/><path stroke="currentColor" stroke-linecap="round" stroke-linejoin="round" stroke-width="1.5" d="M3 6.39v11.22"/></g></g></svg>