<svg version="1.1" viewBox="0 0 24 24" xmlns="http://www.w3.org/2000/svg"><title>shapes d shape object d</title><g class="nc-icon-wrapper"><g fill="none"><path d="M0 0h24v24H0z"/><path stroke="currentColor" stroke-linecap="round" stroke-linejoin="round" stroke-width="1.5" d="M12.859 21.54l8.845-8.845a.965.965 0 0 0 0-1.391L12.859 2.46c-.459-.459-1.259-.459-1.718 0l-8.845 8.845a.965.965 0 0 0 0 1.391l8.845 8.845c.459.458 1.259.458 1.718-.001z"/><path stroke="currentColor" stroke-linecap="round" stroke-linejoin="round" stroke-width="1.5" d="M12.859 15.378l8.845-3.132c.395-.14.395-.353 0-.493l-8.845-3.132c-.459-.163-1.259-.163-1.718 0l-8.845 3.132c-.395.14-.395.353 0 .493l8.845 3.132c.459.163 1.259.163 1.718 0z"/><path stroke="currentColor" stroke-linecap="round" stroke-linejoin="round" stroke-width="1.5" d="M12 2.12v19.76"/></g></g></svg>