<svg version="1.1" viewBox="0 0 24 24" xmlns="http://www.w3.org/2000/svg"><title>shapes shapes object s</title><g class="nc-icon-wrapper"><g fill="none"><path d="M0 0h24v24H0z"/><path stroke="currentColor" stroke-linecap="round" stroke-linejoin="round" stroke-width="1.5" d="M15.656 3.241c-1.277 4.886-1.277 12.632 0 17.518"/><path stroke="currentColor" stroke-linecap="round" stroke-linejoin="round" stroke-width="1.5" d="M8.344 3.241c1.277 4.886 1.277 12.632 0 17.518"/><path stroke="currentColor" stroke-linecap="round" stroke-linejoin="round" stroke-width="1.5" d="M20.759 15.656c-4.886-1.277-12.632-1.277-17.518 0"/><path stroke="currentColor" stroke-linecap="round" stroke-linejoin="round" stroke-width="1.5" d="M3.241 8.344c4.886 1.277 12.632 1.277 17.518 0"/><path stroke="currentColor" stroke-linecap="round" stroke-linejoin="round" stroke-width="1.5" d="M14.868 3.077H9.132a2 2 0 0 0-1.414.586L3.662 7.718a2 2 0 0 0-.585 1.414v5.735a2 2 0 0 0 .586 1.414l4.056 4.056a2 2 0 0 0 1.414.586h5.735a2 2 0 0 0 1.414-.586l4.056-4.056a2 2 0 0 0 .586-1.414V9.132a2 2 0 0 0-.586-1.414l-4.056-4.056a2 2 0 0 0-1.414-.585z"/></g></g></svg>