<svg version="1.1" viewBox="0 0 24 24" xmlns="http://www.w3.org/2000/svg"><title>shapes object vibe</title><g class="nc-icon-wrapper"><g fill="none"><path d="M0 0h24v24H0z"/><path stroke="currentColor" stroke-linecap="round" stroke-linejoin="round" stroke-width="1.5" d="M20 3H8.828a2 2 0 0 0-1.414.586L3.586 7.414A2 2 0 0 0 3 8.828V20a1 1 0 0 0 1 1h11.172a2 2 0 0 0 1.414-.586l3.828-3.828A2 2 0 0 0 21 15.172V4a1 1 0 0 0-1-1z"/><path stroke="currentColor" stroke-linecap="round" stroke-linejoin="round" stroke-width="1.5" d="M8 3.186V9H3"/><path stroke="currentColor" stroke-linecap="round" stroke-linejoin="round" stroke-width="1.5" d="M21 15h-5v5.814"/><path stroke="currentColor" stroke-linecap="round" stroke-linejoin="round" stroke-width="1.5" d="M16 9l4.67-5.73"/><path stroke="currentColor" stroke-linecap="round" stroke-linejoin="round" stroke-width="1.5" d="M3.33 20.73L8 15"/><path stroke="currentColor" stroke-linecap="round" stroke-linejoin="round" stroke-width="1.5" d="M8 9h8v6H8z"/></g></g></svg>