<svg version="1.1" viewBox="0 0 24 24" xmlns="http://www.w3.org/2000/svg"><title>shapes shape object f</title><g class="nc-icon-wrapper"><g fill="none"><path d="M0 0h24v24H0z"/><path stroke="currentColor" stroke-linecap="round" stroke-linejoin="round" stroke-width="1.5" d="M12.708 21.707l8.998-9a1.003 1.003 0 0 0 0-1.417l-8.998-9a1.003 1.003 0 0 0-1.416 0l-8.998 9a1.003 1.003 0 0 0 0 1.417l8.998 9a1.005 1.005 0 0 0 1.416 0z"/><path stroke="currentColor" stroke-linecap="round" stroke-linejoin="round" stroke-width="1.5" d="M12.229 21.58L16 12.864 12.236 2.227a.25.25 0 0 0-.471 0L8 12.864l3.771 8.717c.086.2.372.2.458-.001z"/><path stroke="currentColor" stroke-linecap="round" stroke-linejoin="round" stroke-width="1.5" d="M2.005 11.972l6.529 1.068h6.932l6.529-1.068"/></g></g></svg>