<svg version="1.1" viewBox="0 0 24 24" xmlns="http://www.w3.org/2000/svg"><title>shapes basic shapes star c</title><g class="nc-icon-wrapper"><path d="M12.286 3.626l2.169-.702a1.859 1.859 0 0 1 2.227.922l1.037 2.03a.932.932 0 0 0 .405.405l2.03 1.037a1.857 1.857 0 0 1 .922 2.227l-.702 2.169a.931.931 0 0 0 0 .572l.702 2.169a1.859 1.859 0 0 1-.922 2.227l-2.03 1.037a.932.932 0 0 0-.405.405l-1.037 2.03a1.857 1.857 0 0 1-2.227.922l-2.169-.702a.931.931 0 0 0-.572 0l-2.169.702a1.859 1.859 0 0 1-2.227-.922l-1.037-2.03a.932.932 0 0 0-.405-.405l-2.03-1.037a1.857 1.857 0 0 1-.922-2.227l.702-2.169a.931.931 0 0 0 0-.572l-.702-2.169a1.859 1.859 0 0 1 .922-2.227l2.03-1.037a.932.932 0 0 0 .405-.405l1.037-2.03a1.857 1.857 0 0 1 2.227-.922l2.169.702c.186.06.386.06.572 0z" stroke-linecap="round" stroke-width="1.5" fill-rule="evenodd" stroke="currentColor" fill="none" stroke-linejoin="round"/><path fill="none" d="M0 0h24v24H0z"/></g></svg>