<svg version="1.1" viewBox="0 0 24 24" xmlns="http://www.w3.org/2000/svg"><title>signs warning e</title><g class="nc-icon-wrapper"><g stroke-linecap="round" stroke-width="1.5" stroke="currentColor" fill="none" stroke-linejoin="round"><path d="M12 5.229A6.77 6.77 0 0 1 18.771 12 6.77 6.77 0 0 1 12 18.771 6.77 6.77 0 0 1 5.229 12 6.77 6.77 0 0 1 12 5.229z"/><path d="M12 12.376V8.615"/><path d="M11.999 15.047a.148.148 0 0 0-.149.15.15.15 0 1 0 .149-.15"/><path d="M20.326 5.757a10.394 10.394 0 0 1 0 12.485"/><path d="M3.667 18.243a10.394 10.394 0 0 1 0-12.485"/></g><path fill="none" d="M0 0h24v24H0V0z"/></g></svg>