<svg version="1.1" viewBox="0 0 24 24" xmlns="http://www.w3.org/2000/svg"><title>signs menu burger</title><g class="nc-icon-wrapper"><g stroke-linecap="round" stroke-width="1.5" stroke="currentColor" fill="none" stroke-linejoin="round"><path d="M12 21a9 9 0 0 1-9-9 9 9 0 0 1 9-9 9 9 0 0 1 9 9 9 9 0 0 1-9 9z"/><path d="M11.999 11.625a.375.375 0 1 0 .377.375.377.377 0 0 0-.377-.375"/><path d="M15.999 11.625a.375.375 0 1 0 .377.375.377.377 0 0 0-.377-.375"/><path d="M7.999 11.625a.375.375 0 1 0 .377.375.377.377 0 0 0-.377-.375"/></g><path fill="none" d="M0 0h24v24H0z"/></g></svg>