<svg version="1.1" viewBox="0 0 24 24" xmlns="http://www.w3.org/2000/svg"><title>signs warning b</title><g class="nc-icon-wrapper"><g fill="none"><path d="M0 0h24v24H0z"/><path stroke="currentColor" stroke-linecap="round" stroke-linejoin="round" stroke-width="1.5" d="M11.999 16a.25.25 0 1 0 .251.25.25.25 0 0 0-.251-.25"/><path stroke="currentColor" stroke-linecap="round" stroke-linejoin="round" stroke-width="1.5" d="M7.414 20.414l-3.828-3.828A2 2 0 0 1 3 15.172V8.828a2 2 0 0 1 .586-1.414l3.828-3.828A2 2 0 0 1 8.828 3h6.343a2 2 0 0 1 1.414.586l3.828 3.828c.376.375.587.884.587 1.414v6.343a2 2 0 0 1-.586 1.414L16 21H8.828a2 2 0 0 1-1.414-.586z"/><path stroke="currentColor" stroke-linecap="round" stroke-linejoin="round" stroke-width="1.5" d="M12 12.5v-5"/></g></g></svg>