<svg version="1.1" viewBox="0 0 24 24" xmlns="http://www.w3.org/2000/svg"><title>signs question rhombus</title><g class="nc-icon-wrapper"><g stroke-linecap="round" stroke-width="1.5" stroke="currentColor" fill="none" stroke-linejoin="round"><path d="M12 13.042v-.202c0-.66.408-1.018.817-1.292.399-.269.799-.619.799-1.266a1.615 1.615 0 1 0-3.23 0"/><path d="M11.999 15.315a.148.148 0 0 0-.149.15.15.15 0 1 0 .149-.15"/><path d="M10.586 20.87L3.13 13.414a2 2 0 0 1 0-2.828l7.455-7.455a2 2 0 0 1 2.828 0l7.455 7.455a2 2 0 0 1 0 2.828l-7.455 7.455a1.997 1.997 0 0 1-2.827.001z"/></g><path fill="none" d="M0 0h24v24H0z"/></g></svg>