<svg version="1.1" viewBox="0 0 24 24" xmlns="http://www.w3.org/2000/svg"><title>signs delete block b</title><g class="nc-icon-wrapper"><g fill="none"><path d="M0 0h24v24H0V0z"/><path stroke="currentColor" stroke-linecap="round" stroke-linejoin="round" stroke-width="1.5" d="M8 16l8-8"/><path stroke="currentColor" stroke-linecap="round" stroke-linejoin="round" stroke-width="1.5" d="M7.121 20.121l-3.243-3.243A3 3 0 0 1 3 14.757V9.243c0-.796.316-1.559.879-2.121l3.243-3.243A2.996 2.996 0 0 1 9.243 3h5.514c.796 0 1.559.316 2.121.879l3.244 3.244A3 3 0 0 1 21 9.244v5.513c0 .796-.316 1.558-.878 2.121l-3.243 3.244a3.004 3.004 0 0 1-2.122.878H9.243a3 3 0 0 1-2.122-.879z"/></g></g></svg>