<svg version="1.1" viewBox="0 0 24 24" xmlns="http://www.w3.org/2000/svg"><title>signs tree</title><g class="nc-icon-wrapper"><g stroke-linecap="round" stroke-width="1.5" stroke="currentColor" fill="none" stroke-linejoin="round"><path d="M16 5h-4"/><path d="M20 7h-3a1 1 0 0 1-1-1V4a1 1 0 0 1 1-1h3a1 1 0 0 1 1 1v2a1 1 0 0 1-1 1z"/><path d="M16 12h-4"/><path d="M20 14h-3a1 1 0 0 1-1-1v-2a1 1 0 0 1 1-1h3a1 1 0 0 1 1 1v2a1 1 0 0 1-1 1z"/><path d="M8 5h4"/><path d="M4 2h2a2 2 0 0 1 2 2v2a2 2 0 0 1-2 2H4a2 2 0 0 1-2-2V4a2 2 0 0 1 2-2z"/><path d="M20 21h-3a1 1 0 0 1-1-1v-2a1 1 0 0 1 1-1h3a1 1 0 0 1 1 1v2a1 1 0 0 1-1 1z"/><path d="M16 19h-3a1 1 0 0 1-1-1V5"/></g><path fill="none" d="M0 0h24v24H0z"/></g></svg>