<svg version="1.1" viewBox="0 0 24 24" xmlns="http://www.w3.org/2000/svg"><title>signs question</title><g class="nc-icon-wrapper"><g fill="none"><path d="M0 0h24v24H0z"/><path stroke="currentColor" stroke-linecap="round" stroke-linejoin="round" stroke-width="1.5" d="M12 21a9 9 0 0 1-9-9 9 9 0 0 1 9-9 9 9 0 0 1 9 9 9 9 0 0 1-9 9z"/><path stroke="currentColor" stroke-linecap="round" stroke-linejoin="round" stroke-width="1.5" d="M12 13.25V13c0-.817.505-1.26 1.011-1.6.494-.333.989-.767.989-1.567a2 2 0 1 0-4 0"/><path stroke="currentColor" stroke-linecap="round" stroke-linejoin="round" stroke-width="1.5" d="M11.999 16a.25.25 0 1 0 .251.25.25.25 0 0 0-.251-.25"/></g></g></svg>