<svg version="1.1" viewBox="0 0 24 24" xmlns="http://www.w3.org/2000/svg"><title>signs drag a</title><g class="nc-icon-wrapper"><g stroke-linecap="round" stroke-width="1" stroke="currentColor" fill="none" stroke-linejoin="round"><path d="M10.149 7a.148.148 0 0 0-.149.15.15.15 0 1 0 .149-.15"/><path d="M10.149 12a.148.148 0 0 0-.149.15.15.15 0 1 0 .149-.15"/><path d="M10.149 17a.148.148 0 0 0-.149.15.15.15 0 1 0 .149-.15"/><path d="M14.299 7a.148.148 0 0 0-.149.15.15.15 0 1 0 .149-.15"/><path d="M14.299 12a.148.148 0 0 0-.149.15.15.15 0 1 0 .149-.15"/><path d="M14.299 17a.148.148 0 0 0-.149.15.15.15 0 1 0 .149-.15"/></g></g></svg>