<svg version="1.1" viewBox="0 0 24 24" xmlns="http://www.w3.org/2000/svg"><title>signs drag b</title><g class="nc-icon-wrapper"><g stroke-linecap="round" stroke-width="1.5" stroke="currentColor" fill="none" stroke-linejoin="round"><path d="M9.188 12.253a.563.563 0 1 0 .563-.566.565.565 0 0 0-.563.566"/><path d="M14.188 12.253a.563.563 0 1 0 .563-.566.565.565 0 0 0-.563.566"/><path d="M9.188 7.753a.563.563 0 1 0 .563-.565.565.565 0 0 0-.563.565"/><path d="M14.188 7.753a.563.563 0 1 0 .563-.565.565.565 0 0 0-.563.565"/><path d="M9.188 16.753a.563.563 0 1 0 .563-.566.565.565 0 0 0-.563.566"/><path d="M14.188 16.753a.563.563 0 1 0 .563-.566.565.565 0 0 0-.563.566"/></g></g></svg>