<svg version="1.1" viewBox="0 0 24 24" xmlns="http://www.w3.org/2000/svg"><title>social linkedin</title><g class="nc-icon-wrapper"><path d="M7.5 3h9.004A4.496 4.496 0 0 1 21 7.496v9.009A4.496 4.496 0 0 1 16.504 21H7.496A4.496 4.496 0 0 1 3 16.504V7.5A4.5 4.5 0 0 1 7.5 3z" stroke-linecap="round" stroke-width="1.5" fill-rule="evenodd" stroke="currentColor" fill="none" stroke-linejoin="round"/><path fill="none" stroke="currentColor" stroke-linecap="round" stroke-linejoin="round" stroke-width="1.5" d="M8.12 11.1v5.4"/><g stroke-linecap="round" stroke-width="1.5" stroke="currentColor" fill="none" stroke-linejoin="round"><path d="M11.719 16.5v-3.15a2.25 2.25 0 1 1 4.5 0v3.15"/><path d="M8.118 7.838a.225.225 0 1 0 .226.225.225.225 0 0 0-.226-.225"/></g><path fill="none" d="M0 24V0h24v24z"/></g></svg>