<svg version="1.1" viewBox="0 0 24 24" xmlns="http://www.w3.org/2000/svg"><title>social instagram</title><g class="nc-icon-wrapper"><path d="M7.496 3h9.009A4.495 4.495 0 0 1 21 7.496v9.009A4.495 4.495 0 0 1 16.504 21H7.496A4.495 4.495 0 0 1 3 16.504V7.496A4.495 4.495 0 0 1 7.496 3z" stroke-linecap="round" stroke-width="1.5" fill-rule="evenodd" stroke="currentColor" fill="none" stroke-linejoin="round"/><path fill="none" stroke="currentColor" stroke-linecap="round" stroke-linejoin="round" stroke-width="1.5" d="M16.949 6.713a.338.338 0 1 0 .002.674.338.338 0 0 0-.002-.674"/><path d="M14.546 9.454a3.6 3.6 0 1 1-5.092 5.092 3.6 3.6 0 0 1 5.092-5.092" stroke-linecap="round" stroke-width="1.5" fill-rule="evenodd" stroke="currentColor" fill="none" stroke-linejoin="round"/><path fill="none" d="M0 24V0h24v24z"/></g></svg>