<svg version="1.1" viewBox="0 0 24 24" xmlns="http://www.w3.org/2000/svg"><title>social appstore</title><g class="nc-icon-wrapper"><g stroke-linecap="round" stroke-width="1.5" stroke="currentColor" fill="none" stroke-linejoin="round"><path d="M7.5 3h9.004A4.496 4.496 0 0 1 21 7.496v9.009A4.496 4.496 0 0 1 16.504 21H7.496A4.496 4.496 0 0 1 3 16.504V7.5A4.5 4.5 0 0 1 7.5 3z"/><path d="M7.88 15.94l-.32.56"/><path d="M16.44 16.5l-3.27-5.71"/><path d="M10.99 7L12 8.76"/><path d="M13.01 7l-3.96 6.91"/><path d="M12.62 13.91H7"/><path d="M17 13.91h-2.05"/></g><path fill="none" d="M0 24V0h24v24H0z"/></g></svg>