<svg version="1.1" viewBox="0 0 24 24" xmlns="http://www.w3.org/2000/svg"><title>social smileys b</title><g class="nc-icon-wrapper"><g fill="none"><path d="M0 0h24v24H0z"/><path stroke="currentColor" stroke-linecap="round" stroke-linejoin="round" stroke-width="1.5" d="M21 12c0-4.962-4.038-9-9-9-4.963 0-9 4.037-9 9"/><path stroke="currentColor" stroke-linecap="round" stroke-linejoin="round" stroke-width="1.5" d="M3 12c0 4.963 4.037 9 9 9s9-4.038 9-9"/><path stroke="currentColor" stroke-linecap="round" stroke-linejoin="round" stroke-width="1.5" d="M15.328 9.52a.25.25 0 1 0 .251.25.25.25 0 0 0-.251-.25"/><path stroke="currentColor" stroke-linecap="round" stroke-linejoin="round" stroke-width="1.5" d="M9 15h6"/><path stroke="currentColor" stroke-linecap="round" stroke-linejoin="round" stroke-width="1.5" d="M8.639 9.5a.25.25 0 1 0 .251.25.25.25 0 0 0-.251-.25"/></g></g></svg>