<svg version="1.1" viewBox="0 0 24 24" xmlns="http://www.w3.org/2000/svg"><title>social github</title><g class="nc-icon-wrapper"><g fill="none"><path d="M0 0h24v24H0V0z"/><path stroke="currentColor" stroke-linecap="round" stroke-linejoin="round" stroke-width="1.5" d="M7.496 21H9v-1.036s-.017-1.621.874-2.991c-2.031-.142-3.643-1.954-3.643-4.191 0-.785.298-1.517.809-2.147l.052-1.933a.722.722 0 0 1 .966-.659l2.075.75a7.724 7.724 0 0 1 3.734.001l2.075-.75a.722.722 0 0 1 .966.659l.052 1.932c.51.63.809 1.362.809 2.147 0 2.237-1.612 4.049-3.643 4.191.891 1.37.874 2.991.874 2.991V21h1.504A4.496 4.496 0 0 0 21 16.505V7.496A4.496 4.496 0 0 0 16.504 3H7.5A4.5 4.5 0 0 0 3 7.5v9.004A4.496 4.496 0 0 0 7.496 21"/></g></g></svg>