<svg version="1.1" viewBox="0 0 24 24" xmlns="http://www.w3.org/2000/svg"><title>social smileys d</title><g class="nc-icon-wrapper"><g fill="none"><path d="M0 0h24v24H0z"/><path stroke="currentColor" stroke-linecap="round" stroke-linejoin="round" stroke-width="1.5" d="M12 3c-4.963 0-9 4.037-9 9s4.037 9 9 9 9-4.038 9-9-4.038-9-9-9z"/><path stroke="currentColor" stroke-linecap="round" stroke-linejoin="round" stroke-width="1.5" d="M15.328 9.5a.25.25 0 1 0 .251.25.25.25 0 0 0-.251-.25"/><path stroke="currentColor" stroke-linecap="round" stroke-linejoin="round" stroke-width="1.5" d="M8.639 9.5a.25.25 0 1 0 .251.25.25.25 0 0 0-.251-.25"/><path stroke="currentColor" stroke-linecap="round" stroke-linejoin="round" stroke-width="1.5" d="M15.5 15.688S14.187 17 12 17c-2.188 0-3.5-1.312-3.5-1.312"/></g></g></svg>