<?xml version="1.0" standalone="no"?>
<!DOCTYPE svg PUBLIC "-//W3C//DTD SVG 1.1//EN" "http://www.w3.org/Graphics/SVG/1.1/DTD/svg11.dtd">
<svg xmlns="http://www.w3.org/2000/svg"><metadata>This SVG WebFont was generated by YouWorkForThem.
Copyright (c) 2019 by TypeType. Designers Ivan Gladkikh, Pavel Emelyanov. Technical designers Marina Khodak, Kseniya Karataeva, Nadezhda Polomoshnova, Yuri Nako, Nadyr Rakhimov, Victor Rubenko. All rights reserved.</metadata><defs><font horiz-adv-x="2048" id="ywftsvg"><font-face ascent="1556" bbox="-801 -512 3068 2048" cap-height="1434" descent="-492" font-family="" font-stretch="normal" font-weight="600" panose-1="2 0 5 3 2 0 0 9 0 4" underline-position="0" underline-thickness="0" unicode-range="U+000D-FB04" units-per-em="2048" x-height="1085"/><missing-glyph d="M205 0v582h92v-285h68v285h102v63h-262v258l39 -125h47l69 217l68 -217h47l111 348h-66l-69 -225l-72 225h-39l-72 -225l-63 211v322h1433v-308h-225v-348h225v-186q-27 55 -102 55q-55 0 -89 -29.5t-34 -70.5t28.5 -65.5t61.5 -31t61.5 -19.5t28.5 -34q0 -43 -57 -43 t-57 52h-68q0 -49 35 -81t90 -32q68 0 102 41v-334h-1433zM672 293q76 0 122 50t46 126t-47.5 127t-121 51t-120.5 -51t-47 -127t46 -126t122 -50zM672 356q-45 0 -75 33t-30 80q0 51 28 83t77 32t76.5 -32t27.5 -83q0 -47 -29.5 -80t-74.5 -33zM1124 428v217h-65v-217 q0 -57 40 -96t99 -39t98 39t39 96v217h-65v-217q0 -31 -19.5 -51.5t-52.5 -20.5q-35 0 -54.5 21.5t-19.5 50.5zM637 778h68v127h49l71 -127h76l-82 137q74 35 74 103q0 45 -33 76.5t-84 31.5h-139v-348zM705 969v94h71q20 0 34.5 -13.5t14.5 -33.5q0 -47 -49 -47h-71z M961 778h67v348h-67v-348zM1589 537h49v-78q-18 18 -47.5 30.5t-52 17.5t-39 15t-16.5 25q0 18 15 29.5t38 11.5q20 0 36.5 -14t16.5 -37zM1188 778h65v285h103v63h-271v-63h103v-285zM1479 842v84h159v-84h-159zM1479 989v74h159v-74h-159z" horiz-adv-x="1843"/><glyph d="M205 0l168 870h-174l43 215h174l22 123q23 125 107 196t213 71h233l-41 -215h-168q-45 0 -76.5 -29t-39.5 -72l-15 -74h420l23 123q23 125 106.5 196t212.5 71h234l-41 -215h-168q-45 0 -77 -29t-40 -72l-14 -74h266l-43 -215h-266l-168 -870h-236l168 870h-420 l-168 -870h-235z" glyph-name="uniFB00" horiz-adv-x="1402" unicode="ff"/><glyph d="M205 0l168 870h-174l43 215h174l22 123q23 125 107 196t213 71h233l-41 -215h-168q-45 0 -76.5 -29t-39.5 -72l-15 -74h656l-211 -1085h-236l168 870h-420l-168 -870h-235zM1225 1208q-61 0 -98 37t-37 94q0 66 46 111t115 45q61 0 99.5 -37t38.5 -94q0 -66 -47 -111 t-117 -45z" glyph-name="uniFB01" horiz-adv-x="1228" unicode="fi"/><glyph d="M205 0l168 870h-174l43 215h174l22 123q23 125 107 196t213 71h622l-284 -1475h-236l244 1260h-322q-45 0 -76.5 -29t-39.5 -72l-15 -74h267l-44 -215h-266l-168 -870h-235z" glyph-name="uniFB02" horiz-adv-x="1239" unicode="fl"/><glyph d="M205 0l168 870h-174l43 215h174l22 123q23 125 107 196t213 71h233l-41 -215h-168q-45 0 -76.5 -29t-39.5 -72l-15 -74h420l23 123q23 125 106.5 196t212.5 71h234l-41 -215h-168q-45 0 -77 -29t-40 -72l-14 -74h655l-211 -1085h-235l167 870h-419l-168 -870h-236 l168 870h-420l-168 -870h-235zM1880 1208q-61 0 -98 37t-37 94q0 66 46 111t116 45q61 0 99 -37t38 -94q0 -66 -47 -111t-117 -45z" glyph-name="uniFB03" horiz-adv-x="1884" unicode="ffi"/><glyph d="M205 0l168 870h-174l43 215h174l22 123q23 125 107 196t213 71h233l-41 -215h-168q-45 0 -76.5 -29t-39.5 -72l-15 -74h420l23 123q23 125 106.5 196t212.5 71h623l-285 -1475h-235l243 1260h-321q-45 0 -77 -29t-40 -72l-14 -74h266l-43 -215h-266l-168 -870h-236 l168 870h-420l-168 -870h-235z" glyph-name="uniFB04" horiz-adv-x="1894" unicode="ffl"/><glyph d="M1161 -410l39 205h174q43 0 78 29t43 76l188 970h-419l-168 -870h-236l168 870h-420l-168 -870h-235l168 870h-174l43 215h174l22 123q23 125 107 196t213 71h233l-41 -215h-168q-45 0 -76.5 -29t-39.5 -72l-15 -74h420l23 123q23 125 106.5 196t212.5 71h234l-41 -215 h-168q-45 0 -77 -29t-40 -72l-14 -74h655l-238 -1228q-53 -266 -317 -267h-246zM1880 1208q-61 0 -98 37t-37 94q0 66 46 111t116 45q61 0 99 -37t38 -94q0 -66 -47 -111t-117 -45z" glyph-name="f_f_j.liga" horiz-adv-x="1884" unicode="ffj"/><glyph d="M506 -410l39 205h174q43 0 77.5 29t43.5 76l188 970h-420l-168 -870h-235l168 870h-174l43 215h174l22 123q23 125 107 196t213 71h233l-41 -215h-168q-45 0 -76.5 -29t-39.5 -72l-15 -74h656l-238 -1228q-53 -266 -317 -267h-246zM1225 1208q-61 0 -98 37t-37 94 q0 66 46 111t115 45q61 0 99.5 -37t38.5 -94q0 -66 -47 -111t-117 -45z" glyph-name="f_j.liga" horiz-adv-x="1228" unicode="fj"/><glyph d="M205 0v582h92v-285h68v285h102v63h-262v258l39 -125h47l69 217l68 -217h47l111 348h-66l-69 -225l-72 225h-39l-72 -225l-63 211v322h1433v-308h-225v-348h225v-186q-27 55 -102 55q-55 0 -89 -29.5t-34 -70.5t28.5 -65.5t61.5 -31t61.5 -19.5t28.5 -34q0 -43 -57 -43 t-57 52h-68q0 -49 35 -81t90 -32q68 0 102 41v-334h-1433zM672 293q76 0 122 50t46 126t-47.5 127t-121 51t-120.5 -51t-47 -127t46 -126t122 -50zM672 356q-45 0 -75 33t-30 80q0 51 28 83t77 32t76.5 -32t27.5 -83q0 -47 -29.5 -80t-74.5 -33zM1124 428v217h-65v-217 q0 -57 40 -96t99 -39t98 39t39 96v217h-65v-217q0 -31 -19.5 -51.5t-52.5 -20.5q-35 0 -54.5 21.5t-19.5 50.5zM637 778h68v127h49l71 -127h76l-82 137q74 35 74 103q0 45 -33 76.5t-84 31.5h-139v-348zM705 969v94h71q20 0 34.5 -13.5t14.5 -33.5q0 -47 -49 -47h-71z M961 778h67v348h-67v-348zM1589 537h49v-78q-18 18 -47.5 30.5t-52 17.5t-39 15t-16.5 25q0 18 15 29.5t38 11.5q20 0 36.5 -14t16.5 -37zM1188 778h65v285h103v63h-271v-63h103v-285zM1479 842v84h159v-84h-159zM1479 989v74h159v-74h-159z" glyph-name=".notdef" horiz-adv-x="1843"/><glyph glyph-name="glyph1" horiz-adv-x="0"/><glyph glyph-name="glyph1" horiz-adv-x="0"/><glyph glyph-name="glyph2" horiz-adv-x="681"/><glyph glyph-name="space" horiz-adv-x="450" unicode=" "/><glyph d="M299 -10q-57 0 -94 36.5t-37 94.5q0 66 46 110.5t112 44.5q57 0 94 -36.5t37 -94.5q0 -66 -46 -110.5t-112 -44.5zM281 451l137 860l24 123h246l-24 -123l-199 -860h-184z" glyph-name="exclam" horiz-adv-x="593" unicode="!"/><glyph d="M311 973l90 461h215l-90 -461h-215zM649 973l90 461h215l-90 -461h-215z" glyph-name="quotedbl" horiz-adv-x="798" unicode="&quot;"/><glyph d="M184 0l146 358h-219l79 205h224l125 307h-228l82 205h230l147 359h215l-147 -359h256l147 359h215l-147 -359h221l-82 -205h-223l-125 -307h227l-80 -205h-231l-146 -358h-215l146 358h-256l-146 -358h-215zM629 563h256l125 307h-256z" glyph-name="numbersign" horiz-adv-x="1361" unicode="#"/><glyph d="M457 -225l43 227q-152 39 -247 141.5t-110 266.5h254q16 -98 101.5 -152.5t220.5 -54.5q131 0 201.5 57t70.5 152q0 66 -51 108.5t-127 64t-166 53.5t-165.5 69.5t-127 118.5t-51.5 198q0 199 132 310.5t347 119.5l41 205h256l-47 -232q145 -41 224 -136t90 -226h-256 q-18 76 -90 120t-193 44q-117 0 -181.5 -54.5t-64.5 -138.5q0 -68 52.5 -113.5t129 -68.5t167.5 -55.5t168 -71.5t129.5 -121t52.5 -196q0 -174 -137.5 -296t-368.5 -132l-41 -207h-256z" glyph-name="dollar" horiz-adv-x="1259" unicode="$"/><glyph d="M225 0l1159 1434h226l-1159 -1434h-226zM1196 -20q-139 0 -222 81.5t-83 212.5q0 170 102.5 275.5t255.5 105.5q139 0 222 -81.5t83 -213.5q0 -170 -102 -275t-256 -105zM1206 143q76 0 125 55.5t49 149.5q0 66 -37.5 105t-103.5 39q-76 0 -125 -55.5t-49 -149.5 q0 -66 37.5 -105t103.5 -39zM586 778q-139 0 -222 82t-83 213q0 170 102 275.5t256 105.5q139 0 222 -82t83 -213q0 -170 -102 -275.5t-256 -105.5zM596 942q76 0 125 55.5t49 149.5q0 66 -38 104.5t-103 38.5q-76 0 -125 -55t-49 -150q0 -66 37.5 -104.5t103.5 -38.5z" glyph-name="percent" horiz-adv-x="1556" unicode="%"/><glyph d="M530 -20q-168 0 -290.5 93t-122.5 263q0 121 70.5 205t207.5 170l92 55l-55 65q-82 102 -82 240q0 156 112.5 269.5t297.5 113.5q178 0 277.5 -93t99.5 -235q0 -106 -57.5 -183t-188.5 -148l-90 -58l217 -266l194 164h324l-379 -328l246 -307h-283l-135 164 q-211 -184 -455 -184zM563 195q57 0 114.5 22.5t90.5 46t82 64.5l-238 284l-82 -49q-80 -49 -117.5 -95t-37.5 -108q0 -74 54 -119.5t134 -45.5zM680 887l88 57q4 4 23.5 15.5t26.5 17.5t23.5 17.5t24.5 21.5t17.5 24.5t13.5 30.5t4 35q0 57 -39 95t-104 38q-76 0 -125 -46 t-49 -118q0 -70 51 -133z" glyph-name="ampersand" horiz-adv-x="1300" unicode="&amp;"/><glyph d="M311 973l90 461h215l-90 -461h-215z" glyph-name="quotesingle" horiz-adv-x="460" unicode="'"/><glyph d="M338 -410q-117 252 -117 625t134 711t354 569h247q-227 -258 -363 -583.5t-136 -696.5q0 -383 106 -625h-225z" glyph-name="parenleft" horiz-adv-x="686" unicode="("/><glyph d="M-61 -410q227 258 363 584t136 696q0 383 -106 625h225q117 -252 117 -624.5t-134 -710.5t-354 -570h-247z" glyph-name="parenright" horiz-adv-x="686" unicode=")"/><glyph d="M502 666l-174 112l204 215l-296 72l61 184l276 -102l-30 287h205l-31 -287l276 102l62 -184l-297 -72l205 -215l-175 -112l-143 247z" glyph-name="asterisk" horiz-adv-x="962" unicode="*"/><glyph d="M594 143v389h-389v195h389v389h194v-389h390v-195h-390v-389h-194z" glyph-name="plus" horiz-adv-x="1136" unicode="+"/><glyph d="M0 -215l162 420h225l-205 -420h-182z" glyph-name="comma" horiz-adv-x="450" unicode=","/><glyph d="M172 471l43 215h645l-43 -215h-645z" glyph-name="hyphen" horiz-adv-x="808" unicode="-"/><glyph d="M238 -10q-57 0 -94.5 36.5t-37.5 94.5q0 66 46.5 110.5t111.5 44.5q57 0 94 -36.5t37 -94.5q0 -66 -45.5 -110.5t-111.5 -44.5z" glyph-name="period" horiz-adv-x="450" unicode="."/><glyph d="M-88 -410l960 1905h265l-963 -1905h-262z" glyph-name="slash" horiz-adv-x="839" unicode="/"/><glyph d="M741 -20q-246 0 -393 149.5t-147 413.5q0 248 83 453.5t243.5 331.5t369.5 126q246 0 393.5 -149.5t147.5 -413.5q0 -248 -83 -454t-244 -331.5t-370 -125.5zM752 215q188 0 309 190.5t121 464.5q0 168 -84 258.5t-211 90.5q-188 0 -309 -190.5t-121 -465.5 q0 -168 84 -258t211 -90z" glyph-name="zero" horiz-adv-x="1372" unicode="0"/><glyph d="M348 0l201 1034h-287l43 226h205q82 0 98 83l19 91h256l-279 -1434h-256z" glyph-name="one" horiz-adv-x="757" unicode="1"/><glyph d="M82 0l45 227l721 572q57 45 89 75.5t58.5 77.5t26.5 97q0 80 -57.5 130t-171.5 50q-92 0 -162 -59.5t-94 -145.5h-256q37 184 175 307t347 123q236 0 361.5 -108.5t125.5 -276.5q0 -72 -23.5 -134.5t-74.5 -120.5t-86 -89t-102 -86l-512 -414h657l-43 -225h-1024z" glyph-name="two" horiz-adv-x="1198" unicode="2"/><glyph d="M666 -20q-221 0 -371 107.5t-150 322.5h256q8 -96 84 -150.5t195 -54.5q117 0 188.5 60.5t71.5 156.5q0 80 -65.5 136t-169.5 56h-105l41 215h156q113 0 177 58.5t64 150.5q0 80 -59 135.5t-174 55.5q-90 0 -166 -54.5t-104 -150.5h-259q51 207 191.5 318.5t343.5 111.5 q223 0 355 -106.5t132 -276.5q0 -139 -75.5 -234.5t-204.5 -131.5q174 -86 174 -291q0 -195 -148.5 -314.5t-377.5 -119.5z" glyph-name="three" horiz-adv-x="1208" unicode="3"/><glyph d="M727 0l57 297h-686l43 225l772 912h349l-179 -912h185l-43 -225h-185l-57 -297h-256zM416 522h411l119 615h-10z" glyph-name="four" horiz-adv-x="1208" unicode="4"/><glyph d="M682 -20q-205 -2 -341 113.5t-161 316.5h252q14 -92 84 -148.5t174 -56.5q135 0 214 87t79 224q0 104 -64.5 173t-187.5 69q-160 0 -252 -133h-246l240 809h860l-45 -226h-645l-88 -303h10q86 57 223 58q205 0 328 -118t123 -327q0 -229 -158.5 -382.5t-398.5 -155.5z " glyph-name="five" horiz-adv-x="1218" unicode="5"/><glyph d="M688 -20q-211 0 -362.5 120.5t-151.5 331.5q0 256 238 526l397 476h301l-438 -512h10q51 18 109 18q209 0 330.5 -124t121.5 -306q0 -231 -157.5 -380.5t-397.5 -149.5zM696 205q127 0 209 81t82 216q0 106 -71.5 171.5t-192.5 65.5q-127 0 -210 -82t-83 -213 q0 -104 75.5 -171.5t190.5 -67.5z" glyph-name="six" horiz-adv-x="1228" unicode="6"/><glyph d="M201 0l766 1208h-672l45 226h963l-46 -226l-765 -1208h-291z" glyph-name="seven" horiz-adv-x="1085" unicode="7"/><glyph d="M696 -20q-100 0 -190 22.5t-167 68.5t-122 125.5t-45 184.5q0 133 88 236.5t213 140.5q-147 94 -147 282q0 182 150.5 298t363.5 116q223 0 356 -108.5t133 -278.5q0 -129 -77.5 -218t-190.5 -132q76 -37 125 -122t49 -185q0 -184 -151.5 -307t-387.5 -123zM707 205 q125 0 201.5 62.5t76.5 168.5q0 90 -72.5 144.5t-205.5 54.5q-125 0 -201 -61.5t-76 -167.5q0 -96 81 -148.5t196 -52.5zM829 840q113 0 177.5 58t64.5 149q0 80 -64.5 131t-189.5 51q-111 0 -175 -58.5t-64 -150.5q0 -88 72.5 -134t178.5 -46z" glyph-name="eight" horiz-adv-x="1249" unicode="8"/><glyph d="M377 0l438 512h-10q-51 -18 -109 -18q-209 0 -330.5 123.5t-121.5 306.5q0 231 157.5 380.5t397.5 149.5q211 0 362.5 -121t151.5 -332q0 -256 -238 -526l-397 -475h-301zM764 694q127 0 210 82t83 213q0 104 -76 172t-190 68q-127 0 -209 -81t-82 -216q0 -106 71.5 -172 t192.5 -66z" glyph-name="nine" horiz-adv-x="1228" unicode="9"/><glyph d="M238 -10q-57 0 -94.5 36.5t-37.5 94.5q0 66 46.5 110.5t111.5 44.5q57 0 94 -36.5t37 -94.5q0 -66 -45.5 -110.5t-111.5 -44.5zM397 809q-57 0 -94 37t-37 94q0 66 46 111t112 45q57 0 94 -37t37 -94q0 -66 -46 -111t-112 -45z" glyph-name="colon" horiz-adv-x="450" unicode=":"/><glyph d="M0 -215l162 420h225l-205 -420h-182zM397 809q-57 0 -94 37t-37 94q0 66 46 111t112 45q57 0 94 -37t37 -94q0 -66 -46 -111t-112 -45z" glyph-name="semicolon" horiz-adv-x="450" unicode=";"/><glyph d="M1096 92l-891 440v205l891 441v-226l-656 -317l656 -318v-225z" glyph-name="less" horiz-adv-x="1075" unicode="&lt;"/><glyph d="M195 307v195h983v-195h-983zM195 748v194h983v-194h-983z" glyph-name="equal" horiz-adv-x="1126" unicode="="/><glyph d="M236 92v225l655 318l-655 317v226l890 -441v-205z" glyph-name="greater" horiz-adv-x="1075" unicode=">"/><glyph d="M504 -10q-57 0 -94 36.5t-37 94.5q0 66 46 110.5t111 44.5q57 0 94.5 -36.5t37.5 -94.5q0 -66 -46 -110.5t-112 -44.5zM455 451l18 96q20 104 71.5 176t109 107.5t112.5 66.5t91 77t36 113q0 63 -46 107.5t-138 44.5q-82 0 -147.5 -52t-84.5 -143h-250q31 174 162 292 t318 118q203 0 323.5 -96t120.5 -250q0 -102 -41 -178t-102.5 -121t-125 -83t-114.5 -88t-63 -114l-15 -73h-235z" glyph-name="question" horiz-adv-x="1054" unicode="?"/><glyph d="M911 -205q-319 0 -511.5 197.5t-192.5 513.5q0 406 258 667t655 261q381 0 601.5 -201t220.5 -516q0 -256 -117 -404.5t-299 -148.5q-55 0 -99.5 14.5t-69 36t-41 43t-22.5 35.5l-4 14h-10q-41 -57 -124 -100t-169 -43q-166 0 -256 98t-90 270q0 213 123 357.5t295 144.5 q199 0 274 -127h8l45 117h154l-100 -524q-6 -27 -6 -45q0 -49 26.5 -78t75.5 -29q90 0 147.5 92t57.5 256q0 242 -165 397.5t-464 155.5q-309 0 -509 -205.5t-200 -519.5q0 -233 142.5 -388.5t372.5 -155.5h327l-37 -185h-297zM1030 338q109 0 178.5 86t69.5 227 q0 96 -51 150.5t-144 54.5q-111 0 -178 -83t-67 -226q0 -90 51 -149.5t141 -59.5z" glyph-name="at" horiz-adv-x="1894" unicode="@"/><glyph d="M10 0l801 1434h317l244 -1434h-256l-51 307h-608l-170 -307h-277zM580 532h448l-100 615h-10z" glyph-name="A" horiz-adv-x="1341" unicode="A"/><glyph d="M154 0l278 1434h651q172 0 266.5 -98.5t94.5 -252.5q0 -137 -70.5 -236t-179.5 -140q147 -94 147 -277q0 -195 -122.5 -312.5t-321.5 -117.5h-743zM453 225h424q96 0 152 59.5t56 161.5q0 72 -44 120t-121 48h-392zM567 819h396q96 0 155.5 58.5t59.5 160.5q0 76 -43 123 t-121 47h-371z" glyph-name="B" horiz-adv-x="1351" unicode="B"/><glyph d="M834 -20q-281 0 -449 154.5t-168 438.5q0 389 208 635t525 246q258 0 403.5 -116.5t184.5 -323.5h-262q-74 215 -332 215q-195 0 -333 -173t-138 -462q0 -182 99.5 -285.5t267.5 -103.5q223 0 350 215h270q-84 -197 -246.5 -318.5t-379.5 -121.5z" glyph-name="C" horiz-adv-x="1443" unicode="C"/><glyph d="M154 0l278 1434h533q240 0 379 -165t139 -429q0 -391 -201 -615.5t-512 -224.5h-616zM453 225h311q195 0 329 157t134 435q0 176 -88 283.5t-230 107.5h-266z" glyph-name="D" horiz-adv-x="1423" unicode="D"/><glyph d="M154 0l278 1434h942l-45 -226h-686l-74 -379h645l-40 -215h-646l-75 -389h706l-43 -225h-962z" glyph-name="E" horiz-adv-x="1218" unicode="E"/><glyph d="M154 0l278 1434h942l-45 -226h-686l-80 -409h635l-43 -226h-635l-110 -573h-256z" glyph-name="F" horiz-adv-x="1187" unicode="F"/><glyph d="M834 -20q-281 0 -449 154.5t-168 438.5q0 389 208 635t525 246q258 0 403.5 -116.5t184.5 -323.5h-262q-74 215 -332 215q-195 0 -333 -173t-138 -462q0 -182 99.5 -285.5t267.5 -103.5q154 0 257 92t146 246h-401l41 215h655l-31 -164q-51 -285 -231 -449.5t-442 -164.5 z" glyph-name="G" horiz-adv-x="1474" unicode="G"/><glyph d="M154 0l278 1434h256l-117 -594h646l116 594h256l-278 -1434h-256l119 614h-646l-118 -614h-256z" glyph-name="H" horiz-adv-x="1464" unicode="H"/><glyph d="M154 0l278 1434h256l-278 -1434h-256z" glyph-name="I" horiz-adv-x="563" unicode="I"/><glyph d="M580 -20q-211 0 -332 113.5t-123 326.5h254q2 -102 58.5 -158.5t148.5 -56.5t159.5 66.5t92.5 199.5l188 963h256l-192 -988q-45 -223 -179 -344.5t-331 -121.5z" glyph-name="J" horiz-adv-x="1157" unicode="J"/><glyph d="M154 0l278 1434h256l-129 -656l692 656h312l-756 -721l483 -713h-286l-463 676l-131 -676h-256z" glyph-name="K" horiz-adv-x="1228" unicode="K"/><glyph d="M154 0l278 1434h256l-235 -1209h686l-43 -225h-942z" glyph-name="L" horiz-adv-x="1085" unicode="L"/><glyph d="M154 0l278 1434h369l170 -1065h10l588 1065h389l-279 -1434h-256l211 1096h-10l-600 -1096h-215l-178 1096h-10l-211 -1096h-256z" glyph-name="M" horiz-adv-x="1832" unicode="M"/><glyph d="M154 0l278 1434h338l399 -1100h11l215 1100h256l-279 -1434h-338l-399 1100h-10l-215 -1100h-256z" glyph-name="N" horiz-adv-x="1525" unicode="N"/><glyph d="M840 -20q-293 0 -458 157.5t-165 435.5q0 238 86 436.5t256 321.5t393 123q293 0 458 -157.5t165 -436.5q0 -238 -86 -436.5t-256 -321t-393 -122.5zM848 205q199 0 335 174t136 461q0 184 -98.5 286.5t-276.5 102.5q-199 0 -335 -174t-136 -461q0 -184 98.5 -286.5 t276.5 -102.5z" glyph-name="O" horiz-adv-x="1515" unicode="O"/><glyph d="M154 0l278 1434h569q180 0 294 -125t114 -301q0 -227 -152.5 -371.5t-373.5 -144.5h-379l-94 -492h-256zM549 717h338q121 0 194.5 76.5t73.5 203.5q0 92 -57.5 151.5t-157.5 59.5h-297z" glyph-name="P" horiz-adv-x="1320" unicode="P"/><glyph d="M1038 -205l-90 193q-70 -8 -108 -8q-293 0 -458 157.5t-165 435.5q0 238 86 436.5t256 321.5t393 123q293 0 458 -157.5t165 -436.5q0 -258 -104.5 -471t-290.5 -321l127 -273h-269zM846 205l-119 256h268l84 -182q111 78 175.5 223t64.5 338q0 184 -98.5 286.5 t-276.5 102.5q-199 0 -335 -174t-136 -461q0 -184 98.5 -286.5t274.5 -102.5z" glyph-name="Q" horiz-adv-x="1515" unicode="Q"/><glyph d="M154 0l278 1434h582q176 0 287.5 -116t111.5 -288q0 -129 -46 -228.5t-117.5 -152.5t-137 -80.5t-129.5 -36.5l270 -532h-274l-266 532h-201l-102 -532h-256zM555 758h356q109 0 177.5 68.5t68.5 185.5q0 86 -52 141t-142 55h-320z" glyph-name="R" horiz-adv-x="1331" unicode="R"/><glyph d="M713 -20q-242 0 -395.5 105t-174.5 325h254q16 -98 101.5 -152.5t220.5 -54.5q131 0 201.5 57t70.5 152q0 76 -70.5 122t-172 74.5t-203 66.5t-172 125t-70.5 224q0 201 140.5 315.5t369.5 114.5q250 0 384 -105.5t149 -283.5h-256q-18 76 -90 120t-193 44 q-117 0 -181.5 -54.5t-64.5 -138.5q0 -68 52.5 -113.5t130 -68.5t169 -55.5t168 -71.5t128 -120t51.5 -197q-2 -180 -148.5 -305t-398.5 -125z" glyph-name="S" horiz-adv-x="1259" unicode="S"/><glyph d="M451 0l233 1208h-440l45 226h1136l-45 -226h-440l-233 -1208h-256z" glyph-name="T" horiz-adv-x="1198" unicode="T"/><glyph d="M801 -20q-244 0 -395.5 139t-151.5 387q0 70 16 158l152 770h256l-156 -795q-12 -61 -12 -111q0 -152 80 -237.5t215 -85.5q133 0 231.5 96t132.5 274l164 859h256l-168 -883q-51 -274 -215.5 -422.5t-404.5 -148.5z" glyph-name="U" horiz-adv-x="1454" unicode="U"/><glyph d="M481 0l-213 1434h260l156 -1147h10l602 1147h293l-770 -1434h-338z" glyph-name="V" horiz-adv-x="1341" unicode="V"/><glyph d="M379 0l-90 1434h256l35 -1086h10l477 1086h297l55 -1086h11l456 1086h277l-647 -1434h-308l-47 1075h-10l-465 -1075h-307z" glyph-name="W" horiz-adv-x="1914" unicode="W"/><glyph d="M-31 0l623 737l-324 697h269l235 -523l440 523h306l-598 -697l340 -737h-269l-250 563l-467 -563h-305z" glyph-name="X" horiz-adv-x="1228" unicode="X"/><glyph d="M440 0l99 512l-322 922h246l227 -666h10l490 666h287l-682 -922l-99 -512h-256z" glyph-name="Y" horiz-adv-x="1198" unicode="Y"/><glyph d="M72 0l37 195l921 1013h-704l45 226h1034l-39 -195l-920 -1014h734l-43 -225h-1065z" glyph-name="Z" horiz-adv-x="1208" unicode="Z"/><glyph d="M74 -410l368 1905h471l-43 -225h-235l-283 -1454h236l-43 -226h-471z" glyph-name="bracketleft" horiz-adv-x="675" unicode="["/><glyph d="M524 -410l-225 1905h236l225 -1905h-236z" glyph-name="backslash" horiz-adv-x="839" unicode="\"/><glyph d="M-27 -410l41 226h236l282 1454h-235l43 225h471l-369 -1905h-469z" glyph-name="bracketright" horiz-adv-x="675" unicode="]"/><glyph d="M215 778l307 656h215l307 -656h-204l-205 461h-10l-205 -461h-205z" glyph-name="asciicircum" horiz-adv-x="972" unicode="^"/><glyph d="M-86 -451l41 215h940l-41 -215h-940z" glyph-name="underscore" horiz-adv-x="860" unicode="_"/><glyph d="M537 1239l-179 297h236l127 -297h-184z" glyph-name="grave" horiz-adv-x="542" unicode="`"/><glyph d="M477 -20q-141 0 -241.5 82.5t-100.5 226.5q0 154 113.5 260t302.5 106h340l6 31q4 20 4 41q0 78 -54 126t-149 48q-139 0 -200 -123h-248q49 141 175 234.5t284 93.5q215 0 321.5 -100.5t106.5 -266.5q0 -43 -11 -84l-127 -655h-204l4 113h-11q-106 -133 -311 -133z M561 184q111 0 183.5 57.5t93.5 153.5l16 76h-305q-86 0 -132 -42t-46 -107q0 -63 49 -100.5t141 -37.5z" glyph-name="a" horiz-adv-x="1126" unicode="a"/><glyph d="M748 -20q-238 0 -340 163h-11l-59 -143h-195l279 1434h235l-88 -451h11q109 123 286 123q186 0 301 -117t115 -323q0 -311 -154.5 -498.5t-379.5 -187.5zM725 195q131 0 226.5 115.5t95.5 314.5q0 131 -68 198.5t-178 67.5q-131 0 -226.5 -116t-95.5 -314 q0 -131 67.5 -198.5t178.5 -67.5z" glyph-name="b" horiz-adv-x="1249" unicode="b"/><glyph d="M653 -20q-223 0 -349 124.5t-126 350.5q0 281 163 466t404 185q201 0 321 -101.5t144 -256.5h-239q-59 143 -236 143q-131 0 -226 -114.5t-95 -307.5q0 -131 66.5 -202.5t189.5 -71.5q152 0 250 143h233q-47 -145 -187.5 -251.5t-312.5 -106.5z" glyph-name="c" horiz-adv-x="1146" unicode="c"/><glyph d="M594 -20q-186 0 -301 116.5t-115 323.5q0 311 154.5 498.5t380.5 187.5q109 0 196.5 -42t134.5 -112h11l94 482h235l-278 -1434h-195l-4 123h-10q-41 -55 -121 -99t-182 -44zM659 195q131 0 226.5 115.5t95.5 314.5q0 131 -67.5 198.5t-178.5 67.5q-131 0 -226 -116 t-95 -314q0 -131 67 -198.5t178 -67.5z" glyph-name="d" horiz-adv-x="1249" unicode="d"/><glyph d="M649 -20q-215 0 -343 122.5t-128 348.5q0 291 166 473t401.5 182t355.5 -132t120 -339q0 -86 -25 -164h-780q-4 -123 64.5 -200.5t193.5 -77.5q66 0 132 33.5t101 90.5h252q-61 -152 -192.5 -244.5t-317.5 -92.5zM446 655h537q-6 102 -69.5 169t-178.5 67 q-94 0 -173 -63.5t-116 -172.5z" glyph-name="e" horiz-adv-x="1187" unicode="e"/><glyph d="M205 0l168 870h-174l43 215h174l22 123q23 125 107 196t213 71h233l-41 -215h-168q-45 0 -76.5 -29t-39.5 -72l-15 -74h267l-44 -215h-266l-168 -870h-235z" glyph-name="f" horiz-adv-x="747" unicode="f"/><glyph d="M594 -410q-434 0 -496 349h240q41 -133 256 -134q229 0 266 197l35 182h-10q-47 -55 -124 -89t-167 -34q-186 0 -299 115t-113 305q0 283 149.5 454t366.5 171q242 0 344 -164h11l59 143h195l-215 -1099q-39 -197 -169 -296.5t-329 -99.5zM664 276q125 0 217 100.5 t92 262.5q0 109 -64.5 180.5t-177.5 71.5q-125 0 -217 -100.5t-92 -262.5q0 -109 64.5 -180.5t177.5 -71.5z" glyph-name="g" horiz-adv-x="1228" unicode="g"/><glyph d="M143 0l279 1434h235l-90 -461h11q49 57 122.5 95t151.5 38q164 0 260 -102.5t96 -268.5q0 -51 -10 -102l-123 -633h-235l123 635q6 43 6 57q0 96 -54.5 147.5t-150.5 51.5t-167 -62.5t-89 -158.5l-129 -670h-236z" glyph-name="h" horiz-adv-x="1198" unicode="h"/><glyph d="M133 0l211 1085h236l-211 -1085h-236zM498 1208q-61 0 -98.5 37t-37.5 94q0 66 46.5 111t115.5 45q61 0 99.5 -37t38.5 -94q0 -66 -47 -111t-117 -45z" glyph-name="i" horiz-adv-x="501" unicode="i"/><glyph d="M-221 -410l39 205h174q43 0 77.5 29t43.5 76l231 1185h236l-238 -1228q-53 -266 -317 -267h-246zM498 1208q-61 0 -98.5 37t-37.5 94q0 66 46.5 111t115.5 45q61 0 99.5 -37t38.5 -94q0 -66 -47 -111t-117 -45z" glyph-name="j" horiz-adv-x="501" unicode="j"/><glyph d="M143 0l279 1434h235l-163 -840l536 491h305l-604 -548l393 -537h-274l-373 512l-98 -512h-236z" glyph-name="k" horiz-adv-x="1075" unicode="k"/><glyph d="M143 0l279 1434h235l-278 -1434h-236z" glyph-name="l" horiz-adv-x="522" unicode="l"/><glyph d="M133 0l211 1085h195l4 -122h10q115 143 272 143q121 0 190.5 -55.5t94.5 -128.5h10q45 80 134 132t200 52q164 0 262.5 -94t98.5 -264q0 -53 -11 -105l-125 -643h-235l121 625q8 57 8 59q0 94 -54.5 150.5t-134.5 56.5q-82 0 -146 -60.5t-85 -166.5l-129 -664h-236 l121 625q8 57 9 61q0 96 -52.5 150.5t-136.5 54.5q-82 0 -146.5 -59.5t-84.5 -165.5l-129 -666h-236z" glyph-name="m" horiz-adv-x="1802" unicode="m"/><glyph d="M133 0l211 1085h195l4 -122h10q55 66 132 104.5t157 38.5q164 0 260 -102.5t96 -268.5q0 -51 -10 -102l-123 -633h-236l123 635q6 43 6 57q0 96 -54 147.5t-150.5 51.5t-167 -62.5t-88.5 -158.5l-129 -670h-236z" glyph-name="n" horiz-adv-x="1187" unicode="n"/><glyph d="M653 -20q-221 0 -348 123.5t-127 336.5q0 295 163 480.5t404 185.5q221 0 348.5 -124t127.5 -337q0 -295 -163 -480t-405 -185zM662 195q131 0 226 112.5t95 317.5q0 127 -67.5 196.5t-178.5 69.5q-131 0 -226 -112.5t-95 -317.5q0 -127 67.5 -196.5t178.5 -69.5z" glyph-name="o" horiz-adv-x="1187" unicode="o"/><glyph d="M53 -410l291 1495h195l4 -122h10q41 55 121 99t182 44q186 0 301 -117t115 -323q0 -311 -154.5 -498.5t-380.5 -187.5q-109 0 -196.5 41.5t-134.5 111.5h-11l-106 -543h-236zM715 195q131 0 226 115.5t95 314.5q0 131 -67.5 198.5t-177.5 67.5q-131 0 -226.5 -116 t-95.5 -314q0 -131 67.5 -198.5t178.5 -67.5z" glyph-name="p" horiz-adv-x="1239" unicode="p"/><glyph d="M791 -410l100 512h-10q-109 -123 -287 -122q-186 0 -301 116.5t-115 323.5q0 311 154.5 498.5t380.5 187.5q238 0 340 -164h10l59 143h195l-291 -1495h-235zM659 195q131 0 226.5 115.5t95.5 314.5q0 131 -67.5 198.5t-178.5 67.5q-131 0 -226 -116t-95 -314 q0 -131 67 -198.5t178 -67.5z" glyph-name="q" horiz-adv-x="1239" unicode="q"/><glyph d="M133 0l211 1085h195l4 -122h10q113 123 254 122h172l-45 -225h-150q-115 0 -194.5 -64.5t-100.5 -174.5l-120 -621h-236z" glyph-name="r" horiz-adv-x="808" unicode="r"/><glyph d="M580 -20q-186 0 -315.5 81.5t-153.5 255.5h251q31 -123 234 -122q172 0 172 110q0 51 -55.5 83t-134 52.5t-158.5 49t-135.5 95t-55.5 171.5q0 152 110 251t300 99q205 0 314.5 -88t129.5 -230h-256q-35 102 -206 103q-70 0 -108 -28.5t-38 -76.5q0 -51 55.5 -82.5 t135 -53t158.5 -50.5t134.5 -95.5t55.5 -168.5q0 -158 -111.5 -257t-322.5 -99z" glyph-name="s" horiz-adv-x="1024" unicode="s"/><glyph d="M526 0q-121 0 -192.5 76t-71.5 188q0 31 6 68l105 538h-174l43 215h174l86 287h205l-56 -287h267l-44 -215h-266l-100 -532q-2 -16 -2 -27q0 -35 24.5 -65.5t69.5 -30.5h148l-41 -215h-181z" glyph-name="t" horiz-adv-x="788" unicode="t"/><glyph d="M567 -20q-164 0 -260 102t-96 268q0 51 10 103l123 632h236l-123 -634q-6 -43 -6 -58q0 -96 54 -147t150.5 -51t167 62t88.5 159l129 669h236l-211 -1085h-195l-4 123h-10q-55 -66 -132 -104.5t-157 -38.5z" glyph-name="u" horiz-adv-x="1198" unicode="u"/><glyph d="M379 0l-189 1085h244l125 -829h10l449 829h268l-610 -1085h-297z" glyph-name="v" horiz-adv-x="1095" unicode="v"/><glyph d="M297 0l-86 1085h235l56 -788h10l354 788h256l56 -788h10l354 788h256l-508 -1085h-286l-64 748h-10l-346 -748h-287z" glyph-name="w" horiz-adv-x="1607" unicode="w"/><glyph d="M-20 0l466 563l-235 522h248l155 -358l295 358h285l-440 -522l250 -563h-248l-170 399l-322 -399h-284z" glyph-name="x" horiz-adv-x="993" unicode="x"/><glyph d="M166 -410l244 410l-230 1085h256l148 -768h10l446 768h267l-885 -1495h-256z" glyph-name="y" horiz-adv-x="1116" unicode="y"/><glyph d="M61 0l35 184l662 686h-508l43 215h819l-37 -184l-661 -686h538l-41 -215h-850z" glyph-name="z" horiz-adv-x="972" unicode="z"/><glyph d="M440 -410q-113 0 -182.5 70t-69.5 176l9 72l71 371q4 16 4 36q0 109 -118 115l45 225h20q123 0 148 131l86 449q23 119 103.5 189.5t195.5 70.5h192l-43 -225h-125q-80 0 -100 -103l-76 -387q-27 -133 -75 -180t-142 -47l-8 -41q70 -12 102.5 -49t32.5 -115 q0 -27 -12 -96l-60 -315q-6 -18 -6 -39q0 -82 90 -82h96l-43 -226h-135z" glyph-name="braceleft" horiz-adv-x="706" unicode="{"/><glyph d="M379 -410v1905h235v-1905h-235z" glyph-name="bar" horiz-adv-x="727" unicode="|"/><glyph d="M-29 -410l43 226h125q80 0 101 102l75 387q27 133 75 180t142 47l9 41q-70 12 -102.5 49t-32.5 115q0 27 12 97l59 315q6 18 6 39q0 82 -90 82h-96l43 225h135q113 0 182.5 -69.5t69.5 -176.5l-8 -71l-72 -371q-4 -16 -4 -37q0 -109 119 -115l-45 -225h-21 q-123 0 -147 -131l-86 -449q-23 -119 -103.5 -189.5t-195.5 -70.5h-193z" glyph-name="braceright" horiz-adv-x="706" unicode="}"/><glyph d="M932 461q-92 0 -163 41t-121 82t-95 41q-133 0 -133 -154h-205q0 166 85 257t232 91q92 0 163 -41t121 -82t95 -41q133 0 133 154h205q0 -166 -85 -257t-232 -91z" glyph-name="asciitilde" horiz-adv-x="1218" unicode="~"/><glyph glyph-name="uni00A0" horiz-adv-x="450" unicode=" "/><glyph d="M84 -410l22 123l213 932h185l-152 -932l-22 -123h-246zM459 819q-57 0 -94 37t-37 94q0 66 46 111t111 45q57 0 94 -37t37 -94q0 -66 -45.5 -111t-111.5 -45z" glyph-name="exclamdown" horiz-adv-x="573" unicode="¡"/><glyph d="M436 -225l45 227q-145 41 -224 157.5t-79 295.5q0 264 146.5 445t369.5 204l41 207h246l-45 -236q117 -41 186.5 -128t87.5 -199h-239q-59 143 -236 143q-131 0 -226 -114.5t-95 -307.5q0 -131 66.5 -202.5t189.5 -71.5q152 0 250 143h233q-41 -129 -161 -230.5 t-269 -121.5l-41 -211h-246z" glyph-name="cent" horiz-adv-x="1146" unicode="¢"/><glyph d="M72 0l43 225h63q96 0 125 133l45 226h-164l43 225h164l45 227q39 197 165 307.5t308 110.5q205 0 316.5 -110.5t111.5 -299.5h-266q-4 184 -166 185q-78 0 -137 -58.5t-82 -169.5l-39 -192h348l-43 -225h-348l-49 -250q-6 -35 -20.5 -61.5t-26.5 -36.5l-10 -11h702 l-43 -225h-1085z" glyph-name="sterling" horiz-adv-x="1208" unicode="£"/><glyph d="M358 164l-122 112l126 130q-76 115 -75.5 250t75.5 249l-126 129l122 113l121 -123q119 82 258.5 82t257.5 -82l121 123l123 -113l-127 -129q76 -115 76 -250t-76 -249l127 -130l-123 -112l-121 123q-119 -82 -258 -82t-258 82zM737.5 379q114.5 0 195.5 81t81 195.5 t-81 195.5t-195.5 81t-195.5 -81t-81 -195.5t81 -195.5t195.5 -81z" glyph-name="currency" horiz-adv-x="1208" unicode="¤"/><glyph d="M440 0l43 225h-338l41 215h338l23 113h-338l41 215h205l-217 666h260l196 -666h11l458 666h293l-479 -666h205l-41 -215h-338l-23 -113h338l-41 -215h-338l-43 -225h-256z" glyph-name="yen" horiz-adv-x="1177" unicode="¥"/><glyph d="M379 -410v768h235v-768h-235zM379 727v768h235v-768h-235z" glyph-name="brokenbar" horiz-adv-x="727" unicode="¦"/><glyph d="M676 -246q-219 0 -352.5 102.5t-151.5 276.5h248q10 -76 88 -120t188 -44q100 0 148.5 40t48.5 106q0 59 -67.5 96t-165 60.5t-194.5 55t-165 100.5t-68 173q0 209 199 318q-66 72 -65 169q0 156 124.5 261.5t339.5 105.5q217 0 345.5 -96t152.5 -262h-248 q-25 66 -94 104.5t-176 38.5q-100 0 -148.5 -40t-48.5 -105q0 -59 68 -96t165 -61t194.5 -55.5t165 -100t67.5 -173.5q0 -209 -199 -317q66 -72 66 -170q0 -156 -125 -261.5t-340 -105.5zM909 410q115 72 115 161q0 70 -65.5 105t-184.5 64.5t-176 58.5q-115 -72 -115 -162 q0 -70 65.5 -104.5t184.5 -64t176 -58.5z" glyph-name="section" horiz-adv-x="1259" unicode="§"/><glyph d="M453 1260q-55 0 -88 34.5t-33 85.5q0 59 42 102.5t105 43.5q55 0 88 -35t33 -86q0 -59 -42 -102t-105 -43zM842 1260q-55 0 -88 34.5t-33 85.5q0 59 42 102.5t105 43.5q55 0 88 -35t33 -86q0 -59 -42 -102t-105 -43z" glyph-name="dieresis" horiz-adv-x="778" unicode="¨"/><glyph d="M993.5 -20q-321.5 0 -529.5 206.5t-208 530t208 530.5t529.5 207t529.5 -207t208 -530.5t-208 -530t-529.5 -206.5zM993.5 143q245.5 0 404 161t158.5 413t-158.5 412.5t-404 160.5t-404.5 -160.5t-159 -412.5t159 -413t404.5 -161zM995 328q-172 0 -271 103.5t-99 285.5 t99 285.5t271 103.5q135 0 218 -72.5t118 -183.5h-174q-35 102 -164 102q-92 0 -143 -60.5t-51 -175t51 -175t143 -60.5q129 0 164 103h174q-35 -111 -118 -183.5t-218 -72.5z" glyph-name="copyright" horiz-adv-x="1699" unicode="©"/><glyph d="M451 717q-106 0 -166 65.5t-60 139.5q0 115 73 180t204 65h215l2 11q2 12 2 22q0 96 -117 100q-82 2 -119 -61h-182q63 215 311 215q123 0 202 -65.5t79 -180.5q0 -16 -8 -61l-80 -420h-154l6 82h-10q-73 -92 -198 -92zM522 870q68 0 111 40t55 104l4 20h-211 q-84 0 -84 -82t125 -82z" glyph-name="ordfeminine" horiz-adv-x="747" unicode="ª"/><glyph d="M522 61l-344 492l537 491h299l-557 -507l-4 -13l329 -463h-260zM1024 61l-344 492l537 491h299l-558 -507l-4 -13l330 -463h-260z" glyph-name="guillemotleft" horiz-adv-x="1341" unicode="«"/><glyph d="M911 317v246h-716v195h911v-441h-195z" glyph-name="logicalnot" horiz-adv-x="1064" unicode="¬"/><glyph d="M172 471l43 215h645l-43 -215h-645z" glyph-name="uni00AD" horiz-adv-x="808" unicode="­"/><glyph d="M993.5 -20q-321.5 0 -529.5 206.5t-208 530t208 530.5t529.5 207t529.5 -207t208 -530.5t-208 -530t-529.5 -206.5zM993.5 143q245.5 0 404 161t158.5 413t-158.5 412.5t-404 160.5t-404.5 -160.5t-159 -412.5t159 -413t404.5 -161zM717 338v768h327q129 0 203 -69.5 t74 -186.5q0 -88 -49 -150.5t-135 -85.5l194 -276h-194l-185 266h-61v-266h-174zM891 748h145q121 0 121 102t-123 102h-143v-204z" glyph-name="registered" horiz-adv-x="1699" unicode="®"/><glyph d="M311 1290l33 174h604l-33 -174h-604z" glyph-name="macron" horiz-adv-x="727" unicode="¯"/><glyph d="M563 860q-137 0 -222 87t-85 220t85 220.5t222 87.5t222 -87.5t85 -220.5t-85 -220t-222 -87zM563.5 1014q67.5 0 105.5 42t38 111.5t-38 111.5t-105.5 42t-105.5 -42t-38 -111.5t38 -111.5t105.5 -42z" glyph-name="degree" horiz-adv-x="798" unicode="°"/><glyph d="M205 10v195h973v-195h-973zM594 276v369h-389v195h389v389h194v-389h390v-195h-390v-369h-194z" glyph-name="plusminus" horiz-adv-x="1136" unicode="±"/><glyph d="M219 819l31 154l350 284q111 90 111 150q0 33 -24.5 55.5t-78.5 22.5q-90 0 -104 -92h-187q27 113 102 184.5t204 71.5t201.5 -63.5t72.5 -162.5q0 -80 -39 -135t-127 -127l-235 -188h307l-31 -154h-553z" glyph-name="uni00B2" horiz-adv-x="686" unicode="²"/><glyph d="M530 809q-272 0 -292 225h180q12 -61 112 -61q55 0 88 30.5t33 79.5q0 33 -22.5 58.5t-65.5 25.5h-82l31 154h96q94 0 94 90q0 72 -106 72q-41 0 -70.5 -24.5t-40.5 -65.5h-186q20 111 102 183.5t201 72.5q131 0 209 -62.5t78 -154.5q0 -78 -46 -132.5t-100 -66.5 q88 -61 88 -166q0 -102 -83 -180t-218 -78z" glyph-name="uni00B3" horiz-adv-x="696" unicode="³"/><glyph d="M301 1239l242 297h235l-293 -297h-184z" glyph-name="acute" horiz-adv-x="542" unicode="´"/><glyph d="M61 -369l283 1454h236l-123 -634q-6 -43 -6 -58q0 -96 54 -147t150.5 -51t167 62t88.5 159l129 669h236l-211 -1085h-195l-4 123h-10q-55 -66 -132 -104.5t-157 -38.5q-131 0 -190 71l-80 -420h-236z" glyph-name="uni00B5" horiz-adv-x="1198" unicode="µ"/><glyph d="M563 -225v880q-154 0 -246 106.5t-92 283t92.5 283t245.5 106.5h594v-1659h-225v1433h-144v-1433h-225z" glyph-name="paragraph" horiz-adv-x="1167" unicode="¶"/><glyph d="M317 410q-57 0 -94 36.5t-37 94.5q0 66 46.5 110.5t111.5 44.5q57 0 94 -36.5t37 -94.5q0 -66 -46 -110.5t-112 -44.5z" glyph-name="periodcentered" horiz-adv-x="450" unicode="·"/><glyph d="M-25 -451l27 144h121q27 0 45 17.5t18 45.5q0 49 -51 49h-92l23 113l53 82h164l-45 -72q57 -12 89.5 -55t32.5 -106q0 -96 -65.5 -157t-161.5 -61h-158z" glyph-name="cedilla" horiz-adv-x="471" unicode="¸"/><glyph d="M373 819l106 543h-184l31 164h133q51 0 61 51l12 61h175l-160 -819h-174z" glyph-name="uni00B9" horiz-adv-x="542" unicode="¹"/><glyph d="M567 717q-139 0 -220 80t-81 217q0 205 107.5 322.5t257.5 117.5q139 0 220 -80t81 -217q0 -205 -107.5 -322.5t-257.5 -117.5zM578 881q72 0 126 70.5t54 178.5q0 72 -37 116t-100 44q-72 0 -126.5 -70.5t-54.5 -179.5q0 -72 37.5 -115.5t100.5 -43.5z" glyph-name="ordmasculine" horiz-adv-x="798" unicode="º"/><glyph d="M29 61l557 508l4 13l-330 462h260l344 -491l-536 -492h-299zM530 61l557 508l5 13l-330 462h260l344 -491l-537 -492h-299z" glyph-name="guillemotright" horiz-adv-x="1341" unicode="»"/><glyph d="M174 0l1169 1434h201l-1169 -1434h-201zM354 614l107 543h-185l31 164h133q51 0 62 51l12 62h174l-160 -820h-174zM1196 0l35 174h-369l29 154l424 491h215l-96 -491h122l-28 -154h-123l-35 -174h-174zM1073 328h187l53 266h-10z" glyph-name="onequarter" horiz-adv-x="1566" unicode="¼"/><glyph d="M174 0l1169 1434h201l-1169 -1434h-201zM354 614l107 543h-185l31 164h133q51 0 62 51l12 62h174l-160 -820h-174zM920 0l30 154l350 284q111 90 111 150q0 33 -24.5 55.5t-77.5 22.5q-90 0 -105 -93h-186q27 113 101.5 184.5t203.5 71.5t201.5 -63.5t72.5 -161.5 q0 -80 -38.5 -135t-126.5 -127l-236 -188h307l-30 -154h-553z" glyph-name="onehalf" horiz-adv-x="1587" unicode="½"/><glyph d="M338 0l1169 1434h201l-1169 -1434h-201zM522 604q-272 0 -293 225h181q12 -61 112 -61q55 0 88 30.5t33 80.5q0 33 -22.5 58.5t-65.5 25.5h-82l31 153h96q94 0 94 90q0 72 -106 72q-41 0 -71 -24.5t-40 -65.5h-186q20 111 102 183.5t201 72.5q131 0 209 -62.5t78 -154.5 q0 -78 -46.5 -132.5t-99.5 -66.5q88 -61 88 -166q0 -102 -83 -180t-218 -78zM1360 0l35 174h-369l29 154l424 491h215l-97 -491h123l-28 -154h-123l-35 -174h-174zM1237 328h186l54 266h-11z" glyph-name="threequarters" horiz-adv-x="1730" unicode="¾"/><glyph d="M549 -430q-203 0 -324 96t-121 250q0 115 41 196t102.5 126t125 81.5t115 86t63.5 114.5l24 125h236l-29 -147q-20 -106 -71.5 -178t-108.5 -106t-112.5 -65.5t-91.5 -82t-36 -129.5q0 -63 46.5 -107.5t138.5 -44.5q82 0 147.5 52t83.5 143h250q-31 -174 -163 -292 t-316 -118zM737 819q-57 0 -94 37t-37 94q0 66 46 111t112 45q57 0 94 -37t37 -94q0 -66 -46 -111t-112 -45z" glyph-name="questiondown" horiz-adv-x="1054" unicode="¿"/><glyph d="M10 0l801 1434h317l244 -1434h-256l-51 307h-608l-170 -307h-277zM580 532h448l-100 615h-10zM874 1567l-178 297h236l127 -297h-185z" glyph-name="Agrave" horiz-adv-x="1341" unicode="À"/><glyph d="M10 0l801 1434h317l244 -1434h-256l-51 307h-608l-170 -307h-277zM580 532h448l-100 615h-10zM901 1567l242 297h235l-293 -297h-184z" glyph-name="Aacute" horiz-adv-x="1341" unicode="Á"/><glyph d="M10 0l801 1434h317l244 -1434h-256l-51 307h-608l-170 -307h-277zM580 532h448l-100 615h-10zM614 1567l336 307h154l217 -307h-195l-110 174h-10l-177 -174h-215z" glyph-name="Acircumflex" horiz-adv-x="1341" unicode="Â"/><glyph d="M10 0l801 1434h317l244 -1434h-256l-51 307h-608l-170 -307h-277zM580 532h448l-100 615h-10zM1147 1597q-63 0 -138 46.5t-100 46.5q-31 0 -54.5 -22.5t-25.5 -59.5h-174q10 113 76 179t154 66q63 0 137 -46t98 -46q63 0 70 82h174q-10 -113 -70.5 -179.5t-146.5 -66.5z " glyph-name="Atilde" horiz-adv-x="1341" unicode="Ã"/><glyph d="M10 0l801 1434h317l244 -1434h-256l-51 307h-608l-170 -307h-277zM580 532h448l-100 615h-10zM797 1587q-55 0 -88 35t-33 86q0 59 42 102t105 43q55 0 88 -34.5t33 -85.5q0 -59 -42 -102.5t-105 -43.5zM1186 1587q-55 0 -88 35t-33 86q0 59 42 102t105 43q55 0 88 -34.5 t33 -85.5q0 -59 -42 -102.5t-105 -43.5z" glyph-name="Adieresis" horiz-adv-x="1341" unicode="Ä"/><glyph d="M10 0l801 1434h317l244 -1434h-256l-51 307h-608l-170 -307h-277zM580 532h448l-100 615h-10zM985 1516q-88 0 -142.5 51t-54.5 139q0 106 68 173t170 67q88 0 141.5 -50.5t53.5 -140.5q0 -106 -68 -172.5t-168 -66.5zM997 1649q41 0 65.5 24.5t24.5 67.5q0 33 -20 52 t-55 19q-41 0 -65.5 -24.5t-24.5 -67.5q0 -33 21 -52t54 -19z" glyph-name="Aring" horiz-adv-x="1341" unicode="Å"/><glyph d="M-61 0l985 1434h1177l-45 -226h-686l-74 -379h646l-41 -215h-646l-75 -389h706l-43 -225h-962l57 303h-500l-213 -303h-286zM594 530h389l127 658h-72z" glyph-name="AE" horiz-adv-x="1945" unicode="Æ"/><glyph d="M549 -451l26 144h121q27 0 45.5 17.5t18.5 45.5q0 49 -51 49h-93l23 113l47 74q-217 37 -343 187.5t-126 393.5q0 389 208 635t525 246q258 0 403.5 -116.5t184.5 -323.5h-262q-74 215 -332 215q-195 0 -333 -173t-138 -462q0 -182 99.5 -285.5t267.5 -103.5 q223 0 350 215h270q-84 -195 -244.5 -316.5t-373.5 -123.5l-31 -52q57 -12 90 -55t33 -106q0 -96 -65.5 -157t-161.5 -61h-158z" glyph-name="Ccedilla" horiz-adv-x="1443" unicode="Ç"/><glyph d="M154 0l278 1434h942l-45 -226h-686l-74 -379h645l-40 -215h-646l-75 -389h706l-43 -225h-962zM844 1567l-178 297h235l127 -297h-184z" glyph-name="Egrave" horiz-adv-x="1218" unicode="È"/><glyph d="M154 0l278 1434h942l-45 -226h-686l-74 -379h645l-40 -215h-646l-75 -389h706l-43 -225h-962zM829 1567l242 297h236l-293 -297h-185z" glyph-name="Eacute" horiz-adv-x="1218" unicode="É"/><glyph d="M154 0l278 1434h942l-45 -226h-686l-74 -379h645l-40 -215h-646l-75 -389h706l-43 -225h-962zM563 1567l336 307h154l217 -307h-195l-110 174h-11l-176 -174h-215z" glyph-name="Ecircumflex" horiz-adv-x="1218" unicode="Ê"/><glyph d="M154 0l278 1434h942l-45 -226h-686l-74 -379h645l-40 -215h-646l-75 -389h706l-43 -225h-962zM725 1587q-55 0 -88 35t-33 86q0 59 42 102t106 43q55 0 87.5 -34.5t32.5 -85.5q0 -59 -42 -102.5t-105 -43.5zM1114 1587q-55 0 -88 35t-33 86q0 59 42 102t106 43 q55 0 88 -34.5t33 -85.5q0 -59 -42.5 -102.5t-105.5 -43.5z" glyph-name="Edieresis" horiz-adv-x="1218" unicode="Ë"/><glyph d="M154 0l278 1434h256l-278 -1434h-256zM475 1567l-178 297h235l127 -297h-184z" glyph-name="Igrave" horiz-adv-x="563" unicode="Ì"/><glyph d="M154 0l278 1434h256l-278 -1434h-256zM492 1567l241 297h236l-293 -297h-184z" glyph-name="Iacute" horiz-adv-x="563" unicode="Í"/><glyph d="M154 0l278 1434h256l-278 -1434h-256zM225 1567l336 307h154l217 -307h-195l-110 174h-11l-176 -174h-215z" glyph-name="Icircumflex" horiz-adv-x="563" unicode="Î"/><glyph d="M154 0l278 1434h256l-278 -1434h-256zM397 1587q-55 0 -88 35t-33 86q0 59 42 102t106 43q55 0 88 -34.5t33 -85.5q0 -59 -42.5 -102.5t-105.5 -43.5zM786 1587q-55 0 -87.5 35t-32.5 86q0 59 42 102t105 43q55 0 88 -34.5t33 -85.5q0 -59 -42.5 -102.5t-105.5 -43.5z " glyph-name="Idieresis" horiz-adv-x="563" unicode="Ï"/><glyph d="M174 0l119 614h-154l41 215h156l117 605h532q240 0 379 -165t139 -429q0 -391 -200.5 -615.5t-511.5 -224.5h-617zM473 225h311q195 0 329 157t134 435q0 176 -88 283.5t-229 107.5h-266l-74 -379h338l-41 -215h-338z" glyph-name="Eth" horiz-adv-x="1443" unicode="Ð"/><glyph d="M154 0l278 1434h338l399 -1100h11l215 1100h256l-279 -1434h-338l-399 1100h-10l-215 -1100h-256zM1219 1597q-63 0 -138 46.5t-100 46.5q-31 0 -54.5 -22.5t-25.5 -59.5h-174q10 113 75.5 179t153.5 66q63 0 137 -46t99 -46q63 0 70 82h174q-10 -113 -70.5 -179.5 t-146.5 -66.5z" glyph-name="Ntilde" horiz-adv-x="1525" unicode="Ñ"/><glyph d="M840 -20q-293 0 -458 157.5t-165 435.5q0 238 86 436.5t256 321.5t393 123q293 0 458 -157.5t165 -436.5q0 -238 -86 -436.5t-256 -321t-393 -122.5zM848 205q199 0 335 174t136 461q0 184 -98.5 286.5t-276.5 102.5q-199 0 -335 -174t-136 -461q0 -184 98.5 -286.5 t276.5 -102.5zM915 1567l-178 297h236l127 -297h-185z" glyph-name="Ograve" horiz-adv-x="1515" unicode="Ò"/><glyph d="M840 -20q-293 0 -458 157.5t-165 435.5q0 238 86 436.5t256 321.5t393 123q293 0 458 -157.5t165 -436.5q0 -238 -86 -436.5t-256 -321t-393 -122.5zM848 205q199 0 335 174t136 461q0 184 -98.5 286.5t-276.5 102.5q-199 0 -335 -174t-136 -461q0 -184 98.5 -286.5 t276.5 -102.5zM911 1567l242 297h236l-293 -297h-185z" glyph-name="Oacute" horiz-adv-x="1515" unicode="Ó"/><glyph d="M840 -20q-293 0 -458 157.5t-165 435.5q0 238 86 436.5t256 321.5t393 123q293 0 458 -157.5t165 -436.5q0 -238 -86 -436.5t-256 -321t-393 -122.5zM848 205q199 0 335 174t136 461q0 184 -98.5 286.5t-276.5 102.5q-199 0 -335 -174t-136 -461q0 -184 98.5 -286.5 t276.5 -102.5zM655 1567l336 307h154l217 -307h-195l-110 174h-10l-177 -174h-215z" glyph-name="Ocircumflex" horiz-adv-x="1515" unicode="Ô"/><glyph d="M840 -20q-293 0 -458 157.5t-165 435.5q0 238 86 436.5t256 321.5t393 123q293 0 458 -157.5t165 -436.5q0 -238 -86 -436.5t-256 -321t-393 -122.5zM848 205q199 0 335 174t136 461q0 184 -98.5 286.5t-276.5 102.5q-199 0 -335 -174t-136 -461q0 -184 98.5 -286.5 t276.5 -102.5zM1178 1597q-63 0 -138 46.5t-100 46.5q-31 0 -54.5 -22.5t-25.5 -59.5h-174q10 113 75.5 179t153.5 66q63 0 137 -46t99 -46q63 0 70 82h174q-10 -113 -70.5 -179.5t-146.5 -66.5z" glyph-name="Otilde" horiz-adv-x="1515" unicode="Õ"/><glyph d="M840 -20q-293 0 -458 157.5t-165 435.5q0 238 86 436.5t256 321.5t393 123q293 0 458 -157.5t165 -436.5q0 -238 -86 -436.5t-256 -321t-393 -122.5zM848 205q199 0 335 174t136 461q0 184 -98.5 286.5t-276.5 102.5q-199 0 -335 -174t-136 -461q0 -184 98.5 -286.5 t276.5 -102.5zM827 1587q-55 0 -87.5 35t-32.5 86q0 59 42 102t105 43q55 0 88 -34.5t33 -85.5q0 -59 -42.5 -102.5t-105.5 -43.5zM1217 1587q-55 0 -88 35t-33 86q0 59 42 102t105 43q55 0 88 -34.5t33 -85.5q0 -59 -42 -102.5t-105 -43.5z" glyph-name="Odieresis" horiz-adv-x="1515" unicode="Ö"/><glyph d="M369 195l-133 133l337 338l-337 338l133 133l338 -338l337 338l134 -133l-338 -338l338 -338l-134 -133l-337 337z" glyph-name="multiply" horiz-adv-x="1126" unicode="×"/><glyph d="M184 -51l168 221q-135 154 -135 403q0 238 86 436.5t256 321.5t393 123q184 0 326 -68l74 99h256l-168 -221q135 -154 135 -404q0 -238 -86 -436.5t-256 -321t-393 -122.5q-184 0 -326 67l-74 -98h-256zM516 387l612 805q-76 37 -184 37q-199 0 -335 -174t-136 -461 q0 -121 43 -207zM848 205q199 0 335 174t136 461q0 121 -43 207l-612 -805q78 -37 184 -37z" glyph-name="Oslash" horiz-adv-x="1515" unicode="Ø"/><glyph d="M801 -20q-244 0 -395.5 139t-151.5 387q0 70 16 158l152 770h256l-156 -795q-12 -61 -12 -111q0 -152 80 -237.5t215 -85.5q133 0 231.5 96t132.5 274l164 859h256l-168 -883q-51 -274 -215.5 -422.5t-404.5 -148.5zM915 1567l-178 297h236l127 -297h-185z" glyph-name="Ugrave" horiz-adv-x="1454" unicode="Ù"/><glyph d="M801 -20q-244 0 -395.5 139t-151.5 387q0 70 16 158l152 770h256l-156 -795q-12 -61 -12 -111q0 -152 80 -237.5t215 -85.5q133 0 231.5 96t132.5 274l164 859h256l-168 -883q-51 -274 -215.5 -422.5t-404.5 -148.5zM901 1567l242 297h235l-293 -297h-184z" glyph-name="Uacute" horiz-adv-x="1454" unicode="Ú"/><glyph d="M801 -20q-244 0 -395.5 139t-151.5 387q0 70 16 158l152 770h256l-156 -795q-12 -61 -12 -111q0 -152 80 -237.5t215 -85.5q133 0 231.5 96t132.5 274l164 859h256l-168 -883q-51 -274 -215.5 -422.5t-404.5 -148.5zM645 1567l336 307h154l217 -307h-195l-110 174h-11 l-176 -174h-215z" glyph-name="Ucircumflex" horiz-adv-x="1454" unicode="Û"/><glyph d="M801 -20q-244 0 -395.5 139t-151.5 387q0 70 16 158l152 770h256l-156 -795q-12 -61 -12 -111q0 -152 80 -237.5t215 -85.5q133 0 231.5 96t132.5 274l164 859h256l-168 -883q-51 -274 -215.5 -422.5t-404.5 -148.5zM817 1587q-55 0 -88 35t-33 86q0 59 42 102t106 43 q55 0 88 -34.5t33 -85.5q0 -59 -42.5 -102.5t-105.5 -43.5zM1206 1587q-55 0 -88 35t-33 86q0 59 42 102t106 43q55 0 88 -34.5t33 -85.5q0 -59 -42.5 -102.5t-105.5 -43.5z" glyph-name="Udieresis" horiz-adv-x="1454" unicode="Ü"/><glyph d="M440 0l99 512l-322 922h246l227 -666h10l490 666h287l-682 -922l-99 -512h-256zM737 1567l242 297h235l-292 -297h-185z" glyph-name="Yacute" horiz-adv-x="1198" unicode="Ý"/><glyph d="M154 0l278 1434h256l-61 -308h501q182 0 280.5 -102t98.5 -258q0 -205 -125 -332t-338 -127h-575l-59 -307h-256zM512 532h520q102 0 158.5 57.5t56.5 149.5q0 72 -47 117t-135 45h-481z" glyph-name="Thorn" horiz-adv-x="1454" unicode="Þ"/><glyph d="M133 0l207 1079q33 174 157 274.5t314 100.5q223 0 337 -110.5t114 -260.5q0 -133 -76 -225t-195 -127q92 -35 143.5 -117t51.5 -192q0 -195 -128 -308.5t-345 -113.5h-191l41 215h146q115 0 180 60.5t65 166.5q0 80 -54 131.5t-155 51.5h-102l39 204h98 q109 0 174.5 60.5t65.5 169.5q0 82 -57.5 131t-159.5 49q-92 0 -153.5 -51t-78.5 -137l-202 -1051h-236z" glyph-name="germandbls" horiz-adv-x="1177" unicode="ß"/><glyph d="M477 -20q-141 0 -241.5 82.5t-100.5 226.5q0 154 113.5 260t302.5 106h340l6 31q4 20 4 41q0 78 -54 126t-149 48q-139 0 -200 -123h-248q49 141 175 234.5t284 93.5q215 0 321.5 -100.5t106.5 -266.5q0 -43 -11 -84l-127 -655h-204l4 113h-11q-106 -133 -311 -133z M561 184q111 0 183.5 57.5t93.5 153.5l16 76h-305q-86 0 -132 -42t-46 -107q0 -63 49 -100.5t141 -37.5zM700 1239l-178 297h236l127 -297h-185z" glyph-name="agrave" horiz-adv-x="1126" unicode="à"/><glyph d="M477 -20q-141 0 -241.5 82.5t-100.5 226.5q0 154 113.5 260t302.5 106h340l6 31q4 20 4 41q0 78 -54 126t-149 48q-139 0 -200 -123h-248q49 141 175 234.5t284 93.5q215 0 321.5 -100.5t106.5 -266.5q0 -43 -11 -84l-127 -655h-204l4 113h-11q-106 -133 -311 -133z M561 184q111 0 183.5 57.5t93.5 153.5l16 76h-305q-86 0 -132 -42t-46 -107q0 -63 49 -100.5t141 -37.5zM696 1239l242 297h236l-293 -297h-185z" glyph-name="aacute" horiz-adv-x="1126" unicode="á"/><glyph d="M477 -20q-141 0 -241.5 82.5t-100.5 226.5q0 154 113.5 260t302.5 106h340l6 31q4 20 4 41q0 78 -54 126t-149 48q-139 0 -200 -123h-248q49 141 175 234.5t284 93.5q215 0 321.5 -100.5t106.5 -266.5q0 -43 -11 -84l-127 -655h-204l4 113h-11q-106 -133 -311 -133z M561 184q111 0 183.5 57.5t93.5 153.5l16 76h-305q-86 0 -132 -42t-46 -107q0 -63 49 -100.5t141 -37.5zM440 1239l336 307h154l217 -307h-195l-110 174h-11l-176 -174h-215z" glyph-name="acircumflex" horiz-adv-x="1126" unicode="â"/><glyph d="M477 -20q-141 0 -241.5 82.5t-100.5 226.5q0 154 113.5 260t302.5 106h340l6 31q4 20 4 41q0 78 -54 126t-149 48q-139 0 -200 -123h-248q49 141 175 234.5t284 93.5q215 0 321.5 -100.5t106.5 -266.5q0 -43 -11 -84l-127 -655h-204l4 113h-11q-106 -133 -311 -133z M561 184q111 0 183.5 57.5t93.5 153.5l16 76h-305q-86 0 -132 -42t-46 -107q0 -63 49 -100.5t141 -37.5zM963 1270q-63 0 -138 46t-100 46q-31 0 -54.5 -22.5t-25.5 -59.5h-174q10 113 75.5 179.5t153.5 66.5q63 0 137 -46t99 -46q63 0 70 82h174q-10 -113 -70.5 -179.5 t-146.5 -66.5z" glyph-name="atilde" horiz-adv-x="1126" unicode="ã"/><glyph d="M477 -20q-141 0 -241.5 82.5t-100.5 226.5q0 154 113.5 260t302.5 106h340l6 31q4 20 4 41q0 78 -54 126t-149 48q-139 0 -200 -123h-248q49 141 175 234.5t284 93.5q215 0 321.5 -100.5t106.5 -266.5q0 -43 -11 -84l-127 -655h-204l4 113h-11q-106 -133 -311 -133z M561 184q111 0 183.5 57.5t93.5 153.5l16 76h-305q-86 0 -132 -42t-46 -107q0 -63 49 -100.5t141 -37.5zM602 1260q-55 0 -88 34.5t-33 85.5q0 59 42 102.5t106 43.5q55 0 88 -35t33 -86q0 -59 -42.5 -102t-105.5 -43zM991 1260q-55 0 -88 34.5t-33 85.5q0 59 42 102.5 t106 43.5q55 0 88 -35t33 -86q0 -59 -42.5 -102t-105.5 -43z" glyph-name="adieresis" horiz-adv-x="1126" unicode="ä"/><glyph d="M477 -20q-141 0 -241.5 82.5t-100.5 226.5q0 154 113.5 260t302.5 106h340l6 31q4 20 4 41q0 78 -54 126t-149 48q-139 0 -200 -123h-248q49 141 175 234.5t284 93.5q215 0 321.5 -100.5t106.5 -266.5q0 -43 -11 -84l-127 -655h-204l4 113h-11q-106 -133 -311 -133z M561 184q111 0 183.5 57.5t93.5 153.5l16 76h-305q-86 0 -132 -42t-46 -107q0 -63 49 -100.5t141 -37.5zM801 1198q-88 0 -142.5 51t-54.5 140q0 106 67.5 172.5t170.5 66.5q88 0 141 -50t53 -140q0 -106 -67.5 -173t-167.5 -67zM813 1331q41 0 65.5 24.5t24.5 67.5 q0 33 -20.5 52.5t-55.5 19.5q-41 0 -65.5 -24.5t-24.5 -67.5q0 -33 21.5 -52.5t54.5 -19.5z" glyph-name="aring" horiz-adv-x="1126" unicode="å"/><glyph d="M512 -20q-166 0 -271.5 81.5t-105.5 227.5q0 143 115 249.5t301 106.5h338l8 41q4 20 4 41q0 78 -54 126t-149 48q-139 0 -200 -123h-248q49 141 175 234.5t284 93.5q127 0 219 -51t131 -129q57 76 159.5 128t200.5 52q231 0 351 -132t120 -339q0 -90 -26 -174h-768 q0 -119 65.5 -193.5t188.5 -74.5q63 0 127.5 33.5t99.5 90.5h252q-61 -152 -190.5 -244.5t-311.5 -92.5q-129 0 -229.5 54t-151.5 152q-145 -206 -434 -206zM561 184q111 0 183.5 57.5t93.5 153.5l14 66h-305q-84 0 -130 -42t-46 -97q0 -63 49 -100.5t141 -37.5zM1124 645 h529q-4 111 -67.5 178.5t-176.5 67.5q-94 0 -175 -66.5t-110 -179.5z" glyph-name="ae" horiz-adv-x="1857" unicode="æ"/><glyph d="M406 -451l26 144h121q27 0 45 17.5t18 45.5q0 49 -51 49h-92l23 113l45 72q-172 29 -267.5 149.5t-95.5 315.5q0 281 163 466t404 185q201 0 321 -101.5t144 -256.5h-239q-59 143 -236 143q-131 0 -226 -114.5t-95 -307.5q0 -131 66.5 -202.5t189.5 -71.5q152 0 250 143 h233q-43 -135 -169 -238.5t-284 -117.5l-32 -54q57 -12 90 -55t33 -106q0 -96 -66 -157t-162 -61h-157z" glyph-name="ccedilla" horiz-adv-x="1146" unicode="ç"/><glyph d="M649 -20q-215 0 -343 122.5t-128 348.5q0 291 166 473t401.5 182t355.5 -132t120 -339q0 -86 -25 -164h-780q-4 -123 64.5 -200.5t193.5 -77.5q66 0 132 33.5t101 90.5h252q-61 -152 -192.5 -244.5t-317.5 -92.5zM446 655h537q-6 102 -69.5 169t-178.5 67 q-94 0 -173 -63.5t-116 -172.5zM700 1239l-178 297h236l127 -297h-185z" glyph-name="egrave" horiz-adv-x="1187" unicode="è"/><glyph d="M649 -20q-215 0 -343 122.5t-128 348.5q0 291 166 473t401.5 182t355.5 -132t120 -339q0 -86 -25 -164h-780q-4 -123 64.5 -200.5t193.5 -77.5q66 0 132 33.5t101 90.5h252q-61 -152 -192.5 -244.5t-317.5 -92.5zM446 655h537q-6 102 -69.5 169t-178.5 67 q-94 0 -173 -63.5t-116 -172.5zM707 1239l241 297h236l-293 -297h-184z" glyph-name="eacute" horiz-adv-x="1187" unicode="é"/><glyph d="M649 -20q-215 0 -343 122.5t-128 348.5q0 291 166 473t401.5 182t355.5 -132t120 -339q0 -86 -25 -164h-780q-4 -123 64.5 -200.5t193.5 -77.5q66 0 132 33.5t101 90.5h252q-61 -152 -192.5 -244.5t-317.5 -92.5zM446 655h537q-6 102 -69.5 169t-178.5 67 q-94 0 -173 -63.5t-116 -172.5zM451 1239l335 307h154l217 -307h-194l-111 174h-10l-176 -174h-215z" glyph-name="ecircumflex" horiz-adv-x="1187" unicode="ê"/><glyph d="M649 -20q-215 0 -343 122.5t-128 348.5q0 291 166 473t401.5 182t355.5 -132t120 -339q0 -86 -25 -164h-780q-4 -123 64.5 -200.5t193.5 -77.5q66 0 132 33.5t101 90.5h252q-61 -152 -192.5 -244.5t-317.5 -92.5zM446 655h537q-6 102 -69.5 169t-178.5 67 q-94 0 -173 -63.5t-116 -172.5zM623 1260q-55 0 -88 34.5t-33 85.5q0 59 42 102.5t105 43.5q55 0 88 -35t33 -86q0 -59 -42 -102t-105 -43zM1012 1260q-55 0 -88 34.5t-33 85.5q0 59 42 102.5t105 43.5q55 0 88 -35t33 -86q0 -59 -42 -102t-105 -43z" glyph-name="edieresis" horiz-adv-x="1187" unicode="ë"/><glyph d="M133 0l211 1085h236l-211 -1085h-236zM373 1239l-178 297h235l127 -297h-184z" glyph-name="igrave" horiz-adv-x="501" unicode="ì"/><glyph d="M133 0l211 1085h236l-211 -1085h-236zM399 1239l242 297h236l-293 -297h-185z" glyph-name="iacute" horiz-adv-x="501" unicode="í"/><glyph d="M133 0l211 1085h236l-211 -1085h-236zM123 1239l336 307h153l217 -307h-194l-111 174h-10l-176 -174h-215z" glyph-name="icircumflex" horiz-adv-x="501" unicode="î"/><glyph d="M133 0l211 1085h236l-211 -1085h-236zM305 1260q-55 0 -88 34.5t-33 85.5q0 59 42 102.5t106 43.5q55 0 88 -35t33 -86q0 -59 -42.5 -102t-105.5 -43zM694 1260q-55 0 -88 34.5t-33 85.5q0 59 42 102.5t106 43.5q55 0 88 -35t33 -86q0 -59 -42.5 -102t-105.5 -43z" glyph-name="idieresis" horiz-adv-x="501" unicode="ï"/><glyph d="M635 -20q-207 0 -338 107.5t-131 311.5q0 266 145.5 435.5t364.5 169.5q96 0 176 -34t117 -79h10q-20 125 -129 276l-279 -123l-59 138l244 110q-41 45 -97.5 91.5t-91.5 68.5l-35 23h275q51 -31 131 -109l211 82l57 -137l-168 -70q84 -111 129 -267.5t45 -297.5 q0 -305 -151.5 -500.5t-425.5 -195.5zM647 195q129 0 214 92t85 248q0 113 -65.5 183t-180.5 70q-129 0 -214 -92t-85 -247q0 -113 65.5 -183.5t180.5 -70.5z" glyph-name="eth" horiz-adv-x="1187" unicode="ð"/><glyph d="M133 0l211 1085h195l4 -122h10q55 66 132 104.5t157 38.5q164 0 260 -102.5t96 -268.5q0 -51 -10 -102l-123 -633h-236l123 635q6 43 6 57q0 96 -54 147.5t-150.5 51.5t-167 -62.5t-88.5 -158.5l-129 -670h-236zM983 1270q-63 0 -138 46t-100 46q-31 0 -54 -22.5 t-25 -59.5h-174q10 113 75.5 179.5t153.5 66.5q63 0 137 -46t98 -46q63 0 70 82h174q-10 -113 -70.5 -179.5t-146.5 -66.5z" glyph-name="ntilde" horiz-adv-x="1187" unicode="ñ"/><glyph d="M653 -20q-221 0 -348 123.5t-127 336.5q0 295 163 480.5t404 185.5q221 0 348.5 -124t127.5 -337q0 -295 -163 -480t-405 -185zM662 195q131 0 226 112.5t95 317.5q0 127 -67.5 196.5t-178.5 69.5q-131 0 -226 -112.5t-95 -317.5q0 -127 67.5 -196.5t178.5 -69.5z M700 1239l-178 297h236l127 -297h-185z" glyph-name="ograve" horiz-adv-x="1187" unicode="ò"/><glyph d="M653 -20q-221 0 -348 123.5t-127 336.5q0 295 163 480.5t404 185.5q221 0 348.5 -124t127.5 -337q0 -295 -163 -480t-405 -185zM662 195q131 0 226 112.5t95 317.5q0 127 -67.5 196.5t-178.5 69.5q-131 0 -226 -112.5t-95 -317.5q0 -127 67.5 -196.5t178.5 -69.5z M707 1239l241 297h236l-293 -297h-184z" glyph-name="oacute" horiz-adv-x="1187" unicode="ó"/><glyph d="M653 -20q-221 0 -348 123.5t-127 336.5q0 295 163 480.5t404 185.5q221 0 348.5 -124t127.5 -337q0 -295 -163 -480t-405 -185zM662 195q131 0 226 112.5t95 317.5q0 127 -67.5 196.5t-178.5 69.5q-131 0 -226 -112.5t-95 -317.5q0 -127 67.5 -196.5t178.5 -69.5z M451 1239l335 307h154l217 -307h-194l-111 174h-10l-176 -174h-215z" glyph-name="ocircumflex" horiz-adv-x="1187" unicode="ô"/><glyph d="M653 -20q-221 0 -348 123.5t-127 336.5q0 295 163 480.5t404 185.5q221 0 348.5 -124t127.5 -337q0 -295 -163 -480t-405 -185zM662 195q131 0 226 112.5t95 317.5q0 127 -67.5 196.5t-178.5 69.5q-131 0 -226 -112.5t-95 -317.5q0 -127 67.5 -196.5t178.5 -69.5z M963 1270q-63 0 -138 46t-100 46q-31 0 -54.5 -22.5t-25.5 -59.5h-174q10 113 75.5 179.5t153.5 66.5q63 0 137 -46t99 -46q63 0 70 82h174q-10 -113 -70.5 -179.5t-146.5 -66.5z" glyph-name="otilde" horiz-adv-x="1187" unicode="õ"/><glyph d="M653 -20q-221 0 -348 123.5t-127 336.5q0 295 163 480.5t404 185.5q221 0 348.5 -124t127.5 -337q0 -295 -163 -480t-405 -185zM662 195q131 0 226 112.5t95 317.5q0 127 -67.5 196.5t-178.5 69.5q-131 0 -226 -112.5t-95 -317.5q0 -127 67.5 -196.5t178.5 -69.5z M623 1260q-55 0 -88 34.5t-33 85.5q0 59 42 102.5t105 43.5q55 0 88 -35t33 -86q0 -59 -42 -102t-105 -43zM1012 1260q-55 0 -88 34.5t-33 85.5q0 59 42 102.5t105 43.5q55 0 88 -35t33 -86q0 -59 -42 -102t-105 -43z" glyph-name="odieresis" horiz-adv-x="1187" unicode="ö"/><glyph d="M676 92q-55 0 -89 36t-34 97.5t34 97t89 35.5t89 -35.5t34 -97t-34 -97.5t-89 -36zM205 532v195h942v-195h-942zM676 901q-55 0 -89 36t-34 97.5t34 97t89 35.5t89 -35.5t34 -97t-34 -97.5t-89 -36z" glyph-name="divide" horiz-adv-x="1105" unicode="÷"/><glyph d="M104 -41l158 193q-84 115 -84 288q0 295 163 480.5t404 185.5q141 0 252 -55l62 75h235l-157 -194q84 -113 84 -287q0 -295 -163 -480t-405 -185q-141 0 -252 55l-61 -76h-236zM430 358l418 510q-51 23 -111 23q-131 0 -226 -112.5t-95 -317.5q0 -60 14 -103zM662 195 q131 0 226 112.5t95 317.5q0 53 -16 102l-416 -510q45 -22 111 -22z" glyph-name="oslash" horiz-adv-x="1187" unicode="ø"/><glyph d="M567 -20q-164 0 -260 102t-96 268q0 51 10 103l123 632h236l-123 -634q-6 -43 -6 -58q0 -96 54 -147t150.5 -51t167 62t88.5 159l129 669h236l-211 -1085h-195l-4 123h-10q-55 -66 -132 -104.5t-157 -38.5zM721 1239l-178 297h235l127 -297h-184z" glyph-name="ugrave" horiz-adv-x="1198" unicode="ù"/><glyph d="M567 -20q-164 0 -260 102t-96 268q0 51 10 103l123 632h236l-123 -634q-6 -43 -6 -58q0 -96 54 -147t150.5 -51t167 62t88.5 159l129 669h236l-211 -1085h-195l-4 123h-10q-55 -66 -132 -104.5t-157 -38.5zM717 1239l241 297h236l-293 -297h-184z" glyph-name="uacute" horiz-adv-x="1198" unicode="ú"/><glyph d="M567 -20q-164 0 -260 102t-96 268q0 51 10 103l123 632h236l-123 -634q-6 -43 -6 -58q0 -96 54 -147t150.5 -51t167 62t88.5 159l129 669h236l-211 -1085h-195l-4 123h-10q-55 -66 -132 -104.5t-157 -38.5zM461 1239l336 307h153l217 -307h-194l-111 174h-10l-176 -174 h-215z" glyph-name="ucircumflex" horiz-adv-x="1198" unicode="û"/><glyph d="M567 -20q-164 0 -260 102t-96 268q0 51 10 103l123 632h236l-123 -634q-6 -43 -6 -58q0 -96 54 -147t150.5 -51t167 62t88.5 159l129 669h236l-211 -1085h-195l-4 123h-10q-55 -66 -132 -104.5t-157 -38.5zM633 1260q-55 0 -88 34.5t-33 85.5q0 59 42 102.5t105 43.5 q55 0 88 -35t33 -86q0 -59 -42 -102t-105 -43zM1022 1260q-55 0 -88 34.5t-33 85.5q0 59 42 102.5t106 43.5q55 0 87.5 -35t32.5 -86q0 -59 -42 -102t-105 -43z" glyph-name="udieresis" horiz-adv-x="1198" unicode="ü"/><glyph d="M166 -410l244 410l-230 1085h256l148 -768h10l446 768h267l-885 -1495h-256zM635 1239l242 297h235l-293 -297h-184z" glyph-name="yacute" horiz-adv-x="1116" unicode="ý"/><glyph d="M63 -410l359 1844h235l-88 -451h11q109 123 286 123q186 0 301 -117t115 -323q0 -311 -154.5 -498.5t-379.5 -187.5q-109 0 -197 40.5t-135 112.5h-10l-107 -543h-236zM725 195q131 0 226.5 115.5t95.5 314.5q0 131 -68 198.5t-178 67.5q-131 0 -226.5 -116t-95.5 -314 q0 -131 67.5 -198.5t178.5 -67.5z" glyph-name="thorn" horiz-adv-x="1249" unicode="þ"/><glyph d="M166 -410l244 410l-230 1085h256l148 -768h10l446 768h267l-885 -1495h-256zM551 1260q-55 0 -88 34.5t-33 85.5q0 59 42 102.5t106 43.5q55 0 87.5 -35t32.5 -86q0 -59 -42 -102t-105 -43zM940 1260q-55 0 -88 34.5t-33 85.5q0 59 42 102.5t106 43.5q55 0 87.5 -35 t32.5 -86q0 -59 -42 -102t-105 -43z" glyph-name="ydieresis" horiz-adv-x="1116" unicode="ÿ"/><glyph d="M10 0l801 1434h317l244 -1434h-256l-51 307h-608l-170 -307h-277zM580 532h448l-100 615h-10zM696 1628l33 174h604l-33 -174h-604z" glyph-name="Amacron" horiz-adv-x="1341" unicode="Ā"/><glyph d="M477 -20q-141 0 -241.5 82.5t-100.5 226.5q0 154 113.5 260t302.5 106h340l6 31q4 20 4 41q0 78 -54 126t-149 48q-139 0 -200 -123h-248q49 141 175 234.5t284 93.5q215 0 321.5 -100.5t106.5 -266.5q0 -43 -11 -84l-127 -655h-204l4 113h-11q-106 -133 -311 -133z M561 184q111 0 183.5 57.5t93.5 153.5l16 76h-305q-86 0 -132 -42t-46 -107q0 -63 49 -100.5t141 -37.5zM502 1290l33 174h604l-33 -174h-604z" glyph-name="amacron" horiz-adv-x="1126" unicode="ā"/><glyph d="M10 0l801 1434h317l244 -1434h-256l-51 307h-608l-170 -307h-277zM580 532h448l-100 615h-10zM1012 1567q-139 0 -227.5 74.5t-88.5 222.5h185q2 -68 39.5 -100.5t101.5 -32.5q139 0 166 133h184q-29 -147 -126 -222t-234 -75z" glyph-name="Abreve" horiz-adv-x="1341" unicode="Ă"/><glyph d="M477 -20q-141 0 -241.5 82.5t-100.5 226.5q0 154 113.5 260t302.5 106h340l6 31q4 20 4 41q0 78 -54 126t-149 48q-139 0 -200 -123h-248q49 141 175 234.5t284 93.5q215 0 321.5 -100.5t106.5 -266.5q0 -43 -11 -84l-127 -655h-204l4 113h-11q-106 -133 -311 -133z M561 184q111 0 183.5 57.5t93.5 153.5l16 76h-305q-86 0 -132 -42t-46 -107q0 -63 49 -100.5t141 -37.5zM807 1239q-139 0 -227 75t-88 222h184q2 -68 40 -100.5t101 -32.5q139 0 166 133h184q-29 -147 -126 -222t-234 -75z" glyph-name="abreve" horiz-adv-x="1126" unicode="ă"/><glyph d="M1137 -420q-106 0 -162.5 53.5t-56.5 133.5q0 172 198 233l-51 307h-608l-170 -307h-277l801 1434h317l244 -1434h-92q-182 -82 -182 -197q0 -70 98 -69h51l-28 -154h-82zM580 532h448l-100 615h-10z" glyph-name="Aogonek" horiz-adv-x="1341" unicode="Ą"/><glyph d="M856 -420q-106 0 -162.5 53.5t-56.5 133.5q0 172 199 233h-41l4 113h-11q-106 -133 -311 -133q-141 0 -241.5 82.5t-100.5 226.5q0 154 113.5 260t302.5 106h340l6 31q4 20 4 41q0 78 -54 126t-149 48q-139 0 -200 -123h-248q49 141 175 234.5t284 93.5 q215 0 321.5 -100.5t106.5 -266.5q0 -43 -11 -84l-127 -655q-182 -82 -182 -197q0 -70 98 -69h52l-29 -154h-82zM561 184q111 0 183.5 57.5t93.5 153.5l16 76h-305q-86 0 -132 -42t-46 -107q0 -63 49 -100.5t141 -37.5z" glyph-name="aogonek" horiz-adv-x="1126" unicode="ą"/><glyph d="M834 -20q-281 0 -449 154.5t-168 438.5q0 389 208 635t525 246q258 0 403.5 -116.5t184.5 -323.5h-262q-74 215 -332 215q-195 0 -333 -173t-138 -462q0 -182 99.5 -285.5t267.5 -103.5q223 0 350 215h270q-84 -197 -246.5 -318.5t-379.5 -121.5zM911 1567l242 297h236 l-293 -297h-185z" glyph-name="Cacute" horiz-adv-x="1443" unicode="Ć"/><glyph d="M653 -20q-223 0 -349 124.5t-126 350.5q0 281 163 466t404 185q201 0 321 -101.5t144 -256.5h-239q-59 143 -236 143q-131 0 -226 -114.5t-95 -307.5q0 -131 66.5 -202.5t189.5 -71.5q152 0 250 143h233q-47 -145 -187.5 -251.5t-312.5 -106.5zM707 1239l241 297h236 l-293 -297h-184z" glyph-name="cacute" horiz-adv-x="1146" unicode="ć"/><glyph d="M834 -20q-281 0 -449 154.5t-168 438.5q0 389 208 635t525 246q258 0 403.5 -116.5t184.5 -323.5h-262q-74 215 -332 215q-195 0 -333 -173t-138 -462q0 -182 99.5 -285.5t267.5 -103.5q223 0 350 215h270q-84 -197 -246.5 -318.5t-379.5 -121.5zM655 1567l336 307h154 l217 -307h-195l-110 174h-10l-177 -174h-215z" glyph-name="Ccircumflex" horiz-adv-x="1443" unicode="Ĉ"/><glyph d="M653 -20q-223 0 -349 124.5t-126 350.5q0 281 163 466t404 185q201 0 321 -101.5t144 -256.5h-239q-59 143 -236 143q-131 0 -226 -114.5t-95 -307.5q0 -131 66.5 -202.5t189.5 -71.5q152 0 250 143h233q-47 -145 -187.5 -251.5t-312.5 -106.5zM451 1239l335 307h154 l217 -307h-194l-111 174h-10l-176 -174h-215z" glyph-name="ccircumflex" horiz-adv-x="1146" unicode="ĉ"/><glyph d="M834 -20q-281 0 -449 154.5t-168 438.5q0 389 208 635t525 246q258 0 403.5 -116.5t184.5 -323.5h-262q-74 215 -332 215q-195 0 -333 -173t-138 -462q0 -182 99.5 -285.5t267.5 -103.5q223 0 350 215h270q-84 -197 -246.5 -318.5t-379.5 -121.5zM1022 1587q-55 0 -88 35 t-33 86q0 59 42 102t106 43q55 0 87.5 -34.5t32.5 -85.5q0 -59 -42 -102.5t-105 -43.5z" glyph-name="Cdotaccent" horiz-adv-x="1443" unicode="Ċ"/><glyph d="M653 -20q-223 0 -349 124.5t-126 350.5q0 281 163 466t404 185q201 0 321 -101.5t144 -256.5h-239q-59 143 -236 143q-131 0 -226 -114.5t-95 -307.5q0 -131 66.5 -202.5t189.5 -71.5q152 0 250 143h233q-47 -145 -187.5 -251.5t-312.5 -106.5zM807 1260q-55 0 -88 34.5 t-33 85.5q0 59 42 102.5t106 43.5q55 0 87.5 -35t32.5 -86q0 -59 -42 -102t-105 -43z" glyph-name="cdotaccent" horiz-adv-x="1146" unicode="ċ"/><glyph d="M834 -20q-281 0 -449 154.5t-168 438.5q0 389 208 635t525 246q258 0 403.5 -116.5t184.5 -323.5h-262q-74 215 -332 215q-195 0 -333 -173t-138 -462q0 -182 99.5 -285.5t267.5 -103.5q223 0 350 215h270q-84 -197 -246.5 -318.5t-379.5 -121.5zM934 1567l-217 307h194 l111 -174h10l176 174h215l-336 -307h-153z" glyph-name="Ccaron" horiz-adv-x="1443" unicode="Č"/><glyph d="M653 -20q-223 0 -349 124.5t-126 350.5q0 281 163 466t404 185q201 0 321 -101.5t144 -256.5h-239q-59 143 -236 143q-131 0 -226 -114.5t-95 -307.5q0 -131 66.5 -202.5t189.5 -71.5q152 0 250 143h233q-47 -145 -187.5 -251.5t-312.5 -106.5zM719 1229l-217 307h194 l111 -174h10l176 174h215l-336 -307h-153z" glyph-name="ccaron" horiz-adv-x="1146" unicode="č"/><glyph d="M154 0l278 1434h533q240 0 379 -165t139 -429q0 -391 -201 -615.5t-512 -224.5h-616zM453 225h311q195 0 329 157t134 435q0 176 -88 283.5t-230 107.5h-266zM903 1567l-217 307h195l110 -174h10l177 174h215l-336 -307h-154z" glyph-name="Dcaron" horiz-adv-x="1423" unicode="Ď"/><glyph d="M594 -20q-186 0 -301 116.5t-115 323.5q0 311 154.5 498.5t380.5 187.5q109 0 196.5 -42t134.5 -112h11l94 482h235l-278 -1434h-195l-4 123h-10q-41 -55 -121 -99t-182 -44zM659 195q131 0 226.5 115.5t95.5 314.5q0 131 -67.5 198.5t-178.5 67.5q-131 0 -226 -116 t-95 -314q0 -131 67 -198.5t178 -67.5zM1417 1096l160 338h205l-211 -338h-154z" glyph-name="dcaron" horiz-adv-x="1433" unicode="ď"/><glyph d="M174 0l119 614h-154l41 215h156l117 605h532q240 0 379 -165t139 -429q0 -391 -200.5 -615.5t-511.5 -224.5h-617zM473 225h311q195 0 329 157t134 435q0 176 -88 283.5t-229 107.5h-266l-74 -379h338l-41 -215h-338z" glyph-name="Dcroat" horiz-adv-x="1443" unicode="Đ"/><glyph d="M573 -20q-174 0 -290.5 108.5t-116.5 300.5q0 283 147.5 449t362.5 166q217 0 328 -154h10l47 246h-277l39 194h277l28 144h236l-29 -144h164l-39 -194h-164l-211 -1096h-194l-4 123h-10q-45 -59 -129.5 -101t-174.5 -42zM647 195q129 0 214 92t85 248q0 113 -65.5 183 t-180.5 70q-129 0 -214 -92t-85 -247q0 -113 65.5 -183.5t180.5 -70.5z" glyph-name="dcroat" horiz-adv-x="1249" unicode="đ"/><glyph d="M154 0l278 1434h942l-45 -226h-686l-74 -379h645l-40 -215h-646l-75 -389h706l-43 -225h-962zM625 1628l32 174h605l-33 -174h-604z" glyph-name="Emacron" horiz-adv-x="1218" unicode="Ē"/><glyph d="M649 -20q-215 0 -343 122.5t-128 348.5q0 291 166 473t401.5 182t355.5 -132t120 -339q0 -86 -25 -164h-780q-4 -123 64.5 -200.5t193.5 -77.5q66 0 132 33.5t101 90.5h252q-61 -152 -192.5 -244.5t-317.5 -92.5zM446 655h537q-6 102 -69.5 169t-178.5 67 q-94 0 -173 -63.5t-116 -172.5zM512 1290l33 174h604l-33 -174h-604z" glyph-name="emacron" horiz-adv-x="1187" unicode="ē"/><glyph d="M154 0l278 1434h942l-45 -226h-686l-74 -379h645l-40 -215h-646l-75 -389h706l-43 -225h-962zM940 1567q-139 0 -227 74.5t-88 222.5h184q2 -68 40 -100.5t101 -32.5q139 0 166 133h184q-29 -147 -126 -222t-234 -75z" glyph-name="Ebreve" horiz-adv-x="1218" unicode="Ĕ"/><glyph d="M649 -20q-215 0 -343 122.5t-128 348.5q0 291 166 473t401.5 182t355.5 -132t120 -339q0 -86 -25 -164h-780q-4 -123 64.5 -200.5t193.5 -77.5q66 0 132 33.5t101 90.5h252q-61 -152 -192.5 -244.5t-317.5 -92.5zM446 655h537q-6 102 -69.5 169t-178.5 67 q-94 0 -173 -63.5t-116 -172.5zM817 1239q-139 0 -227 75t-88 222h184q2 -68 40 -100.5t101 -32.5q139 0 166 133h185q-29 -147 -126.5 -222t-234.5 -75z" glyph-name="ebreve" horiz-adv-x="1187" unicode="ĕ"/><glyph d="M154 0l278 1434h942l-45 -226h-686l-74 -379h645l-40 -215h-646l-75 -389h706l-43 -225h-962zM920 1587q-55 0 -88 35t-33 86q0 59 42 102t105 43q55 0 88 -34.5t33 -85.5q0 -59 -42 -102.5t-105 -43.5z" glyph-name="Edotaccent" horiz-adv-x="1218" unicode="Ė"/><glyph d="M649 -20q-215 0 -343 122.5t-128 348.5q0 291 166 473t401.5 182t355.5 -132t120 -339q0 -86 -25 -164h-780q-4 -123 64.5 -200.5t193.5 -77.5q66 0 132 33.5t101 90.5h252q-61 -152 -192.5 -244.5t-317.5 -92.5zM446 655h537q-6 102 -69.5 169t-178.5 67 q-94 0 -173 -63.5t-116 -172.5zM807 1260q-55 0 -88 34.5t-33 85.5q0 59 42 102.5t106 43.5q55 0 87.5 -35t32.5 -86q0 -59 -42 -102t-105 -43z" glyph-name="edotaccent" horiz-adv-x="1187" unicode="ė"/><glyph d="M973 -420q-106 0 -162.5 53.5t-56.5 133.5q0 172 198 233h-798l278 1434h942l-45 -226h-686l-74 -379h645l-40 -215h-646l-75 -389h706l-43 -225q-182 -82 -182 -197q0 -70 98 -69h51l-28 -154h-82z" glyph-name="Eogonek" horiz-adv-x="1218" unicode="Ę"/><glyph d="M625 -420q-106 0 -162.5 53.5t-56.5 133.5q0 158 157 219q-178 23 -281.5 143.5t-103.5 321.5q0 291 166 473t401.5 182t355.5 -132t120 -339q0 -86 -25 -164h-780q-4 -123 64.5 -200.5t193.5 -77.5q66 0 132 33.5t101 90.5h252q-55 -133 -162.5 -222t-261.5 -109 q-150 -76 -149 -183q0 -70 98 -69h51l-28 -154h-82zM446 655h537q-6 102 -69.5 169t-178.5 67q-94 0 -173 -63.5t-116 -172.5z" glyph-name="eogonek" horiz-adv-x="1187" unicode="ę"/><glyph d="M154 0l278 1434h942l-45 -226h-686l-74 -379h645l-40 -215h-646l-75 -389h706l-43 -225h-962zM842 1567l-217 307h194l111 -174h10l176 174h215l-336 -307h-153z" glyph-name="Ecaron" horiz-adv-x="1218" unicode="Ě"/><glyph d="M649 -20q-215 0 -343 122.5t-128 348.5q0 291 166 473t401.5 182t355.5 -132t120 -339q0 -86 -25 -164h-780q-4 -123 64.5 -200.5t193.5 -77.5q66 0 132 33.5t101 90.5h252q-61 -152 -192.5 -244.5t-317.5 -92.5zM446 655h537q-6 102 -69.5 169t-178.5 67 q-94 0 -173 -63.5t-116 -172.5zM719 1229l-217 307h194l111 -174h10l176 174h215l-336 -307h-153z" glyph-name="ecaron" horiz-adv-x="1187" unicode="ě"/><glyph d="M834 -20q-281 0 -449 154.5t-168 438.5q0 389 208 635t525 246q258 0 403.5 -116.5t184.5 -323.5h-262q-74 215 -332 215q-195 0 -333 -173t-138 -462q0 -182 99.5 -285.5t267.5 -103.5q154 0 257 92t146 246h-401l41 215h655l-31 -164q-51 -285 -231 -449.5t-442 -164.5 zM655 1567l336 307h154l217 -307h-195l-110 174h-10l-177 -174h-215z" glyph-name="Gcircumflex" horiz-adv-x="1474" unicode="Ĝ"/><glyph d="M594 -410q-434 0 -496 349h240q41 -133 256 -134q229 0 266 197l35 182h-10q-47 -55 -124 -89t-167 -34q-186 0 -299 115t-113 305q0 283 149.5 454t366.5 171q242 0 344 -164h11l59 143h195l-215 -1099q-39 -197 -169 -296.5t-329 -99.5zM664 276q125 0 217 100.5 t92 262.5q0 109 -64.5 180.5t-177.5 71.5q-125 0 -217 -100.5t-92 -262.5q0 -109 64.5 -180.5t177.5 -71.5zM481 1239l336 307h154l217 -307h-195l-110 174h-11l-176 -174h-215z" glyph-name="gcircumflex" horiz-adv-x="1228" unicode="ĝ"/><glyph d="M834 -20q-281 0 -449 154.5t-168 438.5q0 389 208 635t525 246q258 0 403.5 -116.5t184.5 -323.5h-262q-74 215 -332 215q-195 0 -333 -173t-138 -462q0 -182 99.5 -285.5t267.5 -103.5q154 0 257 92t146 246h-401l41 215h655l-31 -164q-51 -285 -231 -449.5t-442 -164.5 zM1022 1567q-139 0 -227 74.5t-88 222.5h184q2 -68 40 -100.5t101 -32.5q139 0 166 133h184q-29 -147 -126 -222t-234 -75z" glyph-name="Gbreve" horiz-adv-x="1474" unicode="Ğ"/><glyph d="M594 -410q-434 0 -496 349h240q41 -133 256 -134q229 0 266 197l35 182h-10q-47 -55 -124 -89t-167 -34q-186 0 -299 115t-113 305q0 283 149.5 454t366.5 171q242 0 344 -164h11l59 143h195l-215 -1099q-39 -197 -169 -296.5t-329 -99.5zM664 276q125 0 217 100.5 t92 262.5q0 109 -64.5 180.5t-177.5 71.5q-125 0 -217 -100.5t-92 -262.5q0 -109 64.5 -180.5t177.5 -71.5zM838 1239q-139 0 -227.5 75t-88.5 222h185q2 -68 39.5 -100.5t101.5 -32.5q139 0 166 133h184q-29 -147 -126 -222t-234 -75z" glyph-name="gbreve" horiz-adv-x="1228" unicode="ğ"/><glyph d="M834 -20q-281 0 -449 154.5t-168 438.5q0 389 208 635t525 246q258 0 403.5 -116.5t184.5 -323.5h-262q-74 215 -332 215q-195 0 -333 -173t-138 -462q0 -182 99.5 -285.5t267.5 -103.5q154 0 257 92t146 246h-401l41 215h655l-31 -164q-51 -285 -231 -449.5t-442 -164.5 zM1022 1587q-55 0 -88 35t-33 86q0 59 42 102t106 43q55 0 87.5 -34.5t32.5 -85.5q0 -59 -42 -102.5t-105 -43.5z" glyph-name="Gdotaccent" horiz-adv-x="1474" unicode="Ġ"/><glyph d="M594 -410q-434 0 -496 349h240q41 -133 256 -134q229 0 266 197l35 182h-10q-47 -55 -124 -89t-167 -34q-186 0 -299 115t-113 305q0 283 149.5 454t366.5 171q242 0 344 -164h11l59 143h195l-215 -1099q-39 -197 -169 -296.5t-329 -99.5zM664 276q125 0 217 100.5 t92 262.5q0 109 -64.5 180.5t-177.5 71.5q-125 0 -217 -100.5t-92 -262.5q0 -109 64.5 -180.5t177.5 -71.5zM827 1260q-55 0 -87.5 34.5t-32.5 85.5q0 59 42 102.5t105 43.5q55 0 88 -35t33 -86q0 -59 -42.5 -102t-105.5 -43z" glyph-name="gdotaccent" horiz-adv-x="1228" unicode="ġ"/><glyph d="M834 -20q-281 0 -449 154.5t-168 438.5q0 389 208 635t525 246q258 0 403.5 -116.5t184.5 -323.5h-262q-74 215 -332 215q-195 0 -333 -173t-138 -462q0 -182 99.5 -285.5t267.5 -103.5q154 0 257 92t146 246h-401l41 215h655l-31 -164q-51 -285 -231 -449.5t-442 -164.5 zM532 -512l156 338h215l-219 -338h-152z" glyph-name="Gcommaaccent" horiz-adv-x="1474" unicode="Ģ"/><glyph d="M707 1239l219 338h153l-157 -338h-215zM594 -410q-434 0 -496 349h240q41 -133 256 -134q229 0 266 197l35 182h-10q-47 -55 -124 -89t-167 -34q-186 0 -299 115t-113 305q0 283 149.5 454t366.5 171q242 0 344 -164h11l59 143h195l-215 -1099q-39 -197 -169 -296.5 t-329 -99.5zM664 276q125 0 217 100.5t92 262.5q0 109 -64.5 180.5t-177.5 71.5q-125 0 -217 -100.5t-92 -262.5q0 -109 64.5 -180.5t177.5 -71.5z" glyph-name="gcommaaccent" horiz-adv-x="1228" unicode="ģ"/><glyph d="M154 0l278 1434h256l-117 -594h646l116 594h256l-278 -1434h-256l119 614h-646l-118 -614h-256zM666 1567l335 307h154l217 -307h-194l-111 174h-10l-176 -174h-215z" glyph-name="Hcircumflex" horiz-adv-x="1464" unicode="Ĥ"/><glyph d="M143 0l279 1434h235l-90 -461h11q49 57 122.5 95t151.5 38q164 0 260 -102.5t96 -268.5q0 -51 -10 -102l-123 -633h-235l123 635q6 43 6 57q0 96 -54.5 147.5t-150.5 51.5t-167 -62.5t-89 -158.5l-129 -670h-236zM543 1587l336 307h153l217 -307h-194l-111 174h-10 l-176 -174h-215z" glyph-name="hcircumflex" horiz-adv-x="1198" unicode="ĥ"/><glyph d="M164 0l203 1044h-144l39 205h144l36 185h256l-36 -185h645l36 185h256l-36 -185h143l-39 -205h-143l-203 -1044h-256l119 614h-645l-119 -614h-256zM582 840h645l41 204h-645z" glyph-name="Hbar" horiz-adv-x="1484" unicode="Ħ"/><glyph d="M154 0l213 1096h-156l39 194h153l29 144h236l-29 -144h276l-38 -194h-277l-51 -267h10q49 57 123 95.5t152 38.5q164 0 260 -102.5t96 -268.5q0 -51 -10 -103l-95 -489h-235l94 492q6 43 6 57q0 96 -54 147.5t-150.5 51.5t-167 -62.5t-89.5 -159.5l-100 -526h-235z" glyph-name="hbar" horiz-adv-x="1208" unicode="ħ"/><glyph d="M154 0l278 1434h256l-278 -1434h-256zM297 1628l33 174h604l-33 -174h-604z" glyph-name="Imacron" horiz-adv-x="563" unicode="Ī"/><glyph d="M133 0l211 1085h236l-211 -1085h-236zM195 1290l32 174h604l-32 -174h-604z" glyph-name="imacron" horiz-adv-x="501" unicode="ī"/><glyph d="M154 0l278 1434h256l-278 -1434h-256zM592 1567q-139 0 -227.5 74.5t-88.5 222.5h185q2 -68 40 -100.5t101 -32.5q139 0 166 133h184q-29 -147 -126 -222t-234 -75z" glyph-name="Ibreve" horiz-adv-x="563" unicode="Ĭ"/><glyph d="M133 0l211 1085h236l-211 -1085h-236zM489 1239q-139 0 -227 75t-88 222h184q2 -68 40 -100.5t102 -32.5q139 0 166 133h184q-29 -147 -126.5 -222t-234.5 -75z" glyph-name="ibreve" horiz-adv-x="501" unicode="ĭ"/><glyph d="M174 -420q-106 0 -162.5 53.5t-56.5 133.5q0 172 199 233l278 1434h256l-278 -1434h-93q-182 -82 -182 -197q0 -70 98 -69h52l-29 -154h-82z" glyph-name="Iogonek" horiz-adv-x="563" unicode="Į"/><glyph d="M154 -420q-106 0 -163 53.5t-57 133.5q0 172 199 233l211 1085h236l-211 -1085h-72q-182 -82 -182 -197q0 -70 98 -69h51l-28 -154h-82zM498 1208q-61 0 -98.5 37t-37.5 94q0 66 46.5 111t115.5 45q61 0 99.5 -37t38.5 -94q0 -66 -47 -111t-117 -45z" glyph-name="iogonek" horiz-adv-x="501" unicode="į"/><glyph d="M154 0l278 1434h256l-278 -1434h-256zM592 1587q-55 0 -88 35t-33 86q0 59 42 102t105 43q55 0 88 -34.5t33 -85.5q0 -59 -42 -102.5t-105 -43.5z" glyph-name="Idotaccent" horiz-adv-x="563" unicode="İ"/><glyph d="M133 0l211 1085h236l-211 -1085h-236z" glyph-name="dotlessi" horiz-adv-x="501" unicode="ı"/><glyph d="M154 0l278 1434h256l-278 -1434h-256zM1051 -20q-211 0 -332 113.5t-123 326.5h254q2 -102 58.5 -158.5t148.5 -56.5t159.5 66.5t92.5 199.5l188 963h256l-192 -988q-45 -223 -179 -344.5t-331 -121.5z" glyph-name="IJ" horiz-adv-x="1628" unicode="Ĳ"/><glyph d="M133 0l211 1085h236l-211 -1085h-236zM498 1208q-61 0 -98.5 37t-37.5 94q0 66 46.5 111t115.5 45q61 0 99.5 -37t38.5 -94q0 -66 -47 -111t-117 -45zM291 -410l39 205h174q43 0 77.5 29t43.5 76l231 1185h236l-238 -1228q-53 -266 -317 -267h-246zM1010 1208 q-61 0 -98.5 37t-37.5 94q0 66 46.5 111t115.5 45q61 0 99.5 -37t38.5 -94q0 -66 -47 -111t-117 -45z" glyph-name="ij" horiz-adv-x="1013" unicode="ĳ"/><glyph d="M580 -20q-211 0 -332 113.5t-123 326.5h254q2 -102 58.5 -158.5t148.5 -56.5t159.5 66.5t92.5 199.5l188 963h256l-192 -988q-45 -223 -179 -344.5t-331 -121.5zM809 1567l336 307h153l218 -307h-195l-111 174h-10l-176 -174h-215z" glyph-name="Jcircumflex" horiz-adv-x="1157" unicode="Ĵ"/><glyph d="M-221 -410l39 205h174q43 0 77.5 29t43.5 76l231 1185h236l-238 -1228q-53 -266 -317 -267h-246zM123 1239l336 307h153l217 -307h-194l-111 174h-10l-176 -174h-215z" glyph-name="jcircumflex" horiz-adv-x="501" unicode="ĵ"/><glyph d="M154 0l278 1434h256l-129 -656l692 656h312l-756 -721l483 -713h-286l-463 676l-131 -676h-256zM420 -512l155 338h216l-220 -338h-151z" glyph-name="Kcommaaccent" horiz-adv-x="1228" unicode="Ķ"/><glyph d="M143 0l279 1434h235l-163 -840l536 491h305l-604 -548l393 -537h-274l-373 512l-98 -512h-236zM328 -512l155 338h215l-219 -338h-151z" glyph-name="kcommaaccent" horiz-adv-x="1075" unicode="ķ"/><glyph d="M154 0l278 1434h256l-235 -1209h686l-43 -225h-942zM492 1567l241 297h236l-293 -297h-184z" glyph-name="Lacute" horiz-adv-x="1085" unicode="Ĺ"/><glyph d="M143 0l279 1434h235l-278 -1434h-236zM471 1567l242 297h235l-293 -297h-184z" glyph-name="lacute" horiz-adv-x="522" unicode="ĺ"/><glyph d="M154 0l278 1434h256l-235 -1209h686l-43 -225h-942zM358 -512l156 338h215l-219 -338h-152z" glyph-name="Lcommaaccent" horiz-adv-x="1085" unicode="Ļ"/><glyph d="M143 0l279 1434h235l-278 -1434h-236zM-41 -512l156 338h215l-219 -338h-152z" glyph-name="lcommaaccent" horiz-adv-x="522" unicode="ļ"/><glyph d="M154 0l278 1434h256l-235 -1209h686l-43 -225h-942zM762 1096l160 338h204l-211 -338h-153z" glyph-name="Lcaron" horiz-adv-x="1085" unicode="Ľ"/><glyph d="M143 0l279 1434h235l-278 -1434h-236zM690 1096l160 338h205l-211 -338h-154z" glyph-name="lcaron" horiz-adv-x="706" unicode="ľ"/><glyph d="M969 666q-57 0 -94 36.5t-37 94.5q0 66 46 110.5t111 44.5q57 0 94 -36.5t37 -94.5q0 -66 -45.5 -110.5t-111.5 -44.5zM154 0l278 1434h256l-235 -1209h686l-43 -225h-942z" glyph-name="Ldot" horiz-adv-x="1085" unicode="Ŀ"/><glyph d="M784 594q-57 0 -94 37t-37 94q0 66 46 111t112 45q57 0 94 -37t37 -94q0 -66 -46 -111t-112 -45zM143 0l279 1434h235l-278 -1434h-236z" glyph-name="ldot" horiz-adv-x="788" unicode="ŀ"/><glyph d="M184 0l109 563l-187 -61l48 246l186 61l123 625h256l-105 -533l340 113l-49 -246l-338 -113l-84 -430h686l-43 -225h-942z" glyph-name="Lslash" horiz-adv-x="1116" unicode="Ł"/><glyph d="M184 0l107 557l-166 -65l47 235l166 66l125 641h235l-104 -537l166 66l-45 -236l-168 -68l-127 -659h-236z" glyph-name="lslash" horiz-adv-x="604" unicode="ł"/><glyph d="M154 0l278 1434h338l399 -1100h11l215 1100h256l-279 -1434h-338l-399 1100h-10l-215 -1100h-256zM963 1567l241 297h236l-293 -297h-184z" glyph-name="Nacute" horiz-adv-x="1525" unicode="Ń"/><glyph d="M133 0l211 1085h195l4 -122h10q55 66 132 104.5t157 38.5q164 0 260 -102.5t96 -268.5q0 -51 -10 -102l-123 -633h-236l123 635q6 43 6 57q0 96 -54 147.5t-150.5 51.5t-167 -62.5t-88.5 -158.5l-129 -670h-236zM727 1239l242 297h235l-293 -297h-184z" glyph-name="nacute" horiz-adv-x="1187" unicode="ń"/><glyph d="M154 0l278 1434h338l399 -1100h11l215 1100h256l-279 -1434h-338l-399 1100h-10l-215 -1100h-256zM512 -512l156 338h215l-219 -338h-152z" glyph-name="Ncommaaccent" horiz-adv-x="1525" unicode="Ņ"/><glyph d="M133 0l211 1085h195l4 -122h10q55 66 132 104.5t157 38.5q164 0 260 -102.5t96 -268.5q0 -51 -10 -102l-123 -633h-236l123 635q6 43 6 57q0 96 -54 147.5t-150.5 51.5t-167 -62.5t-88.5 -158.5l-129 -670h-236zM328 -512l155 338h215l-219 -338h-151z" glyph-name="ncommaaccent" horiz-adv-x="1187" unicode="ņ"/><glyph d="M154 0l278 1434h338l399 -1100h11l215 1100h256l-279 -1434h-338l-399 1100h-10l-215 -1100h-256zM975 1567l-217 307h194l111 -174h10l176 174h215l-336 -307h-153z" glyph-name="Ncaron" horiz-adv-x="1525" unicode="Ň"/><glyph d="M133 0l211 1085h195l4 -122h10q55 66 132 104.5t157 38.5q164 0 260 -102.5t96 -268.5q0 -51 -10 -102l-123 -633h-236l123 635q6 43 6 57q0 96 -54 147.5t-150.5 51.5t-167 -62.5t-88.5 -158.5l-129 -670h-236zM739 1229l-217 307h195l110 -174h11l176 174h215 l-336 -307h-154z" glyph-name="ncaron" horiz-adv-x="1187" unicode="ň"/><glyph d="M236 0l210 1085h195l4 -122h10q55 66 132 104.5t157 38.5q164 0 260 -102.5t96 -268.5q0 -51 -10 -102l-123 -633h-235l123 635q6 43 6 57q0 96 -54.5 147.5t-150.5 51.5t-167 -62.5t-89 -158.5l-129 -670h-235zM225 1137l160 338h205l-211 -338h-154z" glyph-name="napostrophe" horiz-adv-x="1290" unicode="ŉ"/><glyph d="M719 -461l45 236h129q174 0 217 196l6 29h-82l-399 1100h-10l-215 -1100h-256l278 1434h338l399 -1100h11l215 1100h256l-285 -1457q-86 -438 -467 -438h-180z" glyph-name="Eng" horiz-adv-x="1525" unicode="Ŋ"/><glyph d="M473 -410l39 205h178q43 0 77 29t42 76l143 735q6 43 6 57q0 96 -54 147.5t-150.5 51.5t-167 -62.5t-88.5 -158.5l-129 -670h-236l211 1085h195l4 -122h10q55 66 132 104.5t157 38.5q164 0 260 -102.5t96 -268.5q0 -51 -10 -102l-152 -776q-49 -266 -317 -267h-246z" glyph-name="eng" horiz-adv-x="1187" unicode="ŋ"/><glyph d="M840 -20q-293 0 -458 157.5t-165 435.5q0 238 86 436.5t256 321.5t393 123q293 0 458 -157.5t165 -436.5q0 -238 -86 -436.5t-256 -321t-393 -122.5zM848 205q199 0 335 174t136 461q0 184 -98.5 286.5t-276.5 102.5q-199 0 -335 -174t-136 -461q0 -184 98.5 -286.5 t276.5 -102.5zM727 1628l33 174h604l-33 -174h-604z" glyph-name="Omacron" horiz-adv-x="1515" unicode="Ō"/><glyph d="M653 -20q-221 0 -348 123.5t-127 336.5q0 295 163 480.5t404 185.5q221 0 348.5 -124t127.5 -337q0 -295 -163 -480t-405 -185zM662 195q131 0 226 112.5t95 317.5q0 127 -67.5 196.5t-178.5 69.5q-131 0 -226 -112.5t-95 -317.5q0 -127 67.5 -196.5t178.5 -69.5z M512 1290l33 174h604l-33 -174h-604z" glyph-name="omacron" horiz-adv-x="1187" unicode="ō"/><glyph d="M840 -20q-293 0 -458 157.5t-165 435.5q0 238 86 436.5t256 321.5t393 123q293 0 458 -157.5t165 -436.5q0 -238 -86 -436.5t-256 -321t-393 -122.5zM848 205q199 0 335 174t136 461q0 184 -98.5 286.5t-276.5 102.5q-199 0 -335 -174t-136 -461q0 -184 98.5 -286.5 t276.5 -102.5zM1022 1567q-139 0 -227 74.5t-88 222.5h184q2 -68 40 -100.5t101 -32.5q139 0 166 133h184q-29 -147 -126 -222t-234 -75z" glyph-name="Obreve" horiz-adv-x="1515" unicode="Ŏ"/><glyph d="M653 -20q-221 0 -348 123.5t-127 336.5q0 295 163 480.5t404 185.5q221 0 348.5 -124t127.5 -337q0 -295 -163 -480t-405 -185zM662 195q131 0 226 112.5t95 317.5q0 127 -67.5 196.5t-178.5 69.5q-131 0 -226 -112.5t-95 -317.5q0 -127 67.5 -196.5t178.5 -69.5z M817 1239q-139 0 -227 75t-88 222h184q2 -68 40 -100.5t101 -32.5q139 0 166 133h185q-29 -147 -126.5 -222t-234.5 -75z" glyph-name="obreve" horiz-adv-x="1187" unicode="ŏ"/><glyph d="M840 -20q-293 0 -458 157.5t-165 435.5q0 238 86 436.5t256 321.5t393 123q293 0 458 -157.5t165 -436.5q0 -238 -86 -436.5t-256 -321t-393 -122.5zM848 205q199 0 335 174t136 461q0 184 -98.5 286.5t-276.5 102.5q-199 0 -335 -174t-136 -461q0 -184 98.5 -286.5 t276.5 -102.5zM748 1567l241 297h236l-293 -297h-184zM1096 1567l241 297h236l-293 -297h-184z" glyph-name="Ohungarumlaut" horiz-adv-x="1515" unicode="Ő"/><glyph d="M653 -20q-221 0 -348 123.5t-127 336.5q0 295 163 480.5t404 185.5q221 0 348.5 -124t127.5 -337q0 -295 -163 -480t-405 -185zM662 195q131 0 226 112.5t95 317.5q0 127 -67.5 196.5t-178.5 69.5q-131 0 -226 -112.5t-95 -317.5q0 -127 67.5 -196.5t178.5 -69.5z M532 1239l242 297h236l-293 -297h-185zM881 1239l241 297h236l-293 -297h-184z" glyph-name="ohungarumlaut" horiz-adv-x="1187" unicode="ő"/><glyph d="M791 -20q-250 0 -412 156.5t-162 436.5q0 395 211 638t514 243q291 0 428 -194l35 174h932l-45 -226h-676l-74 -379h635l-41 -215h-635l-76 -389h697l-43 -225h-953l21 109q-147 -129 -356 -129zM813 205q182 0 322.5 168t140.5 463q0 193 -96.5 293t-243.5 100 q-182 0 -322.5 -168t-140.5 -463q0 -193 96.5 -293t243.5 -100z" glyph-name="OE" horiz-adv-x="2181" unicode="Œ"/><glyph d="M647 -20q-215 0 -342 123.5t-127 336.5q0 293 162 479.5t397 186.5q125 0 223.5 -52.5t149.5 -138.5q156 190 395 191q227 0 345 -132t118 -339q0 -90 -26 -174h-768v-8q0 -117 69.5 -188.5t190.5 -71.5q63 0 124.5 33.5t96.5 90.5h252q-59 -150 -188.5 -243.5 t-307.5 -93.5q-264 0 -377 192q-137 -192 -387 -192zM653 195q125 0 217.5 113.5t92.5 316.5q0 127 -67 196.5t-173 69.5q-123 0 -215 -113.5t-92 -316.5q0 -127 66.5 -196.5t170.5 -69.5zM1204 655h527q-8 104 -72 170t-174 66q-92 0 -170 -65t-111 -171z" glyph-name="oe" horiz-adv-x="1935" unicode="œ"/><glyph d="M154 0l278 1434h582q176 0 287.5 -116t111.5 -288q0 -129 -46 -228.5t-117.5 -152.5t-137 -80.5t-129.5 -36.5l270 -532h-274l-266 532h-201l-102 -532h-256zM555 758h356q109 0 177.5 68.5t68.5 185.5q0 86 -52 141t-142 55h-320zM840 1567l241 297h236l-293 -297h-184z " glyph-name="Racute" horiz-adv-x="1331" unicode="Ŕ"/><glyph d="M133 0l211 1085h195l4 -122h10q113 123 254 122h172l-45 -225h-150q-115 0 -194.5 -64.5t-100.5 -174.5l-120 -621h-236zM594 1239l242 297h235l-293 -297h-184z" glyph-name="racute" horiz-adv-x="808" unicode="ŕ"/><glyph d="M154 0l278 1434h582q176 0 287.5 -116t111.5 -288q0 -129 -46 -228.5t-117.5 -152.5t-137 -80.5t-129.5 -36.5l270 -532h-274l-266 532h-201l-102 -532h-256zM555 758h356q109 0 177.5 68.5t68.5 185.5q0 86 -52 141t-142 55h-320zM420 -512l155 338h216l-220 -338h-151z " glyph-name="Rcommaaccent" horiz-adv-x="1331" unicode="Ŗ"/><glyph d="M133 0l211 1085h195l4 -122h10q113 123 254 122h172l-45 -225h-150q-115 0 -194.5 -64.5t-100.5 -174.5l-120 -621h-236zM-51 -512l155 338h215l-219 -338h-151z" glyph-name="rcommaaccent" horiz-adv-x="808" unicode="ŗ"/><glyph d="M154 0l278 1434h582q176 0 287.5 -116t111.5 -288q0 -129 -46 -228.5t-117.5 -152.5t-137 -80.5t-129.5 -36.5l270 -532h-274l-266 532h-201l-102 -532h-256zM555 758h356q109 0 177.5 68.5t68.5 185.5q0 86 -52 141t-142 55h-320zM862 1567l-217 307h195l110 -174h11 l176 174h215l-336 -307h-154z" glyph-name="Rcaron" horiz-adv-x="1331" unicode="Ř"/><glyph d="M133 0l211 1085h195l4 -122h10q113 123 254 122h172l-45 -225h-150q-115 0 -194.5 -64.5t-100.5 -174.5l-120 -621h-236zM606 1229l-217 307h195l110 -174h11l176 174h215l-336 -307h-154z" glyph-name="rcaron" horiz-adv-x="808" unicode="ř"/><glyph d="M713 -20q-242 0 -395.5 105t-174.5 325h254q16 -98 101.5 -152.5t220.5 -54.5q131 0 201.5 57t70.5 152q0 76 -70.5 122t-172 74.5t-203 66.5t-172 125t-70.5 224q0 201 140.5 315.5t369.5 114.5q250 0 384 -105.5t149 -283.5h-256q-18 76 -90 120t-193 44 q-117 0 -181.5 -54.5t-64.5 -138.5q0 -68 52.5 -113.5t130 -68.5t169 -55.5t168 -71.5t128 -120t51.5 -197q-2 -180 -148.5 -305t-398.5 -125zM778 1567l242 297h235l-292 -297h-185z" glyph-name="Sacute" horiz-adv-x="1259" unicode="Ś"/><glyph d="M580 -20q-186 0 -315.5 81.5t-153.5 255.5h251q31 -123 234 -122q172 0 172 110q0 51 -55.5 83t-134 52.5t-158.5 49t-135.5 95t-55.5 171.5q0 152 110 251t300 99q205 0 314.5 -88t129.5 -230h-256q-35 102 -206 103q-70 0 -108 -28.5t-38 -76.5q0 -51 55.5 -82.5 t135 -53t158.5 -50.5t134.5 -95.5t55.5 -168.5q0 -158 -111.5 -257t-322.5 -99zM604 1239l242 297h235l-293 -297h-184z" glyph-name="sacute" horiz-adv-x="1024" unicode="ś"/><glyph d="M713 -20q-242 0 -395.5 105t-174.5 325h254q16 -98 101.5 -152.5t220.5 -54.5q131 0 201.5 57t70.5 152q0 76 -70.5 122t-172 74.5t-203 66.5t-172 125t-70.5 224q0 201 140.5 315.5t369.5 114.5q250 0 384 -105.5t149 -283.5h-256q-18 76 -90 120t-193 44 q-117 0 -181.5 -54.5t-64.5 -138.5q0 -68 52.5 -113.5t130 -68.5t169 -55.5t168 -71.5t128 -120t51.5 -197q-2 -180 -148.5 -305t-398.5 -125zM532 1567l336 307h154l217 -307h-195l-110 174h-10l-176 -174h-216z" glyph-name="Scircumflex" horiz-adv-x="1259" unicode="Ŝ"/><glyph d="M580 -20q-186 0 -315.5 81.5t-153.5 255.5h251q31 -123 234 -122q172 0 172 110q0 51 -55.5 83t-134 52.5t-158.5 49t-135.5 95t-55.5 171.5q0 152 110 251t300 99q205 0 314.5 -88t129.5 -230h-256q-35 102 -206 103q-70 0 -108 -28.5t-38 -76.5q0 -51 55.5 -82.5 t135 -53t158.5 -50.5t134.5 -95.5t55.5 -168.5q0 -158 -111.5 -257t-322.5 -99zM369 1239l336 307h153l217 -307h-194l-111 174h-10l-176 -174h-215z" glyph-name="scircumflex" horiz-adv-x="1024" unicode="ŝ"/><glyph d="M416 -451l26 144h121q27 0 45.5 17.5t18.5 45.5q0 49 -52 49h-92l23 113l47 74q-377 66 -410 418h254q16 -98 101.5 -152.5t220.5 -54.5q131 0 201.5 57t70.5 152q0 76 -70.5 122t-172 74.5t-203 66.5t-172 125t-70.5 224q0 201 140.5 315.5t369.5 114.5 q250 0 384 -105.5t149 -283.5h-256q-18 76 -90 120t-193 44q-117 0 -181.5 -54.5t-64.5 -138.5q0 -68 52.5 -113.5t130 -68.5t169 -55.5t168 -71.5t128 -120t51.5 -197q-2 -180 -148.5 -305t-398.5 -125h-4l-31 -52q57 -12 90 -55t33 -106q0 -96 -65.5 -157t-162.5 -61h-157 z" glyph-name="Scedilla" horiz-adv-x="1259" unicode="Ş"/><glyph d="M313 -451l27 144h121q27 0 45 17.5t18 45.5q0 49 -51 49h-92l22 113l48 72q-139 23 -230.5 103.5t-109.5 223.5h251q31 -123 234 -122q86 0 128 30.5t42 79.5q0 51 -55.5 83t-134 52.5t-157.5 49t-134.5 95t-55.5 171.5q0 152 110 251t300 99q205 0 314.5 -88t129.5 -230 h-256q-35 102 -206 103q-70 0 -106 -28.5t-36 -76.5q0 -51 55.5 -82.5t133 -53t156.5 -50.5t134.5 -95.5t55.5 -168.5q0 -152 -104.5 -250t-301.5 -106l-33 -52q57 -12 90 -55t33 -106q0 -96 -65.5 -157t-161.5 -61h-158z" glyph-name="scedilla" horiz-adv-x="1024" unicode="ş"/><glyph d="M713 -20q-242 0 -395.5 105t-174.5 325h254q16 -98 101.5 -152.5t220.5 -54.5q131 0 201.5 57t70.5 152q0 76 -70.5 122t-172 74.5t-203 66.5t-172 125t-70.5 224q0 201 140.5 315.5t369.5 114.5q250 0 384 -105.5t149 -283.5h-256q-18 76 -90 120t-193 44 q-117 0 -181.5 -54.5t-64.5 -138.5q0 -68 52.5 -113.5t130 -68.5t169 -55.5t168 -71.5t128 -120t51.5 -197q-2 -180 -148.5 -305t-398.5 -125zM811 1567l-217 307h194l111 -174h10l176 174h215l-335 -307h-154z" glyph-name="Scaron" horiz-adv-x="1259" unicode="Š"/><glyph d="M580 -20q-186 0 -315.5 81.5t-153.5 255.5h251q31 -123 234 -122q172 0 172 110q0 51 -55.5 83t-134 52.5t-158.5 49t-135.5 95t-55.5 171.5q0 152 110 251t300 99q205 0 314.5 -88t129.5 -230h-256q-35 102 -206 103q-70 0 -108 -28.5t-38 -76.5q0 -51 55.5 -82.5 t135 -53t158.5 -50.5t134.5 -95.5t55.5 -168.5q0 -158 -111.5 -257t-322.5 -99zM627 1229l-217 307h194l111 -174h10l176 174h215l-336 -307h-153z" glyph-name="scaron" horiz-adv-x="1024" unicode="š"/><glyph d="M403 -451l27 144h113q61 0 73 55q10 57 -51 57h-92l21 103l59 92h-102l233 1208h-440l45 226h1136l-45 -226h-440l-233 -1208l-45 -72q70 -8 106.5 -54t22.5 -120q-16 -92 -86 -148.5t-168 -56.5h-134z" glyph-name="Tcommaaccent" horiz-adv-x="1198" unicode="Ţ"/><glyph d="M231 -451l27 144h121q27 0 45 17.5t18 45.5q0 49 -51 49h-92l23 113l73 113q-133 68 -133 233q0 31 6 68l105 538h-174l43 215h174l86 287h205l-56 -287h267l-44 -215h-266l-100 -532q-2 -16 -2 -27q0 -35 24.5 -65.5t69.5 -30.5h148l-41 -215h-168l-45 -72 q57 -12 89.5 -55t32.5 -106q0 -96 -65.5 -157t-161.5 -61h-158z" glyph-name="tcommaaccent" horiz-adv-x="788" unicode="ţ"/><glyph d="M451 0l233 1208h-440l45 226h1136l-45 -226h-440l-233 -1208h-256zM791 1567l-218 307h195l111 -174h10l176 174h215l-336 -307h-153z" glyph-name="Tcaron" horiz-adv-x="1198" unicode="Ť"/><glyph d="M526 0q-121 0 -192.5 76t-71.5 188q0 31 6 68l105 538h-174l43 215h174l86 287h205l-56 -287h267l-44 -215h-266l-100 -532q-2 -16 -2 -27q0 -35 24.5 -65.5t69.5 -30.5h148l-41 -215h-181zM905 1096l160 338h205l-211 -338h-154z" glyph-name="tcaron" horiz-adv-x="921" unicode="ť"/><glyph d="M451 0l141 737h-328l45 226h328l47 245h-440l45 226h1136l-45 -226h-440l-47 -245h328l-45 -226h-328l-141 -737h-256z" glyph-name="Tbar" horiz-adv-x="1198" unicode="Ŧ"/><glyph d="M526 0q-121 0 -192.5 76t-71.5 188q0 31 6 68l37 190h-174l41 205h172l29 143h-174l43 215h174l86 287h205l-56 -287h267l-44 -215h-266l-26 -143h266l-41 -205h-264l-35 -184q-2 -16 -2 -27q0 -35 24.5 -65.5t69.5 -30.5h148l-41 -215h-181z" glyph-name="tbar" horiz-adv-x="788" unicode="ŧ"/><glyph d="M801 -20q-244 0 -395.5 139t-151.5 387q0 70 16 158l152 770h256l-156 -795q-12 -61 -12 -111q0 -152 80 -237.5t215 -85.5q133 0 231.5 96t132.5 274l164 859h256l-168 -883q-51 -274 -215.5 -422.5t-404.5 -148.5zM717 1628l33 174h604l-33 -174h-604z" glyph-name="Umacron" horiz-adv-x="1454" unicode="Ū"/><glyph d="M567 -20q-164 0 -260 102t-96 268q0 51 10 103l123 632h236l-123 -634q-6 -43 -6 -58q0 -96 54 -147t150.5 -51t167 62t88.5 159l129 669h236l-211 -1085h-195l-4 123h-10q-55 -66 -132 -104.5t-157 -38.5zM522 1290l33 174h604l-33 -174h-604z" glyph-name="umacron" horiz-adv-x="1198" unicode="ū"/><glyph d="M801 -20q-244 0 -395.5 139t-151.5 387q0 70 16 158l152 770h256l-156 -795q-12 -61 -12 -111q0 -152 80 -237.5t215 -85.5q133 0 231.5 96t132.5 274l164 859h256l-168 -883q-51 -274 -215.5 -422.5t-404.5 -148.5zM1022 1567q-139 0 -227 74.5t-88 222.5h184 q2 -68 40 -100.5t101 -32.5q139 0 166 133h184q-29 -147 -126 -222t-234 -75z" glyph-name="Ubreve" horiz-adv-x="1454" unicode="Ŭ"/><glyph d="M567 -20q-164 0 -260 102t-96 268q0 51 10 103l123 632h236l-123 -634q-6 -43 -6 -58q0 -96 54 -147t150.5 -51t167 62t88.5 159l129 669h236l-211 -1085h-195l-4 123h-10q-55 -66 -132 -104.5t-157 -38.5zM827 1239q-139 0 -227 75t-88 222h184q2 -68 40 -100.5 t102 -32.5q139 0 166 133h184q-29 -147 -126.5 -222t-234.5 -75z" glyph-name="ubreve" horiz-adv-x="1198" unicode="ŭ"/><glyph d="M801 -20q-244 0 -395.5 139t-151.5 387q0 70 16 158l152 770h256l-156 -795q-12 -61 -12 -111q0 -152 80 -237.5t215 -85.5q133 0 231.5 96t132.5 274l164 859h256l-168 -883q-51 -274 -215.5 -422.5t-404.5 -148.5zM1006 1526q-88 0 -142.5 51t-54.5 139q0 106 67.5 173 t170.5 67q88 0 141 -50.5t53 -140.5q0 -106 -67.5 -172.5t-167.5 -66.5zM1018 1659q41 0 65.5 24.5t24.5 67.5q0 33 -20.5 52.5t-55.5 19.5q-41 0 -65.5 -24.5t-24.5 -67.5q0 -33 21.5 -52.5t54.5 -19.5z" glyph-name="Uring" horiz-adv-x="1454" unicode="Ů"/><glyph d="M567 -20q-164 0 -260 102t-96 268q0 51 10 103l123 632h236l-123 -634q-6 -43 -6 -58q0 -96 54 -147t150.5 -51t167 62t88.5 159l129 669h236l-211 -1085h-195l-4 123h-10q-55 -66 -132 -104.5t-157 -38.5zM821 1198q-88 0 -142 51t-54 140q0 106 67.5 172.5t169.5 66.5 q88 0 141.5 -50t53.5 -140q0 -106 -68 -173t-168 -67zM834 1331q41 0 65.5 24.5t24.5 67.5q0 33 -20.5 52.5t-55.5 19.5q-41 0 -65.5 -24.5t-24.5 -67.5q0 -33 21.5 -52.5t54.5 -19.5z" glyph-name="uring" horiz-adv-x="1198" unicode="ů"/><glyph d="M801 -20q-244 0 -395.5 139t-151.5 387q0 70 16 158l152 770h256l-156 -795q-12 -61 -12 -111q0 -152 80 -237.5t215 -85.5q133 0 231.5 96t132.5 274l164 859h256l-168 -883q-51 -274 -215.5 -422.5t-404.5 -148.5zM727 1567l242 297h235l-293 -297h-184zM1075 1567 l242 297h235l-292 -297h-185z" glyph-name="Uhungarumlaut" horiz-adv-x="1454" unicode="Ű"/><glyph d="M567 -20q-164 0 -260 102t-96 268q0 51 10 103l123 632h236l-123 -634q-6 -43 -6 -58q0 -96 54 -147t150.5 -51t167 62t88.5 159l129 669h236l-211 -1085h-195l-4 123h-10q-55 -66 -132 -104.5t-157 -38.5zM543 1239l241 297h236l-293 -297h-184zM891 1239l242 297h235 l-293 -297h-184z" glyph-name="uhungarumlaut" horiz-adv-x="1198" unicode="ű"/><glyph d="M748 -420q-106 0 -163 53.5t-57 133.5q0 158 162 221q-199 31 -317.5 166t-118.5 352q0 70 16 158l152 770h256l-156 -795q-12 -61 -12 -111q0 -152 80 -237.5t215 -85.5q133 0 231.5 96t132.5 274l164 859h256l-168 -883q-49 -260 -200.5 -407.5t-370.5 -161.5 q-141 -74 -141 -179q0 -70 98 -69h51l-29 -154h-81z" glyph-name="Uogonek" horiz-adv-x="1454" unicode="Ų"/><glyph d="M922 -420q-106 0 -163 53.5t-57 133.5q0 172 199 233h-31l-4 123h-10q-55 -66 -132 -104.5t-157 -38.5q-164 0 -260 102t-96 268q0 51 10 103l123 632h236l-123 -634q-6 -43 -6 -58q0 -96 54 -147t150.5 -51t167 62t88.5 159l129 669h236l-211 -1085q-182 -82 -182 -197 q0 -70 98 -69h51l-28 -154h-82z" glyph-name="uogonek" horiz-adv-x="1198" unicode="ų"/><glyph d="M379 0l-90 1434h256l35 -1086h10l477 1086h297l55 -1086h11l456 1086h277l-647 -1434h-308l-47 1075h-10l-465 -1075h-307zM870 1567l336 307h154l217 -307h-195l-110 174h-10l-177 -174h-215z" glyph-name="Wcircumflex" horiz-adv-x="1914" unicode="Ŵ"/><glyph d="M297 0l-86 1085h235l56 -788h10l354 788h256l56 -788h10l354 788h256l-508 -1085h-286l-64 748h-10l-346 -748h-287zM655 1239l336 307h154l217 -307h-195l-110 174h-10l-177 -174h-215z" glyph-name="wcircumflex" horiz-adv-x="1607" unicode="ŵ"/><glyph d="M440 0l99 512l-322 922h246l227 -666h10l490 666h287l-682 -922l-99 -512h-256zM481 1567l336 307h154l217 -307h-195l-110 174h-11l-176 -174h-215z" glyph-name="Ycircumflex" horiz-adv-x="1198" unicode="Ŷ"/><glyph d="M166 -410l244 410l-230 1085h256l148 -768h10l446 768h267l-885 -1495h-256zM379 1239l336 307h153l217 -307h-194l-111 174h-10l-176 -174h-215z" glyph-name="ycircumflex" horiz-adv-x="1116" unicode="ŷ"/><glyph d="M440 0l99 512l-322 922h246l227 -666h10l490 666h287l-682 -922l-99 -512h-256zM653 1587q-55 0 -88 35t-33 86q0 59 42 102t106 43q55 0 88 -34.5t33 -85.5q0 -59 -42.5 -102.5t-105.5 -43.5zM1042 1587q-55 0 -87.5 35t-32.5 86q0 59 42 102t105 43q55 0 88 -34.5 t33 -85.5q0 -59 -42.5 -102.5t-105.5 -43.5z" glyph-name="Ydieresis" horiz-adv-x="1198" unicode="Ÿ"/><glyph d="M72 0l37 195l921 1013h-704l45 226h1034l-39 -195l-920 -1014h734l-43 -225h-1065zM778 1567l242 297h235l-292 -297h-185z" glyph-name="Zacute" horiz-adv-x="1208" unicode="Ź"/><glyph d="M61 0l35 184l662 686h-508l43 215h819l-37 -184l-661 -686h538l-41 -215h-850zM604 1239l242 297h235l-293 -297h-184z" glyph-name="zacute" horiz-adv-x="972" unicode="ź"/><glyph d="M72 0l37 195l921 1013h-704l45 226h1034l-39 -195l-920 -1014h734l-43 -225h-1065zM889 1587q-55 0 -88 35t-33 86q0 59 42 102t105 43q55 0 88 -34.5t33 -85.5q0 -59 -42 -102.5t-105 -43.5z" glyph-name="Zdotaccent" horiz-adv-x="1208" unicode="Ż"/><glyph d="M61 0l35 184l662 686h-508l43 215h819l-37 -184l-661 -686h538l-41 -215h-850zM715 1260q-55 0 -88 34.5t-33 85.5q0 59 42 102.5t105 43.5q55 0 88 -35t33 -86q0 -59 -42 -102t-105 -43z" glyph-name="zdotaccent" horiz-adv-x="972" unicode="ż"/><glyph d="M72 0l37 195l921 1013h-704l45 226h1034l-39 -195l-920 -1014h734l-43 -225h-1065zM811 1567l-217 307h194l111 -174h10l176 174h215l-335 -307h-154z" glyph-name="Zcaron" horiz-adv-x="1208" unicode="Ž"/><glyph d="M61 0l35 184l662 686h-508l43 215h819l-37 -184l-661 -686h538l-41 -215h-850zM637 1229l-217 307h194l111 -174h10l176 174h215l-335 -307h-154z" glyph-name="zcaron" horiz-adv-x="972" unicode="ž"/><glyph d="M819 -20q-268 0 -433 154.5t-165 438.5q0 113 23 226h1054v41q0 188 -100 288.5t-272 100.5q-106 0 -198.5 -54.5t-141.5 -150.5h-269q78 199 241 314.5t384 115.5q285 0 448.5 -158.5t163.5 -435.5q0 -385 -206.5 -632.5t-528.5 -247.5zM825 205q162 0 279 109.5 t164 279.5h-799v-21q0 -166 91 -267t265 -101z" glyph-name="uni018F" horiz-adv-x="1495" unicode="Ə"/><glyph d="M-104 -369l73 226h111q111 0 141 102l230 737h-199l74 226h196l86 276q41 133 123 194.5t232 61.5h184l-76 -225h-113q-102 0 -131 -92l-67 -215h231l-73 -226h-228l-250 -798q-45 -141 -127 -204t-235 -63h-182z" glyph-name="florin" horiz-adv-x="880" unicode="ƒ"/><glyph d="M834 -20q-281 0 -449 154.5t-168 438.5q0 389 208 635t525 246q258 0 403.5 -116.5t184.5 -323.5h-262q-74 215 -332 215q-195 0 -333 -173t-138 -462q0 -182 99.5 -285.5t267.5 -103.5q154 0 257 92t146 246h-401l41 215h655l-31 -164q-51 -285 -231 -449.5t-442 -164.5 zM911 1567l242 297h236l-293 -297h-185z" glyph-name="uni01F4" horiz-adv-x="1474" unicode="Ǵ"/><glyph d="M594 -410q-434 0 -496 349h240q41 -133 256 -134q229 0 266 197l35 182h-10q-47 -55 -124 -89t-167 -34q-186 0 -299 115t-113 305q0 283 149.5 454t366.5 171q242 0 344 -164h11l59 143h195l-215 -1099q-39 -197 -169 -296.5t-329 -99.5zM664 276q125 0 217 100.5 t92 262.5q0 109 -64.5 180.5t-177.5 71.5q-125 0 -217 -100.5t-92 -262.5q0 -109 64.5 -180.5t177.5 -71.5zM727 1239l242 297h235l-293 -297h-184z" glyph-name="uni01F5" horiz-adv-x="1228" unicode="ǵ"/><glyph d="M985 1505q-88 0 -142.5 52.5t-54.5 142.5q0 104 66 168.5t166 66.5l70 113h194l-137 -150q74 -53 74 -157.5t-68 -170t-168 -65.5zM997 1638q41 0 65.5 25t24.5 68q0 72 -75 71q-41 0 -65.5 -24.5t-24.5 -67.5q-1 -72 75 -72zM10 0l801 1434h317l244 -1434h-256l-51 307 h-608l-170 -307h-277zM580 532h448l-100 615h-10z" glyph-name="Aringacute" horiz-adv-x="1341" unicode="Ǻ"/><glyph d="M801 1178q-88 0 -142.5 52t-54.5 142q0 104 65.5 168t164.5 68l73 123h195l-137 -160q72 -51 71 -158q0 -104 -67.5 -169.5t-167.5 -65.5zM813 1311q41 0 65.5 24.5t24.5 67.5q0 72 -76 72q-41 0 -65.5 -25t-24.5 -68q0 -71 76 -71zM477 -20q-141 0 -241.5 82.5 t-100.5 226.5q0 154 113.5 260t302.5 106h340l6 31q4 20 4 41q0 78 -54 126t-149 48q-139 0 -200 -123h-248q49 141 175 234.5t284 93.5q215 0 321.5 -100.5t106.5 -266.5q0 -43 -11 -84l-127 -655h-204l4 113h-11q-106 -133 -311 -133zM561 184q111 0 183.5 57.5 t93.5 153.5l16 76h-305q-86 0 -132 -42t-46 -107q0 -63 49 -100.5t141 -37.5z" glyph-name="aringacute" horiz-adv-x="1126" unicode="ǻ"/><glyph d="M-61 0l985 1434h1177l-45 -226h-686l-74 -379h646l-41 -215h-646l-75 -389h706l-43 -225h-962l57 303h-500l-213 -303h-286zM594 530h389l127 658h-72zM1229 1567l241 297h236l-293 -297h-184z" glyph-name="AEacute" horiz-adv-x="1945" unicode="Ǽ"/><glyph d="M512 -20q-166 0 -271.5 81.5t-105.5 227.5q0 143 115 249.5t301 106.5h338l8 41q4 20 4 41q0 78 -54 126t-149 48q-139 0 -200 -123h-248q49 141 175 234.5t284 93.5q127 0 219 -51t131 -129q57 76 159.5 128t200.5 52q231 0 351 -132t120 -339q0 -90 -26 -174h-768 q0 -119 65.5 -193.5t188.5 -74.5q63 0 127.5 33.5t99.5 90.5h252q-61 -152 -190.5 -244.5t-311.5 -92.5q-129 0 -229.5 54t-151.5 152q-145 -206 -434 -206zM561 184q111 0 183.5 57.5t93.5 153.5l14 66h-305q-84 0 -130 -42t-46 -97q0 -63 49 -100.5t141 -37.5zM1124 645 h529q-4 111 -67.5 178.5t-176.5 67.5q-94 0 -175 -66.5t-110 -179.5zM1004 1239l241 297h236l-293 -297h-184z" glyph-name="aeacute" horiz-adv-x="1857" unicode="ǽ"/><glyph d="M184 -51l168 221q-135 154 -135 403q0 238 86 436.5t256 321.5t393 123q184 0 326 -68l74 99h256l-168 -221q135 -154 135 -404q0 -238 -86 -436.5t-256 -321t-393 -122.5q-184 0 -326 67l-74 -98h-256zM516 387l612 805q-76 37 -184 37q-199 0 -335 -174t-136 -461 q0 -121 43 -207zM848 205q199 0 335 174t136 461q0 121 -43 207l-612 -805q78 -37 184 -37zM911 1567l242 297h236l-293 -297h-185z" glyph-name="Oslashacute" horiz-adv-x="1515" unicode="Ǿ"/><glyph d="M104 -41l158 193q-84 115 -84 288q0 295 163 480.5t404 185.5q141 0 252 -55l62 75h235l-157 -194q84 -113 84 -287q0 -295 -163 -480t-405 -185q-141 0 -252 55l-61 -76h-236zM430 358l418 510q-51 23 -111 23q-131 0 -226 -112.5t-95 -317.5q0 -60 14 -103zM662 195 q131 0 226 112.5t95 317.5q0 53 -16 102l-416 -510q45 -22 111 -22zM707 1239l241 297h236l-293 -297h-184z" glyph-name="oslashacute" horiz-adv-x="1187" unicode="ǿ"/><glyph d="M713 -20q-242 0 -395.5 105t-174.5 325h254q16 -98 101.5 -152.5t220.5 -54.5q131 0 201.5 57t70.5 152q0 76 -70.5 122t-172 74.5t-203 66.5t-172 125t-70.5 224q0 201 140.5 315.5t369.5 114.5q250 0 384 -105.5t149 -283.5h-256q-18 76 -90 120t-193 44 q-117 0 -181.5 -54.5t-64.5 -138.5q0 -68 52.5 -113.5t130 -68.5t169 -55.5t168 -71.5t128 -120t51.5 -197q-2 -180 -148.5 -305t-398.5 -125zM389 -512l156 338h215l-219 -338h-152z" glyph-name="Scommaaccent" horiz-adv-x="1259" unicode="Ș"/><glyph d="M580 -20q-186 0 -315.5 81.5t-153.5 255.5h251q31 -123 234 -122q172 0 172 110q0 51 -55.5 83t-134 52.5t-158.5 49t-135.5 95t-55.5 171.5q0 152 110 251t300 99q205 0 314.5 -88t129.5 -230h-256q-35 102 -206 103q-70 0 -108 -28.5t-38 -76.5q0 -51 55.5 -82.5 t135 -53t158.5 -50.5t134.5 -95.5t55.5 -168.5q0 -158 -111.5 -257t-322.5 -99zM276 -512l156 338h215l-219 -338h-152z" glyph-name="scommaaccent" horiz-adv-x="1024" unicode="ș"/><glyph d="M451 0l233 1208h-440l45 226h1136l-45 -226h-440l-233 -1208h-256zM276 -512l156 338h215l-219 -338h-152z" glyph-name="uni021A" horiz-adv-x="1198" unicode="Ț"/><glyph d="M526 0q-121 0 -192.5 76t-71.5 188q0 31 6 68l105 538h-174l43 215h174l86 287h205l-56 -287h267l-44 -215h-266l-100 -532q-2 -16 -2 -27q0 -35 24.5 -65.5t69.5 -30.5h148l-41 -215h-181zM164 -512l155 338h216l-220 -338h-151z" glyph-name="uni021B" horiz-adv-x="788" unicode="ț"/><glyph d="M440 0l99 512l-322 922h246l227 -666h10l490 666h287l-682 -922l-99 -512h-256zM543 1628l32 174h605l-33 -174h-604z" glyph-name="uni0232" horiz-adv-x="1198" unicode="Ȳ"/><glyph d="M166 -410l244 410l-230 1085h256l148 -768h10l446 768h267l-885 -1495h-256zM451 1290l32 174h604l-32 -174h-604z" glyph-name="uni0233" horiz-adv-x="1116" unicode="ȳ"/><glyph d="M821 -20q-244 0 -395.5 139t-151.5 387q0 70 17 158l41 206h-144l41 205h142l71 359h256l-71 -359h657l70 359h256l-70 -359h143l-41 -205h-141l-59 -319q-51 -274 -216 -422.5t-405 -148.5zM825 205q133 0 231.5 96t133.5 274l55 295h-657l-45 -231q-12 -61 -13 -111 q0 -152 80 -237.5t215 -85.5z" glyph-name="uni0244" horiz-adv-x="1495" unicode="Ʉ"/><glyph d="M653.5 -20q-235.5 0 -355.5 132t-120 339q0 86 25 163h780q4 123 -64.5 201t-193.5 78q-66 0 -132.5 -34t-100.5 -91h-252q61 152 192 245t318 93q215 0 343 -123t128 -348q0 -291 -166 -473t-401.5 -182zM664 195q94 0 172.5 63.5t115.5 171.5h-536q6 -102 69.5 -168.5 t178.5 -66.5z" glyph-name="uni0259" horiz-adv-x="1187" unicode="ə"/><glyph d="M608 -20q-164 0 -260 102t-96 268q0 51 10 103l51 264h-133l37 194h133l35 174h236l-35 -174h461l34 174h236l-35 -174h133l-37 -194h-133l-139 -717h-195l-4 123h-10q-55 -66 -132 -104.5t-157 -38.5zM696.5 195q96.5 0 167 62t88.5 159l58 301h-461l-51 -266 q-6 -43 -6 -58q0 -96 54 -147t150.5 -51z" glyph-name="uni0289" horiz-adv-x="1280" unicode="ʉ"/><glyph d="M272 1096l160 338h205l-211 -338h-154z" glyph-name="afii57929" horiz-adv-x="419" unicode="ʼ"/><glyph d="M301 1239l336 307h154l217 -307h-195l-111 174h-10l-176 -174h-215z" glyph-name="circumflex" horiz-adv-x="829" unicode="ˆ"/><glyph d="M575 1229l-217 307h195l111 -174h10l176 174h215l-336 -307h-154z" glyph-name="caron" horiz-adv-x="829" unicode="ˇ"/><glyph d="M674 1239q-139 0 -227.5 75t-88.5 222h185q2 -68 40 -100.5t101 -32.5q139 0 166 133h184q-29 -147 -126 -222t-234 -75z" glyph-name="breve" horiz-adv-x="798" unicode="˘"/><glyph d="M453 1260q-55 0 -88 34.5t-33 85.5q0 59 42 102.5t105 43.5q55 0 88 -35t33 -86q0 -59 -42 -102t-105 -43z" glyph-name="dotaccent" horiz-adv-x="389" unicode="˙"/><glyph d="M530 1198q-88 0 -142 51t-54 140q0 106 67.5 172.5t169.5 66.5q88 0 141.5 -50t53.5 -140q0 -106 -68 -173t-168 -67zM543 1331q41 0 65.5 24.5t24.5 67.5q0 33 -20.5 52.5t-55.5 19.5q-41 0 -65.5 -24.5t-24.5 -67.5q0 -33 21.5 -52.5t54.5 -19.5z" glyph-name="ring" horiz-adv-x="552" unicode="˚"/><glyph d="M236 -420q-106 0 -163 53.5t-57 133.5q0 172 199 233l2 20h164l-2 -20q-182 -82 -182 -197q0 -70 98 -69h51l-29 -154h-81z" glyph-name="ogonek" horiz-adv-x="460" unicode="˛"/><glyph d="M799 1260q-63 0 -138 46t-100 46q-31 0 -54.5 -22.5t-25.5 -59.5h-174q10 113 76 179.5t154 66.5q63 0 137 -46.5t98 -46.5q63 0 70 82h174q-10 -113 -70.5 -179t-146.5 -66z" glyph-name="tilde" horiz-adv-x="788" unicode="˜"/><glyph d="M301 1239l242 297h235l-293 -297h-184zM649 1239l242 297h235l-292 -297h-185z" glyph-name="hungarumlaut" horiz-adv-x="890" unicode="˝"/><glyph d="M-545 1567l242 297h235l-292 -297h-185z" glyph-name="acutecomb" horiz-adv-x="0" unicode="́"/><glyph d="M-801 1567l336 307h154l217 -307h-195l-110 174h-11l-176 -174h-215z" glyph-name="uni0302" horiz-adv-x="0" unicode="̂"/><glyph d="M-737 1628l32 174h605l-33 -174h-604z" glyph-name="uni0304" horiz-adv-x="0" unicode="̄"/><glyph d="M-426 1577q-139 0 -227 74.5t-88 222.5h184q2 -68 40 -100.5t101 -32.5q139 0 166 133h184q-29 -147 -126 -222t-234 -75z" glyph-name="uni0306" horiz-adv-x="0" unicode="̆"/><glyph d="M-428 1597q-55 0 -88 35t-33 86q0 59 42 102.5t106 43.5q55 0 87.5 -35t32.5 -86q0 -59 -42 -102.5t-105 -43.5z" glyph-name="uni0307" horiz-adv-x="0" unicode="̇"/><glyph d="M-637 1597q-55 0 -88 35t-33 86q0 59 42 102.5t106 43.5q55 0 88 -35t33 -86q0 -59 -42.5 -102.5t-105.5 -43.5zM-248 1597q-55 0 -88 35t-33 86q0 59 42 102.5t106 43.5q55 0 88 -35t33 -86q0 -59 -42.5 -102.5t-105.5 -43.5z" glyph-name="uni0308" horiz-adv-x="0" unicode="̈"/><glyph d="M-432 1536q-88 0 -142.5 51t-54.5 139q0 106 67.5 173t170.5 67q88 0 141 -50t53 -140q0 -106 -67.5 -173t-167.5 -67zM-420 1669q41 0 65.5 24.5t24.5 67.5q0 33 -20.5 52.5t-55.5 19.5q-41 0 -65.5 -24.5t-24.5 -67.5q0 -33 21.5 -52.5t54.5 -19.5z" glyph-name="uni030A" horiz-adv-x="0" unicode="̊"/><glyph d="M-526 1556l-217 308h194l111 -174h10l176 174h215l-336 -308h-153z" glyph-name="uni030C" horiz-adv-x="0" unicode="̌"/><glyph d="M-37 -512l156 338h215l-219 -338h-152z" glyph-name="uni0326" horiz-adv-x="430" unicode="̦"/><glyph d="M154 0l278 1434h942l-45 -226h-686l-74 -379h645l-40 -215h-646l-75 -389h706l-43 -225h-962zM844 1567l-178 297h235l127 -297h-184z" glyph-name="uni0400" horiz-adv-x="1218" unicode="Ѐ"/><glyph d="M154 0l278 1434h942l-45 -226h-686l-74 -379h645l-40 -215h-646l-75 -389h706l-43 -225h-962zM725 1587q-55 0 -88 35t-33 86q0 59 42 102t106 43q55 0 87.5 -34.5t32.5 -85.5q0 -59 -42 -102.5t-105 -43.5zM1114 1587q-55 0 -88 35t-33 86q0 59 42 102t106 43 q55 0 88 -34.5t33 -85.5q0 -59 -42.5 -102.5t-105.5 -43.5z" glyph-name="afii10023" horiz-adv-x="1218" unicode="Ё"/><glyph d="M338 0l233 1208h-358l45 226h963l-45 -226h-349l-61 -315q90 29 209 29q229 0 360 -111t131 -297q0 -229 -142 -371.5t-374 -142.5h-192l43 225h135q123 0 198.5 73t75.5 200q0 199 -288 198q-98 0 -199 -28l-129 -668h-256z" glyph-name="afii10051" horiz-adv-x="1443" unicode="Ђ"/><glyph d="M154 0l278 1434h860l-45 -226h-604l-233 -1208h-256zM778 1567l242 297h235l-292 -297h-185z" glyph-name="afii10052" horiz-adv-x="1075" unicode="Ѓ"/><glyph d="M834 -20q-281 0 -449 154.5t-168 438.5q0 389 208 635t525 246q258 0 403.5 -116.5t184.5 -323.5h-262q-74 215 -332 215q-152 0 -274.5 -109.5t-169.5 -300.5h538l-39 -205h-526v-20q0 -182 99.5 -285.5t267.5 -103.5q223 0 350 215h270q-84 -197 -246.5 -318.5 t-379.5 -121.5z" glyph-name="afii10053" horiz-adv-x="1443" unicode="Є"/><glyph d="M713 -20q-242 0 -395.5 105t-174.5 325h254q16 -98 101.5 -152.5t220.5 -54.5q131 0 201.5 57t70.5 152q0 76 -70.5 122t-172 74.5t-203 66.5t-172 125t-70.5 224q0 201 140.5 315.5t369.5 114.5q250 0 384 -105.5t149 -283.5h-256q-18 76 -90 120t-193 44 q-117 0 -181.5 -54.5t-64.5 -138.5q0 -68 52.5 -113.5t130 -68.5t169 -55.5t168 -71.5t128 -120t51.5 -197q-2 -180 -148.5 -305t-398.5 -125z" glyph-name="afii10054" horiz-adv-x="1259" unicode="Ѕ"/><glyph d="M154 0l278 1434h256l-278 -1434h-256z" glyph-name="afii10055" horiz-adv-x="563" unicode="І"/><glyph d="M154 0l278 1434h256l-278 -1434h-256zM397 1587q-55 0 -88 35t-33 86q0 59 42 102t106 43q55 0 88 -34.5t33 -85.5q0 -59 -42.5 -102.5t-105.5 -43.5zM786 1587q-55 0 -87.5 35t-32.5 86q0 59 42 102t105 43q55 0 88 -34.5t33 -85.5q0 -59 -42.5 -102.5t-105.5 -43.5z " glyph-name="afii10056" horiz-adv-x="563" unicode="Ї"/><glyph d="M580 -20q-211 0 -332 113.5t-123 326.5h254q2 -102 58.5 -158.5t148.5 -56.5t159.5 66.5t92.5 199.5l188 963h256l-192 -988q-45 -223 -179 -344.5t-331 -121.5z" glyph-name="afii10057" horiz-adv-x="1157" unicode="Ј"/><glyph d="M16 -20l47 251h50q111 0 179 127t136 473l117 603h942l-101 -512h273q199 0 314.5 -122t115.5 -296q0 -219 -147.5 -361.5t-372.5 -142.5h-617l234 1208h-430l-80 -424q-80 -428 -204 -616t-366 -188h-90zM1251 225h310q117 0 194.5 74t77.5 184q0 86 -59.5 149.5 t-155.5 63.5h-275z" glyph-name="afii10058" unicode="Љ"/><glyph d="M154 0l278 1434h256l-108 -553h604l108 553h256l-108 -553h291q184 0 296.5 -106.5t112.5 -282.5q0 -219 -135 -355.5t-350 -136.5h-641l127 655h-604l-127 -655h-256zM1313 225h340q100 0 165.5 67.5t65.5 178.5q0 80 -49 132t-131 52h-307z" glyph-name="afii10059" horiz-adv-x="2099" unicode="Њ"/><glyph d="M338 0l233 1208h-358l45 226h963l-45 -226h-349l-61 -315q104 29 215 29q221 0 337 -104.5t116 -299.5q0 -39 -19 -135l-74 -383h-256l80 408q10 47 11 88q0 109 -62.5 154.5t-189.5 45.5q-100 0 -201 -28l-129 -668h-256z" glyph-name="afii10060" horiz-adv-x="1454" unicode="Ћ"/><glyph d="M154 0l278 1434h256l-129 -656l692 656h312l-756 -721l483 -713h-286l-463 676l-131 -676h-256zM870 1567l242 297h236l-293 -297h-185z" glyph-name="afii10061" horiz-adv-x="1228" unicode="Ќ"/><glyph d="M154 0l278 1434h256l-203 -1049h11l817 1049h338l-279 -1434h-256l203 1049h-10l-817 -1049h-338zM956 1567l-178 297h236l127 -297h-185z" glyph-name="uni040D" horiz-adv-x="1525" unicode="Ѝ"/><glyph d="M250 0l252 395l-275 1039h260l195 -738h10l471 738h283l-914 -1434h-282zM858 1567q-139 0 -227 74.5t-88 222.5h184q2 -68 40 -100.5t101 -32.5q139 0 166 133h185q-29 -147 -126.5 -222t-234.5 -75z" glyph-name="afii10062" horiz-adv-x="1187" unicode="Ў"/><glyph d="M545 -297l59 297h-450l278 1434h256l-235 -1209h624l236 1209h256l-279 -1434h-450l-60 -297h-235z" glyph-name="afii10145" horiz-adv-x="1443" unicode="Џ"/><glyph d="M10 0l801 1434h317l244 -1434h-256l-51 307h-608l-170 -307h-277zM580 532h448l-100 615h-10z" glyph-name="afii10017" horiz-adv-x="1341" unicode="А"/><glyph d="M154 0l278 1434h963l-45 -226h-707l-59 -307h307q186 0 302 -111.5t116 -287.5q0 -219 -144.5 -360.5t-355.5 -141.5h-655zM453 225h348q117 0 184.5 68.5t67.5 177.5q0 90 -57.5 147.5t-155.5 57.5h-299z" glyph-name="afii10018" horiz-adv-x="1300" unicode="Б"/><glyph d="M154 0l278 1434h651q172 0 266.5 -98.5t94.5 -252.5q0 -137 -70.5 -236t-179.5 -140q147 -94 147 -277q0 -195 -122.5 -312.5t-321.5 -117.5h-743zM453 225h424q96 0 152 59.5t56 161.5q0 72 -44 120t-121 48h-392zM567 819h396q96 0 155.5 58.5t59.5 160.5q0 76 -43 123 t-121 47h-371z" glyph-name="afii10019" horiz-adv-x="1351" unicode="В"/><glyph d="M154 0l278 1434h860l-45 -226h-604l-233 -1208h-256z" glyph-name="afii10020" horiz-adv-x="1075" unicode="Г"/><glyph d="M-47 -297l100 522h123q94 117 149.5 269.5t100.5 386.5l109 553h972l-235 -1209h174l-103 -522h-235l59 297h-921l-60 -297h-233zM432 225h584l190 983h-461l-63 -327q-86 -449 -250 -656z" glyph-name="afii10021" horiz-adv-x="1454" unicode="Д"/><glyph d="M154 0l278 1434h942l-45 -226h-686l-74 -379h645l-40 -215h-646l-75 -389h706l-43 -225h-962z" glyph-name="afii10022" horiz-adv-x="1218" unicode="Е"/><glyph d="M-88 0l731 756l-381 678h273l362 -656l129 656h256l-129 -656l621 656h299l-682 -721l413 -713h-278l-391 676l-131 -676h-256l131 676l-654 -676h-313z" glyph-name="afii10024" horiz-adv-x="1761" unicode="Ж"/><glyph d="M709 -20q-244 0 -405 106.5t-161 323.5h258q8 -102 97.5 -153.5t218.5 -51.5q133 0 203.5 57t70.5 158q0 84 -66.5 139t-187.5 55h-137l41 215h190q127 0 191.5 56.5t64.5 146.5q0 86 -73.5 142.5t-202.5 56.5q-102 0 -176 -54.5t-103 -152.5h-258q49 199 186.5 315.5 t352.5 116.5q262 0 399.5 -109.5t137.5 -279.5q0 -143 -81 -238.5t-200 -121.5q174 -90 174 -295q0 -180 -141 -306t-393 -126z" glyph-name="afii10025" horiz-adv-x="1259" unicode="З"/><glyph d="M154 0l278 1434h256l-203 -1049h11l817 1049h338l-279 -1434h-256l203 1049h-10l-817 -1049h-338z" glyph-name="afii10026" horiz-adv-x="1525" unicode="И"/><glyph d="M154 0l278 1434h256l-203 -1049h11l817 1049h338l-279 -1434h-256l203 1049h-10l-817 -1049h-338zM1063 1567q-139 0 -227 74.5t-88 222.5h184q2 -68 40 -100.5t101 -32.5q139 0 166 133h184q-29 -147 -126 -222t-234 -75z" glyph-name="afii10027" horiz-adv-x="1525" unicode="Й"/><glyph d="M154 0l278 1434h256l-129 -656l692 656h312l-756 -721l483 -713h-286l-463 676l-131 -676h-256z" glyph-name="afii10028" horiz-adv-x="1228" unicode="К"/><glyph d="M16 -20l47 251h50q111 0 179 127t136 473l117 603h983l-279 -1434h-256l234 1208h-471l-80 -424q-80 -428 -204 -616t-366 -188h-90z" glyph-name="afii10029" horiz-adv-x="1402" unicode="Л"/><glyph d="M154 0l278 1434h369l170 -1065h10l588 1065h389l-279 -1434h-256l211 1096h-10l-600 -1096h-215l-178 1096h-10l-211 -1096h-256z" glyph-name="afii10030" horiz-adv-x="1832" unicode="М"/><glyph d="M154 0l278 1434h256l-117 -594h646l116 594h256l-278 -1434h-256l119 614h-646l-118 -614h-256z" glyph-name="afii10031" horiz-adv-x="1464" unicode="Н"/><glyph d="M840 -20q-293 0 -458 157.5t-165 435.5q0 238 86 436.5t256 321.5t393 123q293 0 458 -157.5t165 -436.5q0 -238 -86 -436.5t-256 -321t-393 -122.5zM848 205q199 0 335 174t136 461q0 184 -98.5 286.5t-276.5 102.5q-199 0 -335 -174t-136 -461q0 -184 98.5 -286.5 t276.5 -102.5z" glyph-name="afii10032" horiz-adv-x="1515" unicode="О"/><glyph d="M154 0l278 1434h1137l-279 -1434h-256l234 1208h-625l-233 -1208h-256z" glyph-name="afii10033" horiz-adv-x="1443" unicode="П"/><glyph d="M154 0l278 1434h569q180 0 294 -125t114 -301q0 -227 -152.5 -371.5t-373.5 -144.5h-379l-94 -492h-256zM549 717h338q121 0 194.5 76.5t73.5 203.5q0 92 -57.5 151.5t-157.5 59.5h-297z" glyph-name="afii10034" horiz-adv-x="1320" unicode="Р"/><glyph d="M834 -20q-281 0 -449 154.5t-168 438.5q0 389 208 635t525 246q258 0 403.5 -116.5t184.5 -323.5h-262q-74 215 -332 215q-195 0 -333 -173t-138 -462q0 -182 99.5 -285.5t267.5 -103.5q223 0 350 215h270q-84 -197 -246.5 -318.5t-379.5 -121.5z" glyph-name="afii10035" horiz-adv-x="1443" unicode="С"/><glyph d="M451 0l233 1208h-440l45 226h1136l-45 -226h-440l-233 -1208h-256z" glyph-name="afii10036" horiz-adv-x="1198" unicode="Т"/><glyph d="M250 0l252 395l-275 1039h260l195 -738h10l471 738h283l-914 -1434h-282z" glyph-name="afii10037" horiz-adv-x="1187" unicode="У"/><glyph d="M723 -20l31 163q-260 27 -401.5 170.5t-141.5 360.5q0 279 192.5 458t497.5 179h80l29 143h256l-29 -143q260 -27 401.5 -170.5t141.5 -360.5q0 -279 -192.5 -458t-497.5 -179h-80l-31 -163h-256zM797 369l141 716h-57q-199 0 -306.5 -114.5t-107.5 -286.5 q0 -133 83 -217t247 -98zM1053 369h57q199 0 306.5 114.5t107.5 286.5q0 133 -83 217t-247 98z" glyph-name="afii10038" horiz-adv-x="1710" unicode="Ф"/><glyph d="M-31 0l623 737l-324 697h269l235 -523l440 523h306l-598 -697l340 -737h-269l-250 563l-467 -563h-305z" glyph-name="afii10039" horiz-adv-x="1228" unicode="Х"/><glyph d="M1169 -297l60 297h-1075l278 1434h256l-235 -1209h624l236 1209h256l-236 -1209h174l-102 -522h-236z" glyph-name="afii10040" horiz-adv-x="1515" unicode="Ц"/><glyph d="M963 0l92 481q-92 -41 -246 -41q-250 0 -383 115t-133 317q0 72 12 127l86 435h256l-86 -441q-8 -57 -8 -80q0 -248 321 -247q106 0 226 36l141 732h256l-278 -1434h-256z" glyph-name="afii10041" horiz-adv-x="1372" unicode="Ч"/><glyph d="M154 0l278 1434h256l-235 -1209h450l236 1209h256l-236 -1209h451l235 1209h256l-278 -1434h-1669z" glyph-name="afii10042" horiz-adv-x="1976" unicode="Ш"/><glyph d="M1702 -297l59 297h-1607l278 1434h256l-235 -1209h450l236 1209h256l-236 -1209h451l235 1209h256l-235 -1209h174l-103 -522h-235z" glyph-name="afii10043" unicode="Щ"/><glyph d="M328 0l233 1208h-328l46 226h583l-100 -512h293q190 0 310 -118t120 -300q0 -219 -147.5 -361.5t-372.5 -142.5h-637zM627 225h329q117 0 195 74t78 184q0 86 -59.5 149.5t-155.5 63.5h-295z" glyph-name="afii10044" horiz-adv-x="1443" unicode="Ъ"/><glyph d="M154 0l278 1434h256l-100 -512h272q190 0 310 -118t120 -300q0 -219 -147.5 -361.5t-372.5 -142.5h-616zM453 225h309q117 0 194.5 74t77.5 184q0 86 -59.5 149.5t-155.5 63.5h-274zM1352 0l278 1434h256l-278 -1434h-256z" glyph-name="afii10045" horiz-adv-x="1761" unicode="Ы"/><glyph d="M154 0l278 1434h256l-100 -512h293q190 0 310 -118t120 -300q0 -219 -147.5 -361.5t-372.5 -142.5h-637zM453 225h329q117 0 195 74t78 184q0 86 -59.5 149.5t-155.5 63.5h-295z" glyph-name="afii10046" horiz-adv-x="1269" unicode="Ь"/><glyph d="M760 -20q-258 0 -403.5 116.5t-184.5 323.5h262q74 -215 332 -215q152 0 274.5 108.5t169.5 300.5h-538l39 205h526v21q0 182 -99.5 285.5t-267.5 103.5q-223 0 -350 -215h-270q84 197 246.5 318.5t380.5 121.5q281 0 448.5 -154.5t167.5 -439.5q0 -389 -208 -634.5 t-525 -245.5z" glyph-name="afii10047" horiz-adv-x="1433" unicode="Э"/><glyph d="M1321 -20q-262 0 -419 160.5t-157 443.5v20h-219l-116 -604h-256l278 1434h256l-119 -605h199q59 295 250.5 460t443.5 165q262 0 419 -160.5t157 -443.5q0 -403 -207 -636.5t-510 -233.5zM1333 205q184 0 316.5 166t132.5 465q0 190 -90 291.5t-242 101.5 q-184 0 -316.5 -166t-132.5 -465q0 -190 90 -291.5t242 -101.5z" glyph-name="afii10048" horiz-adv-x="1976" unicode="Ю"/><glyph d="M61 0l512 553q-25 6 -57.5 20.5t-73.5 46t-73.5 72.5t-56 104.5t-23.5 139.5q0 219 144.5 358.5t367.5 139.5h645l-279 -1434h-256l103 532h-148l-491 -532h-314zM758 758h299l88 450h-354q-109 0 -177.5 -68.5t-68.5 -187.5q0 -86 57.5 -140t155.5 -54z" glyph-name="afii10049" horiz-adv-x="1320" unicode="Я"/><glyph d="M477 -20q-141 0 -241.5 82.5t-100.5 226.5q0 154 113.5 260t302.5 106h340l6 31q4 20 4 41q0 78 -54 126t-149 48q-139 0 -200 -123h-248q49 141 175 234.5t284 93.5q215 0 321.5 -100.5t106.5 -266.5q0 -43 -11 -84l-127 -655h-204l4 113h-11q-106 -133 -311 -133z M561 184q111 0 183.5 57.5t93.5 153.5l16 76h-305q-86 0 -132 -42t-46 -107q0 -63 49 -100.5t141 -37.5z" glyph-name="afii10065" horiz-adv-x="1126" unicode="а"/><glyph d="M668 -20q-227 0 -352.5 119.5t-125.5 361.5q0 76 25 194q162 780 647 781q283 0 459 65l-43 -225q-172 -57 -404 -57q-281 0 -387 -312h11q111 106 280 107q201 0 320 -115t119 -326q0 -264 -155.5 -428.5t-393.5 -164.5zM664 195q137 0 227 102t90 256 q0 119 -63.5 187.5t-184.5 68.5q-137 0 -227 -102.5t-90 -255.5q0 -119 63.5 -187.5t184.5 -68.5z" glyph-name="afii10066" horiz-adv-x="1198" unicode="б"/><glyph d="M133 0l211 1085h516q123 0 203 -72.5t80 -183.5q0 -199 -191 -286q55 -29 91 -84.5t36 -120.5q0 -160 -97 -249t-265 -89h-584zM408 205h288q70 0 109 35.5t39 97.5q0 113 -137 113h-252zM496 655h282q59 0 94 34t35 89q0 47 -33.5 75t-95.5 28h-239z" glyph-name="afii10067" horiz-adv-x="1085" unicode="в"/><glyph d="M133 0l211 1085h707l-43 -215h-471l-168 -870h-236z" glyph-name="afii10068" horiz-adv-x="890" unicode="г"/><glyph d="M-37 -246l88 461h105q119 152 174 430l86 440h809l-170 -870h133l-90 -461h-226l50 246h-686l-50 -246h-223zM389 215h430l127 655h-338l-43 -225q-55 -274 -176 -430z" glyph-name="afii10069" horiz-adv-x="1187" unicode="д"/><glyph d="M649 -20q-215 0 -343 122.5t-128 348.5q0 291 166 473t401.5 182t355.5 -132t120 -339q0 -86 -25 -164h-780q-4 -123 64.5 -200.5t193.5 -77.5q66 0 132 33.5t101 90.5h252q-61 -152 -192.5 -244.5t-317.5 -92.5zM446 655h537q-6 102 -69.5 169t-178.5 67 q-94 0 -173 -63.5t-116 -172.5z" glyph-name="afii10070" horiz-adv-x="1187" unicode="е"/><glyph d="M-86 0l584 578l-303 507h272l285 -481l94 481h235l-94 -481l473 481h307l-546 -553l333 -532h-274l-313 502l-97 -502h-235l96 502l-506 -502h-311z" glyph-name="afii10072" horiz-adv-x="1525" unicode="ж"/><glyph d="M582 -20q-188 0 -317.5 78.5t-145.5 258.5h246q8 -57 65 -89.5t152 -32.5q96 0 146 33.5t50 93.5q0 49 -44 83.5t-130 34.5h-110l41 205h143q166 0 166 127q0 119 -193 119q-147 0 -186 -123h-248q39 158 152.5 248t306.5 90q199 0 309.5 -90t110.5 -221 q0 -106 -63.5 -172t-153.5 -91q139 -84 139 -235q0 -137 -114.5 -227t-321.5 -90z" glyph-name="afii10073" horiz-adv-x="1034" unicode="з"/><glyph d="M133 0l211 1085h236l-142 -725h11l581 725h277l-211 -1085h-236l139 725h-10l-579 -725h-277z" glyph-name="afii10074" horiz-adv-x="1228" unicode="и"/><glyph d="M133 0l211 1085h236l-142 -725h11l581 725h277l-211 -1085h-236l139 725h-10l-579 -725h-277zM848 1239q-133 0 -214 71.5t-81 225.5h184q2 -133 121 -133t146 133h184q-57 -297 -340 -297z" glyph-name="afii10075" horiz-adv-x="1228" unicode="й"/><glyph d="M133 0l211 1085h236l-97 -491l537 491h305l-604 -548l393 -537h-274l-373 512l-98 -512h-236z" glyph-name="afii10076" horiz-adv-x="1064" unicode="к"/><glyph d="M16 -20l45 235h52q82 0 132 95.5t95 330.5l86 444h809l-211 -1085h-236l168 870h-338l-51 -272q-57 -313 -164.5 -465.5t-300.5 -152.5h-86z" glyph-name="afii10077" horiz-adv-x="1157" unicode="л"/><glyph d="M133 0l211 1085h324l123 -737h10l409 737h353l-211 -1085h-236l144 748h-11l-420 -748h-174l-133 748h-10l-143 -748h-236z" glyph-name="afii10078" horiz-adv-x="1484" unicode="м"/><glyph d="M133 0l211 1085h236l-84 -430h450l84 430h236l-211 -1085h-236l82 430h-450l-82 -430h-236z" glyph-name="afii10079" horiz-adv-x="1187" unicode="н"/><glyph d="M653 -20q-221 0 -348 123.5t-127 336.5q0 295 163 480.5t404 185.5q221 0 348.5 -124t127.5 -337q0 -295 -163 -480t-405 -185zM662 195q131 0 226 112.5t95 317.5q0 127 -67.5 196.5t-178.5 69.5q-131 0 -226 -112.5t-95 -317.5q0 -127 67.5 -196.5t178.5 -69.5z" glyph-name="afii10080" horiz-adv-x="1187" unicode="о"/><glyph d="M133 0l211 1085h922l-211 -1085h-236l168 870h-450l-168 -870h-236z" glyph-name="afii10081" horiz-adv-x="1187" unicode="п"/><glyph d="M53 -410l291 1495h195l4 -122h10q41 55 121 99t182 44q186 0 301 -117t115 -323q0 -311 -154.5 -498.5t-380.5 -187.5q-109 0 -196.5 41.5t-134.5 111.5h-11l-106 -543h-236zM715 195q131 0 226 115.5t95 314.5q0 131 -67.5 198.5t-177.5 67.5q-131 0 -226.5 -116 t-95.5 -314q0 -131 67.5 -198.5t178.5 -67.5z" glyph-name="afii10082" horiz-adv-x="1239" unicode="р"/><glyph d="M653 -20q-223 0 -349 124.5t-126 350.5q0 281 163 466t404 185q201 0 321 -101.5t144 -256.5h-239q-59 143 -236 143q-131 0 -226 -114.5t-95 -307.5q0 -131 66.5 -202.5t189.5 -71.5q152 0 250 143h233q-47 -145 -187.5 -251.5t-312.5 -106.5z" glyph-name="afii10083" horiz-adv-x="1146" unicode="с"/><glyph d="M348 0l168 870h-348l43 215h932l-43 -215h-348l-168 -870h-236z" glyph-name="afii10084" horiz-adv-x="962" unicode="т"/><glyph d="M166 -410l244 410l-230 1085h256l148 -768h10l446 768h267l-885 -1495h-256z" glyph-name="afii10085" horiz-adv-x="1116" unicode="у"/><glyph d="M543 -410l80 410q-213 23 -331 149.5t-118 321.5q0 260 168 437t444 177h48l75 390h236l-76 -390q213 -23 331 -149.5t118 -321.5q0 -260 -168 -437t-445 -177h-47l-80 -410h-235zM666 215l127 655h-21q-166 0 -265 -106.5t-99 -271.5q0 -119 65.5 -194t192.5 -83z M899 215h21q166 0 265 106.5t99 272.5q0 119 -65.5 193.5t-192.5 82.5z" glyph-name="afii10086" horiz-adv-x="1484" unicode="ф"/><glyph d="M-20 0l466 563l-235 522h248l155 -358l295 358h285l-440 -522l250 -563h-248l-170 399l-322 -399h-284z" glyph-name="afii10087" horiz-adv-x="993" unicode="х"/><glyph d="M903 -246l49 246h-819l211 1085h236l-170 -870h440l170 870h235l-170 -870h134l-91 -461h-225z" glyph-name="afii10088" horiz-adv-x="1218" unicode="ц"/><glyph d="M748 0l65 340q-88 -23 -178 -23q-201 0 -303.5 92.5t-102.5 245.5q0 53 11 101l63 329h236l-64 -333q-6 -27 -6 -56q0 -164 248 -164q72 0 137 23l104 530h236l-211 -1085h-235z" glyph-name="afii10089" horiz-adv-x="1116" unicode="ч"/><glyph d="M133 0l211 1085h236l-170 -870h327l170 870h236l-170 -870h327l170 870h236l-211 -1085h-1362z" glyph-name="afii10090" horiz-adv-x="1628" unicode="ш"/><glyph d="M1354 -246l49 246h-1270l211 1085h236l-170 -870h327l170 870h236l-170 -870h327l170 870h236l-170 -870h133l-90 -461h-225z" glyph-name="afii10091" horiz-adv-x="1669" unicode="щ"/><glyph d="M256 0l168 870h-256l43 215h491l-71 -368h229q137 0 227.5 -87t90.5 -220q0 -180 -117 -295t-283 -115h-522zM532 215h248q70 0 116 43t46 119q0 55 -37 90t-98 35h-219z" glyph-name="afii10092" horiz-adv-x="1146" unicode="ъ"/><glyph d="M133 0l211 1085h236l-72 -368h209q137 0 227 -87t90 -220q0 -180 -116.5 -295t-282.5 -115h-502zM410 215h227q70 0 116 43t46 119q0 55 -37 90t-98 35h-199zM1085 0l211 1085h236l-211 -1085h-236z" glyph-name="afii10093" horiz-adv-x="1454" unicode="ы"/><glyph d="M133 0l211 1085h236l-72 -368h229q137 0 227.5 -87t90.5 -220q0 -180 -117 -295t-283 -115h-522zM410 215h247q70 0 116 43t46 119q0 55 -37 90t-98 35h-219z" glyph-name="afii10094" horiz-adv-x="1024" unicode="ь"/><glyph d="M602 -20q-201 0 -320.5 101t-144.5 257h240q59 -143 235 -143q96 0 178 65.5t119 179.5h-372l41 205h356q-8 119 -73.5 182.5t-182.5 63.5q-152 0 -250 -143h-233q47 145 187 251.5t312 106.5q223 0 349 -125t126 -350q0 -281 -162.5 -466t-404.5 -185z" glyph-name="afii10095" horiz-adv-x="1136" unicode="э"/><glyph d="M1063 -20q-209 0 -335 126.5t-126 323.5h-151l-82 -430h-236l211 1085h236l-86 -440h133q55 211 195.5 336t336.5 125q213 0 337 -128t124 -329q0 -295 -160.5 -482t-396.5 -187zM1071 195q131 0 222 115.5t91 312.5q0 117 -64.5 192.5t-168.5 75.5q-131 0 -222 -116 t-91 -312q0 -117 64.5 -192.5t168.5 -75.5z" glyph-name="afii10096" horiz-adv-x="1587" unicode="ю"/><glyph d="M51 0l348 399q-80 29 -130 109t-50 184q0 170 115 281.5t280 111.5h549l-211 -1085h-235l69 369h-131l-323 -369h-281zM584 584h245l56 286h-269q-74 0 -117.5 -46t-43.5 -115q0 -53 34 -89t95 -36z" glyph-name="afii10097" horiz-adv-x="1085" unicode="я"/><glyph d="M649 -20q-215 0 -343 122.5t-128 348.5q0 291 166 473t401.5 182t355.5 -132t120 -339q0 -86 -25 -164h-780q-4 -123 64.5 -200.5t193.5 -77.5q66 0 132 33.5t101 90.5h252q-61 -152 -192.5 -244.5t-317.5 -92.5zM446 655h537q-6 102 -69.5 169t-178.5 67 q-94 0 -173 -63.5t-116 -172.5zM700 1239l-178 297h236l127 -297h-185z" glyph-name="uni0450" horiz-adv-x="1187" unicode="ѐ"/><glyph d="M649 -20q-215 0 -343 122.5t-128 348.5q0 291 166 473t401.5 182t355.5 -132t120 -339q0 -86 -25 -164h-780q-4 -123 64.5 -200.5t193.5 -77.5q66 0 132 33.5t101 90.5h252q-61 -152 -192.5 -244.5t-317.5 -92.5zM446 655h537q-6 102 -69.5 169t-178.5 67 q-94 0 -173 -63.5t-116 -172.5zM623 1260q-55 0 -88 34.5t-33 85.5q0 59 42 102.5t105 43.5q55 0 88 -35t33 -86q0 -59 -42 -102t-105 -43zM1012 1260q-55 0 -88 34.5t-33 85.5q0 59 42 102.5t105 43.5q55 0 88 -35t33 -86q0 -59 -42 -102t-105 -43z" glyph-name="afii10071" horiz-adv-x="1187" unicode="ё"/><glyph d="M494 -410l38 205h164q53 0 90 34t48 91l110 572q6 43 6 57q0 96 -54 147.5t-150.5 51.5t-167 -62.5t-89.5 -159.5l-100 -526h-235l213 1096h-156l39 194h153l29 144h236l-29 -144h276l-38 -194h-277l-51 -267h10q49 57 123 95.5t152 38.5q164 0 260 -102.5t96 -268.5 q0 -51 -10 -103l-121 -622q-55 -276 -328 -277h-237z" glyph-name="afii10099" horiz-adv-x="1208" unicode="ђ"/><glyph d="M133 0l211 1085h707l-43 -215h-471l-168 -870h-236zM625 1239l241 297h236l-293 -297h-184z" glyph-name="afii10100" horiz-adv-x="890" unicode="ѓ"/><glyph d="M653 -20q-223 0 -349 124.5t-126 350.5q0 281 163 466t404 185q201 0 321 -101.5t144 -256.5h-239q-59 143 -236 143q-96 0 -178 -65.5t-119 -180.5h373l-41 -205h-356q8 -119 73.5 -182t182.5 -63q152 0 250 143h233q-47 -145 -187.5 -251.5t-312.5 -106.5z" glyph-name="afii10101" horiz-adv-x="1146" unicode="є"/><glyph d="M580 -20q-186 0 -315.5 81.5t-153.5 255.5h251q31 -123 234 -122q172 0 172 110q0 51 -55.5 83t-134 52.5t-158.5 49t-135.5 95t-55.5 171.5q0 152 110 251t300 99q205 0 314.5 -88t129.5 -230h-256q-35 102 -206 103q-70 0 -108 -28.5t-38 -76.5q0 -51 55.5 -82.5 t135 -53t158.5 -50.5t134.5 -95.5t55.5 -168.5q0 -158 -111.5 -257t-322.5 -99z" glyph-name="afii10102" horiz-adv-x="1024" unicode="ѕ"/><glyph d="M133 0l211 1085h236l-211 -1085h-236zM498 1208q-61 0 -98.5 37t-37.5 94q0 66 46.5 111t115.5 45q61 0 99.5 -37t38.5 -94q0 -66 -47 -111t-117 -45z" glyph-name="afii10103" horiz-adv-x="501" unicode="і"/><glyph d="M133 0l211 1085h236l-211 -1085h-236zM305 1260q-55 0 -88 34.5t-33 85.5q0 59 42 102.5t106 43.5q55 0 88 -35t33 -86q0 -59 -42.5 -102t-105.5 -43zM694 1260q-55 0 -88 34.5t-33 85.5q0 59 42 102.5t106 43.5q55 0 88 -35t33 -86q0 -59 -42.5 -102t-105.5 -43z" glyph-name="afii10104" horiz-adv-x="501" unicode="ї"/><glyph d="M-221 -410l39 205h174q43 0 77.5 29t43.5 76l231 1185h236l-238 -1228q-53 -266 -317 -267h-246zM498 1208q-61 0 -98.5 37t-37.5 94q0 66 46.5 111t115.5 45q61 0 99.5 -37t38.5 -94q0 -66 -47 -111t-117 -45z" glyph-name="afii10105" horiz-adv-x="501" unicode="ј"/><glyph d="M16 -20l45 235h52q82 0 132 95.5t95 330.5l86 444h788l-71 -368h229q137 0 227.5 -87t90.5 -220q0 -180 -117 -295t-283 -115h-522l168 870h-318l-51 -272q-57 -313 -164.5 -465.5t-300.5 -152.5h-86zM1044 215h248q70 0 116 43t46 119q0 55 -37 90t-98 35h-219z" glyph-name="afii10106" horiz-adv-x="1658" unicode="љ"/><glyph d="M133 0l211 1085h236l-80 -409h430l80 409h235l-80 -409h238q131 0 219 -84t88 -213q0 -168 -103.5 -273.5t-265.5 -105.5h-542l88 461h-430l-88 -461h-236zM1075 215h256q66 0 105 37t39 104q0 47 -33 76t-92 29h-228z" glyph-name="afii10107" horiz-adv-x="1679" unicode="њ"/><glyph d="M154 0l213 1096h-156l39 194h153l29 144h236l-29 -144h276l-38 -194h-277l-51 -267h10q49 57 123 95.5t152 38.5q164 0 260 -102.5t96 -268.5q0 -51 -10 -103l-95 -489h-235l94 492q6 43 6 57q0 96 -54 147.5t-150.5 51.5t-167 -62.5t-89.5 -159.5l-100 -526h-235z" glyph-name="afii10108" horiz-adv-x="1208" unicode="ћ"/><glyph d="M133 0l211 1085h236l-97 -491l537 491h305l-604 -548l393 -537h-274l-373 512l-98 -512h-236zM707 1239l241 297h236l-293 -297h-184z" glyph-name="afii10109" horiz-adv-x="1064" unicode="ќ"/><glyph d="M133 0l211 1085h236l-142 -725h11l581 725h277l-211 -1085h-236l139 725h-10l-579 -725h-277zM752 1239l-179 297h236l127 -297h-184z" glyph-name="uni045D" horiz-adv-x="1228" unicode="ѝ"/><glyph d="M166 -410l244 410l-230 1085h256l148 -768h10l446 768h267l-885 -1495h-256zM756 1239q-133 0 -214 71.5t-81 225.5h184q2 -133 121 -133t145 133h185q-57 -297 -340 -297z" glyph-name="afii10110" horiz-adv-x="1116" unicode="ў"/><glyph d="M432 -246l49 246h-348l211 1085h236l-170 -870h450l170 870h236l-211 -1085h-348l-50 -246h-225z" glyph-name="afii10193" horiz-adv-x="1187" unicode="џ"/><glyph d="M154 0l278 1434h615l55 286h246l-101 -512h-604l-233 -1208h-256z" glyph-name="afii10050" horiz-adv-x="1075" unicode="Ґ"/><glyph d="M133 0l211 1085h481l47 246h226l-90 -461h-471l-168 -870h-236z" glyph-name="afii10098" horiz-adv-x="890" unicode="ґ"/><glyph d="M215 0l111 573h-185l43 226h185l125 635h921l-45 -226h-665l-80 -409h389l-43 -226h-389l-111 -573h-256z" glyph-name="uni0492" horiz-adv-x="1198" unicode="Ғ"/><glyph d="M164 0l76 399h-154l41 205h154l94 481h696l-43 -215h-461l-51 -266h318l-41 -205h-318l-76 -399h-235z" glyph-name="uni0493" horiz-adv-x="911" unicode="ғ"/><glyph d="M610 -276l45 225h41q147 0 247.5 96t100.5 264q0 131 -79.5 204t-227.5 73q-63 0 -119.5 -14.5t-80.5 -28.5l-27 -15l-100 -528h-256l278 1434h914l-46 -226h-657l-88 -446q96 47 240 47q242 0 373.5 -123t131.5 -328q0 -295 -169.5 -464.5t-444.5 -169.5h-76z" glyph-name="uni0494" horiz-adv-x="1280" unicode="Ҕ"/><glyph d="M483 -410l41 215h29q111 0 180.5 96.5t69.5 266.5q0 211 -205 211q-43 0 -84 -11.5t-61 -23.5l-21 -10l-63 -334h-236l211 1085h707l-43 -215h-471l-60 -309q57 33 160 33q184 0 294.5 -107.5t110.5 -304.5q0 -274 -140 -433t-359 -159h-60z" glyph-name="uni0495" horiz-adv-x="1044" unicode="ҕ"/><glyph d="M1538 -297l59 297h-71l-391 676l-131 -676h-256l131 676l-654 -676h-313l731 756l-381 678h273l362 -656l129 656h256l-129 -656l621 656h299l-682 -721l282 -488h203l-102 -522h-236z" glyph-name="uni0496" horiz-adv-x="1781" unicode="Җ"/><glyph d="M1292 -246l49 246h-61l-313 502l-97 -502h-235l96 502l-506 -502h-311l584 578l-303 507h272l285 -481l94 481h235l-94 -481l473 481h307l-546 -553l198 -317h189l-90 -461h-226z" glyph-name="uni0497" horiz-adv-x="1536" unicode="җ"/><glyph d="M1016 -297l59 297h-71l-463 676l-131 -676h-256l278 1434h256l-129 -656l692 656h312l-756 -721l330 -488h217l-103 -522h-235z" glyph-name="uni049A" horiz-adv-x="1239" unicode="Қ"/><glyph d="M852 -246l49 246h-61l-373 512l-98 -512h-236l211 1085h236l-97 -491l537 491h305l-604 -548l235 -322h211l-90 -461h-225z" glyph-name="uni049B" horiz-adv-x="1075" unicode="қ"/><glyph d="M154 0l278 1434h256l-119 -605h72l43 215h154l-43 -215h41l487 605h297l-588 -721l314 -713h-271l-270 614h-51l-43 -215h-154l43 215h-72l-118 -614h-256z" glyph-name="uni049C" horiz-adv-x="1320" unicode="Ҝ"/><glyph d="M133 0l211 1085h236l-84 -430h51l28 154h144l-29 -154h31l340 430h278l-434 -546l236 -539h-271l-190 451h-31l-28 -154h-144l29 154h-51l-86 -451h-236z" glyph-name="uni049D" horiz-adv-x="1126" unicode="ҝ"/><glyph d="M1190 -297l59 297h-194l119 614h-646l-118 -614h-256l278 1434h256l-117 -594h646l116 594h256l-235 -1209h174l-103 -522h-235z" glyph-name="uni04A2" horiz-adv-x="1536" unicode="Ң"/><glyph d="M913 -246l50 246h-144l82 430h-450l-82 -430h-236l211 1085h236l-84 -430h450l84 430h236l-170 -870h133l-90 -461h-226z" glyph-name="uni04A3" horiz-adv-x="1228" unicode="ң"/><glyph d="M616 -297l56 291q-213 41 -334 189.5t-121 389.5q0 389 208 635t525 246q258 0 403.5 -116.5t184.5 -323.5h-262q-74 215 -332 215q-195 0 -333 -173t-138 -462q0 -182 99.5 -285.5t267.5 -103.5q223 0 350 215h270q-78 -178 -221 -297t-334 -139l-53 -281h-236z" glyph-name="uni04AA" horiz-adv-x="1443" unicode="Ҫ"/><glyph d="M483 -246l45 238q-168 33 -259 152.5t-91 310.5q0 281 163 466t404 185q201 0 321 -101.5t144 -256.5h-239q-59 143 -236 143q-131 0 -226 -114.5t-95 -307.5q0 -131 66.5 -202.5t189.5 -71.5q152 0 250 143h233q-39 -123 -147.5 -220.5t-249.5 -125.5l-47 -238h-226z " glyph-name="uni04AB" horiz-adv-x="1146" unicode="ҫ"/><glyph d="M440 0l99 512l-322 922h246l227 -666h10l490 666h287l-682 -922l-99 -512h-256z" glyph-name="uni04AE" horiz-adv-x="1198" unicode="Ү"/><glyph d="M330 -410l80 410h-31l-189 1085h244l125 -829h10l449 829h268l-610 -1085h-31l-80 -410h-235z" glyph-name="uni04AF" horiz-adv-x="1095" unicode="ү"/><glyph d="M440 0l95 492h-318l45 225h205l-250 717h246l227 -666h10l490 666h287l-529 -717h205l-45 -225h-317l-95 -492h-256z" glyph-name="uni04B0" horiz-adv-x="1198" unicode="Ұ"/><glyph d="M330 -410l80 410h-246l41 215h135l-150 870h244l125 -829h10l449 829h268l-491 -870h137l-41 -215h-246l-80 -410h-235z" glyph-name="uni04B1" horiz-adv-x="1095" unicode="ұ"/><glyph d="M975 -297l59 297h-43l-250 563l-467 -563h-305l623 737l-324 697h269l235 -523l440 523h306l-598 -697l235 -512h158l-103 -522h-235z" glyph-name="uni04B2" horiz-adv-x="1249" unicode="Ҳ"/><glyph d="M750 -246l49 246h-43l-170 399l-322 -399h-284l466 563l-235 522h248l155 -358l295 358h285l-440 -522l153 -348h158l-90 -461h-225z" glyph-name="uni04B3" horiz-adv-x="1024" unicode="ҳ"/><glyph d="M1098 -297l59 297h-194l92 481q-92 -41 -246 -41q-250 0 -383 115t-133 317q0 72 12 127l86 435h256l-86 -441q-8 -57 -8 -80q0 -248 321 -247q106 0 226 36l141 732h256l-235 -1209h174l-103 -522h-235z" glyph-name="uni04B6" horiz-adv-x="1443" unicode="Ҷ"/><glyph d="M842 -246l49 246h-143l65 340q-88 -23 -178 -23q-201 0 -303.5 92.5t-102.5 245.5q0 53 11 101l63 329h236l-64 -333q-6 -27 -6 -56q0 -164 248 -164q72 0 137 23l104 530h236l-170 -870h133l-90 -461h-225z" glyph-name="uni04B7" horiz-adv-x="1157" unicode="ҷ"/><glyph d="M963 0l92 481q-76 -33 -203 -41l-37 -194h-184l39 205q-184 29 -280.5 139t-96.5 282q0 72 12 127l86 435h256l-86 -441q-8 -57 -8 -80q0 -174 164 -227l47 246h184l-51 -266q100 2 203 36l141 732h256l-278 -1434h-256z" glyph-name="uni04B8" horiz-adv-x="1372" unicode="Ҹ"/><glyph d="M748 0l65 340q-63 -16 -137 -23l-27 -133h-143l26 140q-152 25 -227.5 112.5t-75.5 218.5q0 53 11 101l63 329h236l-64 -333q-6 -27 -6 -56q0 -109 109 -145l24 125h143l-28 -144q72 0 137 23l104 530h236l-211 -1085h-235z" glyph-name="uni04B9" horiz-adv-x="1116" unicode="ҹ"/><glyph d="M154 0l278 1434h256l-92 -482q92 41 246 41q250 0 383 -114.5t133 -317.5q0 -72 -12 -127l-86 -434h-256l86 440q8 57 8 80q0 248 -322 248q-106 0 -225 -37l-141 -731h-256z" glyph-name="uni04BA" horiz-adv-x="1372" unicode="Һ"/><glyph d="M143 0l279 1434h235l-90 -461h11q49 57 122.5 95t151.5 38q164 0 260 -102.5t96 -268.5q0 -51 -10 -102l-123 -633h-235l123 635q6 43 6 57q0 96 -54.5 147.5t-150.5 51.5t-167 -62.5t-89 -158.5l-129 -670h-236z" glyph-name="uni04BB" horiz-adv-x="1198" unicode="һ"/><glyph d="M-88 0l731 756l-381 678h273l362 -656l129 656h256l-129 -656l621 656h299l-682 -721l413 -713h-278l-391 676l-131 -676h-256l131 676l-654 -676h-313zM1186 1567q-139 0 -227.5 74.5t-88.5 222.5h185q2 -68 40 -100.5t101 -32.5q139 0 166 133h184q-29 -147 -126 -222 t-234 -75z" glyph-name="uni04C1" horiz-adv-x="1761" unicode="Ӂ"/><glyph d="M-86 0l584 578l-303 507h272l285 -481l94 481h235l-94 -481l473 481h307l-546 -553l333 -532h-274l-313 502l-97 -502h-235l96 502l-506 -502h-311zM991 1239q-133 0 -214 71.5t-81 225.5h185q2 -133 120.5 -133t145.5 133h184q-57 -297 -340 -297z" glyph-name="uni04C2" horiz-adv-x="1525" unicode="ӂ"/><glyph d="M10 0l801 1434h317l244 -1434h-256l-51 307h-608l-170 -307h-277zM580 532h448l-100 615h-10zM797 1587q-55 0 -88 35t-33 86q0 59 42 102t105 43q55 0 88 -34.5t33 -85.5q0 -59 -42 -102.5t-105 -43.5zM1186 1587q-55 0 -88 35t-33 86q0 59 42 102t105 43q55 0 88 -34.5 t33 -85.5q0 -59 -42 -102.5t-105 -43.5z" glyph-name="uni04D2" horiz-adv-x="1341" unicode="Ӓ"/><glyph d="M477 -20q-141 0 -241.5 82.5t-100.5 226.5q0 154 113.5 260t302.5 106h340l6 31q4 20 4 41q0 78 -54 126t-149 48q-139 0 -200 -123h-248q49 141 175 234.5t284 93.5q215 0 321.5 -100.5t106.5 -266.5q0 -43 -11 -84l-127 -655h-204l4 113h-11q-106 -133 -311 -133z M561 184q111 0 183.5 57.5t93.5 153.5l16 76h-305q-86 0 -132 -42t-46 -107q0 -63 49 -100.5t141 -37.5zM602 1260q-55 0 -88 34.5t-33 85.5q0 59 42 102.5t106 43.5q55 0 88 -35t33 -86q0 -59 -42.5 -102t-105.5 -43zM991 1260q-55 0 -88 34.5t-33 85.5q0 59 42 102.5 t106 43.5q55 0 88 -35t33 -86q0 -59 -42.5 -102t-105.5 -43z" glyph-name="uni04D3" horiz-adv-x="1126" unicode="ӓ"/><glyph d="M819 -20q-268 0 -433 154.5t-165 438.5q0 113 23 226h1054v41q0 188 -100 288.5t-272 100.5q-106 0 -198.5 -54.5t-141.5 -150.5h-269q78 199 241 314.5t384 115.5q285 0 448.5 -158.5t163.5 -435.5q0 -385 -206.5 -632.5t-528.5 -247.5zM825 205q162 0 279 109.5 t164 279.5h-799v-21q0 -166 91 -267t265 -101z" glyph-name="uni04D8" horiz-adv-x="1495" unicode="Ә"/><glyph d="M653.5 -20q-235.5 0 -355.5 132t-120 339q0 86 25 163h780q4 123 -64.5 201t-193.5 78q-66 0 -132.5 -34t-100.5 -91h-252q61 152 192 245t318 93q215 0 343 -123t128 -348q0 -291 -166 -473t-401.5 -182zM664 195q94 0 172.5 63.5t115.5 171.5h-536q6 -102 69.5 -168.5 t178.5 -66.5z" glyph-name="afii10846" horiz-adv-x="1187" unicode="ә"/><glyph d="M688 -20q-150 0 -268.5 41.5t-199.5 141t-89 247.5h252q10 -94 98 -149.5t205 -55.5q141 0 218 72.5t77 185.5q0 88 -64.5 145.5t-195.5 57.5h-264l39 204l479 338h-649l45 226h1024l-43 -215l-494 -349q379 -47 377 -395q-2 -207 -141.5 -351t-405.5 -144z" glyph-name="uni04E0" horiz-adv-x="1259" unicode="Ӡ"/><glyph d="M483 -410q-199 0 -331 107.5t-132 312.5h236q2 -92 66.5 -148.5t169.5 -56.5q119 0 196.5 81t77.5 218q0 96 -60.5 154.5t-173.5 58.5h-215l35 185l443 368h-545l43 215h870l-43 -215l-434 -358q166 -37 239.5 -134t73.5 -259q0 -236 -141.5 -382.5t-374.5 -146.5z" glyph-name="uni04E1" horiz-adv-x="1054" unicode="ӡ"/><glyph d="M154 0l278 1434h256l-203 -1049h11l817 1049h338l-279 -1434h-256l203 1049h-10l-817 -1049h-338zM768 1628l33 174h604l-33 -174h-604z" glyph-name="uni04E2" horiz-adv-x="1525" unicode="Ӣ"/><glyph d="M133 0l211 1085h236l-142 -725h11l581 725h277l-211 -1085h-236l139 725h-10l-579 -725h-277zM553 1290l33 174h604l-33 -174h-604z" glyph-name="uni04E3" horiz-adv-x="1228" unicode="ӣ"/><glyph d="M840 -20q-293 0 -458 157.5t-165 435.5q0 238 86 436.5t256 321.5t393 123q293 0 458 -157.5t165 -436.5q0 -238 -86 -436.5t-256 -321t-393 -122.5zM848 205q199 0 335 174t136 461q0 184 -98.5 286.5t-276.5 102.5q-199 0 -335 -174t-136 -461q0 -184 98.5 -286.5 t276.5 -102.5zM827 1587q-55 0 -87.5 35t-32.5 86q0 59 42 102t105 43q55 0 88 -34.5t33 -85.5q0 -59 -42.5 -102.5t-105.5 -43.5zM1217 1587q-55 0 -88 35t-33 86q0 59 42 102t105 43q55 0 88 -34.5t33 -85.5q0 -59 -42 -102.5t-105 -43.5z" glyph-name="uni04E6" horiz-adv-x="1515" unicode="Ӧ"/><glyph d="M653 -20q-221 0 -348 123.5t-127 336.5q0 295 163 480.5t404 185.5q221 0 348.5 -124t127.5 -337q0 -295 -163 -480t-405 -185zM662 195q131 0 226 112.5t95 317.5q0 127 -67.5 196.5t-178.5 69.5q-131 0 -226 -112.5t-95 -317.5q0 -127 67.5 -196.5t178.5 -69.5z M623 1260q-55 0 -88 34.5t-33 85.5q0 59 42 102.5t105 43.5q55 0 88 -35t33 -86q0 -59 -42 -102t-105 -43zM1012 1260q-55 0 -88 34.5t-33 85.5q0 59 42 102.5t105 43.5q55 0 88 -35t33 -86q0 -59 -42 -102t-105 -43z" glyph-name="uni04E7" horiz-adv-x="1187" unicode="ӧ"/><glyph d="M840 -20q-293 0 -458 157.5t-165 435.5q0 238 86 436.5t256 321.5t393 123q293 0 458 -157.5t165 -436.5q0 -238 -86 -436.5t-256 -321t-393 -122.5zM848 205q154 0 274.5 109.5t169.5 299.5h-819v-20q0 -184 98.5 -286.5t276.5 -102.5zM500 819h819v21 q0 184 -98.5 286.5t-276.5 102.5q-154 0 -275.5 -110t-168.5 -300z" glyph-name="uni04E8" horiz-adv-x="1515" unicode="Ө"/><glyph d="M653 -20q-221 0 -348 123.5t-127 336.5q0 295 163 480.5t404 185.5q221 0 348.5 -124t127.5 -337q0 -295 -163 -480t-405 -185zM662 195q96 0 177 63.5t117 181.5h-540q6 -119 73 -182t173 -63zM440 645h541q-6 117 -72.5 181.5t-171.5 64.5q-94 0 -176 -63.5 t-121 -182.5z" glyph-name="uni04E9" horiz-adv-x="1187" unicode="ө"/><glyph d="M250 0l252 395l-275 1039h260l195 -738h10l471 738h283l-914 -1434h-282zM553 1628l33 174h604l-33 -174h-604z" glyph-name="uni04EE" horiz-adv-x="1187" unicode="Ӯ"/><glyph d="M166 -410l244 410l-230 1085h256l148 -768h10l446 768h267l-885 -1495h-256zM451 1290l32 174h604l-32 -174h-604z" glyph-name="uni04EF" horiz-adv-x="1116" unicode="ӯ"/><glyph d="M250 0l252 395l-275 1039h260l195 -738h10l471 738h283l-914 -1434h-282zM653 1587q-55 0 -88 35t-33 86q0 59 42 102t106 43q55 0 88 -34.5t33 -85.5q0 -59 -42.5 -102.5t-105.5 -43.5zM1042 1587q-55 0 -87.5 35t-32.5 86q0 59 42 102t105 43q55 0 88 -34.5t33 -85.5 q0 -59 -42.5 -102.5t-105.5 -43.5z" glyph-name="uni04F0" horiz-adv-x="1187" unicode="Ӱ"/><glyph d="M166 -410l244 410l-230 1085h256l148 -768h10l446 768h267l-885 -1495h-256zM551 1260q-55 0 -88 34.5t-33 85.5q0 59 42 102.5t106 43.5q55 0 87.5 -35t32.5 -86q0 -59 -42 -102t-105 -43zM940 1260q-55 0 -88 34.5t-33 85.5q0 59 42 102.5t106 43.5q55 0 87.5 -35 t32.5 -86q0 -59 -42 -102t-105 -43z" glyph-name="uni04F1" horiz-adv-x="1116" unicode="ӱ"/><glyph d="M379 0l-90 1434h256l35 -1086h10l477 1086h297l55 -1086h11l456 1086h277l-647 -1434h-308l-47 1075h-10l-465 -1075h-307zM1120 1567l-178 297h236l127 -297h-185z" glyph-name="Wgrave" horiz-adv-x="1914" unicode="Ẁ"/><glyph d="M297 0l-86 1085h235l56 -788h10l354 788h256l56 -788h10l354 788h256l-508 -1085h-286l-64 748h-10l-346 -748h-287zM895 1239l-178 297h235l127 -297h-184z" glyph-name="wgrave" horiz-adv-x="1607" unicode="ẁ"/><glyph d="M379 0l-90 1434h256l35 -1086h10l477 1086h297l55 -1086h11l456 1086h277l-647 -1434h-308l-47 1075h-10l-465 -1075h-307zM1147 1567l242 297h235l-293 -297h-184z" glyph-name="Wacute" horiz-adv-x="1914" unicode="Ẃ"/><glyph d="M297 0l-86 1085h235l56 -788h10l354 788h256l56 -788h10l354 788h256l-508 -1085h-286l-64 748h-10l-346 -748h-287zM922 1239l241 297h236l-293 -297h-184z" glyph-name="wacute" horiz-adv-x="1607" unicode="ẃ"/><glyph d="M379 0l-90 1434h256l35 -1086h10l477 1086h297l55 -1086h11l456 1086h277l-647 -1434h-308l-47 1075h-10l-465 -1075h-307zM1042 1587q-55 0 -87.5 35t-32.5 86q0 59 42 102t105 43q55 0 88 -34.5t33 -85.5q0 -59 -42.5 -102.5t-105.5 -43.5zM1432 1587q-55 0 -88 35 t-33 86q0 59 42 102t105 43q55 0 88 -34.5t33 -85.5q0 -59 -42 -102.5t-105 -43.5z" glyph-name="Wdieresis" horiz-adv-x="1914" unicode="Ẅ"/><glyph d="M297 0l-86 1085h235l56 -788h10l354 788h256l56 -788h10l354 788h256l-508 -1085h-286l-64 748h-10l-346 -748h-287zM817 1260q-55 0 -88 34.5t-33 85.5q0 59 42 102.5t106 43.5q55 0 88 -35t33 -86q0 -59 -42.5 -102t-105.5 -43zM1206 1260q-55 0 -88 34.5t-33 85.5 q0 59 42 102.5t106 43.5q55 0 88 -35t33 -86q0 -59 -42.5 -102t-105.5 -43z" glyph-name="wdieresis" horiz-adv-x="1607" unicode="ẅ"/><glyph d="M143 0l201 1036q37 188 158 293t297 105h739l-43 -215l-371 -349l-2 -10q135 -27 212 -127t77 -248q0 -217 -136 -351t-355 -134h-285l43 225h229q117 0 181.5 66.5t64.5 179.5q0 184 -203 184h-168l41 215l355 338h-363q-82 0 -142.5 -55t-78.5 -152l-195 -1001h-256z " glyph-name="uni1E9E" horiz-adv-x="1402" unicode="ẞ"/><glyph d="M440 0l99 512l-322 922h246l227 -666h10l490 666h287l-682 -922l-99 -512h-256zM741 1567l-178 297h236l127 -297h-185z" glyph-name="Ygrave" horiz-adv-x="1198" unicode="Ỳ"/><glyph d="M166 -410l244 410l-230 1085h256l148 -768h10l446 768h267l-885 -1495h-256zM649 1239l-178 297h236l127 -297h-185z" glyph-name="ygrave" horiz-adv-x="1116" unicode="ỳ"/><glyph d="M152 471l43 215h1024l-43 -215h-1024z" glyph-name="endash" horiz-adv-x="1146" unicode="–"/><glyph d="M152 471l43 215h1525l-43 -215h-1525z" glyph-name="emdash" horiz-adv-x="1648" unicode="—"/><glyph d="M279 1014l204 420h185l-164 -420h-225z" glyph-name="quoteleft" horiz-adv-x="430" unicode="‘"/><glyph d="M279 1014l163 420h226l-205 -420h-184z" glyph-name="quoteright" horiz-adv-x="430" unicode="’"/><glyph d="M0 -215l162 420h225l-205 -420h-182z" glyph-name="quotesinglbase" horiz-adv-x="430" unicode="‚"/><glyph d="M279 1014l204 420h185l-164 -420h-225zM627 1014l204 420h185l-164 -420h-225z" glyph-name="quotedblleft" horiz-adv-x="778" unicode="“"/><glyph d="M279 1014l163 420h226l-205 -420h-184zM627 1014l164 420h225l-205 -420h-184z" glyph-name="quotedblright" horiz-adv-x="778" unicode="”"/><glyph d="M0 -215l162 420h225l-205 -420h-182zM346 -215l164 420h225l-205 -420h-184z" glyph-name="quotedblbase" horiz-adv-x="778" unicode="„"/><glyph d="M369 0l170 881h-256l43 225h256l65 328h246l-66 -328h256l-43 -225h-256l-170 -881h-245z" glyph-name="dagger" horiz-adv-x="983" unicode="†"/><glyph d="M369 0l63 328h-256l43 225h256l64 328h-256l43 225h256l65 328h246l-66 -328h256l-43 -225h-256l-63 -328h256l-43 -225h-256l-64 -328h-245z" glyph-name="daggerdbl" horiz-adv-x="983" unicode="‡"/><glyph d="M551 369q-84 0 -139.5 59t-55.5 139q0 90 71 161t167 71q84 0 139 -59.5t55 -139.5q0 -90 -70.5 -160.5t-166.5 -70.5z" glyph-name="bullet" horiz-adv-x="921" unicode="•"/><glyph d="M238 -10q-57 0 -94.5 36.5t-37.5 94.5q0 66 46.5 110.5t111.5 44.5q57 0 94 -36.5t37 -94.5q0 -66 -45.5 -110.5t-111.5 -44.5zM760 -10q-57 0 -94 36.5t-37 94.5q0 66 46 110.5t111 44.5q57 0 94.5 -36.5t37.5 -94.5q0 -66 -46 -110.5t-112 -44.5zM1282 -10 q-57 0 -94 36.5t-37 94.5q0 66 46 110.5t112 44.5q57 0 94 -36.5t37 -94.5q0 -66 -46 -110.5t-112 -44.5z" glyph-name="ellipsis" horiz-adv-x="1495" unicode="…"/><glyph d="M225 0l1159 1434h226l-1159 -1434h-226zM1196 -20q-139 0 -222 81.5t-83 212.5q0 170 102.5 275.5t255.5 105.5q139 0 222 -81.5t83 -213.5q0 -170 -102 -275t-256 -105zM1206 143q76 0 125 55.5t49 149.5q0 66 -37.5 105t-103.5 39q-76 0 -125 -55.5t-49 -149.5 q0 -66 37.5 -105t103.5 -39zM1954 -20q-139 0 -222 81.5t-83 212.5q0 170 102 275.5t256 105.5q139 0 222 -81.5t83 -213.5q0 -170 -102 -275t-256 -105zM1964 143q76 0 125 55.5t49 149.5q0 66 -38 105t-103 39q-76 0 -125 -55.5t-49 -149.5q0 -66 37.5 -105t103.5 -39z M586 778q-139 0 -222 82t-83 213q0 170 102 275.5t256 105.5q139 0 222 -82t83 -213q0 -170 -102 -275.5t-256 -105.5zM596 942q76 0 125 55.5t49 149.5q0 66 -38 104.5t-103 38.5q-76 0 -125 -55t-49 -150q0 -66 37.5 -104.5t103.5 -38.5z" glyph-name="perthousand" horiz-adv-x="2314" unicode="‰"/><glyph d="M522 61l-344 492l537 491h299l-557 -507l-4 -13l329 -463h-260z" glyph-name="guilsinglleft" horiz-adv-x="839" unicode="‹"/><glyph d="M29 61l557 508l4 13l-330 462h260l344 -491l-536 -492h-299z" glyph-name="guilsinglright" horiz-adv-x="839" unicode="›"/><glyph d="M-389 0l1169 1434h201l-1169 -1434h-201z" glyph-name="fraction" horiz-adv-x="296" unicode="⁄"/><glyph d="M580 809q-135 0 -214 83t-77 230q0 244 114.5 385.5t268.5 141.5q135 0 214 -83t77 -231q0 -244 -114.5 -385t-268.5 -141zM588 973q72 0 135 91t63 249q0 84 -33.5 128t-88.5 44q-72 0 -135.5 -91t-63.5 -249q0 -84 34 -128t89 -44z" glyph-name="uni2070" horiz-adv-x="798" unicode="⁰"/><glyph d="M537 819l34 174h-368l28 154l424 491h215l-96 -491h123l-29 -154h-123l-34 -174h-174zM414 1147h186l53 266h-10z" glyph-name="uni2074" horiz-adv-x="706" unicode="⁴"/><glyph d="M539 809q-117 0 -202 59.5t-95 175.5h182q14 -72 125 -71q63 0 101 39t38 100q0 57 -35 87t-88 30q-82 0 -112 -51h-174l141 460h502l-31 -153h-359l-43 -133h11q41 18 104 18q119 0 188.5 -64.5t69.5 -175.5q0 -139 -91 -230t-232 -91z" glyph-name="uni2075" horiz-adv-x="706" unicode="⁵"/><glyph d="M532 809q-121 0 -204.5 74.5t-83.5 197.5q0 160 125 293l229 264h190l-229 -264q23 4 51 4q111 0 180.5 -72.5t69.5 -179.5q0 -137 -95.5 -227t-232.5 -90zM547 973q68 0 103.5 45t35.5 108q0 49 -31.5 81t-93.5 32q-70 0 -106.5 -45t-36.5 -107q0 -51 35 -82.5t94 -31.5 z" glyph-name="uni2076" horiz-adv-x="716" unicode="⁶"/><glyph d="M268 819l416 666h-336l31 153h532l-30 -153l-416 -666h-197z" glyph-name="uni2077" horiz-adv-x="614" unicode="⁷"/><glyph d="M559 809q-123 0 -208 58.5t-85 168.5q0 68 40 130.5t122 93.5q-70 43 -70 155q0 96 78 165t203 69q127 0 198.5 -62.5t71.5 -152.5q0 -139 -135 -195q88 -47 88 -168t-85 -191.5t-218 -70.5zM565 963q55 0 91 33.5t36 82.5q0 39 -31.5 69t-91 30t-92.5 -34t-33 -79 q0 -47 35 -74.5t86 -27.5zM633 1321q47 0 73.5 27.5t26.5 64.5q0 82 -104 82q-45 0 -73 -27.5t-28 -68.5q0 -37 31 -57.5t74 -20.5z" glyph-name="uni2078" horiz-adv-x="737" unicode="⁸"/><glyph d="M373 819l229 264q-23 -4 -51 -4q-111 0 -180.5 73t-69.5 179q0 137 95.5 227.5t232.5 90.5q121 0 205 -75t84 -198q0 -160 -125 -293l-230 -264h-190zM600 1219q70 0 106.5 45t36.5 106q0 51 -34.5 83t-94.5 32q-68 0 -103.5 -45t-35.5 -109q0 -49 32 -80.5t93 -31.5z " glyph-name="uni2079" horiz-adv-x="716" unicode="⁹"/><glyph d="M401 -215q-135 0 -213.5 83t-76.5 230q0 244 114.5 385.5t268.5 141.5q135 0 213.5 -83t76.5 -231q0 -244 -114.5 -385t-268.5 -141zM410 -51q72 0 135 91t63 249q0 84 -33.5 128t-89.5 44q-72 0 -135 -91t-63 -249q0 -84 34 -128t89 -44z" glyph-name="uni2080" horiz-adv-x="798" unicode="₀"/><glyph d="M215 -205l107 543h-185l31 164h133q51 0 61 51l13 61h174l-160 -819h-174z" glyph-name="uni2081" horiz-adv-x="542" unicode="₁"/><glyph d="M31 -205l30 154l351 284q111 90 110 150q0 33 -24.5 55.5t-77.5 22.5q-90 0 -105 -92h-186q27 113 101.5 184.5t203.5 71.5t202 -63.5t73 -162.5q0 -80 -39 -135t-127 -127l-236 -188h307l-30 -154h-553z" glyph-name="uni2082" horiz-adv-x="686" unicode="₂"/><glyph d="M352 -215q-272 0 -293 225h181q12 -61 112 -61q55 0 88 30.5t33 79.5q0 33 -22.5 58.5t-65.5 25.5h-82l31 154h96q94 0 94 90q0 72 -106 72q-41 0 -71 -24.5t-40 -65.5h-186q20 111 102 183.5t201 72.5q131 0 209 -62.5t78 -154.5q0 -78 -46.5 -132.5t-99.5 -66.5 q88 -61 88 -166q0 -102 -83 -180t-218 -78z" glyph-name="uni2083" horiz-adv-x="696" unicode="₃"/><glyph d="M358 -205l35 174h-368l28 154l424 491h215l-96 -491h123l-29 -154h-123l-35 -174h-174zM236 123h186l53 266h-10z" glyph-name="uni2084" horiz-adv-x="706" unicode="₄"/><glyph d="M360 -215q-117 0 -201.5 59.5t-95.5 175.5h183q14 -72 125 -71q63 0 101 39t38 100q0 57 -35 87t-88 30q-82 0 -113 -51h-174l142 460h501l-30 -153h-359l-43 -133h11q41 18 104 18q119 0 188.5 -64.5t69.5 -175.5q0 -139 -91.5 -230t-232.5 -91z" glyph-name="uni2085" horiz-adv-x="706" unicode="₅"/><glyph d="M354 -215q-121 0 -204.5 74.5t-83.5 197.5q0 160 124 293l230 264h190l-229 -264q23 4 51 4q111 0 180.5 -72.5t69.5 -179.5q0 -137 -95.5 -227t-232.5 -90zM369 -51q68 0 103.5 45t35.5 108q0 49 -32 81t-93 32q-70 0 -106.5 -45t-36.5 -107q0 -51 35 -82.5t94 -31.5z " glyph-name="uni2086" horiz-adv-x="716" unicode="₆"/><glyph d="M70 -205l415 666h-335l30 153h533l-31 -153l-416 -666h-196z" glyph-name="uni2087" horiz-adv-x="614" unicode="₇"/><glyph d="M371 -215q-123 0 -208 58.5t-85 168.5q0 68 40 130.5t122 93.5q-70 43 -70 155q0 96 78 165t203 69q127 0 198.5 -62.5t71.5 -152.5q0 -139 -135 -195q88 -47 88 -168t-85 -191.5t-218 -70.5zM377 -61q55 0 91 33.5t36 82.5q0 39 -32 69t-91 30t-92 -34t-33 -79 q0 -47 35 -74.5t86 -27.5zM444 297q47 0 74 27.5t27 64.5q0 82 -105 82q-45 0 -72.5 -27.5t-27.5 -68.5q0 -37 30.5 -57.5t73.5 -20.5z" glyph-name="uni2088" horiz-adv-x="737" unicode="₈"/><glyph d="M205 -205l229 264q-23 -4 -51 -4q-111 0 -180.5 73t-69.5 179q0 137 95.5 227.5t232.5 90.5q121 0 205 -75t84 -198q0 -160 -125 -293l-230 -264h-190zM432 195q70 0 106.5 45t36.5 106q0 51 -34.5 83t-94.5 32q-68 0 -103.5 -45t-35.5 -109q0 -49 32 -80.5t93 -31.5z " glyph-name="uni2089" horiz-adv-x="716" unicode="₉"/><glyph d="M410 0l-9 430h-288l41 205h243l-4 174h-207l41 205h162l-8 420h260l-10 -420h297l174 420h317l11 -420h296l154 420h272l-172 -420h162l-41 -205h-205l-69 -174h241l-40 -205h-285l-176 -430h-316l-12 430h-338l-174 -430h-317zM610 266h8l68 164h-72zM621 635h151 l72 174h-221zM989 635h244l-4 174h-170zM1446 266h10l60 164h-74zM1145 1014h78l-4 153h-11zM1438 635h151l64 174h-219z" glyph-name="uni20A9" horiz-adv-x="1996" unicode="₩"/><glyph d="M950 -20q-248 0 -408.5 122.5t-197.5 358.5h-225l37 184h178l14 143h-166l37 185h178q84 225 263.5 353t406.5 128q244 0 387 -105.5t191 -293.5h-269q-84 174 -315 174q-125 0 -228.5 -66.5t-164.5 -189.5h544l-36 -185h-570l-14 -143h557l-37 -184h-504 q70 -256 348 -256q203 0 324 174h279q-90 -180 -247 -289.5t-362 -109.5z" glyph-name="Euro" horiz-adv-x="1536" unicode="€"/><glyph d="M727 -20q-221 0 -354 101t-133 247q0 70 53 153h-98l34 174h1127l-35 -174h-766q-59 -59 -59 -114q0 -74 65.5 -118t165.5 -44q209 0 283 133h252q-55 -166 -191.5 -262t-343.5 -96zM252 778l35 174h766q59 59 59 115q0 74 -65.5 118t-165.5 44q-209 0 -283 -133h-252 q55 166 191.5 262t343.5 96q221 0 354 -101.5t133 -246.5q0 -70 -53 -154h98l-35 -174h-1126z" glyph-name="uni20B4" horiz-adv-x="1331" unicode="₴"/><glyph d="M479 0l162 840h-440l45 225h1136l-45 -225h-440l-162 -840h-256zM272 1208l45 226h1137l-45 -226h-1137z" glyph-name="uni20B8" horiz-adv-x="1259" unicode="₸"/><glyph d="M758 0l-266 492h-336l43 215h458q100 0 169 43t94 120h-691l39 195h676q-8 76 -67.5 115t-161.5 39h-418l43 215h1075l-43 -215h-237q49 -45 65 -154h143l-38 -195h-129q-41 -156 -153 -249t-255 -109l276 -512h-286z" glyph-name="uni20B9" horiz-adv-x="1208" unicode="₹"/><glyph d="M236 0l96 498l-199 -68l41 205l197 67l28 144l-198 -68l41 205l196 68l76 383h256l-57 -289l329 115l-38 -205l-330 -115l-29 -143l330 114l-39 -204l-330 -115l-71 -367h100q182 0 264 62.5t121 224.5h246q-41 -188 -108.5 -294.5t-199 -162t-344.5 -55.5h-378z" glyph-name="uni20BA" horiz-adv-x="1218" unicode="₺"/><glyph d="M205 0l43 225h-164l41 215h164l24 123h-163l40 215h164l129 656h561q186 0 293 -114t107 -280q0 -211 -133 -344t-348 -133h-394l-24 -123h420l-41 -215h-420l-43 -225h-256zM610 778h336q104 0 173 66.5t69 173.5q0 82 -57.5 136t-147.5 54h-289z" glyph-name="uni20BD" horiz-adv-x="1341" unicode="₽"/><glyph d="M293 -225l45 225h-184l278 1434h184l43 225h215l-43 -225h154l43 225h215l-45 -240q119 -31 182.5 -122t63.5 -214q0 -137 -70.5 -236t-179.5 -140q147 -94 147 -277q0 -188 -116.5 -305t-304.5 -125l-43 -225h-215l45 225h-154l-45 -225h-215zM453 225h424 q96 0 152 59.5t56 161.5q0 72 -44 120t-121 48h-392zM567 819h396q96 0 155.5 58.5t59.5 160.5q0 76 -43 123t-121 47h-371z" glyph-name="uni20BF" horiz-adv-x="1351" unicode="₿"/><glyph d="M655 -20q-307 0 -307 296v175q-82 -31 -184 -31v174q45 0 91 10t69 21l24 10v530q0 137 77 213t210 76q135 0 216 -87t81 -251q0 -217 -111.5 -373.5t-288.5 -240.5v-226q0 -123 144 -122q33 0 65.5 7t49.5 15l18 8v-184q-62 -20 -154 -20zM532 707q215 133 216 409 q0 164 -113 164q-102 0 -103 -131v-442z" glyph-name="afii61289" horiz-adv-x="860" unicode="ℓ"/><glyph d="M154 0l278 1434h338l399 -1100h11l215 1100h256l-279 -1434h-338l-399 1100h-10l-215 -1100h-256zM1556 0l39 205h635l-39 -205h-635zM1976 328q-139 0 -226 84t-87 217q0 166 105.5 270.5t261.5 104.5q139 0 226 -84t87 -218q0 -166 -105.5 -270t-261.5 -104zM1985 502 q68 0 115.5 51t47.5 135q0 63 -34.5 102t-90.5 39q-70 0 -117.5 -51t-47.5 -135q0 -63 35 -102t92 -39z" glyph-name="afii61352" horiz-adv-x="2304" unicode="№"/><glyph d="M993.5 -20q-321.5 0 -529.5 206.5t-208 530t208 530.5t529.5 207t529.5 -207t208 -530.5t-208 -530t-529.5 -206.5zM993.5 143q245.5 0 404 161t158.5 413t-158.5 412.5t-404 160.5t-404.5 -160.5t-159 -412.5t159 -413t404.5 -161zM717 338v768h327q133 0 205 -71.5 t72 -184.5q0 -119 -71.5 -192.5t-205.5 -73.5h-153v-246h-174zM891 737h133q123 0 123 113q0 102 -123 102h-133v-215z" glyph-name="uni2117" horiz-adv-x="1699" unicode="℗"/><glyph d="M410 799v481h-195v154h553v-154h-195v-481h-163zM840 799v635h235l123 -420h10l123 420h236v-635h-164v389h-10l-113 -389h-154l-112 389h-10v-389h-164z" glyph-name="trademark" horiz-adv-x="1505" unicode="™"/><glyph d="M328 0v174h235q-12 6 -31.5 19.5t-70.5 63.5t-91 110.5t-72 165t-32 225.5q0 311 192.5 503.5t524.5 192.5t524.5 -192.5t192.5 -503.5q0 -121 -31 -224.5t-74 -167t-87 -109.5t-74 -64l-31 -19h235v-174h-522v174q16 6 42 19.5t93.5 63.5t118.5 109.5t93 162t42 219.5 q0 233 -143 382.5t-378.5 149.5t-379 -149.5t-143.5 -382.5q0 -117 40 -218.5t97 -164t114.5 -108.5t98.5 -64l39 -19v-174h-522z" glyph-name="uni2126" horiz-adv-x="1679" unicode="Ω"/><glyph d="M1034 -41q-334 0 -556 214t-222 523.5t218 523.5t539.5 214t540 -214t218.5 -524v-10h-1178q-31 0 -31 -31v-399q0 -88 82 -139q178 -106 389 -107q100 0 192.5 29t154 68.5t107.5 80.5t68 70l21 29h113q-8 -14 -26.5 -36t-80 -78t-132.5 -99t-183.5 -79t-233.5 -36z M594 737h840q31 0 30 31v379q0 84 -82 135q-160 100 -368 100q-201 0 -369 -100q-82 -51 -82 -135v-379q0 -31 31 -31z" glyph-name="estimated" horiz-adv-x="1740" unicode="℮"/><glyph d="M174 0l1169 1434h201l-1169 -1434h-201zM354 614l107 543h-185l31 164h133q51 0 62 51l12 62h174l-160 -820h-174zM1020 0l416 666h-336l30 153h533l-31 -153l-415 -666h-197z" glyph-name="uni2150" horiz-adv-x="1597" unicode="⅐"/><glyph d="M174 0l1169 1434h201l-1169 -1434h-201zM354 614l107 543h-185l31 164h133q51 0 62 51l12 62h174l-160 -820h-174zM1094 0l229 264q-23 -4 -51 -4q-111 0 -180.5 73t-69.5 179q0 137 95 227t233 90q121 0 204.5 -74.5t83.5 -197.5q0 -160 -125 -293l-229 -264h-190z M1321 399q70 0 106.5 45t36.5 107q0 51 -34.5 83t-94.5 32q-68 0 -103.5 -45.5t-35.5 -108.5q0 -49 32 -81t93 -32z" glyph-name="uni2151" horiz-adv-x="1617" unicode="⅑"/><glyph d="M176 0l1170 1434h200l-1169 -1434h-201zM354 614l107 543h-185l31 164h133q51 0 62 51l12 62h174l-160 -820h-174zM1116 0l107 543h-185l31 164h133q51 0 62 51l12 61h174l-160 -819h-174zM1741 -10q-135 0 -214 83t-77 230q0 244 114.5 385t268.5 141q135 0 214 -82.5 t77 -230.5q0 -244 -114.5 -385t-268.5 -141zM1749 154q72 0 135.5 91t63.5 249q0 84 -34 128t-89 44q-72 0 -135.5 -91.5t-63.5 -248.5q0 -84 34 -128t89 -44z" glyph-name="uni2152" horiz-adv-x="2140" unicode="⅒"/><glyph d="M174 0l1169 1434h201l-1169 -1434h-201zM354 614l107 543h-185l31 164h133q51 0 62 51l12 62h174l-160 -820h-174zM1251 -10q-272 0 -293 225h181q12 -61 112 -61q55 0 88 30.5t33 79.5q0 33 -22.5 58.5t-65.5 25.5h-82l31 154h96q94 0 94 90q0 72 -106 72 q-41 0 -70.5 -25t-40.5 -66h-186q20 111 102 183.5t201 72.5q131 0 209 -62t78 -155q0 -78 -46 -132t-100 -66q88 -61 88 -166q0 -102 -83 -180t-218 -78z" glyph-name="onethird" horiz-adv-x="1607" unicode="⅓"/><glyph d="M338 0l1169 1434h201l-1169 -1434h-201zM201 614l30 154l351 285q111 90 110 149q0 33 -24.5 55.5t-77.5 22.5q-90 0 -105 -92h-186q27 113 101.5 184.5t203.5 71.5t202 -63.5t73 -161.5q0 -80 -39 -135.5t-127 -127.5l-236 -188h307l-30 -154h-553zM1415 -10 q-272 0 -293 225h181q12 -61 112 -61q55 0 88 30.5t33 79.5q0 33 -22.5 58.5t-65.5 25.5h-82l31 154h96q94 0 94 90q0 72 -106 72q-41 0 -71 -25t-40 -66h-186q20 111 102 183.5t201 72.5q131 0 209 -62t78 -155q0 -78 -46.5 -132t-99.5 -66q88 -61 88 -166q0 -102 -83 -180 t-218 -78z" glyph-name="twothirds" horiz-adv-x="1771" unicode="⅔"/><glyph d="M174 0l1169 1434h201l-1169 -1434h-201zM354 614l107 543h-185l31 164h133q51 0 62 51l12 62h174l-160 -820h-174zM1280 -10q-117 0 -202 59.5t-95 175.5h182q14 -72 125 -71q63 0 101.5 38.5t38.5 100.5q0 57 -35 87t-88 30q-82 0 -113 -52h-174l141 461h502l-31 -153 h-358l-43 -134h10q41 18 105 19q119 0 188.5 -64.5t69.5 -175.5q0 -139 -91.5 -230t-232.5 -91z" glyph-name="uni2155" horiz-adv-x="1638" unicode="⅕"/><glyph d="M338 0l1169 1434h201l-1169 -1434h-201zM201 614l30 154l351 285q111 90 110 149q0 33 -24.5 55.5t-77.5 22.5q-90 0 -105 -92h-186q27 113 101.5 184.5t203.5 71.5t202 -63.5t73 -161.5q0 -80 -39 -135.5t-127 -127.5l-236 -188h307l-30 -154h-553zM1444 -10 q-117 0 -202 59.5t-95 175.5h182q14 -72 125 -71q63 0 101 38.5t38 100.5q0 57 -34.5 87t-88.5 30q-82 0 -112 -52h-174l141 461h502l-31 -153h-358l-43 -134h10q41 18 104 19q119 0 188.5 -64.5t69.5 -175.5q0 -139 -91 -230t-232 -91z" glyph-name="uni2156" horiz-adv-x="1802" unicode="⅖"/><glyph d="M338 0l1169 1434h201l-1169 -1434h-201zM522 604q-272 0 -293 225h181q12 -61 112 -61q55 0 88 30.5t33 80.5q0 33 -22.5 58.5t-65.5 25.5h-82l31 153h96q94 0 94 90q0 72 -106 72q-41 0 -71 -24.5t-40 -65.5h-186q20 111 102 183.5t201 72.5q131 0 209 -62.5t78 -154.5 q0 -78 -46.5 -132.5t-99.5 -66.5q88 -61 88 -166q0 -102 -83 -180t-218 -78zM1434 -10q-117 0 -202 59.5t-95 175.5h182q14 -72 125 -71q63 0 101 38.5t38 100.5q0 57 -35 87t-88 30q-82 0 -112 -52h-174l141 461h502l-31 -153h-359l-43 -134h11q41 18 104 19 q119 0 188.5 -64.5t69.5 -175.5q0 -139 -91 -230t-232 -91z" glyph-name="uni2157" horiz-adv-x="1792" unicode="⅗"/><glyph d="M369 0l1169 1434h201l-1170 -1434h-200zM528 614l35 174h-368l28 154l424 492h215l-96 -492h123l-29 -154h-123l-35 -174h-174zM406 942h186l53 266h-10zM1475 -10q-117 0 -202 59.5t-95 175.5h182q14 -72 125 -71q63 0 101 38.5t38 100.5q0 57 -35 87t-88 30 q-82 0 -112 -52h-175l142 461h502l-31 -153h-359l-43 -134h11q41 18 104 19q119 0 188.5 -64.5t69.5 -175.5q0 -139 -91 -230t-232 -91z" glyph-name="uni2158" horiz-adv-x="1832" unicode="⅘"/><glyph d="M174 0l1169 1434h201l-1169 -1434h-201zM354 614l107 543h-185l31 164h133q51 0 62 51l12 62h174l-160 -820h-174zM1233 -10q-121 0 -205 74.5t-84 197.5q0 160 125 293l229 264h191l-229 -264q23 4 51 4q111 0 180.5 -72.5t69.5 -179.5q0 -137 -95.5 -227t-232.5 -90z M1247 154q68 0 103.5 45t35.5 108q0 49 -31.5 81t-92.5 32q-70 0 -107 -45t-37 -107q0 -51 35 -82.5t94 -31.5z" glyph-name="uni2159" horiz-adv-x="1587" unicode="⅙"/><glyph d="M379 0l1169 1434h201l-1169 -1434h-201zM549 604q-117 0 -202 59.5t-95 176.5h182q14 -72 125 -72q63 0 101 39t38 100q0 57 -34.5 87t-88.5 30q-82 0 -112 -51h-174l141 461h502l-31 -154h-358l-43 -133h10q41 18 104 18q119 0 188.5 -64.5t69.5 -174.5 q0 -139 -91 -230.5t-232 -91.5zM1438 -10q-121 0 -205 74.5t-84 197.5q0 160 125 293l229 264h191l-230 -264q23 4 52 4q111 0 180 -72.5t69 -179.5q0 -137 -95 -227t-232 -90zM1452 154q68 0 103.5 45t35.5 108q0 49 -31.5 81t-93.5 32q-70 0 -106.5 -45t-36.5 -107 q0 -51 35 -82.5t94 -31.5z" glyph-name="uni215A" horiz-adv-x="1792" unicode="⅚"/><glyph d="M174 0l1169 1434h201l-1169 -1434h-201zM354 614l107 543h-185l31 164h133q51 0 62 51l12 62h174l-160 -820h-174zM1280 -10q-123 0 -208 58t-85 169q0 68 40 130.5t122 92.5q-70 43 -70 156q0 96 78 164.5t203 68.5q127 0 198.5 -62t71.5 -153q0 -139 -135 -194 q88 -47 88 -168t-85 -191.5t-218 -70.5zM1286 143q55 0 91 34t36 83q0 39 -31.5 68.5t-91 29.5t-92.5 -33.5t-33 -78.5q0 -47 35 -75t86 -28zM1354 502q47 0 73.5 27.5t26.5 64.5q0 82 -104 82q-45 0 -73 -27.5t-28 -68.5q0 -37 31 -57.5t74 -20.5z" glyph-name="oneeighth" horiz-adv-x="1628" unicode="⅛"/><glyph d="M338 0l1169 1434h201l-1169 -1434h-201zM522 604q-272 0 -293 225h181q12 -61 112 -61q55 0 88 30.5t33 80.5q0 33 -22.5 58.5t-65.5 25.5h-82l31 153h96q94 0 94 90q0 72 -106 72q-41 0 -71 -24.5t-40 -65.5h-186q20 111 102 183.5t201 72.5q131 0 209 -62.5t78 -154.5 q0 -78 -46.5 -132.5t-99.5 -66.5q88 -61 88 -166q0 -102 -83 -180t-218 -78zM1444 -10q-123 0 -208 58t-85 169q0 68 40 130.5t122 92.5q-70 43 -70 156q0 96 78 164.5t203 68.5q127 0 198.5 -62t71.5 -153q0 -139 -135 -194q88 -47 88 -168t-85 -191.5t-218 -70.5z M1450 143q55 0 91 34t36 83q0 39 -32 68.5t-91 29.5t-92 -33.5t-33 -78.5q0 -47 35 -75t86 -28zM1518 502q47 0 73.5 27.5t26.5 64.5q0 82 -105 82q-45 0 -72.5 -27.5t-27.5 -68.5q0 -37 31 -57.5t74 -20.5z" glyph-name="threeeighths" horiz-adv-x="1792" unicode="⅜"/><glyph d="M379 0l1169 1434h201l-1169 -1434h-201zM549 604q-117 0 -202 59.5t-95 176.5h182q14 -72 125 -72q63 0 101 39t38 100q0 57 -34.5 87t-88.5 30q-82 0 -112 -51h-174l141 461h502l-31 -154h-358l-43 -133h10q41 18 104 18q119 0 188.5 -64.5t69.5 -174.5 q0 -139 -91 -230.5t-232 -91.5zM1485 -10q-123 0 -208 58t-85 169q0 68 40 130.5t122 92.5q-70 43 -70 156q0 96 78 164.5t203 68.5q127 0 198.5 -62t71.5 -153q0 -139 -135 -194q88 -47 88 -168t-85 -191.5t-218 -70.5zM1491 143q55 0 91 34t36 83q0 39 -32 68.5t-91 29.5 t-92 -33.5t-33 -78.5q0 -47 35 -75t86 -28zM1559 502q47 0 73.5 27.5t26.5 64.5q0 82 -105 82q-45 0 -72.5 -27.5t-27.5 -68.5q0 -37 31 -57.5t74 -20.5z" glyph-name="fiveeighths" horiz-adv-x="1832" unicode="⅝"/><glyph d="M184 0l1170 1434h200l-1169 -1434h-201zM250 614l416 666h-336l30 154h533l-31 -154l-416 -666h-196zM1290 -10q-123 0 -208 58t-85 169q0 68 40 130.5t122 92.5q-70 43 -69 156q0 96 77.5 164.5t202.5 68.5q127 0 198.5 -62t71.5 -153q0 -139 -135 -194q88 -47 88 -168 t-85 -191.5t-218 -70.5zM1296 143q55 0 91 34t36 83q0 39 -31.5 68.5t-91 29.5t-92 -33.5t-32.5 -78.5q0 -47 34.5 -75t85.5 -28zM1364 502q47 0 73.5 27.5t26.5 64.5q0 82 -104 82q-45 0 -72.5 -27.5t-27.5 -68.5q0 -37 30.5 -57.5t73.5 -20.5z" glyph-name="seveneighths" horiz-adv-x="1638" unicode="⅞"/><glyph d="M174 0l1169 1434h201l-1169 -1434h-201zM354 614l107 543h-185l31 164h133q51 0 62 51l12 62h174l-160 -820h-174z" glyph-name="uni215F" horiz-adv-x="860" unicode="⅟"/><glyph d="M891 266l-440 441v10l440 440l113 -113l-246 -245h1126v-174h-1126l246 -246z" glyph-name="arrowleft" unicode="←"/><glyph d="M1075 0v1126l-246 -245l-112 112l440 441h10l441 -441l-113 -112l-246 245v-1126h-174z" glyph-name="arrowup" unicode="↑"/><glyph d="M1444 266l-113 113l246 246h-1126v174h1126l-246 245l113 113l440 -440v-10z" glyph-name="arrowright" unicode="→"/><glyph d="M1157 0l-440 440l112 113l246 -246v1127h174v-1127l246 246l113 -113l-441 -440h-10z" glyph-name="arrowdown" unicode="↓"/><glyph d="M850 266l-440 441v10l440 440l113 -113l-246 -245h901l-246 245l113 113l440 -440v-10l-440 -441l-113 113l246 246h-901l246 -246z" glyph-name="arrowboth" unicode="↔"/><glyph d="M1157 -41l-440 440l112 113l246 -246v901l-246 -245l-112 112l440 441h10l441 -441l-113 -112l-246 245v-901l246 246l113 -113l-441 -440h-10z" glyph-name="arrowupdn" unicode="↕"/><glyph d="M1669 102l-942 942v-348h-174v615l20 20h615v-174h-348l942 -942z" glyph-name="uni2196" unicode="↖"/><glyph d="M666 102l-113 113l942 942h-348v174h614l21 -20v-615h-174v348z" glyph-name="uni2197" unicode="↗"/><glyph d="M1147 102v174h348l-942 943l113 112l942 -942v348h174v-614l-21 -21h-614z" glyph-name="uni2198" unicode="↘"/><glyph d="M573 102l-20 21v614h174v-348l942 942l113 -112l-942 -943h348v-174h-615z" glyph-name="uni2199" unicode="↙"/><glyph d="M737 0v1126l-245 -245l-113 112l440 441h10l441 -441l-113 -112l-246 245v-1126h-174zM1505 0l-440 440l113 113l245 -246v1127h174v-1127l246 246l113 -113l-440 -440h-11z" glyph-name="uni21C5" unicode="⇅"/><glyph d="M819 0l-440 440l113 113l245 -246v1127h174v-1127l246 246l113 -113l-441 -440h-10zM1423 0v1126l-245 -245l-113 112l440 441h11l440 -441l-113 -112l-246 245v-1126h-174z" glyph-name="uni21F5" unicode="⇵"/><glyph d="M686 -20q-207 0 -339 128t-132 353q0 213 123 342t317 129q205 0 338 -133h11q0 219 -89.5 350t-248.5 131q-133 0 -185 -102h-194q27 113 125 194.5t260 81.5q252 0 384 -186.5t132 -550.5q0 -737 -502 -737zM686 154q143 0 225 107.5t82 322.5q-4 6 -11 18t-34.5 42 t-60.5 53.5t-87.5 42t-113.5 18.5q-131 0 -209 -80t-78 -217q0 -145 78 -226t209 -81z" glyph-name="partialdiff" horiz-adv-x="1177" unicode="∂"/><glyph d="M983 -20q-238 0 -410 106l-81 -96h-236l178 213q-178 201 -178 514q0 332 198.5 534.5t528.5 202.5q233 0 410 -108l82 98h235l-180 -215q180 -199 180 -512q0 -332 -198.5 -534.5t-528.5 -202.5zM561 354l709 846q-125 80 -287 80q-238 0 -385 -157.5t-147 -405.5 q-1 -213 110 -363zM983 154q238 0 385.5 157.5t147.5 405.5q0 213 -113 360l-709 -846q129 -77 289 -77z" glyph-name="emptyset" horiz-adv-x="1679" unicode="∅"/><glyph d="M113 0l512 1434h245l512 -1434h-1269zM369 174h757l-378 1055z" glyph-name="uni2206" horiz-adv-x="1331" unicode="∆"/><glyph d="M328 -225v1659h1065v-1659h-195v1485h-676v-1485h-194z" glyph-name="product" horiz-adv-x="1454" unicode="∏"/><glyph d="M289 -225v174l461 696l-461 615v174h973v-174h-748l461 -615l-461 -696h748v-174h-973z" glyph-name="summation" horiz-adv-x="1198" unicode="∑"/><glyph d="M205 532v195h973v-195h-973z" glyph-name="minus" horiz-adv-x="1136" unicode="−"/><glyph d="M584 -225l-174 512h-246v174h389l164 -481h20l461 1505h195l-523 -1710h-286z" glyph-name="radical" horiz-adv-x="1300" unicode="√"/><glyph d="M594 379q-154 0 -246 92t-92 245.5t92 246t246 92.5q186 0 358 -215q172 215 359 215q154 0 246 -92.5t92 -246t-92.5 -245.5t-245.5 -92q-186 0 -359 215q-172 -215 -358 -215zM594 532q78 0 151.5 53.5t124.5 131.5q-51 78 -124.5 131t-151.5 53q-76 0 -125 -53 t-49 -131t49 -131.5t125 -53.5zM1311 532q76 0 125 53.5t49 131.5t-49.5 131t-124.5 53q-78 0 -152 -53t-125 -131q51 -78 125 -131.5t152 -53.5z" glyph-name="infinity" horiz-adv-x="1617" unicode="∞"/><glyph d="M215 -225v174h31q113 0 148.5 50t35.5 185v1065q0 221 83 315.5t275 94.5h41v-174h-30q-113 0 -149 -50.5t-36 -185.5v-1065q0 -221 -82.5 -315t-275.5 -94h-41z" glyph-name="integral" horiz-adv-x="778" unicode="∫"/><glyph d="M236 246q0 143 77.5 235t218.5 92q98 0 215 -61t154 -61q47 0 80 34.5t33 87.5h215q0 -143 -78 -235t-219 -92q-96 0 -215 61.5t-154 61.5q-47 0 -79.5 -35t-32.5 -88h-215zM236 666q0 143 77.5 235t218.5 92q98 0 215 -61.5t154 -61.5q47 0 80 35t33 88h215 q0 -143 -78 -235t-219 -92q-96 0 -215 61t-154 61q-47 0 -79.5 -34.5t-32.5 -87.5h-215z" glyph-name="approxequal" horiz-adv-x="1218" unicode="≈"/><glyph d="M379 143l72 164h-256v195h340l108 246h-448v194h532l72 164h194l-71 -164h256v-194h-340l-109 -246h449v-195h-533l-72 -164h-194z" glyph-name="notequal" horiz-adv-x="1126" unicode="≠"/><glyph d="M205 0v184h891v-184h-891zM1096 246l-891 379v184l891 379v-215l-656 -256l656 -256v-215z" glyph-name="lessequal" horiz-adv-x="1075" unicode="≤"/><glyph d="M236 0v184h890v-184h-890zM236 246v215l655 256l-655 256v215l890 -379v-184z" glyph-name="greaterequal" horiz-adv-x="1075" unicode="≥"/><glyph d="M563 0q-137 0 -222 83t-85 214t86 209t231 78h134v266h-134q-145 0 -231 78t-86 209t85 214t222 83t217 -79t80 -229v-133h256v133q0 150 80 229t217 79t222 -83t85 -214t-86 -209t-231 -78h-133v-266h133q145 0 231 -78t86 -209t-85 -214t-222 -83t-217 79t-80 228v133 h-256v-133q0 -150 -80 -228.5t-217 -78.5zM563.5 154q61.5 0 102.5 43t41 110v133h-132q-70 0 -112.5 -41t-42.5 -102t41 -102t102.5 -41zM860 584h256v266h-256v-266zM575 993h132v133q0 68 -41 111t-102.5 43t-102.5 -41t-41 -102.5t42.5 -102.5t112.5 -41zM1413.5 154 q61.5 0 102 41t40.5 102t-43 102t-112 41h-131v-133q0 -68 41 -110.5t102.5 -42.5zM1270 993h131q70 0 112.5 41t42.5 102.5t-40.5 102.5t-102 41t-102.5 -43t-41 -111v-133z" glyph-name="uni2318" horiz-adv-x="1669" unicode="⌘"/><glyph d="M1116 307v543h-184v164h133q51 0 51 51v61h174v-819h-174zM1167.5 -154q-366.5 0 -618.5 254t-252 616.5t252 616.5t618.5 254t618.5 -254t252 -616.5t-252 -616.5t-618.5 -254zM1167.5 -10q307.5 0 517 210t209.5 517t-209.5 517t-517 210t-517.5 -210t-210 -517 t210 -517t517.5 -210z" glyph-name="uni2460" unicode="①"/><glyph d="M901 307v154l297 287q82 82 82 143q0 35 -25.5 58.5t-77 23.5t-77 -25.5t-25.5 -66.5h-184q8 115 83 185.5t214 70.5q129 0 202.5 -68t73.5 -178q0 -119 -112 -225l-215 -205h317v-154h-553zM1167.5 -154q-366.5 0 -618.5 254t-252 616.5t252 616.5t618.5 254t618.5 -254 t252 -616.5t-252 -616.5t-618.5 -254zM1167.5 -10q307.5 0 517 210t209.5 517t-209.5 517t-517 210t-517.5 -210t-210 -517t210 -517t517.5 -210z" glyph-name="uni2461" unicode="②"/><glyph d="M1178 297q-123 0 -203 59.5t-94 165.5h184q16 -61 113 -61q53 0 82.5 27.5t29.5 74.5q0 41 -25.5 66.5t-76.5 25.5h-82v154h82q92 0 92 82t-102 82q-94 0 -113 -92h-184q8 115 82.5 185.5t214.5 70.5q127 0 206.5 -65.5t79.5 -160.5q0 -63 -33.5 -109t-78.5 -65 q123 -61 123 -184q0 -109 -76 -182.5t-221 -73.5zM1167.5 -154q-366.5 0 -618.5 254t-252 616.5t252 616.5t618.5 254t618.5 -254t252 -616.5t-252 -616.5t-618.5 -254zM1167.5 -10q307.5 0 517 210t209.5 517t-209.5 517t-517 210t-517.5 -210t-210 -517t210 -517 t517.5 -210z" glyph-name="uni2462" unicode="③"/><glyph d="M1178 307v174h-369v154l328 491h215v-491h123v-154h-123v-174h-174zM983 635h195v276h-11zM1167.5 -154q-366.5 0 -618.5 254t-252 616.5t252 616.5t618.5 254t618.5 -254t252 -616.5t-252 -616.5t-618.5 -254zM1167.5 -10q307.5 0 517 210t209.5 517t-209.5 517 t-517 210t-517.5 -210t-210 -517t210 -517t517.5 -210z" glyph-name="uni2463" unicode="④"/><glyph d="M1178 297q-121 0 -206 66.5t-102 168.5h185q18 -72 123 -71q61 0 97 33.5t36 89.5q0 66 -39 99.5t-105 33.5q-68 0 -102 -51h-174l51 460h502v-153h-359l-20 -144h10q51 31 133 31q125 0 201 -73.5t76 -200.5q0 -125 -85 -207t-222 -82zM1167.5 -154q-366.5 0 -618.5 254 t-252 616.5t252 616.5t618.5 254t618.5 -254t252 -616.5t-252 -616.5t-618.5 -254zM1167.5 -10q307.5 0 517 210t209.5 517t-209.5 517t-517 210t-517.5 -210t-210 -517t210 -517t517.5 -210z" glyph-name="uni2464" unicode="⑤"/><glyph d="M1167 297q-141 0 -224 85t-83 212q0 139 72 246l194 286h185l-181 -266q27 10 68 10q121 0 199 -80.5t78 -205.5q0 -123 -88.5 -205t-219.5 -82zM1167 461q66 0 99.5 38t33.5 95t-33.5 95t-99 38t-99.5 -38t-34 -95t32.5 -95t100.5 -38zM1167.5 -154q-366.5 0 -618.5 254 t-252 616.5t252 616.5t618.5 254t618.5 -254t252 -616.5t-252 -616.5t-618.5 -254zM1167.5 -10q307.5 0 517 210t209.5 517t-209.5 517t-517 210t-517.5 -210t-210 -517t210 -517t517.5 -210z" glyph-name="uni2465" unicode="⑥"/><glyph d="M973 307l287 666h-349v153h533v-153l-287 -666h-184zM1167.5 -154q-366.5 0 -618.5 254t-252 616.5t252 616.5t618.5 254t618.5 -254t252 -616.5t-252 -616.5t-618.5 -254zM1167.5 -10q307.5 0 517 210t209.5 517t-209.5 517t-517 210t-517.5 -210t-210 -517t210 -517 t517.5 -210z" glyph-name="uni2466" unicode="⑦"/><glyph d="M1167 297q-133 0 -215 66.5t-82 179.5q0 139 123 194q-45 23 -73.5 72t-28.5 102q0 96 74.5 161t201.5 65t202 -64.5t75 -161.5q0 -53 -29 -102t-74 -72q123 -55 123 -194q0 -113 -82 -179.5t-215 -66.5zM1167.5 451q59.5 0 91 31.5t31.5 80.5q0 41 -32.5 72t-90 31 t-90.5 -31t-33 -72q0 -49 32 -80.5t91.5 -31.5zM1167.5 809q51.5 0 77 23.5t25.5 58.5q0 41 -25.5 66.5t-77 25.5t-77 -25.5t-25.5 -66.5q0 -35 25.5 -58.5t77 -23.5zM1167.5 -154q-366.5 0 -618.5 254t-252 616.5t252 616.5t618.5 254t618.5 -254t252 -616.5t-252 -616.5 t-618.5 -254zM1167.5 -10q307.5 0 517 210t209.5 517t-209.5 517t-517 210t-517.5 -210t-210 -517t210 -517t517.5 -210z" glyph-name="uni2467" unicode="⑧"/><glyph d="M1024 307l180 266q-27 -10 -67 -10q-121 0 -199 81t-78 206q0 123 88 205t219 82q141 0 224.5 -85t83.5 -212q0 -139 -72 -246l-195 -287h-184zM1167.5 707q65.5 0 99 37.5t33.5 95t-32.5 95.5t-100.5 38q-66 0 -99.5 -38t-33.5 -95.5t34 -95t99.5 -37.5zM1167.5 -154 q-366.5 0 -618.5 254t-252 616.5t252 616.5t618.5 254t618.5 -254t252 -616.5t-252 -616.5t-618.5 -254zM1167.5 -10q307.5 0 517 210t209.5 517t-209.5 517t-517 210t-517.5 -210t-210 -517t210 -517t517.5 -210z" glyph-name="uni2468" unicode="⑨"/><glyph d="M786 307v543h-184v164h133q51 0 51 51v61h175v-819h-175zM1392.5 297q-149.5 0 -238.5 108.5t-89 311.5t89 311.5t238.5 108.5t238.5 -108.5t89 -311.5t-89 -311.5t-238.5 -108.5zM1392.5 461q65.5 0 109.5 65.5t44 190.5t-44 190.5t-109.5 65.5t-109.5 -65.5t-44 -190.5 t44 -190.5t109.5 -65.5zM1167.5 -154q-366.5 0 -618.5 254t-252 616.5t252 616.5t618.5 254t618.5 -254t252 -616.5t-252 -616.5t-618.5 -254zM1167.5 -10q307.5 0 517 210t209.5 517t-209.5 517t-517 210t-517.5 -210t-210 -517t210 -517t517.5 -210z" glyph-name="uni2469" unicode="⑩"/><glyph d="M881 307v543h-185v164h133q51 0 52 51v61h174v-819h-174zM1362 307v543h-184v164h133q51 0 51 51v61h174v-819h-174zM1167.5 -154q-366.5 0 -618.5 254t-252 616.5t252 616.5t618.5 254t618.5 -254t252 -616.5t-252 -616.5t-618.5 -254zM1167.5 -10q307.5 0 517 210 t209.5 517t-209.5 517t-517 210t-517.5 -210t-210 -517t210 -517t517.5 -210z" glyph-name="uni246A" unicode="⑪"/><glyph d="M807 307v543h-184v164h133q51 0 51 51v61h174v-819h-174zM1106 307v154l297 287q82 82 82 143q0 35 -25.5 58.5t-77 23.5t-77 -25.5t-25.5 -66.5h-184q8 115 82.5 185.5t214.5 70.5q129 0 202.5 -68t73.5 -178q0 -119 -113 -225l-215 -205h318v-154h-553zM1167.5 -154 q-366.5 0 -618.5 254t-252 616.5t252 616.5t618.5 254t618.5 -254t252 -616.5t-252 -616.5t-618.5 -254zM1167.5 -10q307.5 0 517 210t209.5 517t-209.5 517t-517 210t-517.5 -210t-210 -517t210 -517t517.5 -210z" glyph-name="uni246B" unicode="⑫"/><glyph d="M799 307v543h-185v164h134q51 0 51 51v61h174v-819h-174zM1372 297q-123 0 -202.5 59.5t-94.5 165.5h185q14 -61 112 -61q53 0 83 27.5t30 74.5q0 41 -25.5 66.5t-77.5 25.5h-82v154h82q92 0 92.5 82t-102.5 82q-94 0 -112 -92h-185q8 115 83 185.5t214 70.5 q127 0 207 -65.5t80 -160.5q0 -63 -34 -109t-79 -65q123 -61 123 -184q0 -109 -76 -182.5t-221 -73.5zM1167.5 -154q-366.5 0 -618.5 254t-252 616.5t252 616.5t618.5 254t618.5 -254t252 -616.5t-252 -616.5t-618.5 -254zM1167.5 -10q307.5 0 517 210t209.5 517t-209.5 517 t-517 210t-517.5 -210t-210 -517t210 -517t517.5 -210z" glyph-name="uni246C" unicode="⑬"/><glyph d="M799 307v543h-185v164h134q51 0 51 51v61h174v-819h-174zM1423 307v174h-368v154l327 491h215v-491h123v-154h-123v-174h-174zM1229 635h194v276h-10zM1167.5 -154q-366.5 0 -618.5 254t-252 616.5t252 616.5t618.5 254t618.5 -254t252 -616.5t-252 -616.5t-618.5 -254z M1167.5 -10q307.5 0 517 210t209.5 517t-209.5 517t-517 210t-517.5 -210t-210 -517t210 -517t517.5 -210z" glyph-name="uni246D" unicode="⑭"/><glyph d="M809 307v543h-184v164h133q51 0 51 51v61h174v-819h-174zM1393 297q-121 0 -206 66.5t-102 168.5h185q18 -72 123 -71q61 0 97 33.5t36 89.5q0 66 -39 99.5t-105 33.5q-68 0 -102 -51h-174l51 460h502v-153h-359l-20 -144h10q51 31 133 31q125 0 201 -73.5t76 -200.5 q0 -125 -85 -207t-222 -82zM1167.5 -154q-366.5 0 -618.5 254t-252 616.5t252 616.5t618.5 254t618.5 -254t252 -616.5t-252 -616.5t-618.5 -254zM1167.5 -10q307.5 0 517 210t209.5 517t-209.5 517t-517 210t-517.5 -210t-210 -517t210 -517t517.5 -210z" glyph-name="uni246E" unicode="⑮"/><glyph d="M788 307v543h-184v164h133q51 0 51 51v61h175v-819h-175zM1382 297q-141 0 -224 85t-83 212q0 139 72 246l194 286h185l-180 -266q27 10 67 10q123 0 200 -80.5t77 -205.5q0 -123 -88.5 -205t-219.5 -82zM1382 461q66 0 100 38t34 95t-34 95t-99.5 38t-99.5 -38t-34 -95 t32.5 -95t100.5 -38zM1167.5 -154q-366.5 0 -618.5 254t-252 616.5t252 616.5t618.5 254t618.5 -254t252 -616.5t-252 -616.5t-618.5 -254zM1167.5 -10q307.5 0 517 210t209.5 517t-209.5 517t-517 210t-517.5 -210t-210 -517t210 -517t517.5 -210z" glyph-name="uni246F" unicode="⑯"/><glyph d="M819 307v543h-184v164h133q51 0 51 51v61h174v-819h-174zM1178 307l286 666h-348v153h533v-153l-287 -666h-184zM1167.5 -154q-366.5 0 -618.5 254t-252 616.5t252 616.5t618.5 254t618.5 -254t252 -616.5t-252 -616.5t-618.5 -254zM1167.5 -10q307.5 0 517 210 t209.5 517t-209.5 517t-517 210t-517.5 -210t-210 -517t210 -517t517.5 -210z" glyph-name="uni2470" unicode="⑰"/><glyph d="M809 307v543h-184v164h133q51 0 51 51v61h174v-819h-174zM1382.5 297q-133.5 0 -215.5 66.5t-82 179.5q0 139 123 194q-45 23 -73.5 72t-28.5 102q0 96 74.5 161t201.5 65t202 -64.5t75 -161.5q0 -53 -28.5 -102t-74.5 -72q123 -55 123 -194q0 -113 -81.5 -179.5 t-215 -66.5zM1382.5 451q59.5 0 91 31.5t31.5 80.5q0 41 -32.5 72t-90 31t-90 -31t-32.5 -72q0 -49 31.5 -80.5t91 -31.5zM1382.5 809q51.5 0 77 23.5t25.5 58.5q0 41 -25.5 66.5t-77 25.5t-77 -25.5t-25.5 -66.5q0 -35 25.5 -58.5t77 -23.5zM1167.5 -154 q-366.5 0 -618.5 254t-252 616.5t252 616.5t618.5 254t618.5 -254t252 -616.5t-252 -616.5t-618.5 -254zM1167.5 -10q307.5 0 517 210t209.5 517t-209.5 517t-517 210t-517.5 -210t-210 -517t210 -517t517.5 -210z" glyph-name="uni2471" unicode="⑱"/><glyph d="M809 307v543h-184v164h133q51 0 51 51v61h174v-819h-174zM1237 307l180 266q-27 -10 -67 -10q-121 0 -199 81t-78 206q0 123 88 205t219 82q141 0 224.5 -85t83.5 -212q0 -139 -72 -246l-195 -287h-184zM1380.5 707q65.5 0 99 37.5t33.5 95t-32.5 95.5t-100.5 38 q-66 0 -99.5 -38t-33.5 -95.5t34 -95t99.5 -37.5zM1167.5 -154q-366.5 0 -618.5 254t-252 616.5t252 616.5t618.5 254t618.5 -254t252 -616.5t-252 -616.5t-618.5 -254zM1167.5 -10q307.5 0 517 210t209.5 517t-209.5 517t-517 210t-517.5 -210t-210 -517t210 -517 t517.5 -210z" glyph-name="uni2472" unicode="⑲"/><glyph d="M573 307v154l297 287q82 82 82 143q0 35 -25.5 58.5t-76.5 23.5t-76.5 -25.5t-25.5 -66.5h-185q8 115 83 185.5t214 70.5q129 0 203 -68t74 -178q0 -119 -113 -225l-215 -205h317v-154h-553zM1484.5 297q-149.5 0 -238.5 108.5t-89 311.5t89 311.5t238.5 108.5 t238.5 -108.5t89 -311.5t-89 -311.5t-238.5 -108.5zM1484.5 461q65.5 0 109.5 65.5t44 190.5t-44 190.5t-109.5 65.5t-109.5 -65.5t-44 -190.5t44 -190.5t109.5 -65.5zM1167.5 -154q-366.5 0 -618.5 254t-252 616.5t252 616.5t618.5 254t618.5 -254t252 -616.5t-252 -616.5 t-618.5 -254zM1167.5 -10q307.5 0 517 210t209.5 517t-209.5 517t-517 210t-517.5 -210t-210 -517t210 -517t517.5 -210z" glyph-name="uni2473" unicode="⑳"/><glyph d="M1167.5 297q-149.5 0 -238.5 108.5t-89 311.5t89 311.5t238.5 108.5t238.5 -108.5t89 -311.5t-89 -311.5t-238.5 -108.5zM1167.5 461q65.5 0 109.5 65.5t44 190.5t-44 190.5t-109.5 65.5t-109.5 -65.5t-44 -190.5t44 -190.5t109.5 -65.5zM1167.5 -154 q-366.5 0 -618.5 254t-252 616.5t252 616.5t618.5 254t618.5 -254t252 -616.5t-252 -616.5t-618.5 -254zM1167.5 -10q307.5 0 517 210t209.5 517t-209.5 517t-517 210t-517.5 -210t-210 -517t210 -517t517.5 -210z" glyph-name="uni24EA" unicode="⓪"/><glyph d="M1167.5 -154q-366.5 0 -618.5 254t-252 616.5t252 616.5t618.5 254t618.5 -254t252 -616.5t-252 -616.5t-618.5 -254zM881 307h174v819h-174v-61q0 -51 -52 -51h-133v-164h185v-543zM1362 307h174v819h-174v-61q0 -51 -51 -51h-133v-164h184v-543z" glyph-name="uni24EB" unicode="⓫"/><glyph d="M1167.5 -154q-366.5 0 -618.5 254t-252 616.5t252 616.5t618.5 254t618.5 -254t252 -616.5t-252 -616.5t-618.5 -254zM807 307h174v819h-174v-61q0 -51 -51 -51h-133v-164h184v-543zM1106 307h553v154h-318l215 205q113 106 113 225q0 111 -73.5 178.5t-202.5 67.5 q-139 0 -214 -71t-83 -185h184q0 41 25.5 66.5t77 25.5t77 -23.5t25.5 -58.5q0 -61 -82 -143l-297 -287v-154z" glyph-name="uni24EC" unicode="⓬"/><glyph d="M1167.5 -154q-366.5 0 -618.5 254t-252 616.5t252 616.5t618.5 254t618.5 -254t252 -616.5t-252 -616.5t-618.5 -254zM799 307h174v819h-174v-61q0 -51 -51 -51h-134v-164h185v-543zM1372 297q145 0 221 73.5t76 182.5q0 123 -123 184q45 18 79 64.5t34 109.5 q0 94 -80 160t-207 66q-139 0 -214 -71t-83 -185h185q18 92 112 92q102 0 102.5 -82t-92.5 -82h-82v-154h82q51 0 77 -25.5t26 -66.5q0 -47 -30 -74.5t-83 -27.5q-98 0 -112 61h-185q14 -106 94 -165.5t203 -59.5z" glyph-name="uni24ED" unicode="⓭"/><glyph d="M1167.5 -154q-366.5 0 -618.5 254t-252 616.5t252 616.5t618.5 254t618.5 -254t252 -616.5t-252 -616.5t-618.5 -254zM799 307h174v819h-174v-61q0 -51 -51 -51h-134v-164h185v-543zM1423 307h174v174h123v154h-123v491h-215l-327 -491v-154h368v-174zM1229 635l184 276 h10v-276h-194z" glyph-name="uni24EE" unicode="⓮"/><glyph d="M1167.5 -154q-366.5 0 -618.5 254t-252 616.5t252 616.5t618.5 254t618.5 -254t252 -616.5t-252 -616.5t-618.5 -254zM788 307h175v819h-175v-61q0 -51 -51 -51h-133v-164h184v-543zM1372 297q137 0 222 82t85 207q0 127 -75.5 200.5t-200.5 73.5q-37 0 -70 -8t-47 -16 l-16 -7h-10l20 144h358v153h-501l-52 -460h175q35 51 102 51q66 0 104.5 -34t38.5 -99q0 -55 -35.5 -89t-97.5 -34q-104 0 -123 71h-184q16 -102 101 -168.5t206 -66.5z" glyph-name="uni24EF" unicode="⓯"/><glyph d="M1167.5 -154q-366.5 0 -618.5 254t-252 616.5t252 616.5t618.5 254t618.5 -254t252 -616.5t-252 -616.5t-618.5 -254zM788 307h175v819h-175v-61q0 -51 -51 -51h-133v-164h184v-543zM1382 297q131 0 219.5 82t88.5 205t-88.5 204.5t-219.5 81.5h-30l174 256h-185 l-194 -286q-72 -106 -72 -246q0 -127 83 -212t224 -85zM1382 461q-68 0 -100.5 38t-32.5 95t34 95t99.5 38t99.5 -38t34 -95t-34 -95t-100 -38z" glyph-name="uni24F0" unicode="⓰"/><glyph d="M1167.5 -154q-366.5 0 -618.5 254t-252 616.5t252 616.5t618.5 254t618.5 -254t252 -616.5t-252 -616.5t-618.5 -254zM819 307h174v819h-174v-61q0 -51 -51 -51h-133v-164h184v-543zM1178 307h184l287 666v153h-533v-153h348z" glyph-name="uni24F1" unicode="⓱"/><glyph d="M1167.5 -154q-366.5 0 -618.5 254t-252 616.5t252 616.5t618.5 254t618.5 -254t252 -616.5t-252 -616.5t-618.5 -254zM809 307h174v819h-174v-61q0 -51 -51 -51h-133v-164h184v-543zM1382.5 297q133.5 0 215 66.5t81.5 179.5q0 139 -123 194q45 23 74 72t29 102 q0 96 -75 161t-202 65t-201.5 -64.5t-74.5 -161.5q0 -53 28.5 -102t73.5 -72q-123 -55 -123 -194q0 -113 82 -179.5t215.5 -66.5zM1382.5 451q-59.5 0 -91 31.5t-31.5 80.5q0 41 32.5 72t90 31t90 -31t32.5 -72q0 -49 -31.5 -80.5t-91 -31.5zM1382.5 809q-51.5 0 -77 23.5 t-25.5 58.5q0 41 25.5 66.5t77 25.5t77 -25.5t25.5 -66.5q0 -35 -25.5 -58.5t-77 -23.5z" glyph-name="uni24F2" unicode="⓲"/><glyph d="M1167.5 -154q-366.5 0 -618.5 254t-252 616.5t252 616.5t618.5 254t618.5 -254t252 -616.5t-252 -616.5t-618.5 -254zM809 307h174v819h-174v-61q0 -51 -51 -51h-133v-164h184v-543zM1237 307h184l195 287q72 109 72 246q0 127 -83 212t-225 85q-131 0 -219 -82t-88 -205 t88 -205t219 -82h31zM1380.5 707q-65.5 0 -99.5 37.5t-34 95t34 95.5t99 38q68 0 100.5 -38t32.5 -95.5t-33.5 -95t-99 -37.5z" glyph-name="uni24F3" unicode="⓳"/><glyph d="M1167.5 -154q-366.5 0 -618.5 254t-252 616.5t252 616.5t618.5 254t618.5 -254t252 -616.5t-252 -616.5t-618.5 -254zM573 307h553v154h-317l215 205q113 106 113 225q0 111 -74 178.5t-203 67.5q-139 0 -214 -71t-83 -185h185q0 41 25.5 66.5t76.5 25.5t76.5 -23.5 t25.5 -58.5q0 -61 -82 -143l-297 -287v-154zM1484.5 297q149.5 0 238.5 108.5t89 311.5t-89 311.5t-238.5 108.5t-238.5 -108.5t-89 -311.5t89 -311.5t238.5 -108.5zM1484.5 461q-65.5 0 -109.5 65.5t-44 190.5t44 190.5t109.5 65.5t109.5 -65.5t44 -190.5t-44 -190.5 t-109.5 -65.5z" glyph-name="uni24F4" unicode="⓴"/><glyph d="M1167.5 -154q-366.5 0 -618.5 254t-252 616.5t252 616.5t618.5 254t618.5 -254t252 -616.5t-252 -616.5t-618.5 -254zM1167.5 297q149.5 0 238.5 108.5t89 311.5t-89 311.5t-238.5 108.5t-238.5 -108.5t-89 -311.5t89 -311.5t238.5 -108.5zM1167.5 461 q-65.5 0 -109.5 65.5t-44 190.5t44 190.5t109.5 65.5t109.5 -65.5t44 -190.5t-44 -190.5t-109.5 -65.5z" glyph-name="uni24FF" unicode="⓿"/><glyph d="M670 0l-465 717l465 717h143l467 -717l-467 -717h-143zM741 195l334 522l-334 522l-331 -522z" glyph-name="lozenge" horiz-adv-x="1218" unicode="◊"/><glyph d="M1167.5 -154q-366.5 0 -618.5 254t-252 616.5t252 616.5t618.5 254t618.5 -254t252 -616.5t-252 -616.5t-618.5 -254zM1116 307h174v819h-174v-61q0 -51 -51 -51h-133v-164h184v-543z" glyph-name="uni2776" unicode="❶"/><glyph d="M1167.5 -154q-366.5 0 -618.5 254t-252 616.5t252 616.5t618.5 254t618.5 -254t252 -616.5t-252 -616.5t-618.5 -254zM901 307h553v154h-317l215 205q113 106 112 225q0 111 -73.5 178.5t-202.5 67.5q-139 0 -214 -71t-83 -185h184q0 41 25.5 66.5t77 25.5t77 -23.5 t25.5 -58.5q0 -61 -82 -143l-297 -287v-154z" glyph-name="uni2777" unicode="❷"/><glyph d="M1167.5 -154q-366.5 0 -618.5 254t-252 616.5t252 616.5t618.5 254t618.5 -254t252 -616.5t-252 -616.5t-618.5 -254zM1178 297q145 0 221 73.5t76 182.5q0 123 -123 184q45 18 78.5 64.5t33.5 109.5q0 94 -79.5 160t-206.5 66q-139 0 -214 -71t-83 -185h184 q18 92 113 92q102 0 102 -82t-92 -82h-82v-154h82q51 0 76.5 -25.5t25.5 -66.5q0 -47 -29.5 -74.5t-82.5 -27.5q-96 0 -113 61h-184q14 -106 94 -165.5t203 -59.5z" glyph-name="uni2778" unicode="❸"/><glyph d="M1167.5 -154q-366.5 0 -618.5 254t-252 616.5t252 616.5t618.5 254t618.5 -254t252 -616.5t-252 -616.5t-618.5 -254zM1178 307h174v174h123v154h-123v491h-215l-328 -491v-154h369v-174zM983 635l184 276h11v-276h-195z" glyph-name="uni2779" unicode="❹"/><glyph d="M1167.5 -154q-366.5 0 -618.5 254t-252 616.5t252 616.5t618.5 254t618.5 -254t252 -616.5t-252 -616.5t-618.5 -254zM1178 297q137 0 222 82t85 207q0 127 -76 200.5t-201 73.5q-37 0 -69.5 -8t-48.5 -16l-15 -7h-10l20 144h359v153h-502l-51 -460h174q35 51 102 51 q66 0 105 -34t39 -99q0 -55 -36 -89t-97 -34q-104 0 -123 71h-185q16 -102 101.5 -168.5t206.5 -66.5z" glyph-name="uni277A" unicode="❺"/><glyph d="M1167.5 -154q-366.5 0 -618.5 254t-252 616.5t252 616.5t618.5 254t618.5 -254t252 -616.5t-252 -616.5t-618.5 -254zM1167 297q131 0 219.5 82t88.5 205q0 125 -78 205.5t-199 80.5l-68 -10l181 266h-185l-194 -286q-72 -106 -72 -246q0 -127 83 -212t224 -85zM1167 461 q-68 0 -100.5 38t-32.5 95t34 95t99.5 38t99 -38t33.5 -95t-33.5 -95t-99.5 -38z" glyph-name="uni277B" unicode="❻"/><glyph d="M1167.5 -154q-366.5 0 -618.5 254t-252 616.5t252 616.5t618.5 254t618.5 -254t252 -616.5t-252 -616.5t-618.5 -254zM973 307h184l287 666v153h-533v-153h349z" glyph-name="uni277C" unicode="❼"/><glyph d="M1167.5 -154q-366.5 0 -618.5 254t-252 616.5t252 616.5t618.5 254t618.5 -254t252 -616.5t-252 -616.5t-618.5 -254zM1167 297q133 0 215 66.5t82 179.5q0 139 -123 194q45 23 74 72t29 102q0 96 -75 161t-202 65t-201.5 -64.5t-74.5 -161.5q0 -53 28.5 -102t73.5 -72 q-123 -55 -123 -194q0 -113 82 -179.5t215 -66.5zM1167.5 451q-59.5 0 -91.5 31.5t-32 80.5q0 41 33 72t90.5 31t90 -31t32.5 -72q0 -49 -31.5 -80.5t-91 -31.5zM1167.5 809q-51.5 0 -77 23.5t-25.5 58.5q0 41 25.5 66.5t77 25.5t77 -25.5t25.5 -66.5q0 -35 -25.5 -58.5 t-77 -23.5z" glyph-name="uni277D" unicode="❽"/><glyph d="M1167.5 -154q-366.5 0 -618.5 254t-252 616.5t252 616.5t618.5 254t618.5 -254t252 -616.5t-252 -616.5t-618.5 -254zM1024 307h184l195 287q72 106 72 246q0 127 -83 212t-225 85q-131 0 -219 -82t-88 -205q0 -125 78 -206t199 -81l67 10zM1167.5 707 q-65.5 0 -99.5 37.5t-34 95t34 95.5t99 38q68 0 100.5 -38t32.5 -95.5t-33.5 -95t-99 -37.5z" glyph-name="uni277E" unicode="❾"/><glyph d="M1167.5 -154q-366.5 0 -618.5 254t-252 616.5t252 616.5t618.5 254t618.5 -254t252 -616.5t-252 -616.5t-618.5 -254zM786 307h175v819h-175v-61q0 -51 -51 -51h-133v-164h184v-543zM1392.5 297q149.5 0 238.5 108.5t89 311.5t-89 311.5t-238.5 108.5t-238.5 -108.5 t-89 -311.5t89 -311.5t238.5 -108.5zM1392.5 461q-65.5 0 -109.5 65.5t-44 190.5t44 190.5t109.5 65.5t109.5 -65.5t44 -190.5t-44 -190.5t-109.5 -65.5z" glyph-name="uni277F" unicode="❿"/><glyph d="M1208 41v174h348l-890 891v-348h-174v614l20 21h614v-174h-348l891 -891v348h174v-615l-20 -20h-615z" glyph-name="uni2921" unicode="⤡"/><glyph d="M512 41l-20 20v615h174v-348l890 891h-348v174h615l20 -21v-614h-174v348l-891 -891h348v-174h-614z" glyph-name="uni2922" unicode="⤢"/><glyph d="M1188 0l-440 440v11l440 440l112 -113l-245 -246h522q51 0 76.5 26t25.5 67v542q0 41 -25.5 67t-76.5 26h-1096v174h1096q123 0 199.5 -75t76.5 -192v-544q0 -115 -76.5 -190t-199.5 -75h-522l245 -245z" glyph-name="uniE000" unicode=""/><glyph d="M758 0q-123 0 -200 75t-77 191v545q0 115 77 189.5t200 74.5h522l-246 246l113 113l440 -441v-10l-440 -440l-113 112l246 246h-522q-51 0 -77 -25.5t-26 -66.5v-543q0 -41 26 -66.5t77 -25.5h1095v-174h-1095z" glyph-name="uniE001" unicode=""/><glyph d="M1382 205l-600 518v8l600 518l103 -112l-467 -406v-8l467 -406z" glyph-name="uniE002" unicode=""/><glyph d="M758 410l-113 102l518 600h8l519 -600l-113 -102l-406 467h-8z" glyph-name="uniE003" unicode=""/><glyph d="M952 205l-102 112l467 406v8l-467 406l102 112l600 -518v-8z" glyph-name="uniE004" unicode=""/><glyph d="M1163 352l-518 600l113 103l405 -467h8l406 467l113 -103l-519 -600h-8z" glyph-name="uniE005" unicode=""/><glyph d="M1174 205l-601 518v8l601 518l102 -112l-467 -406v-8l467 -406zM1567 205l-600 518v8l600 518l102 -112l-467 -406v-8l467 -406z" glyph-name="uniE006" unicode=""/><glyph d="M758 215l-113 102l518 601h8l519 -601l-113 -102l-406 467h-8zM758 604l-113 103l518 600h8l519 -600l-113 -103l-406 467h-8z" glyph-name="uniE007" unicode=""/><glyph d="M768 205l-102 112l467 406v8l-467 406l102 112l600 -518v-8zM1161 205l-102 112l467 406v8l-467 406l102 112l600 -518v-8z" glyph-name="uniE008" unicode=""/><glyph d="M1163 143l-518 600l113 103l405 -467h8l406 467l113 -103l-519 -600h-8zM1163 532l-518 601l113 102l405 -467h8l406 467l113 -102l-519 -601h-8z" glyph-name="uniE009" unicode=""/><glyph d="M1167.5 -20q-315.5 0 -526.5 210.5t-211 526t211 526.5t526.5 211t526.5 -211t211 -526.5t-211 -526t-526.5 -210.5zM1167.5 154q237.5 0 400.5 162.5t163 400t-163 400.5t-400.5 163t-400.5 -163t-163 -400.5t163 -400t400.5 -162.5zM1290 328l-446 385v8l446 385 l103 -113l-314 -272v-8l314 -273z" glyph-name="uniE00A" unicode=""/><glyph d="M1167.5 -20q-315.5 0 -526.5 210.5t-211 526t211 526.5t526.5 211t526.5 -211t211 -526.5t-211 -526t-526.5 -210.5zM1167.5 154q237.5 0 400.5 162.5t163 400t-163 400.5t-400.5 163t-400.5 -163t-163 -400.5t163 -400t400.5 -162.5zM891 471l-113 102l385 447h8 l385 -447l-112 -102l-273 313h-8z" glyph-name="uniE00B" unicode=""/><glyph d="M1167.5 -20q-315.5 0 -526.5 210.5t-211 526t211 526.5t526.5 211t526.5 -211t211 -526.5t-211 -526t-526.5 -210.5zM1167.5 154q237.5 0 400.5 162.5t163 400t-163 400.5t-400.5 163t-400.5 -163t-163 -400.5t163 -400t400.5 -162.5zM1044 328l-102 112l313 273v8 l-313 272l102 113l447 -385v-8z" glyph-name="uniE00C" unicode=""/><glyph d="M1167.5 -20q-315.5 0 -526.5 210.5t-211 526t211 526.5t526.5 211t526.5 -211t211 -526.5t-211 -526t-526.5 -210.5zM1167.5 154q237.5 0 400.5 162.5t163 400t-163 400.5t-400.5 163t-400.5 -163t-163 -400.5t163 -400t400.5 -162.5zM1163 399l-385 447l113 102 l272 -313h8l273 313l112 -102l-385 -447h-8z" glyph-name="uniE00D" unicode=""/><glyph d="M1167 0l-307 307l113 113l112 -113v246h175v-246l112 113l113 -113l-307 -307h-11zM481 635v174h1372v-174h-1372zM1085 881v245l-112 -112l-113 112l307 308h11l307 -308l-113 -112l-112 112v-245h-175z" glyph-name="uniE00E" unicode=""/><glyph d="M758 410l-307 307v10l307 307l112 -112l-112 -113h215v-174h-215l112 -113zM1085 0v1434h175v-1434h-175zM1577 410l-113 112l113 113h-205v174h205l-113 113l113 112l307 -307v-10z" glyph-name="uniE00F" unicode=""/><glyph d="M1167 0l-307 307l113 113l194 -195h11l194 195l113 -113l-307 -307h-11zM481 635v174h1372v-174h-1372zM973 1014l-113 112l307 308h11l307 -308l-113 -112l-194 194h-11z" glyph-name="uniE010" unicode=""/><glyph d="M758 410l-307 307v10l307 307l112 -112l-194 -195v-10l194 -195zM1085 0v1434h175v-1434h-175zM1577 410l-113 112l195 195v10l-195 195l113 112l307 -307v-10z" glyph-name="uniE011" unicode=""/><glyph d="M471 0l-20 20v492h174v-225l430 430l-430 430v-225h-174v491l20 21h492v-174h-226l430 -431l430 431h-225v174h492l20 -21v-491h-174v225l-430 -430l430 -430v225h174v-492l-20 -20h-492v174h225l-430 430l-430 -430h226v-174h-492z" glyph-name="uniE012" unicode=""/><glyph d="M1167 0l-307 307l113 113l112 -113v328h-327l112 -113l-112 -112l-307 307v10l307 307l112 -112l-112 -113h327v317l-112 -112l-113 112l307 308h11l307 -308l-113 -112l-112 112v-317h317l-113 113l113 112l307 -307v-10l-307 -307l-113 112l113 113h-317v-328l112 113 l113 -113l-307 -307h-11z" glyph-name="uniE013" unicode=""/><glyph d="M784 399q-37 0 -62.5 26t-25.5 60q0 37 26 62.5t62 25.5h281v-174h-281zM682 625q-37 0 -62.5 25.5t-25.5 60.5q0 37 25.5 62.5t62.5 25.5h383v-174h-383zM498 850q-37 0 -62.5 25.5t-25.5 60.5q0 37 25.5 62.5t62.5 25.5h567v-174h-567zM893 174q-37 0 -62.5 25.5 t-25.5 60.5q0 37 25.5 62.5t62.5 25.5h786v563h-194l-225 164h-414q-37 0 -62.5 25.5t-25.5 60.5q0 37 25.5 62.5t62.5 25.5h495l226 -164h286v-911h-960z" glyph-name="uniE014" unicode=""/><glyph d="M625 0v952q0 37 25.5 62.5t60.5 25.5q37 0 62.5 -25.5t25.5 -62.5v-778h573v195l164 225v403q0 37 25.5 62.5t60.5 25.5q37 0 62.5 -25.5t25.5 -62.5v-485l-164 -225v-287h-921zM850 778v281q0 37 25.5 62.5t60.5 25.5q37 0 62.5 -25.5t25.5 -62.5v-281h-174zM1075 778 v383q0 37 25.5 62.5t60.5 25.5q37 0 62.5 -25.5t25.5 -62.5v-383h-174zM1300 778v568q0 37 26 62.5t60 25.5q37 0 63 -26t26 -62v-568h-175z" glyph-name="uniE015" unicode=""/><glyph d="M481 174v911h287l225 164h496q37 0 62.5 -25.5t25.5 -62.5q0 -35 -25.5 -60.5t-62.5 -25.5h-414l-225 -164h-195v-563h787q37 0 62.5 -25.5t25.5 -62.5q0 -35 -25.5 -60.5t-62.5 -25.5h-961zM1270 399v174h280q37 0 62.5 -25.5t25.5 -62.5q0 -35 -25.5 -60.5t-62.5 -25.5 h-280zM1270 625v174h383q37 0 62.5 -25.5t25.5 -62.5q0 -35 -25.5 -60.5t-62.5 -25.5h-383zM1270 850v174h567q37 0 62.5 -25.5t25.5 -62.5q0 -35 -25.5 -60.5t-62.5 -25.5h-567z" glyph-name="uniE016" unicode=""/><glyph d="M948 0q-37 0 -62.5 25.5t-25.5 62.5v567h174v-567q0 -37 -25.5 -62.5t-60.5 -25.5zM1174 184q-37 0 -63 26t-26 62v383h175v-383q0 -37 -25.5 -62.5t-60.5 -25.5zM713 348q-37 0 -62.5 25.5t-25.5 62.5v486l163 225v287h922v-953q0 -37 -25.5 -62.5t-60.5 -25.5 q-37 0 -62.5 25.5t-25.5 62.5v779h-573v-195l-164 -225v-404q0 -37 -25.5 -62.5t-60.5 -25.5zM1399 287q-37 0 -62.5 25.5t-25.5 62.5v280h174v-280q0 -37 -25.5 -62.5t-60.5 -25.5z" glyph-name="uniE017" unicode=""/><glyph d="M1075 0q0 51 -25.5 76.5t-66.5 25.5h-481v1332h481q121 0 164 -72h31q43 72 163 72h492v-1332h-492q-41 0 -66.5 -25.5t-25.5 -76.5h-174zM1065 266h10v891q0 51 -25.5 77t-66.5 26h-307v-984h307zM1249 266h11q31 10 81 10h318v984h-318q-41 0 -66.5 -26t-25.5 -77v-891 z" glyph-name="uniE018" unicode=""/><glyph d="M1167.5 -20q-315.5 0 -526.5 210.5t-211 526t211 526.5t526.5 211t526.5 -211t211 -526.5t-211 -526t-526.5 -210.5zM1167.5 154q237.5 0 400.5 162.5t163 400t-163 400.5t-400.5 163t-400.5 -163t-163 -400.5t163 -400t400.5 -162.5zM1075 287v348h-338v174h338v338h174 v-338h348v-174h-348v-348h-174z" glyph-name="uniE019" unicode=""/><glyph d="M717 143l-113 113l461 461l-461 461l113 112l461 -461l460 461l113 -112l-461 -461l461 -461l-113 -113l-460 461z" glyph-name="uniE01A" unicode=""/><glyph d="M1167.5 -20q-315.5 0 -526.5 210.5t-211 526t211 526.5t526.5 211t526.5 -211t211 -526.5t-211 -526t-526.5 -210.5zM715 377l790 790q-152 113 -338 113q-238 0 -400.5 -163t-162.5 -400q0 -190 111 -340zM1167 154q238 0 401 162.5t163 400.5q0 186 -113 338l-791 -791 q150 -110 340 -110z" glyph-name="uniE01B" unicode=""/><glyph d="M748 410l-308 307l113 112l113 -112v452q0 115 76.5 190t199.5 75h645v-174h-645q-51 0 -76.5 -26t-25.5 -67v-450l112 112l113 -112l-307 -307h-10zM748 0v174h645q51 0 76.5 25.5t25.5 66.5v451l-113 -113l-112 113l307 307h10l307 -307l-112 -113l-113 113v-453 q0 -115 -76.5 -189.5t-199.5 -74.5h-645z" glyph-name="uniE01C" unicode=""/><glyph d="M1628 0q-84 0 -143 61l-387 388q-66 -18 -135 -19q-207 0 -354.5 147.5t-147.5 354.5t147.5 354.5t354 147.5t354 -147.5t147.5 -354.5q0 -76 -26 -160l381 -377q61 -63 61 -143q0 -84 -61 -146l-45 -45q-62 -61 -146 -61zM962.5 604q137.5 0 232.5 95.5t95 232.5 t-95 232.5t-232.5 95.5t-232.5 -95.5t-95 -232.5t95 -232.5t232.5 -95.5zM727 932q0 100 67.5 167.5t168.5 67.5v-174q-23 0 -42.5 -19.5t-19.5 -41.5h-174zM1636.5 174q18.5 0 28.5 10l37 37q12 12 12 28.5t-12 29.5l-344 344q-45 -55 -96 -93l346 -346q10 -10 28.5 -10z " glyph-name="uniE01D" unicode=""/><glyph d="M768 0q-111 0 -188.5 78t-77.5 188.5t77.5 188t188.5 77.5q92 0 166 -57l369 197q-2 14 -3 35l5 47l-377 200q-70 -53 -160 -53q-111 0 -188.5 78t-77.5 188.5t77.5 188.5t188.5 78t188.5 -78t77.5 -189q0 -31 -6 -55l371 -199q72 59 168 60q111 0 188.5 -78t77.5 -188.5 t-78 -188.5t-188 -78q-104 0 -178 68l-359 -193q4 -33 4 -49q0 -111 -77.5 -188.5t-188.5 -77.5zM768 174q39 0 65.5 26.5t26.5 65.5t-26.5 65.5t-65.5 26.5t-65.5 -26.5t-26.5 -65.5t26.5 -65.5t65.5 -26.5zM768 1075q39 0 65.5 26.5t26.5 65.5t-26.5 66t-65.5 27 t-65.5 -27t-26.5 -66t26.5 -65.5t65.5 -26.5zM1567 614q39 0 65.5 27t26.5 65.5t-26.5 65.5t-65.5 27t-65.5 -27t-26.5 -65.5t26.5 -65.5t65.5 -27z" glyph-name="uniE01E" unicode=""/><glyph d="M1167 -20q-170 0 -315 66.5t-248 184.5v-231h-174v512h512v-174h-194q168 -184 419 -184q238 0 401 162.5t163 400.5h174q0 -315 -211.5 -526t-526.5 -211zM430 717q0 315 211 526t526 211q170 0 315.5 -66.5t248.5 -185.5v232h174v-512h-512v174h194q-168 184 -420 184 q-238 0 -400.5 -163t-162.5 -400h-174z" glyph-name="uniE01F" unicode=""/><glyph d="M1167.5 -20q-315.5 0 -526.5 210.5t-211 526.5q0 348 252 563h-231v174h512v-512h-175v195q-184 -164 -184 -420q0 -238 163 -400.5t400.5 -162.5t400.5 162.5t163 400t-163 400.5t-401 163v174q315 0 526.5 -211t211.5 -526.5t-211 -526t-526.5 -210.5z" glyph-name="uniE020" unicode=""/><glyph d="M1167 -20q-170 0 -315 66.5t-248 184.5v-231h-174v512h512v-174h-194q168 -184 419 -184q188 0 338 110l-790 791q-111 -150 -111 -338h-174q0 270 158 467l-137 137l112 113l137 -138q201 158 467 158q170 0 315.5 -66.5t248.5 -185.5v232h174v-512h-512v174h194 q-168 184 -420 184q-188 0 -340 -113l791 -790q113 152 113 340h174q0 -266 -158 -467l137 -137l-112 -113l-138 137q-197 -157 -467 -157z" glyph-name="uniE021" unicode=""/><glyph d="M1075 0v328l-112 -113l-113 113l307 307h10l308 -307l-113 -113l-113 113v-328h-174zM666 0q-123 0 -200 75t-77 191v328q0 117 77 191.5t200 74.5h20v21q0 117 77 191.5t200 74.5h20v20q0 117 77 192t200 75h92q123 0 199.5 -75t76.5 -192v-163h31q123 0 199.5 -75 t76.5 -192v-471q0 -117 -76.5 -191.5t-199.5 -74.5h-143v174h143q51 0 76.5 25.5t25.5 66.5v471q0 41 -25.5 66.5t-76.5 25.5h-205v338q0 41 -25.5 67t-76.5 26h-92q-51 0 -77 -26t-26 -67v-194h-194q-51 0 -77 -25.5t-26 -66.5v-195h-194q-51 0 -77 -25.5t-26 -66.5v-328 q0 -41 25.5 -66.5t77.5 -25.5h143v-174h-143z" glyph-name="uniE022" unicode=""/><glyph d="M1157 0l-307 307l113 113l112 -113v328h174v-328l113 113l113 -113l-308 -307h-10zM666 0q-123 0 -200 75t-77 191v328q0 117 77 191.5t200 74.5h20v21q0 117 77 191.5t200 74.5h20v20q0 117 77 192t200 75h92q123 0 199.5 -75t76.5 -192v-163h31q123 0 199.5 -75 t76.5 -192v-471q0 -117 -76.5 -191.5t-199.5 -74.5h-143v174h143q51 0 76.5 25.5t25.5 66.5v471q0 41 -25.5 66.5t-76.5 25.5h-205v338q0 41 -25.5 67t-76.5 26h-92q-51 0 -77 -26t-26 -67v-194h-194q-51 0 -77 -25.5t-26 -66.5v-195h-194q-51 0 -77 -25.5t-26 -66.5v-328 q0 -41 25.5 -66.5t77.5 -25.5h143v-174h-143z" glyph-name="uniE023" unicode=""/><glyph d="M625 0v1434h1085v-1434h-287l-245 422h-21l-246 -422h-286zM799 184h10l246 420h225l246 -420h10v1076h-737v-1076z" glyph-name="uniE024" unicode=""/><glyph d="M440 0v358l1076 1076l368 -369l-1065 -1065h-379zM702 109l752 751l-143 144l-756 -756zM1567 973l92 92l-143 143l-93 -92z" glyph-name="uniE025" unicode=""/><glyph d="M850 0q-123 0 -200 75t-77 191v686h-92v174h328v308h717v-308h327v-174h-92v-686q0 -117 -76.5 -191.5t-199.5 -74.5h-635zM850 174h635q51 0 76.5 25.5t25.5 66.5v686h-143v-665h-174v665h-205v-665h-174v665h-143v-686q0 -41 25.5 -66.5t76.5 -25.5zM983 1126h369v134 h-369v-134z" glyph-name="uniE026" unicode=""/></font>
</defs>
</svg>
